 0 
SECTION
 2 
HEADER
 9 
$ACADVER
 1 
AC1004
 9 
$EXTMIN
 10 
0.0
 20 
0.0
 9 
$EXTMAX
 10 
3.8
 20 
2.5
 9 
$LIMMIN
 10 
0.0
 20 
0.0
 9 
$LIMMAX
 10 
3.8
 20 
2.5
 9 
$INSBASE
 10 
0.0
 20 
0.0
 9 
$VIEWCTR
 10 
1.9
 20 
1.25
 9 
$VIEWSIZE
 40 
2.5
 9 
$ORTHOMODE
 70 
 0 
 9 
$REGENMODE
 70 
 1 
 9 
$FILLMODE
 70 
 1 
 9 
$QTEXTMODE
 70 
 0 
 9 
$DRAGMODE
 70 
 2 
 9 
$LTSCALE
 40 
1.0
 9 
$OSMODE
 70 
 0 
 9 
$ATTMODE
 70 
 1 
 9 
$TEXTSIZE
 40 
0.2
 9 
$TRACEWID
 40 
0.05
 9 
$TEXTSTYLE
 7 
STANDARD
 9 
$CLAYER
 8 
0
 9 
$CELTYPE
 6 
BYLAYER
 9 
$CECOLOR
 62 
 256 
 9 
$DIMSCALE
 40 
1.0
 9 
$DIMLFAC
 40 
1.0
 9 
$LUNITS
 70 
 2 
 9 
$LUPREC
 70 
 4 
 9 
$AXISMODE
 70 
 0 
 9 
$AXISUNIT
 10 
0.0
 20 
0.0
 9 
$SKETCHINC
 40 
0.1
 9 
$MENU
 1 
acad
 9 
$ELEVATION
 40 
0.0
 9 
$THICKNESS
 40 
0.0
 9 
$VIEWDIR
 10 
0.0
 20 
0.0
 30 
1.0
 9 
$LIMCHECK
 70 
 0 
 9 
$BLIPMODE
 70 
 1 
 9 
$FASTZOOM
 70 
 1 
 9 
$SKPOLY
 70 
 0 
 9 
$ANGBASE
 50 
0.0
 9 
$ANGDIR
 70 
 0 
 9 
$PDMODE
 70 
 0 
 9 
$PDSIZE
 40 
0.0
 9 
$PLINEWID
 40 
0.0
 9 
$COORDS
 70 
 0 
 9 
$ATTDIA
 70 
 0 
 9 
$ATTREQ
 70 
 1 
 0 
ENDSEC
 0 
SECTION
 2 
TABLES
 0 
TABLE
 2 
LTYPE
 70 
 10 
 0 
LTYPE
 2 
CONTINUOUS
 70 
 64 
 3 
Solid line
 72 
 65 
 73 
 0 
 40 
0.0
 0 
ENDTAB
 0 
TABLE
 2 
LAYER
 70 
 153 
 0 
LAYER
 2 
0
 70 
 64 
 62 
 7 
 6 
CONTINUOUS
 0 
ENDTAB
 0 
ENDSEC
 0 
SECTION
 2 
BLOCKS
 0 
ENDSEC
 0 
SECTION
 2 
ENTITIES
 0 
LINE
 8 
0
 62 
 7 
 10 
0.0
 20 
2.5
 11 
3.8
 21 
2.5
 0 
LINE
 8 
0
 62 
 7 
 10 
3.8
 20 
2.5
 11 
3.8
 21 
0.0
 0 
LINE
 8 
0
 62 
 7 
 10 
3.8
 20 
0.0
 11 
0.0
 21 
0.0
 0 
LINE
 8 
0
 62 
 7 
 10 
0.0
 20 
0.0
 11 
0.0
 21 
2.5
 0 
CIRCLE
 8 
0
 62 
 7 
 10 
3.15
 20 
0.125
 40 
0.022
 0 
CIRCLE
 8 
0
 62 
 7 
 10 
3.347
 20 
0.125
 40 
0.022
 0 
LINE
 8 
0
 62 
 7 
 10 
3.45
 20 
0.025
 11 
3.05
 21 
0.025
 0 
LINE
 8 
0
 62 
 7 
 10 
3.05
 20 
0.025
 11 
3.05
 21 
0.225
 0 
LINE
 8 
0
 62 
 7 
 10 
3.05
 20 
0.225
 11 
3.45
 21 
0.225
 0 
LINE
 8 
0
 62 
 7 
 10 
3.45
 20 
0.225
 11 
3.45
 21 
0.025
 0 
LINE
 8 
0
 62 
 7 
 10 
2.975
 20 
0.033
 11 
2.975
 21 
0.058
 0 
LINE
 8 
0
 62 
 7 
 10 
2.975
 20 
0.058
 11 
3.017
 21 
0.058
 0 
LINE
 8 
0
 62 
 7 
 10 
3.017
 20 
0.058
 11 
3.025
 21 
0.05
 0 
LINE
 8 
0
 62 
 7 
 10 
3.025
 20 
0.05
 11 
3.025
 21 
0.033
 0 
LINE
 8 
0
 62 
 7 
 10 
3.025
 20 
0.033
 11 
3.017
 21 
0.025
 0 
LINE
 8 
0
 62 
 7 
 10 
2.983
 20 
0.083
 11 
2.975
 21 
0.092
 0 
LINE
 8 
0
 62 
 7 
 10 
2.975
 20 
0.092
 11 
3.025
 21 
0.092
 0 
LINE
 8 
0
 62 
 7 
 10 
3.025
 20 
0.083
 11 
3.025
 21 
0.1
 0 
CIRCLE
 8 
0
 62 
 7 
 10 
0.15
 20 
2.35
 40 
0.075
 0 
CIRCLE
 8 
0
 62 
 7 
 10 
0.15
 20 
0.15
 40 
0.075
 0 
CIRCLE
 8 
0
 62 
 7 
 10 
3.65
 20 
2.35
 40 
0.075
 0 
CIRCLE
 8 
0
 62 
 7 
 10 
3.65
 20 
0.15
 40 
0.075
 0 
CIRCLE
 8 
0
 62 
 7 
 10 
0.5
 20 
0.375
 40 
0.02
 0 
CIRCLE
 8 
0
 62 
 7 
 10 
0.6
 20 
0.375
 40 
0.02
 0 
LINE
 8 
0
 62 
 7 
 10 
0.44
 20 
0.25
 11 
0.44
 21 
0.5
 0 
LINE
 8 
0
 62 
 7 
 10 
0.66
 20 
0.5
 11 
0.44
 21 
0.5
 0 
LINE
 8 
0
 62 
 7 
 10 
0.66
 20 
0.5
 11 
0.66
 21 
0.25
 0 
LINE
 8 
0
 62 
 7 
 10 
0.44
 20 
0.25
 11 
0.66
 21 
0.25
 0 
LINE
 8 
0
 62 
 7 
 10 
0.5
 20 
0.256
 11 
0.5
 21 
0.274
 0 
LINE
 8 
0
 62 
 7 
 10 
0.6
 20 
0.274
 11 
0.5
 21 
0.274
 0 
LINE
 8 
0
 62 
 7 
 10 
0.6
 20 
0.274
 11 
0.6
 21 
0.256
 0 
LINE
 8 
0
 62 
 7 
 10 
0.5
 20 
0.256
 11 
0.6
 21 
0.256
 0 
LINE
 8 
0
 62 
 7 
 10 
0.5
 20 
0.262
 11 
0.5
 21 
0.268
 0 
LINE
 8 
0
 62 
 7 
 10 
0.6
 20 
0.268
 11 
0.5
 21 
0.268
 0 
LINE
 8 
0
 62 
 7 
 10 
0.6
 20 
0.268
 11 
0.6
 21 
0.262
 0 
LINE
 8 
0
 62 
 7 
 10 
0.5
 20 
0.262
 11 
0.6
 21 
0.262
 0 
LINE
 8 
0
 62 
 7 
 10 
0.708
 20 
0.283
 11 
0.7
 21 
0.275
 0 
LINE
 8 
0
 62 
 7 
 10 
0.7
 20 
0.275
 11 
0.7
 21 
0.258
 0 
LINE
 8 
0
 62 
 7 
 10 
0.7
 20 
0.258
 11 
0.708
 21 
0.25
 0 
LINE
 8 
0
 62 
 7 
 10 
0.708
 20 
0.25
 11 
0.717
 21 
0.25
 0 
LINE
 8 
0
 62 
 7 
 10 
0.717
 20 
0.25
 11 
0.725
 21 
0.258
 0 
LINE
 8 
0
 62 
 7 
 10 
0.725
 20 
0.258
 11 
0.725
 21 
0.275
 0 
LINE
 8 
0
 62 
 7 
 10 
0.725
 20 
0.275
 11 
0.733
 21 
0.283
 0 
LINE
 8 
0
 62 
 7 
 10 
0.733
 20 
0.283
 11 
0.742
 21 
0.283
 0 
LINE
 8 
0
 62 
 7 
 10 
0.742
 20 
0.283
 11 
0.75
 21 
0.275
 0 
LINE
 8 
0
 62 
 7 
 10 
0.75
 20 
0.275
 11 
0.75
 21 
0.258
 0 
LINE
 8 
0
 62 
 7 
 10 
0.75
 20 
0.258
 11 
0.742
 21 
0.25
 0 
LINE
 8 
0
 62 
 7 
 10 
0.7
 20 
0.3
 11 
0.75
 21 
0.3
 0 
LINE
 8 
0
 62 
 7 
 10 
0.75
 20 
0.3
 11 
0.733
 21 
0.317
 0 
LINE
 8 
0
 62 
 7 
 10 
0.733
 20 
0.317
 11 
0.75
 21 
0.333
 0 
LINE
 8 
0
 62 
 7 
 10 
0.75
 20 
0.333
 11 
0.7
 21 
0.333
 0 
LINE
 8 
0
 62 
 7 
 10 
0.733
 20 
0.317
 11 
0.725
 21 
0.317
 0 
LINE
 8 
0
 62 
 7 
 10 
0.708
 20 
0.358
 11 
0.7
 21 
0.367
 0 
LINE
 8 
0
 62 
 7 
 10 
0.7
 20 
0.367
 11 
0.75
 21 
0.367
 0 
LINE
 8 
0
 62 
 7 
 10 
0.75
 20 
0.358
 11 
0.75
 21 
0.375
 0 
CIRCLE
 8 
0
 62 
 7 
 10 
0.175
 20 
0.625
 40 
0.02
 0 
CIRCLE
 8 
0
 62 
 7 
 10 
0.175
 20 
0.725
 40 
0.02
 0 
CIRCLE
 8 
0
 62 
 7 
 10 
0.175
 20 
0.825
 40 
0.02
 0 
LINE
 8 
0
 62 
 7 
 10 
0.07
 20 
0.525
 11 
0.07
 21 
0.925
 0 
LINE
 8 
0
 62 
 7 
 10 
0.25
 20 
0.925
 11 
0.07
 21 
0.925
 0 
LINE
 8 
0
 62 
 7 
 10 
0.25
 20 
0.925
 11 
0.25
 21 
0.525
 0 
LINE
 8 
0
 62 
 7 
 10 
0.07
 20 
0.525
 11 
0.25
 21 
0.525
 0 
LINE
 8 
0
 62 
 7 
 10 
0.076
 20 
0.525
 11 
0.076
 21 
0.925
 0 
LINE
 8 
0
 62 
 7 
 10 
0.082
 20 
0.925
 11 
0.076
 21 
0.925
 0 
LINE
 8 
0
 62 
 7 
 10 
0.082
 20 
0.925
 11 
0.082
 21 
0.525
 0 
LINE
 8 
0
 62 
 7 
 10 
0.076
 20 
0.525
 11 
0.082
 21 
0.525
 0 
LINE
 8 
0
 62 
 7 
 10 
0.088
 20 
0.525
 11 
0.088
 21 
0.925
 0 
LINE
 8 
0
 62 
 7 
 10 
0.094
 20 
0.925
 11 
0.088
 21 
0.925
 0 
LINE
 8 
0
 62 
 7 
 10 
0.094
 20 
0.925
 11 
0.094
 21 
0.525
 0 
LINE
 8 
0
 62 
 7 
 10 
0.088
 20 
0.525
 11 
0.094
 21 
0.525
 0 
LINE
 8 
0
 62 
 7 
 10 
0.133
 20 
0.429
 11 
0.175
 21 
0.429
 0 
LINE
 8 
0
 62 
 7 
 10 
0.175
 20 
0.429
 11 
0.183
 21 
0.437
 0 
LINE
 8 
0
 62 
 7 
 10 
0.183
 20 
0.437
 11 
0.183
 21 
0.454
 0 
LINE
 8 
0
 62 
 7 
 10 
0.183
 20 
0.454
 11 
0.175
 21 
0.462
 0 
LINE
 8 
0
 62 
 7 
 10 
0.175
 20 
0.462
 11 
0.133
 21 
0.462
 0 
LINE
 8 
0
 62 
 7 
 10 
0.141
 20 
0.487
 11 
0.133
 21 
0.496
 0 
LINE
 8 
0
 62 
 7 
 10 
0.133
 20 
0.496
 11 
0.183
 21 
0.496
 0 
LINE
 8 
0
 62 
 7 
 10 
0.183
 20 
0.487
 11 
0.183
 21 
0.504
 0 
CIRCLE
 8 
0
 62 
 7 
 10 
0.45
 20 
0.825
 40 
0.014
 0 
CIRCLE
 8 
0
 62 
 7 
 10 
0.65
 20 
0.825
 40 
0.014
 0 
LINE
 8 
0
 62 
 7 
 10 
0.4
 20 
0.78
 11 
0.4
 21 
0.87
 0 
LINE
 8 
0
 62 
 7 
 10 
0.4
 20 
0.87
 11 
0.43
 21 
0.9
 0 
LINE
 8 
0
 62 
 7 
 10 
0.43
 20 
0.9
 11 
0.67
 21 
0.9
 0 
LINE
 8 
0
 62 
 7 
 10 
0.67
 20 
0.9
 11 
0.7
 21 
0.87
 0 
LINE
 8 
0
 62 
 7 
 10 
0.7
 20 
0.87
 11 
0.7
 21 
0.78
 0 
LINE
 8 
0
 62 
 7 
 10 
0.7
 20 
0.78
 11 
0.67
 21 
0.75
 0 
LINE
 8 
0
 62 
 7 
 10 
0.67
 20 
0.75
 11 
0.43
 21 
0.75
 0 
LINE
 8 
0
 62 
 7 
 10 
0.43
 20 
0.75
 11 
0.4
 21 
0.78
 0 
LINE
 8 
0
 62 
 7 
 10 
0.708
 20 
0.933
 11 
0.7
 21 
0.925
 0 
LINE
 8 
0
 62 
 7 
 10 
0.7
 20 
0.925
 11 
0.7
 21 
0.908
 0 
LINE
 8 
0
 62 
 7 
 10 
0.7
 20 
0.908
 11 
0.708
 21 
0.9
 0 
LINE
 8 
0
 62 
 7 
 10 
0.708
 20 
0.9
 11 
0.742
 21 
0.9
 0 
LINE
 8 
0
 62 
 7 
 10 
0.742
 20 
0.9
 11 
0.75
 21 
0.908
 0 
LINE
 8 
0
 62 
 7 
 10 
0.75
 20 
0.908
 11 
0.75
 21 
0.925
 0 
LINE
 8 
0
 62 
 7 
 10 
0.75
 20 
0.925
 11 
0.742
 21 
0.933
 0 
LINE
 8 
0
 62 
 7 
 10 
0.708
 20 
0.95
 11 
0.7
 21 
0.958
 0 
LINE
 8 
0
 62 
 7 
 10 
0.7
 20 
0.958
 11 
0.7
 21 
0.975
 0 
LINE
 8 
0
 62 
 7 
 10 
0.7
 20 
0.975
 11 
0.708
 21 
0.983
 0 
LINE
 8 
0
 62 
 7 
 10 
0.708
 20 
0.983
 11 
0.717
 21 
0.983
 0 
LINE
 8 
0
 62 
 7 
 10 
0.717
 20 
0.983
 11 
0.725
 21 
0.975
 0 
LINE
 8 
0
 62 
 7 
 10 
0.725
 20 
0.975
 11 
0.725
 21 
0.958
 0 
LINE
 8 
0
 62 
 7 
 10 
0.725
 20 
0.958
 11 
0.733
 21 
0.95
 0 
LINE
 8 
0
 62 
 7 
 10 
0.733
 20 
0.95
 11 
0.75
 21 
0.95
 0 
LINE
 8 
0
 62 
 7 
 10 
0.75
 20 
0.95
 11 
0.75
 21 
0.983
 0 
CIRCLE
 8 
0
 62 
 7 
 10 
0.45
 20 
0.625
 40 
0.014
 0 
CIRCLE
 8 
0
 62 
 7 
 10 
0.65
 20 
0.625
 40 
0.014
 0 
LINE
 8 
0
 62 
 7 
 10 
0.4
 20 
0.58
 11 
0.4
 21 
0.67
 0 
LINE
 8 
0
 62 
 7 
 10 
0.4
 20 
0.67
 11 
0.43
 21 
0.7
 0 
LINE
 8 
0
 62 
 7 
 10 
0.43
 20 
0.7
 11 
0.67
 21 
0.7
 0 
LINE
 8 
0
 62 
 7 
 10 
0.67
 20 
0.7
 11 
0.7
 21 
0.67
 0 
LINE
 8 
0
 62 
 7 
 10 
0.7
 20 
0.67
 11 
0.7
 21 
0.58
 0 
LINE
 8 
0
 62 
 7 
 10 
0.7
 20 
0.58
 11 
0.67
 21 
0.55
 0 
LINE
 8 
0
 62 
 7 
 10 
0.67
 20 
0.55
 11 
0.43
 21 
0.55
 0 
LINE
 8 
0
 62 
 7 
 10 
0.43
 20 
0.55
 11 
0.4
 21 
0.58
 0 
LINE
 8 
0
 62 
 7 
 10 
0.708
 20 
0.508
 11 
0.7
 21 
0.5
 0 
LINE
 8 
0
 62 
 7 
 10 
0.7
 20 
0.5
 11 
0.7
 21 
0.483
 0 
LINE
 8 
0
 62 
 7 
 10 
0.7
 20 
0.483
 11 
0.708
 21 
0.475
 0 
LINE
 8 
0
 62 
 7 
 10 
0.708
 20 
0.475
 11 
0.742
 21 
0.475
 0 
LINE
 8 
0
 62 
 7 
 10 
0.742
 20 
0.475
 11 
0.75
 21 
0.483
 0 
LINE
 8 
0
 62 
 7 
 10 
0.75
 20 
0.483
 11 
0.75
 21 
0.5
 0 
LINE
 8 
0
 62 
 7 
 10 
0.75
 20 
0.5
 11 
0.742
 21 
0.508
 0 
LINE
 8 
0
 62 
 7 
 10 
0.708
 20 
0.533
 11 
0.7
 21 
0.542
 0 
LINE
 8 
0
 62 
 7 
 10 
0.7
 20 
0.542
 11 
0.75
 21 
0.542
 0 
LINE
 8 
0
 62 
 7 
 10 
0.75
 20 
0.533
 11 
0.75
 21 
0.55
 0 
CIRCLE
 8 
0
 62 
 7 
 10 
1.85
 20 
0.3
 40 
0.02
 0 
CIRCLE
 8 
0
 62 
 7 
 10 
1.95
 20 
0.3
 40 
0.02
 0 
CIRCLE
 8 
0
 62 
 7 
 10 
2.05
 20 
0.3
 40 
0.02
 0 
CIRCLE
 8 
0
 62 
 7 
 10 
2.15
 20 
0.3
 40 
0.02
 0 
CIRCLE
 8 
0
 62 
 7 
 10 
2.25
 20 
0.3
 40 
0.02
 0 
CIRCLE
 8 
0
 62 
 7 
 10 
2.35
 20 
0.3
 40 
0.02
 0 
CIRCLE
 8 
0
 62 
 7 
 10 
2.45
 20 
0.3
 40 
0.02
 0 
CIRCLE
 8 
0
 62 
 7 
 10 
2.55
 20 
0.3
 40 
0.02
 0 
LINE
 8 
0
 62 
 7 
 10 
1.79
 20 
0.175
 11 
1.79
 21 
0.425
 0 
LINE
 8 
0
 62 
 7 
 10 
2.61
 20 
0.425
 11 
1.79
 21 
0.425
 0 
LINE
 8 
0
 62 
 7 
 10 
2.61
 20 
0.425
 11 
2.61
 21 
0.175
 0 
LINE
 8 
0
 62 
 7 
 10 
1.79
 20 
0.175
 11 
2.61
 21 
0.175
 0 
LINE
 8 
0
 62 
 7 
 10 
1.85
 20 
0.181
 11 
1.85
 21 
0.199
 0 
LINE
 8 
0
 62 
 7 
 10 
2.55
 20 
0.199
 11 
1.85
 21 
0.199
 0 
LINE
 8 
0
 62 
 7 
 10 
2.55
 20 
0.199
 11 
2.55
 21 
0.181
 0 
LINE
 8 
0
 62 
 7 
 10 
1.85
 20 
0.181
 11 
2.55
 21 
0.181
 0 
LINE
 8 
0
 62 
 7 
 10 
1.85
 20 
0.187
 11 
1.85
 21 
0.193
 0 
LINE
 8 
0
 62 
 7 
 10 
2.55
 20 
0.193
 11 
1.85
 21 
0.193
 0 
LINE
 8 
0
 62 
 7 
 10 
2.55
 20 
0.193
 11 
2.55
 21 
0.187
 0 
LINE
 8 
0
 62 
 7 
 10 
1.85
 20 
0.187
 11 
2.55
 21 
0.187
 0 
LINE
 8 
0
 62 
 7 
 10 
2.625
 20 
0.183
 11 
2.625
 21 
0.208
 0 
LINE
 8 
0
 62 
 7 
 10 
2.625
 20 
0.208
 11 
2.667
 21 
0.208
 0 
LINE
 8 
0
 62 
 7 
 10 
2.667
 20 
0.208
 11 
2.675
 21 
0.2
 0 
LINE
 8 
0
 62 
 7 
 10 
2.675
 20 
0.2
 11 
2.675
 21 
0.183
 0 
LINE
 8 
0
 62 
 7 
 10 
2.675
 20 
0.183
 11 
2.667
 21 
0.175
 0 
LINE
 8 
0
 62 
 7 
 10 
2.625
 20 
0.258
 11 
2.625
 21 
0.225
 0 
LINE
 8 
0
 62 
 7 
 10 
2.625
 20 
0.225
 11 
2.642
 21 
0.225
 0 
LINE
 8 
0
 62 
 7 
 10 
2.642
 20 
0.225
 11 
2.642
 21 
0.25
 0 
LINE
 8 
0
 62 
 7 
 10 
2.642
 20 
0.25
 11 
2.65
 21 
0.258
 0 
LINE
 8 
0
 62 
 7 
 10 
2.65
 20 
0.258
 11 
2.667
 21 
0.258
 0 
LINE
 8 
0
 62 
 7 
 10 
2.667
 20 
0.258
 11 
2.675
 21 
0.25
 0 
LINE
 8 
0
 62 
 7 
 10 
2.675
 20 
0.25
 11 
2.675
 21 
0.233
 0 
LINE
 8 
0
 62 
 7 
 10 
2.675
 20 
0.233
 11 
2.667
 21 
0.225
 0 
CIRCLE
 8 
0
 62 
 7 
 10 
0.99
 20 
0.3
 40 
0.02
 0 
CIRCLE
 8 
0
 62 
 7 
 10 
1.09
 20 
0.3
 40 
0.02
 0 
CIRCLE
 8 
0
 62 
 7 
 10 
1.19
 20 
0.3
 40 
0.02
 0 
CIRCLE
 8 
0
 62 
 7 
 10 
1.29
 20 
0.3
 40 
0.02
 0 
CIRCLE
 8 
0
 62 
 7 
 10 
1.39
 20 
0.3
 40 
0.02
 0 
CIRCLE
 8 
0
 62 
 7 
 10 
1.49
 20 
0.3
 40 
0.02
 0 
CIRCLE
 8 
0
 62 
 7 
 10 
1.59
 20 
0.3
 40 
0.02
 0 
CIRCLE
 8 
0
 62 
 7 
 10 
1.69
 20 
0.3
 40 
0.02
 0 
LINE
 8 
0
 62 
 7 
 10 
0.93
 20 
0.175
 11 
0.93
 21 
0.425
 0 
LINE
 8 
0
 62 
 7 
 10 
1.75
 20 
0.425
 11 
0.93
 21 
0.425
 0 
LINE
 8 
0
 62 
 7 
 10 
1.75
 20 
0.425
 11 
1.75
 21 
0.175
 0 
LINE
 8 
0
 62 
 7 
 10 
0.93
 20 
0.175
 11 
1.75
 21 
0.175
 0 
LINE
 8 
0
 62 
 7 
 10 
0.99
 20 
0.181
 11 
0.99
 21 
0.199
 0 
LINE
 8 
0
 62 
 7 
 10 
1.69
 20 
0.199
 11 
0.99
 21 
0.199
 0 
LINE
 8 
0
 62 
 7 
 10 
1.69
 20 
0.199
 11 
1.69
 21 
0.181
 0 
LINE
 8 
0
 62 
 7 
 10 
0.99
 20 
0.181
 11 
1.69
 21 
0.181
 0 
LINE
 8 
0
 62 
 7 
 10 
0.99
 20 
0.187
 11 
0.99
 21 
0.193
 0 
LINE
 8 
0
 62 
 7 
 10 
1.69
 20 
0.193
 11 
0.99
 21 
0.193
 0 
LINE
 8 
0
 62 
 7 
 10 
1.69
 20 
0.193
 11 
1.69
 21 
0.187
 0 
LINE
 8 
0
 62 
 7 
 10 
0.99
 20 
0.187
 11 
1.69
 21 
0.187
 0 
LINE
 8 
0
 62 
 7 
 10 
0.85
 20 
0.358
 11 
0.85
 21 
0.383
 0 
LINE
 8 
0
 62 
 7 
 10 
0.85
 20 
0.383
 11 
0.892
 21 
0.383
 0 
LINE
 8 
0
 62 
 7 
 10 
0.892
 20 
0.383
 11 
0.9
 21 
0.375
 0 
LINE
 8 
0
 62 
 7 
 10 
0.9
 20 
0.375
 11 
0.9
 21 
0.358
 0 
LINE
 8 
0
 62 
 7 
 10 
0.9
 20 
0.358
 11 
0.892
 21 
0.35
 0 
LINE
 8 
0
 62 
 7 
 10 
0.85
 20 
0.425
 11 
0.85
 21 
0.417
 0 
LINE
 8 
0
 62 
 7 
 10 
0.85
 20 
0.417
 11 
0.867
 21 
0.4
 0 
LINE
 8 
0
 62 
 7 
 10 
0.867
 20 
0.4
 11 
0.892
 21 
0.4
 0 
LINE
 8 
0
 62 
 7 
 10 
0.892
 20 
0.4
 11 
0.9
 21 
0.408
 0 
LINE
 8 
0
 62 
 7 
 10 
0.9
 20 
0.408
 11 
0.9
 21 
0.425
 0 
LINE
 8 
0
 62 
 7 
 10 
0.9
 20 
0.425
 11 
0.892
 21 
0.433
 0 
LINE
 8 
0
 62 
 7 
 10 
0.892
 20 
0.433
 11 
0.883
 21 
0.433
 0 
LINE
 8 
0
 62 
 7 
 10 
0.883
 20 
0.433
 11 
0.875
 21 
0.425
 0 
LINE
 8 
0
 62 
 7 
 10 
0.875
 20 
0.425
 11 
0.875
 21 
0.408
 0 
LINE
 8 
0
 62 
 7 
 10 
0.875
 20 
0.408
 11 
0.883
 21 
0.4
 0 
CIRCLE
 8 
0
 62 
 7 
 10 
0.175
 20 
1.7
 40 
0.02
 0 
CIRCLE
 8 
0
 62 
 7 
 10 
1.69
 20 
2.2
 40 
0.02
 0 
CIRCLE
 8 
0
 62 
 7 
 10 
1.79
 20 
2.2
 40 
0.02
 0 
CIRCLE
 8 
0
 62 
 7 
 10 
1.89
 20 
2.2
 40 
0.02
 0 
CIRCLE
 8 
0
 62 
 7 
 10 
1.99
 20 
2.2
 40 
0.02
 0 
CIRCLE
 8 
0
 62 
 7 
 10 
2.09
 20 
2.2
 40 
0.02
 0 
CIRCLE
 8 
0
 62 
 7 
 10 
2.19
 20 
2.2
 40 
0.02
 0 
LINE
 8 
0
 62 
 7 
 10 
1.63
 20 
2.075
 11 
1.63
 21 
2.325
 0 
LINE
 8 
0
 62 
 7 
 10 
2.25
 20 
2.325
 11 
1.63
 21 
2.325
 0 
LINE
 8 
0
 62 
 7 
 10 
2.25
 20 
2.325
 11 
2.25
 21 
2.075
 0 
LINE
 8 
0
 62 
 7 
 10 
1.63
 20 
2.075
 11 
2.25
 21 
2.075
 0 
LINE
 8 
0
 62 
 7 
 10 
1.69
 20 
2.081
 11 
1.69
 21 
2.099
 0 
LINE
 8 
0
 62 
 7 
 10 
2.19
 20 
2.099
 11 
1.69
 21 
2.099
 0 
LINE
 8 
0
 62 
 7 
 10 
2.19
 20 
2.099
 11 
2.19
 21 
2.081
 0 
LINE
 8 
0
 62 
 7 
 10 
1.69
 20 
2.081
 11 
2.19
 21 
2.081
 0 
LINE
 8 
0
 62 
 7 
 10 
1.69
 20 
2.087
 11 
1.69
 21 
2.093
 0 
LINE
 8 
0
 62 
 7 
 10 
2.19
 20 
2.093
 11 
1.69
 21 
2.093
 0 
LINE
 8 
0
 62 
 7 
 10 
2.19
 20 
2.093
 11 
2.19
 21 
2.087
 0 
LINE
 8 
0
 62 
 7 
 10 
1.69
 20 
2.087
 11 
2.19
 21 
2.087
 0 
LINE
 8 
0
 62 
 7 
 10 
2.275
 20 
2.258
 11 
2.275
 21 
2.283
 0 
LINE
 8 
0
 62 
 7 
 10 
2.275
 20 
2.283
 11 
2.317
 21 
2.283
 0 
LINE
 8 
0
 62 
 7 
 10 
2.317
 20 
2.283
 11 
2.325
 21 
2.275
 0 
LINE
 8 
0
 62 
 7 
 10 
2.325
 20 
2.275
 11 
2.325
 21 
2.258
 0 
LINE
 8 
0
 62 
 7 
 10 
2.325
 20 
2.258
 11 
2.317
 21 
2.25
 0 
LINE
 8 
0
 62 
 7 
 10 
2.283
 20 
2.3
 11 
2.275
 21 
2.308
 0 
LINE
 8 
0
 62 
 7 
 10 
2.275
 20 
2.308
 11 
2.275
 21 
2.325
 0 
LINE
 8 
0
 62 
 7 
 10 
2.275
 20 
2.325
 11 
2.283
 21 
2.333
 0 
LINE
 8 
0
 62 
 7 
 10 
2.283
 20 
2.333
 11 
2.292
 21 
2.333
 0 
LINE
 8 
0
 62 
 7 
 10 
2.292
 20 
2.333
 11 
2.3
 21 
2.325
 0 
LINE
 8 
0
 62 
 7 
 10 
2.3
 20 
2.325
 11 
2.3
 21 
2.317
 0 
LINE
 8 
0
 62 
 7 
 10 
2.3
 20 
2.325
 11 
2.308
 21 
2.333
 0 
LINE
 8 
0
 62 
 7 
 10 
2.308
 20 
2.333
 11 
2.317
 21 
2.333
 0 
LINE
 8 
0
 62 
 7 
 10 
2.317
 20 
2.333
 11 
2.325
 21 
2.325
 0 
LINE
 8 
0
 62 
 7 
 10 
2.325
 20 
2.325
 11 
2.325
 21 
2.308
 0 
LINE
 8 
0
 62 
 7 
 10 
2.325
 20 
2.308
 11 
2.317
 21 
2.3
 0 
CIRCLE
 8 
0
 62 
 7 
 10 
0.99
 20 
2.2
 40 
0.02
 0 
CIRCLE
 8 
0
 62 
 7 
 10 
1.09
 20 
2.2
 40 
0.02
 0 
CIRCLE
 8 
0
 62 
 7 
 10 
1.19
 20 
2.2
 40 
0.02
 0 
CIRCLE
 8 
0
 62 
 7 
 10 
1.29
 20 
2.2
 40 
0.02
 0 
CIRCLE
 8 
0
 62 
 7 
 10 
1.39
 20 
2.2
 40 
0.02
 0 
CIRCLE
 8 
0
 62 
 7 
 10 
1.49
 20 
2.2
 40 
0.02
 0 
LINE
 8 
0
 62 
 7 
 10 
0.93
 20 
2.075
 11 
0.93
 21 
2.325
 0 
LINE
 8 
0
 62 
 7 
 10 
1.55
 20 
2.325
 11 
0.93
 21 
2.325
 0 
LINE
 8 
0
 62 
 7 
 10 
1.55
 20 
2.325
 11 
1.55
 21 
2.075
 0 
LINE
 8 
0
 62 
 7 
 10 
0.93
 20 
2.075
 11 
1.55
 21 
2.075
 0 
LINE
 8 
0
 62 
 7 
 10 
0.99
 20 
2.081
 11 
0.99
 21 
2.099
 0 
LINE
 8 
0
 62 
 7 
 10 
1.49
 20 
2.099
 11 
0.99
 21 
2.099
 0 
LINE
 8 
0
 62 
 7 
 10 
1.49
 20 
2.099
 11 
1.49
 21 
2.081
 0 
LINE
 8 
0
 62 
 7 
 10 
0.99
 20 
2.081
 11 
1.49
 21 
2.081
 0 
LINE
 8 
0
 62 
 7 
 10 
0.99
 20 
2.087
 11 
0.99
 21 
2.093
 0 
LINE
 8 
0
 62 
 7 
 10 
1.49
 20 
2.093
 11 
0.99
 21 
2.093
 0 
LINE
 8 
0
 62 
 7 
 10 
1.49
 20 
2.093
 11 
1.49
 21 
2.087
 0 
LINE
 8 
0
 62 
 7 
 10 
0.99
 20 
2.087
 11 
1.49
 21 
2.087
 0 
LINE
 8 
0
 62 
 7 
 10 
0.875
 20 
2.258
 11 
0.875
 21 
2.283
 0 
LINE
 8 
0
 62 
 7 
 10 
0.875
 20 
2.283
 11 
0.917
 21 
2.283
 0 
LINE
 8 
0
 62 
 7 
 10 
0.917
 20 
2.283
 11 
0.925
 21 
2.275
 0 
LINE
 8 
0
 62 
 7 
 10 
0.925
 20 
2.275
 11 
0.925
 21 
2.258
 0 
LINE
 8 
0
 62 
 7 
 10 
0.925
 20 
2.258
 11 
0.917
 21 
2.25
 0 
LINE
 8 
0
 62 
 7 
 10 
0.908
 20 
2.333
 11 
0.908
 21 
2.3
 0 
LINE
 8 
0
 62 
 7 
 10 
0.908
 20 
2.3
 11 
0.9
 21 
2.3
 0 
LINE
 8 
0
 62 
 7 
 10 
0.9
 20 
2.3
 11 
0.875
 21 
2.325
 0 
LINE
 8 
0
 62 
 7 
 10 
0.875
 20 
2.325
 11 
0.925
 21 
2.325
 0 
LINE
 8 
0
 62 
 7 
 10 
0.402
 20 
2.443
 11 
0.395
 21 
2.45
 0 
LINE
 8 
0
 62 
 7 
 10 
0.395
 20 
2.45
 11 
0.382
 21 
2.45
 0 
LINE
 8 
0
 62 
 7 
 10 
0.382
 20 
2.45
 11 
0.375
 21 
2.443
 0 
LINE
 8 
0
 62 
 7 
 10 
0.375
 20 
2.443
 11 
0.375
 21 
2.417
 0 
LINE
 8 
0
 62 
 7 
 10 
0.375
 20 
2.417
 11 
0.382
 21 
2.41
 0 
LINE
 8 
0
 62 
 7 
 10 
0.382
 20 
2.41
 11 
0.395
 21 
2.41
 0 
LINE
 8 
0
 62 
 7 
 10 
0.395
 20 
2.41
 11 
0.402
 21 
2.417
 0 
LINE
 8 
0
 62 
 7 
 10 
0.422
 20 
2.437
 11 
0.435
 21 
2.437
 0 
LINE
 8 
0
 62 
 7 
 10 
0.435
 20 
2.437
 11 
0.442
 21 
2.43
 0 
LINE
 8 
0
 62 
 7 
 10 
0.442
 20 
2.43
 11 
0.442
 21 
2.41
 0 
LINE
 8 
0
 62 
 7 
 10 
0.442
 20 
2.423
 11 
0.422
 21 
2.423
 0 
LINE
 8 
0
 62 
 7 
 10 
0.422
 20 
2.423
 11 
0.415
 21 
2.417
 0 
LINE
 8 
0
 62 
 7 
 10 
0.415
 20 
2.417
 11 
0.422
 21 
2.41
 0 
LINE
 8 
0
 62 
 7 
 10 
0.422
 20 
2.41
 11 
0.435
 21 
2.41
 0 
LINE
 8 
0
 62 
 7 
 10 
0.435
 20 
2.41
 11 
0.442
 21 
2.417
 0 
LINE
 8 
0
 62 
 7 
 10 
0.455
 20 
2.437
 11 
0.455
 21 
2.41
 0 
LINE
 8 
0
 62 
 7 
 10 
0.455
 20 
2.43
 11 
0.462
 21 
2.437
 0 
LINE
 8 
0
 62 
 7 
 10 
0.462
 20 
2.437
 11 
0.468
 21 
2.43
 0 
LINE
 8 
0
 62 
 7 
 10 
0.468
 20 
2.43
 11 
0.468
 21 
2.41
 0 
LINE
 8 
0
 62 
 7 
 10 
0.468
 20 
2.43
 11 
0.475
 21 
2.437
 0 
LINE
 8 
0
 62 
 7 
 10 
0.475
 20 
2.437
 11 
0.482
 21 
2.43
 0 
LINE
 8 
0
 62 
 7 
 10 
0.482
 20 
2.43
 11 
0.482
 21 
2.41
 0 
LINE
 8 
0
 62 
 7 
 10 
0.495
 20 
2.423
 11 
0.522
 21 
2.423
 0 
LINE
 8 
0
 62 
 7 
 10 
0.522
 20 
2.423
 11 
0.522
 21 
2.43
 0 
LINE
 8 
0
 62 
 7 
 10 
0.522
 20 
2.43
 11 
0.515
 21 
2.437
 0 
LINE
 8 
0
 62 
 7 
 10 
0.515
 20 
2.437
 11 
0.502
 21 
2.437
 0 
LINE
 8 
0
 62 
 7 
 10 
0.502
 20 
2.437
 11 
0.495
 21 
2.43
 0 
LINE
 8 
0
 62 
 7 
 10 
0.495
 20 
2.43
 11 
0.495
 21 
2.417
 0 
LINE
 8 
0
 62 
 7 
 10 
0.495
 20 
2.417
 11 
0.502
 21 
2.41
 0 
LINE
 8 
0
 62 
 7 
 10 
0.502
 20 
2.41
 11 
0.515
 21 
2.41
 0 
LINE
 8 
0
 62 
 7 
 10 
0.535
 20 
2.437
 11 
0.535
 21 
2.41
 0 
LINE
 8 
0
 62 
 7 
 10 
0.535
 20 
2.423
 11 
0.548
 21 
2.437
 0 
LINE
 8 
0
 62 
 7 
 10 
0.548
 20 
2.437
 11 
0.555
 21 
2.437
 0 
LINE
 8 
0
 62 
 7 
 10 
0.555
 20 
2.437
 11 
0.562
 21 
2.43
 0 
LINE
 8 
0
 62 
 7 
 10 
0.582
 20 
2.437
 11 
0.595
 21 
2.437
 0 
LINE
 8 
0
 62 
 7 
 10 
0.595
 20 
2.437
 11 
0.602
 21 
2.43
 0 
LINE
 8 
0
 62 
 7 
 10 
0.602
 20 
2.43
 11 
0.602
 21 
2.41
 0 
LINE
 8 
0
 62 
 7 
 10 
0.602
 20 
2.423
 11 
0.582
 21 
2.423
 0 
LINE
 8 
0
 62 
 7 
 10 
0.582
 20 
2.423
 11 
0.575
 21 
2.417
 0 
LINE
 8 
0
 62 
 7 
 10 
0.575
 20 
2.417
 11 
0.582
 21 
2.41
 0 
LINE
 8 
0
 62 
 7 
 10 
0.582
 20 
2.41
 11 
0.595
 21 
2.41
 0 
LINE
 8 
0
 62 
 7 
 10 
0.595
 20 
2.41
 11 
0.602
 21 
2.417
 0 
LINE
 8 
0
 62 
 7 
 10 
0.655
 20 
2.41
 11 
0.655
 21 
2.45
 0 
LINE
 8 
0
 62 
 7 
 10 
0.655
 20 
2.45
 11 
0.675
 21 
2.45
 0 
LINE
 8 
0
 62 
 7 
 10 
0.675
 20 
2.45
 11 
0.682
 21 
2.443
 0 
LINE
 8 
0
 62 
 7 
 10 
0.682
 20 
2.443
 11 
0.682
 21 
2.437
 0 
LINE
 8 
0
 62 
 7 
 10 
0.682
 20 
2.437
 11 
0.675
 21 
2.43
 0 
LINE
 8 
0
 62 
 7 
 10 
0.675
 20 
2.43
 11 
0.655
 21 
2.43
 0 
LINE
 8 
0
 62 
 7 
 10 
0.722
 20 
2.43
 11 
0.715
 21 
2.437
 0 
LINE
 8 
0
 62 
 7 
 10 
0.715
 20 
2.437
 11 
0.702
 21 
2.437
 0 
LINE
 8 
0
 62 
 7 
 10 
0.702
 20 
2.437
 11 
0.695
 21 
2.43
 0 
LINE
 8 
0
 62 
 7 
 10 
0.695
 20 
2.43
 11 
0.695
 21 
2.417
 0 
LINE
 8 
0
 62 
 7 
 10 
0.695
 20 
2.417
 11 
0.702
 21 
2.41
 0 
LINE
 8 
0
 62 
 7 
 10 
0.702
 20 
2.41
 11 
0.715
 21 
2.41
 0 
LINE
 8 
0
 62 
 7 
 10 
0.715
 20 
2.41
 11 
0.722
 21 
2.417
 0 
LINE
 8 
0
 62 
 7 
 10 
0.722
 20 
2.417
 11 
0.722
 21 
2.43
 0 
LINE
 8 
0
 62 
 7 
 10 
0.735
 20 
2.437
 11 
0.735
 21 
2.417
 0 
LINE
 8 
0
 62 
 7 
 10 
0.735
 20 
2.417
 11 
0.742
 21 
2.41
 0 
LINE
 8 
0
 62 
 7 
 10 
0.742
 20 
2.41
 11 
0.748
 21 
2.417
 0 
LINE
 8 
0
 62 
 7 
 10 
0.748
 20 
2.417
 11 
0.748
 21 
2.423
 0 
LINE
 8 
0
 62 
 7 
 10 
0.748
 20 
2.417
 11 
0.755
 21 
2.41
 0 
LINE
 8 
0
 62 
 7 
 10 
0.755
 20 
2.41
 11 
0.762
 21 
2.417
 0 
LINE
 8 
0
 62 
 7 
 10 
0.762
 20 
2.417
 11 
0.762
 21 
2.437
 0 
LINE
 8 
0
 62 
 7 
 10 
0.775
 20 
2.423
 11 
0.802
 21 
2.423
 0 
LINE
 8 
0
 62 
 7 
 10 
0.802
 20 
2.423
 11 
0.802
 21 
2.43
 0 
LINE
 8 
0
 62 
 7 
 10 
0.802
 20 
2.43
 11 
0.795
 21 
2.437
 0 
LINE
 8 
0
 62 
 7 
 10 
0.795
 20 
2.437
 11 
0.782
 21 
2.437
 0 
LINE
 8 
0
 62 
 7 
 10 
0.782
 20 
2.437
 11 
0.775
 21 
2.43
 0 
LINE
 8 
0
 62 
 7 
 10 
0.775
 20 
2.43
 11 
0.775
 21 
2.417
 0 
LINE
 8 
0
 62 
 7 
 10 
0.775
 20 
2.417
 11 
0.782
 21 
2.41
 0 
LINE
 8 
0
 62 
 7 
 10 
0.782
 20 
2.41
 11 
0.795
 21 
2.41
 0 
LINE
 8 
0
 62 
 7 
 10 
0.815
 20 
2.437
 11 
0.815
 21 
2.41
 0 
LINE
 8 
0
 62 
 7 
 10 
0.815
 20 
2.423
 11 
0.828
 21 
2.437
 0 
LINE
 8 
0
 62 
 7 
 10 
0.828
 20 
2.437
 11 
0.835
 21 
2.437
 0 
LINE
 8 
0
 62 
 7 
 10 
0.835
 20 
2.437
 11 
0.842
 21 
2.43
 0 
LINE
 8 
0
 62 
 7 
 10 
0.713
 20 
2.368
 11 
0.713
 21 
2.342
 0 
LINE
 8 
0
 62 
 7 
 10 
0.7
 20 
2.355
 11 
0.727
 21 
2.355
 0 
CIRCLE
 8 
0
 62 
 7 
 10 
0.89
 20 
2.0
 40 
0.062
 0 
CIRCLE
 8 
0
 62 
 7 
 10 
0.89
 20 
0.9
 40 
0.062
 0 
CIRCLE
 8 
0
 62 
 7 
 10 
2.95
 20 
2.225
 40 
0.062
 0 
CIRCLE
 8 
0
 62 
 7 
 10 
2.89
 20 
0.3
 40 
0.062
 0 
CIRCLE
 8 
0
 62 
 7 
 10 
0.5
 20 
1.075
 40 
0.02
 0 
CIRCLE
 8 
0
 62 
 7 
 10 
0.6
 20 
1.075
 40 
0.02
 0 
LINE
 8 
0
 62 
 7 
 10 
0.44
 20 
0.95
 11 
0.44
 21 
1.2
 0 
LINE
 8 
0
 62 
 7 
 10 
0.66
 20 
1.2
 11 
0.44
 21 
1.2
 0 
LINE
 8 
0
 62 
 7 
 10 
0.66
 20 
1.2
 11 
0.66
 21 
0.95
 0 
LINE
 8 
0
 62 
 7 
 10 
0.44
 20 
0.95
 11 
0.66
 21 
0.95
 0 
LINE
 8 
0
 62 
 7 
 10 
0.5
 20 
0.956
 11 
0.5
 21 
0.974
 0 
LINE
 8 
0
 62 
 7 
 10 
0.6
 20 
0.974
 11 
0.5
 21 
0.974
 0 
CIRCLE
 8 
0
 62 
 7 
 10 
0.175
 20 
1.8
 40 
0.02
 0 
CIRCLE
 8 
0
 62 
 7 
 10 
0.175
 20 
1.9
 40 
0.02
 0 
LINE
 8 
0
 62 
 7 
 10 
0.07
 20 
1.6
 11 
0.07
 21 
2.0
 0 
LINE
 8 
0
 62 
 7 
 10 
0.25
 20 
2.0
 11 
0.07
 21 
2.0
 0 
LINE
 8 
0
 62 
 7 
 10 
0.25
 20 
2.0
 11 
0.25
 21 
1.6
 0 
LINE
 8 
0
 62 
 7 
 10 
0.07
 20 
1.6
 11 
0.25
 21 
1.6
 0 
LINE
 8 
0
 62 
 7 
 10 
0.076
 20 
1.6
 11 
0.076
 21 
2.0
 0 
LINE
 8 
0
 62 
 7 
 10 
0.082
 20 
2.0
 11 
0.076
 21 
2.0
 0 
LINE
 8 
0
 62 
 7 
 10 
0.082
 20 
2.0
 11 
0.082
 21 
1.6
 0 
LINE
 8 
0
 62 
 7 
 10 
0.076
 20 
1.6
 11 
0.082
 21 
1.6
 0 
LINE
 8 
0
 62 
 7 
 10 
0.088
 20 
1.6
 11 
0.088
 21 
2.0
 0 
LINE
 8 
0
 62 
 7 
 10 
0.094
 20 
2.0
 11 
0.088
 21 
2.0
 0 
LINE
 8 
0
 62 
 7 
 10 
0.094
 20 
2.0
 11 
0.094
 21 
1.6
 0 
LINE
 8 
0
 62 
 7 
 10 
0.088
 20 
1.6
 11 
0.094
 21 
1.6
 0 
LINE
 8 
0
 62 
 7 
 10 
0.15
 20 
2.025
 11 
0.192
 21 
2.025
 0 
LINE
 8 
0
 62 
 7 
 10 
0.192
 20 
2.025
 11 
0.2
 21 
2.033
 0 
LINE
 8 
0
 62 
 7 
 10 
0.2
 20 
2.033
 11 
0.2
 21 
2.05
 0 
LINE
 8 
0
 62 
 7 
 10 
0.2
 20 
2.05
 11 
0.192
 21 
2.058
 0 
LINE
 8 
0
 62 
 7 
 10 
0.192
 20 
2.058
 11 
0.15
 21 
2.058
 0 
LINE
 8 
0
 62 
 7 
 10 
0.158
 20 
2.075
 11 
0.15
 21 
2.083
 0 
LINE
 8 
0
 62 
 7 
 10 
0.15
 20 
2.083
 11 
0.15
 21 
2.1
 0 
LINE
 8 
0
 62 
 7 
 10 
0.15
 20 
2.1
 11 
0.158
 21 
2.108
 0 
LINE
 8 
0
 62 
 7 
 10 
0.158
 20 
2.108
 11 
0.167
 21 
2.108
 0 
LINE
 8 
0
 62 
 7 
 10 
0.167
 20 
2.108
 11 
0.175
 21 
2.1
 0 
LINE
 8 
0
 62 
 7 
 10 
0.175
 20 
2.1
 11 
0.175
 21 
2.083
 0 
LINE
 8 
0
 62 
 7 
 10 
0.175
 20 
2.083
 11 
0.183
 21 
2.075
 0 
LINE
 8 
0
 62 
 7 
 10 
0.183
 20 
2.075
 11 
0.2
 21 
2.075
 0 
LINE
 8 
0
 62 
 7 
 10 
0.2
 20 
2.075
 11 
0.2
 21 
2.108
 0 
CIRCLE
 8 
0
 62 
 7 
 10 
0.45
 20 
1.875
 40 
0.014
 0 
CIRCLE
 8 
0
 62 
 7 
 10 
0.65
 20 
1.875
 40 
0.014
 0 
LINE
 8 
0
 62 
 7 
 10 
0.4
 20 
1.83
 11 
0.4
 21 
1.92
 0 
LINE
 8 
0
 62 
 7 
 10 
0.4
 20 
1.92
 11 
0.43
 21 
1.95
 0 
LINE
 8 
0
 62 
 7 
 10 
0.43
 20 
1.95
 11 
0.67
 21 
1.95
 0 
LINE
 8 
0
 62 
 7 
 10 
0.67
 20 
1.95
 11 
0.7
 21 
1.92
 0 
LINE
 8 
0
 62 
 7 
 10 
0.7
 20 
1.92
 11 
0.7
 21 
1.83
 0 
LINE
 8 
0
 62 
 7 
 10 
0.7
 20 
1.83
 11 
0.67
 21 
1.8
 0 
LINE
 8 
0
 62 
 7 
 10 
0.67
 20 
1.8
 11 
0.43
 21 
1.8
 0 
LINE
 8 
0
 62 
 7 
 10 
0.43
 20 
1.8
 11 
0.4
 21 
1.83
 0 
LINE
 8 
0
 62 
 7 
 10 
0.533
 20 
1.858
 11 
0.525
 21 
1.85
 0 
LINE
 8 
0
 62 
 7 
 10 
0.525
 20 
1.85
 11 
0.525
 21 
1.833
 0 
LINE
 8 
0
 62 
 7 
 10 
0.525
 20 
1.833
 11 
0.533
 21 
1.825
 0 
LINE
 8 
0
 62 
 7 
 10 
0.533
 20 
1.825
 11 
0.567
 21 
1.825
 0 
LINE
 8 
0
 62 
 7 
 10 
0.567
 20 
1.825
 11 
0.575
 21 
1.833
 0 
LINE
 8 
0
 62 
 7 
 10 
0.575
 20 
1.833
 11 
0.575
 21 
1.85
 0 
LINE
 8 
0
 62 
 7 
 10 
0.575
 20 
1.85
 11 
0.567
 21 
1.858
 0 
LINE
 8 
0
 62 
 7 
 10 
0.533
 20 
1.875
 11 
0.525
 21 
1.883
 0 
LINE
 8 
0
 62 
 7 
 10 
0.525
 20 
1.883
 11 
0.525
 21 
1.9
 0 
LINE
 8 
0
 62 
 7 
 10 
0.525
 20 
1.9
 11 
0.533
 21 
1.908
 0 
LINE
 8 
0
 62 
 7 
 10 
0.533
 20 
1.908
 11 
0.542
 21 
1.908
 0 
LINE
 8 
0
 62 
 7 
 10 
0.542
 20 
1.908
 11 
0.55
 21 
1.9
 0 
LINE
 8 
0
 62 
 7 
 10 
0.55
 20 
1.9
 11 
0.55
 21 
1.892
 0 
LINE
 8 
0
 62 
 7 
 10 
0.55
 20 
1.9
 11 
0.558
 21 
1.908
 0 
LINE
 8 
0
 62 
 7 
 10 
0.558
 20 
1.908
 11 
0.567
 21 
1.908
 0 
LINE
 8 
0
 62 
 7 
 10 
0.567
 20 
1.908
 11 
0.575
 21 
1.9
 0 
LINE
 8 
0
 62 
 7 
 10 
0.575
 20 
1.9
 11 
0.575
 21 
1.883
 0 
LINE
 8 
0
 62 
 7 
 10 
0.575
 20 
1.883
 11 
0.567
 21 
1.875
 0 
CIRCLE
 8 
0
 62 
 7 
 10 
0.125
 20 
1.425
 40 
0.018
 0 
CIRCLE
 8 
0
 62 
 7 
 10 
0.825
 20 
1.425
 40 
0.018
 0 
LINE
 8 
0
 62 
 7 
 10 
0.24
 20 
1.325
 11 
0.24
 21 
1.525
 0 
LINE
 8 
0
 62 
 7 
 10 
0.71
 20 
1.525
 11 
0.24
 21 
1.525
 0 
LINE
 8 
0
 62 
 7 
 10 
0.71
 20 
1.525
 11 
0.71
 21 
1.325
 0 
LINE
 8 
0
 62 
 7 
 10 
0.24
 20 
1.325
 11 
0.71
 21 
1.325
 0 
LINE
 8 
0
 62 
 7 
 10 
0.24
 20 
1.425
 11 
0.195
 21 
1.425
 0 
LINE
 8 
0
 62 
 7 
 10 
0.71
 20 
1.425
 11 
0.755
 21 
1.425
 0 
LINE
 8 
0
 62 
 7 
 10 
0.311
 20 
1.396
 11 
0.311
 21 
1.454
 0 
LINE
 8 
0
 62 
 7 
 10 
0.282
 20 
1.425
 11 
0.34
 21 
1.425
 0 
LINE
 8 
0
 62 
 7 
 10 
0.458
 20 
1.432
 11 
0.45
 21 
1.424
 0 
LINE
 8 
0
 62 
 7 
 10 
0.45
 20 
1.424
 11 
0.45
 21 
1.407
 0 
LINE
 8 
0
 62 
 7 
 10 
0.45
 20 
1.407
 11 
0.458
 21 
1.399
 0 
LINE
 8 
0
 62 
 7 
 10 
0.458
 20 
1.399
 11 
0.492
 21 
1.399
 0 
LINE
 8 
0
 62 
 7 
 10 
0.492
 20 
1.399
 11 
0.5
 21 
1.407
 0 
LINE
 8 
0
 62 
 7 
 10 
0.5
 20 
1.407
 11 
0.5
 21 
1.424
 0 
LINE
 8 
0
 62 
 7 
 10 
0.5
 20 
1.424
 11 
0.492
 21 
1.432
 0 
LINE
 8 
0
 62 
 7 
 10 
0.483
 20 
1.482
 11 
0.483
 21 
1.449
 0 
LINE
 8 
0
 62 
 7 
 10 
0.483
 20 
1.449
 11 
0.475
 21 
1.449
 0 
LINE
 8 
0
 62 
 7 
 10 
0.475
 20 
1.449
 11 
0.45
 21 
1.474
 0 
LINE
 8 
0
 62 
 7 
 10 
0.45
 20 
1.474
 11 
0.5
 21 
1.474
 0 
LINE
 8 
0
 62 
 7 
 10 
0.6
 20 
0.974
 11 
0.6
 21 
0.956
 0 
LINE
 8 
0
 62 
 7 
 10 
0.5
 20 
0.956
 11 
0.6
 21 
0.956
 0 
LINE
 8 
0
 62 
 7 
 10 
0.5
 20 
0.962
 11 
0.5
 21 
0.968
 0 
LINE
 8 
0
 62 
 7 
 10 
0.6
 20 
0.968
 11 
0.5
 21 
0.968
 0 
LINE
 8 
0
 62 
 7 
 10 
0.6
 20 
0.968
 11 
0.6
 21 
0.962
 0 
LINE
 8 
0
 62 
 7 
 10 
0.5
 20 
0.962
 11 
0.6
 21 
0.962
 0 
LINE
 8 
0
 62 
 7 
 10 
0.7
 20 
1.108
 11 
0.7
 21 
1.133
 0 
LINE
 8 
0
 62 
 7 
 10 
0.7
 20 
1.133
 11 
0.742
 21 
1.133
 0 
LINE
 8 
0
 62 
 7 
 10 
0.742
 20 
1.133
 11 
0.75
 21 
1.125
 0 
LINE
 8 
0
 62 
 7 
 10 
0.75
 20 
1.125
 11 
0.75
 21 
1.108
 0 
LINE
 8 
0
 62 
 7 
 10 
0.75
 20 
1.108
 11 
0.742
 21 
1.1
 0 
LINE
 8 
0
 62 
 7 
 10 
0.717
 20 
1.183
 11 
0.725
 21 
1.175
 0 
LINE
 8 
0
 62 
 7 
 10 
0.725
 20 
1.175
 11 
0.725
 21 
1.158
 0 
LINE
 8 
0
 62 
 7 
 10 
0.725
 20 
1.158
 11 
0.717
 21 
1.15
 0 
LINE
 8 
0
 62 
 7 
 10 
0.717
 20 
1.15
 11 
0.708
 21 
1.15
 0 
LINE
 8 
0
 62 
 7 
 10 
0.708
 20 
1.15
 11 
0.7
 21 
1.158
 0 
LINE
 8 
0
 62 
 7 
 10 
0.7
 20 
1.158
 11 
0.7
 21 
1.175
 0 
LINE
 8 
0
 62 
 7 
 10 
0.7
 20 
1.175
 11 
0.708
 21 
1.183
 0 
LINE
 8 
0
 62 
 7 
 10 
0.708
 20 
1.183
 11 
0.733
 21 
1.183
 0 
LINE
 8 
0
 62 
 7 
 10 
0.733
 20 
1.183
 11 
0.75
 21 
1.167
 0 
LINE
 8 
0
 62 
 7 
 10 
0.75
 20 
1.167
 11 
0.75
 21 
1.158
 0 
LINE
 8 
0
 62 
 7 
 10 
0.39
 20 
0.9
 11 
0.35
 21 
0.9
 0 
LINE
 8 
0
 62 
 7 
 10 
0.35
 20 
0.9
 11 
0.35
 21 
0.92
 0 
LINE
 8 
0
 62 
 7 
 10 
0.35
 20 
0.92
 11 
0.357
 21 
0.927
 0 
LINE
 8 
0
 62 
 7 
 10 
0.357
 20 
0.927
 11 
0.363
 21 
0.927
 0 
LINE
 8 
0
 62 
 7 
 10 
0.363
 20 
0.927
 11 
0.37
 21 
0.92
 0 
LINE
 8 
0
 62 
 7 
 10 
0.37
 20 
0.92
 11 
0.37
 21 
0.9
 0 
LINE
 8 
0
 62 
 7 
 10 
0.37
 20 
0.967
 11 
0.363
 21 
0.96
 0 
LINE
 8 
0
 62 
 7 
 10 
0.363
 20 
0.96
 11 
0.363
 21 
0.947
 0 
LINE
 8 
0
 62 
 7 
 10 
0.363
 20 
0.947
 11 
0.37
 21 
0.94
 0 
LINE
 8 
0
 62 
 7 
 10 
0.37
 20 
0.94
 11 
0.383
 21 
0.94
 0 
LINE
 8 
0
 62 
 7 
 10 
0.383
 20 
0.94
 11 
0.39
 21 
0.947
 0 
LINE
 8 
0
 62 
 7 
 10 
0.39
 20 
0.947
 11 
0.39
 21 
0.96
 0 
LINE
 8 
0
 62 
 7 
 10 
0.39
 20 
0.96
 11 
0.383
 21 
0.967
 0 
LINE
 8 
0
 62 
 7 
 10 
0.383
 20 
0.967
 11 
0.37
 21 
0.967
 0 
LINE
 8 
0
 62 
 7 
 10 
0.363
 20 
0.98
 11 
0.383
 21 
0.98
 0 
LINE
 8 
0
 62 
 7 
 10 
0.383
 20 
0.98
 11 
0.39
 21 
0.987
 0 
LINE
 8 
0
 62 
 7 
 10 
0.39
 20 
0.987
 11 
0.383
 21 
0.993
 0 
LINE
 8 
0
 62 
 7 
 10 
0.383
 20 
0.993
 11 
0.377
 21 
0.993
 0 
LINE
 8 
0
 62 
 7 
 10 
0.383
 20 
0.993
 11 
0.39
 21 
1.0
 0 
LINE
 8 
0
 62 
 7 
 10 
0.39
 20 
1.0
 11 
0.383
 21 
1.007
 0 
LINE
 8 
0
 62 
 7 
 10 
0.383
 20 
1.007
 11 
0.363
 21 
1.007
 0 
LINE
 8 
0
 62 
 7 
 10 
0.377
 20 
1.02
 11 
0.377
 21 
1.047
 0 
LINE
 8 
0
 62 
 7 
 10 
0.377
 20 
1.047
 11 
0.37
 21 
1.047
 0 
LINE
 8 
0
 62 
 7 
 10 
0.37
 20 
1.047
 11 
0.363
 21 
1.04
 0 
LINE
 8 
0
 62 
 7 
 10 
0.363
 20 
1.04
 11 
0.363
 21 
1.027
 0 
LINE
 8 
0
 62 
 7 
 10 
0.363
 20 
1.027
 11 
0.37
 21 
1.02
 0 
LINE
 8 
0
 62 
 7 
 10 
0.37
 20 
1.02
 11 
0.383
 21 
1.02
 0 
LINE
 8 
0
 62 
 7 
 10 
0.383
 20 
1.02
 11 
0.39
 21 
1.027
 0 
LINE
 8 
0
 62 
 7 
 10 
0.39
 20 
1.027
 11 
0.39
 21 
1.04
 0 
LINE
 8 
0
 62 
 7 
 10 
0.363
 20 
1.06
 11 
0.39
 21 
1.06
 0 
LINE
 8 
0
 62 
 7 
 10 
0.377
 20 
1.06
 11 
0.363
 21 
1.073
 0 
LINE
 8 
0
 62 
 7 
 10 
0.363
 20 
1.073
 11 
0.363
 21 
1.08
 0 
LINE
 8 
0
 62 
 7 
 10 
0.363
 20 
1.08
 11 
0.37
 21 
1.087
 0 
LINE
 8 
0
 62 
 7 
 10 
0.35
 20 
1.14
 11 
0.39
 21 
1.14
 0 
LINE
 8 
0
 62 
 7 
 10 
0.39
 20 
1.14
 11 
0.39
 21 
1.167
 0 
LINE
 8 
0
 62 
 7 
 10 
0.35
 20 
1.207
 11 
0.35
 21 
1.18
 0 
LINE
 8 
0
 62 
 7 
 10 
0.35
 20 
1.18
 11 
0.39
 21 
1.18
 0 
LINE
 8 
0
 62 
 7 
 10 
0.39
 20 
1.18
 11 
0.39
 21 
1.207
 0 
LINE
 8 
0
 62 
 7 
 10 
0.37
 20 
1.18
 11 
0.37
 21 
1.2
 0 
LINE
 8 
0
 62 
 7 
 10 
0.35
 20 
1.22
 11 
0.35
 21 
1.24
 0 
LINE
 8 
0
 62 
 7 
 10 
0.35
 20 
1.24
 11 
0.357
 21 
1.247
 0 
LINE
 8 
0
 62 
 7 
 10 
0.357
 20 
1.247
 11 
0.383
 21 
1.247
 0 
LINE
 8 
0
 62 
 7 
 10 
0.383
 20 
1.247
 11 
0.39
 21 
1.24
 0 
LINE
 8 
0
 62 
 7 
 10 
0.39
 20 
1.24
 11 
0.39
 21 
1.22
 0 
LINE
 8 
0
 62 
 7 
 10 
0.35
 20 
1.227
 11 
0.39
 21 
1.227
 0 
CIRCLE
 8 
0
 62 
 7 
 10 
1.175
 20 
1.55
 40 
0.02
 0 
CIRCLE
 8 
0
 62 
 7 
 10 
0.35
 20 
1.725
 40 
0.014
 0 
CIRCLE
 8 
0
 62 
 7 
 10 
0.75
 20 
1.725
 40 
0.014
 0 
LINE
 8 
0
 62 
 7 
 10 
0.435
 20 
1.675
 11 
0.435
 21 
1.775
 0 
LINE
 8 
0
 62 
 7 
 10 
0.665
 20 
1.775
 11 
0.435
 21 
1.775
 0 
LINE
 8 
0
 62 
 7 
 10 
0.665
 20 
1.775
 11 
0.665
 21 
1.675
 0 
LINE
 8 
0
 62 
 7 
 10 
0.435
 20 
1.675
 11 
0.665
 21 
1.675
 0 
LINE
 8 
0
 62 
 7 
 10 
0.435
 20 
1.725
 11 
0.4
 21 
1.725
 0 
LINE
 8 
0
 62 
 7 
 10 
0.665
 20 
1.725
 11 
0.7
 21 
1.725
 0 
LINE
 8 
0
 62 
 7 
 10 
0.5
 20 
1.7
 11 
0.5
 21 
1.75
 0 
LINE
 8 
0
 62 
 7 
 10 
0.5
 20 
1.75
 11 
0.525
 21 
1.75
 0 
LINE
 8 
0
 62 
 7 
 10 
0.525
 20 
1.75
 11 
0.533
 21 
1.742
 0 
LINE
 8 
0
 62 
 7 
 10 
0.533
 20 
1.742
 11 
0.533
 21 
1.733
 0 
LINE
 8 
0
 62 
 7 
 10 
0.533
 20 
1.733
 11 
0.525
 21 
1.725
 0 
LINE
 8 
0
 62 
 7 
 10 
0.525
 20 
1.725
 11 
0.5
 21 
1.725
 0 
LINE
 8 
0
 62 
 7 
 10 
0.508
 20 
1.725
 11 
0.533
 21 
1.7
 0 
LINE
 8 
0
 62 
 7 
 10 
0.558
 20 
1.742
 11 
0.567
 21 
1.75
 0 
LINE
 8 
0
 62 
 7 
 10 
0.567
 20 
1.75
 11 
0.567
 21 
1.7
 0 
LINE
 8 
0
 62 
 7 
 10 
0.558
 20 
1.7
 11 
0.575
 21 
1.7
 0 
CIRCLE
 8 
0
 62 
 7 
 10 
0.35
 20 
1.6
 40 
0.014
 0 
CIRCLE
 8 
0
 62 
 7 
 10 
0.75
 20 
1.6
 40 
0.014
 0 
LINE
 8 
0
 62 
 7 
 10 
0.435
 20 
1.55
 11 
0.435
 21 
1.65
 0 
LINE
 8 
0
 62 
 7 
 10 
0.665
 20 
1.65
 11 
0.435
 21 
1.65
 0 
LINE
 8 
0
 62 
 7 
 10 
0.665
 20 
1.65
 11 
0.665
 21 
1.55
 0 
LINE
 8 
0
 62 
 7 
 10 
0.435
 20 
1.55
 11 
0.665
 21 
1.55
 0 
LINE
 8 
0
 62 
 7 
 10 
0.435
 20 
1.6
 11 
0.4
 21 
1.6
 0 
LINE
 8 
0
 62 
 7 
 10 
0.665
 20 
1.6
 11 
0.7
 21 
1.6
 0 
LINE
 8 
0
 62 
 7 
 10 
0.5
 20 
1.575
 11 
0.5
 21 
1.625
 0 
LINE
 8 
0
 62 
 7 
 10 
0.5
 20 
1.625
 11 
0.525
 21 
1.625
 0 
LINE
 8 
0
 62 
 7 
 10 
0.525
 20 
1.625
 11 
0.533
 21 
1.617
 0 
LINE
 8 
0
 62 
 7 
 10 
0.533
 20 
1.617
 11 
0.533
 21 
1.608
 0 
LINE
 8 
0
 62 
 7 
 10 
0.533
 20 
1.608
 11 
0.525
 21 
1.6
 0 
LINE
 8 
0
 62 
 7 
 10 
0.525
 20 
1.6
 11 
0.5
 21 
1.6
 0 
LINE
 8 
0
 62 
 7 
 10 
0.508
 20 
1.6
 11 
0.533
 21 
1.575
 0 
LINE
 8 
0
 62 
 7 
 10 
0.55
 20 
1.617
 11 
0.558
 21 
1.625
 0 
LINE
 8 
0
 62 
 7 
 10 
0.558
 20 
1.625
 11 
0.575
 21 
1.625
 0 
LINE
 8 
0
 62 
 7 
 10 
0.575
 20 
1.625
 11 
0.583
 21 
1.617
 0 
LINE
 8 
0
 62 
 7 
 10 
0.583
 20 
1.617
 11 
0.583
 21 
1.608
 0 
LINE
 8 
0
 62 
 7 
 10 
0.583
 20 
1.608
 11 
0.575
 21 
1.6
 0 
LINE
 8 
0
 62 
 7 
 10 
0.575
 20 
1.6
 11 
0.558
 21 
1.6
 0 
LINE
 8 
0
 62 
 7 
 10 
0.558
 20 
1.6
 11 
0.55
 21 
1.592
 0 
LINE
 8 
0
 62 
 7 
 10 
0.55
 20 
1.592
 11 
0.55
 21 
1.575
 0 
LINE
 8 
0
 62 
 7 
 10 
0.55
 20 
1.575
 11 
0.583
 21 
1.575
 0 
CIRCLE
 8 
0
 62 
 7 
 10 
0.7
 20 
2.225
 40 
0.022
 0 
CIRCLE
 8 
0
 62 
 7 
 10 
0.503
 20 
2.225
 40 
0.022
 0 
LINE
 8 
0
 62 
 7 
 10 
0.4
 20 
2.325
 11 
0.8
 21 
2.325
 0 
LINE
 8 
0
 62 
 7 
 10 
0.8
 20 
2.325
 11 
0.8
 21 
2.125
 0 
LINE
 8 
0
 62 
 7 
 10 
0.8
 20 
2.125
 11 
0.4
 21 
2.125
 0 
LINE
 8 
0
 62 
 7 
 10 
0.4
 20 
2.125
 11 
0.4
 21 
2.325
 0 
LINE
 8 
0
 62 
 7 
 10 
0.825
 20 
2.133
 11 
0.825
 21 
2.158
 0 
LINE
 8 
0
 62 
 7 
 10 
0.825
 20 
2.158
 11 
0.867
 21 
2.158
 0 
LINE
 8 
0
 62 
 7 
 10 
0.867
 20 
2.158
 11 
0.875
 21 
2.15
 0 
LINE
 8 
0
 62 
 7 
 10 
0.875
 20 
2.15
 11 
0.875
 21 
2.133
 0 
LINE
 8 
0
 62 
 7 
 10 
0.875
 20 
2.133
 11 
0.867
 21 
2.125
 0 
LINE
 8 
0
 62 
 7 
 10 
0.833
 20 
2.175
 11 
0.825
 21 
2.183
 0 
LINE
 8 
0
 62 
 7 
 10 
0.825
 20 
2.183
 11 
0.825
 21 
2.2
 0 
LINE
 8 
0
 62 
 7 
 10 
0.825
 20 
2.2
 11 
0.833
 21 
2.208
 0 
LINE
 8 
0
 62 
 7 
 10 
0.833
 20 
2.208
 11 
0.842
 21 
2.208
 0 
LINE
 8 
0
 62 
 7 
 10 
0.842
 20 
2.208
 11 
0.85
 21 
2.2
 0 
LINE
 8 
0
 62 
 7 
 10 
0.85
 20 
2.2
 11 
0.85
 21 
2.183
 0 
LINE
 8 
0
 62 
 7 
 10 
0.85
 20 
2.183
 11 
0.858
 21 
2.175
 0 
LINE
 8 
0
 62 
 7 
 10 
0.858
 20 
2.175
 11 
0.875
 21 
2.175
 0 
LINE
 8 
0
 62 
 7 
 10 
0.875
 20 
2.175
 11 
0.875
 21 
2.208
 0 
LINE
 8 
0
 62 
 7 
 10 
0.475
 20 
2.355
 11 
0.502
 21 
2.355
 0 
CIRCLE
 8 
0
 62 
 7 
 10 
1.175
 20 
1.65
 40 
0.02
 0 
LINE
 8 
0
 62 
 7 
 10 
1.3
 20 
1.49
 11 
1.05
 21 
1.49
 0 
CIRCLE
 8 
0
 62 
 7 
 10 
1.45
 20 
0.625
 40 
0.02
 0 
CIRCLE
 8 
0
 62 
 7 
 10 
1.45
 20 
0.725
 40 
0.02
 0 
LINE
 8 
0
 62 
 7 
 10 
1.575
 20 
0.565
 11 
1.325
 21 
0.565
 0 
LINE
 8 
0
 62 
 7 
 10 
1.325
 20 
0.785
 11 
1.325
 21 
0.565
 0 
LINE
 8 
0
 62 
 7 
 10 
1.325
 20 
0.785
 11 
1.575
 21 
0.785
 0 
LINE
 8 
0
 62 
 7 
 10 
1.575
 20 
0.565
 11 
1.575
 21 
0.785
 0 
LINE
 8 
0
 62 
 7 
 10 
1.569
 20 
0.625
 11 
1.551
 21 
0.625
 0 
LINE
 8 
0
 62 
 7 
 10 
1.551
 20 
0.725
 11 
1.551
 21 
0.625
 0 
LINE
 8 
0
 62 
 7 
 10 
1.551
 20 
0.725
 11 
1.569
 21 
0.725
 0 
LINE
 8 
0
 62 
 7 
 10 
1.569
 20 
0.625
 11 
1.569
 21 
0.725
 0 
LINE
 8 
0
 62 
 7 
 10 
1.563
 20 
0.625
 11 
1.557
 21 
0.625
 0 
LINE
 8 
0
 62 
 7 
 10 
1.557
 20 
0.725
 11 
1.557
 21 
0.625
 0 
LINE
 8 
0
 62 
 7 
 10 
1.557
 20 
0.725
 11 
1.563
 21 
0.725
 0 
LINE
 8 
0
 62 
 7 
 10 
1.563
 20 
0.625
 11 
1.563
 21 
0.725
 0 
LINE
 8 
0
 62 
 7 
 10 
1.25
 20 
0.658
 11 
1.25
 21 
0.683
 0 
LINE
 8 
0
 62 
 7 
 10 
1.25
 20 
0.683
 11 
1.292
 21 
0.683
 0 
LINE
 8 
0
 62 
 7 
 10 
1.292
 20 
0.683
 11 
1.3
 21 
0.675
 0 
LINE
 8 
0
 62 
 7 
 10 
1.3
 20 
0.675
 11 
1.3
 21 
0.658
 0 
LINE
 8 
0
 62 
 7 
 10 
1.3
 20 
0.658
 11 
1.292
 21 
0.65
 0 
LINE
 8 
0
 62 
 7 
 10 
1.258
 20 
0.708
 11 
1.25
 21 
0.717
 0 
LINE
 8 
0
 62 
 7 
 10 
1.25
 20 
0.717
 11 
1.3
 21 
0.717
 0 
LINE
 8 
0
 62 
 7 
 10 
1.3
 20 
0.708
 11 
1.3
 21 
0.725
 0 
LINE
 8 
0
 62 
 7 
 10 
1.292
 20 
0.75
 11 
1.258
 21 
0.75
 0 
LINE
 8 
0
 62 
 7 
 10 
1.258
 20 
0.75
 11 
1.25
 21 
0.758
 0 
LINE
 8 
0
 62 
 7 
 10 
1.25
 20 
0.758
 11 
1.25
 21 
0.775
 0 
LINE
 8 
0
 62 
 7 
 10 
1.25
 20 
0.775
 11 
1.258
 21 
0.783
 0 
LINE
 8 
0
 62 
 7 
 10 
1.258
 20 
0.783
 11 
1.292
 21 
0.783
 0 
LINE
 8 
0
 62 
 7 
 10 
1.292
 20 
0.783
 11 
1.3
 21 
0.775
 0 
LINE
 8 
0
 62 
 7 
 10 
1.3
 20 
0.775
 11 
1.3
 21 
0.758
 0 
LINE
 8 
0
 62 
 7 
 10 
1.3
 20 
0.758
 11 
1.292
 21 
0.75
 0 
LINE
 8 
0
 62 
 7 
 10 
1.292
 20 
0.75
 11 
1.258
 21 
0.783
 0 
CIRCLE
 8 
0
 62 
 7 
 10 
1.725
 20 
0.625
 40 
0.02
 0 
CIRCLE
 8 
0
 62 
 7 
 10 
1.725
 20 
0.725
 40 
0.02
 0 
LINE
 8 
0
 62 
 7 
 10 
1.85
 20 
0.565
 11 
1.6
 21 
0.565
 0 
LINE
 8 
0
 62 
 7 
 10 
1.6
 20 
0.785
 11 
1.6
 21 
0.565
 0 
LINE
 8 
0
 62 
 7 
 10 
1.6
 20 
0.785
 11 
1.85
 21 
0.785
 0 
LINE
 8 
0
 62 
 7 
 10 
1.85
 20 
0.565
 11 
1.85
 21 
0.785
 0 
LINE
 8 
0
 62 
 7 
 10 
1.844
 20 
0.625
 11 
1.826
 21 
0.625
 0 
LINE
 8 
0
 62 
 7 
 10 
1.826
 20 
0.725
 11 
1.826
 21 
0.625
 0 
LINE
 8 
0
 62 
 7 
 10 
1.826
 20 
0.725
 11 
1.844
 21 
0.725
 0 
LINE
 8 
0
 62 
 7 
 10 
1.844
 20 
0.625
 11 
1.844
 21 
0.725
 0 
LINE
 8 
0
 62 
 7 
 10 
1.838
 20 
0.625
 11 
1.832
 21 
0.625
 0 
LINE
 8 
0
 62 
 7 
 10 
1.832
 20 
0.725
 11 
1.832
 21 
0.625
 0 
LINE
 8 
0
 62 
 7 
 10 
1.832
 20 
0.725
 11 
1.838
 21 
0.725
 0 
LINE
 8 
0
 62 
 7 
 10 
1.838
 20 
0.625
 11 
1.838
 21 
0.725
 0 
LINE
 8 
0
 62 
 7 
 10 
1.875
 20 
0.658
 11 
1.875
 21 
0.683
 0 
LINE
 8 
0
 62 
 7 
 10 
1.875
 20 
0.683
 11 
1.917
 21 
0.683
 0 
LINE
 8 
0
 62 
 7 
 10 
1.917
 20 
0.683
 11 
1.925
 21 
0.675
 0 
LINE
 8 
0
 62 
 7 
 10 
1.925
 20 
0.675
 11 
1.925
 21 
0.658
 0 
LINE
 8 
0
 62 
 7 
 10 
1.925
 20 
0.658
 11 
1.917
 21 
0.65
 0 
LINE
 8 
0
 62 
 7 
 10 
1.883
 20 
0.708
 11 
1.875
 21 
0.717
 0 
LINE
 8 
0
 62 
 7 
 10 
1.875
 20 
0.717
 11 
1.925
 21 
0.717
 0 
LINE
 8 
0
 62 
 7 
 10 
1.925
 20 
0.708
 11 
1.925
 21 
0.725
 0 
LINE
 8 
0
 62 
 7 
 10 
1.883
 20 
0.758
 11 
1.875
 21 
0.767
 0 
LINE
 8 
0
 62 
 7 
 10 
1.875
 20 
0.767
 11 
1.925
 21 
0.767
 0 
LINE
 8 
0
 62 
 7 
 10 
1.925
 20 
0.758
 11 
1.925
 21 
0.775
 0 
CIRCLE
 8 
0
 62 
 7 
 10 
1.175
 20 
1.1
 40 
0.02
 0 
CIRCLE
 8 
0
 62 
 7 
 10 
1.175
 20 
1.0
 40 
0.02
 0 
LINE
 8 
0
 62 
 7 
 10 
1.05
 20 
1.16
 11 
1.3
 21 
1.16
 0 
LINE
 8 
0
 62 
 7 
 10 
1.3
 20 
0.94
 11 
1.3
 21 
1.16
 0 
LINE
 8 
0
 62 
 7 
 10 
1.3
 20 
0.94
 11 
1.05
 21 
0.94
 0 
LINE
 8 
0
 62 
 7 
 10 
1.05
 20 
1.16
 11 
1.05
 21 
0.94
 0 
LINE
 8 
0
 62 
 7 
 10 
1.056
 20 
1.1
 11 
1.074
 21 
1.1
 0 
LINE
 8 
0
 62 
 7 
 10 
1.074
 20 
1.0
 11 
1.074
 21 
1.1
 0 
LINE
 8 
0
 62 
 7 
 10 
1.074
 20 
1.0
 11 
1.056
 21 
1.0
 0 
LINE
 8 
0
 62 
 7 
 10 
1.056
 20 
1.1
 11 
1.056
 21 
1.0
 0 
LINE
 8 
0
 62 
 7 
 10 
1.062
 20 
1.1
 11 
1.068
 21 
1.1
 0 
LINE
 8 
0
 62 
 7 
 10 
1.068
 20 
1.0
 11 
1.068
 21 
1.1
 0 
LINE
 8 
0
 62 
 7 
 10 
1.068
 20 
1.0
 11 
1.062
 21 
1.0
 0 
LINE
 8 
0
 62 
 7 
 10 
1.062
 20 
1.1
 11 
1.062
 21 
1.0
 0 
LINE
 8 
0
 62 
 7 
 10 
0.983
 20 
1.058
 11 
0.975
 21 
1.05
 0 
LINE
 8 
0
 62 
 7 
 10 
0.975
 20 
1.05
 11 
0.975
 21 
1.033
 0 
LINE
 8 
0
 62 
 7 
 10 
0.975
 20 
1.033
 11 
0.983
 21 
1.025
 0 
LINE
 8 
0
 62 
 7 
 10 
0.983
 20 
1.025
 11 
0.992
 21 
1.025
 0 
LINE
 8 
0
 62 
 7 
 10 
0.992
 20 
1.025
 11 
1.0
 21 
1.033
 0 
LINE
 8 
0
 62 
 7 
 10 
1.0
 20 
1.033
 11 
1.0
 21 
1.05
 0 
LINE
 8 
0
 62 
 7 
 10 
1.0
 20 
1.05
 11 
1.008
 21 
1.058
 0 
LINE
 8 
0
 62 
 7 
 10 
1.008
 20 
1.058
 11 
1.017
 21 
1.058
 0 
LINE
 8 
0
 62 
 7 
 10 
1.017
 20 
1.058
 11 
1.025
 21 
1.05
 0 
LINE
 8 
0
 62 
 7 
 10 
1.025
 20 
1.05
 11 
1.025
 21 
1.033
 0 
LINE
 8 
0
 62 
 7 
 10 
1.025
 20 
1.033
 11 
1.017
 21 
1.025
 0 
LINE
 8 
0
 62 
 7 
 10 
0.975
 20 
1.075
 11 
1.025
 21 
1.075
 0 
LINE
 8 
0
 62 
 7 
 10 
1.025
 20 
1.075
 11 
1.008
 21 
1.092
 0 
LINE
 8 
0
 62 
 7 
 10 
1.008
 20 
1.092
 11 
1.025
 21 
1.108
 0 
LINE
 8 
0
 62 
 7 
 10 
1.025
 20 
1.108
 11 
0.975
 21 
1.108
 0 
LINE
 8 
0
 62 
 7 
 10 
1.008
 20 
1.092
 11 
1.0
 21 
1.092
 0 
LINE
 8 
0
 62 
 7 
 10 
0.983
 20 
1.125
 11 
0.975
 21 
1.133
 0 
LINE
 8 
0
 62 
 7 
 10 
0.975
 20 
1.133
 11 
0.975
 21 
1.15
 0 
LINE
 8 
0
 62 
 7 
 10 
0.975
 20 
1.15
 11 
0.983
 21 
1.158
 0 
LINE
 8 
0
 62 
 7 
 10 
0.983
 20 
1.158
 11 
0.992
 21 
1.158
 0 
LINE
 8 
0
 62 
 7 
 10 
0.992
 20 
1.158
 11 
1.0
 21 
1.15
 0 
LINE
 8 
0
 62 
 7 
 10 
1.0
 20 
1.15
 11 
1.0
 21 
1.133
 0 
LINE
 8 
0
 62 
 7 
 10 
1.0
 20 
1.133
 11 
1.008
 21 
1.125
 0 
LINE
 8 
0
 62 
 7 
 10 
1.008
 20 
1.125
 11 
1.025
 21 
1.125
 0 
LINE
 8 
0
 62 
 7 
 10 
1.025
 20 
1.125
 11 
1.025
 21 
1.158
 0 
CIRCLE
 8 
0
 62 
 7 
 10 
1.05
 20 
0.875
 40 
0.014
 0 
CIRCLE
 8 
0
 62 
 7 
 10 
1.05
 20 
0.475
 40 
0.014
 0 
LINE
 8 
0
 62 
 7 
 10 
1.0
 20 
0.79
 11 
1.1
 21 
0.79
 0 
LINE
 8 
0
 62 
 7 
 10 
1.1
 20 
0.56
 11 
1.1
 21 
0.79
 0 
LINE
 8 
0
 62 
 7 
 10 
1.1
 20 
0.56
 11 
1.0
 21 
0.56
 0 
LINE
 8 
0
 62 
 7 
 10 
1.0
 20 
0.79
 11 
1.0
 21 
0.56
 0 
LINE
 8 
0
 62 
 7 
 10 
1.05
 20 
0.79
 11 
1.05
 21 
0.825
 0 
LINE
 8 
0
 62 
 7 
 10 
1.05
 20 
0.56
 11 
1.05
 21 
0.525
 0 
LINE
 8 
0
 62 
 7 
 10 
1.026
 20 
0.75
 11 
1.076
 21 
0.75
 0 
LINE
 8 
0
 62 
 7 
 10 
1.076
 20 
0.75
 11 
1.076
 21 
0.725
 0 
LINE
 8 
0
 62 
 7 
 10 
1.076
 20 
0.725
 11 
1.068
 21 
0.717
 0 
LINE
 8 
0
 62 
 7 
 10 
1.068
 20 
0.717
 11 
1.059
 21 
0.717
 0 
LINE
 8 
0
 62 
 7 
 10 
1.059
 20 
0.717
 11 
1.051
 21 
0.725
 0 
LINE
 8 
0
 62 
 7 
 10 
1.051
 20 
0.725
 11 
1.051
 21 
0.75
 0 
LINE
 8 
0
 62 
 7 
 10 
1.051
 20 
0.742
 11 
1.026
 21 
0.717
 0 
LINE
 8 
0
 62 
 7 
 10 
1.068
 20 
0.692
 11 
1.076
 21 
0.683
 0 
LINE
 8 
0
 62 
 7 
 10 
1.076
 20 
0.683
 11 
1.026
 21 
0.683
 0 
LINE
 8 
0
 62 
 7 
 10 
1.026
 20 
0.692
 11 
1.026
 21 
0.675
 0 
LINE
 8 
0
 62 
 7 
 10 
1.068
 20 
0.65
 11 
1.076
 21 
0.642
 0 
LINE
 8 
0
 62 
 7 
 10 
1.076
 20 
0.642
 11 
1.076
 21 
0.625
 0 
LINE
 8 
0
 62 
 7 
 10 
1.076
 20 
0.625
 11 
1.068
 21 
0.617
 0 
LINE
 8 
0
 62 
 7 
 10 
1.068
 20 
0.617
 11 
1.059
 21 
0.617
 0 
LINE
 8 
0
 62 
 7 
 10 
1.059
 20 
0.617
 11 
1.051
 21 
0.625
 0 
LINE
 8 
0
 62 
 7 
 10 
1.051
 20 
0.625
 11 
1.051
 21 
0.633
 0 
LINE
 8 
0
 62 
 7 
 10 
1.051
 20 
0.625
 11 
1.043
 21 
0.617
 0 
LINE
 8 
0
 62 
 7 
 10 
1.043
 20 
0.617
 11 
1.034
 21 
0.617
 0 
LINE
 8 
0
 62 
 7 
 10 
1.034
 20 
0.617
 11 
1.026
 21 
0.625
 0 
LINE
 8 
0
 62 
 7 
 10 
1.026
 20 
0.625
 11 
1.026
 21 
0.642
 0 
LINE
 8 
0
 62 
 7 
 10 
1.026
 20 
0.642
 11 
1.034
 21 
0.65
 0 
CIRCLE
 8 
0
 62 
 7 
 10 
1.175
 20 
0.875
 40 
0.014
 0 
CIRCLE
 8 
0
 62 
 7 
 10 
1.175
 20 
0.475
 40 
0.014
 0 
LINE
 8 
0
 62 
 7 
 10 
1.125
 20 
0.79
 11 
1.225
 21 
0.79
 0 
LINE
 8 
0
 62 
 7 
 10 
1.225
 20 
0.56
 11 
1.225
 21 
0.79
 0 
LINE
 8 
0
 62 
 7 
 10 
1.225
 20 
0.56
 11 
1.125
 21 
0.56
 0 
LINE
 8 
0
 62 
 7 
 10 
1.125
 20 
0.79
 11 
1.125
 21 
0.56
 0 
LINE
 8 
0
 62 
 7 
 10 
1.175
 20 
0.79
 11 
1.175
 21 
0.825
 0 
LINE
 8 
0
 62 
 7 
 10 
1.175
 20 
0.56
 11 
1.175
 21 
0.525
 0 
LINE
 8 
0
 62 
 7 
 10 
1.201
 20 
0.618
 11 
1.151
 21 
0.618
 0 
LINE
 8 
0
 62 
 7 
 10 
1.151
 20 
0.618
 11 
1.151
 21 
0.643
 0 
LINE
 8 
0
 62 
 7 
 10 
1.151
 20 
0.643
 11 
1.159
 21 
0.651
 0 
LINE
 8 
0
 62 
 7 
 10 
1.159
 20 
0.651
 11 
1.168
 21 
0.651
 0 
LINE
 8 
0
 62 
 7 
 10 
1.168
 20 
0.651
 11 
1.176
 21 
0.643
 0 
LINE
 8 
0
 62 
 7 
 10 
1.176
 20 
0.643
 11 
1.176
 21 
0.618
 0 
LINE
 8 
0
 62 
 7 
 10 
1.176
 20 
0.626
 11 
1.201
 21 
0.651
 0 
LINE
 8 
0
 62 
 7 
 10 
1.159
 20 
0.676
 11 
1.151
 21 
0.685
 0 
LINE
 8 
0
 62 
 7 
 10 
1.151
 20 
0.685
 11 
1.201
 21 
0.685
 0 
LINE
 8 
0
 62 
 7 
 10 
1.201
 20 
0.676
 11 
1.201
 21 
0.693
 0 
LINE
 8 
0
 62 
 7 
 10 
1.184
 20 
0.751
 11 
1.184
 21 
0.718
 0 
LINE
 8 
0
 62 
 7 
 10 
1.184
 20 
0.718
 11 
1.176
 21 
0.718
 0 
LINE
 8 
0
 62 
 7 
 10 
1.176
 20 
0.718
 11 
1.151
 21 
0.743
 0 
LINE
 8 
0
 62 
 7 
 10 
1.151
 20 
0.743
 11 
1.201
 21 
0.743
 0 
CIRCLE
 8 
0
 62 
 7 
 10 
1.725
 20 
1.55
 40 
0.02
 0 
CIRCLE
 8 
0
 62 
 7 
 10 
1.725
 20 
1.65
 40 
0.02
 0 
LINE
 8 
0
 62 
 7 
 10 
1.85
 20 
1.49
 11 
1.6
 21 
1.49
 0 
LINE
 8 
0
 62 
 7 
 10 
1.6
 20 
1.71
 11 
1.6
 21 
1.49
 0 
LINE
 8 
0
 62 
 7 
 10 
1.6
 20 
1.71
 11 
1.85
 21 
1.71
 0 
LINE
 8 
0
 62 
 7 
 10 
1.85
 20 
1.49
 11 
1.85
 21 
1.71
 0 
LINE
 8 
0
 62 
 7 
 10 
1.844
 20 
1.55
 11 
1.826
 21 
1.55
 0 
LINE
 8 
0
 62 
 7 
 10 
1.826
 20 
1.65
 11 
1.826
 21 
1.55
 0 
LINE
 8 
0
 62 
 7 
 10 
1.826
 20 
1.65
 11 
1.844
 21 
1.65
 0 
LINE
 8 
0
 62 
 7 
 10 
1.844
 20 
1.55
 11 
1.844
 21 
1.65
 0 
LINE
 8 
0
 62 
 7 
 10 
1.838
 20 
1.55
 11 
1.832
 21 
1.55
 0 
LINE
 8 
0
 62 
 7 
 10 
1.832
 20 
1.65
 11 
1.832
 21 
1.55
 0 
LINE
 8 
0
 62 
 7 
 10 
1.832
 20 
1.65
 11 
1.838
 21 
1.65
 0 
LINE
 8 
0
 62 
 7 
 10 
1.838
 20 
1.55
 11 
1.838
 21 
1.65
 0 
LINE
 8 
0
 62 
 7 
 10 
1.725
 20 
1.425
 11 
1.725
 21 
1.475
 0 
LINE
 8 
0
 62 
 7 
 10 
1.725
 20 
1.475
 11 
1.75
 21 
1.475
 0 
LINE
 8 
0
 62 
 7 
 10 
1.75
 20 
1.475
 11 
1.758
 21 
1.467
 0 
LINE
 8 
0
 62 
 7 
 10 
1.758
 20 
1.467
 11 
1.758
 21 
1.458
 0 
LINE
 8 
0
 62 
 7 
 10 
1.758
 20 
1.458
 11 
1.75
 21 
1.45
 0 
LINE
 8 
0
 62 
 7 
 10 
1.75
 20 
1.45
 11 
1.725
 21 
1.45
 0 
LINE
 8 
0
 62 
 7 
 10 
1.733
 20 
1.45
 11 
1.758
 21 
1.425
 0 
LINE
 8 
0
 62 
 7 
 10 
1.783
 20 
1.467
 11 
1.792
 21 
1.475
 0 
LINE
 8 
0
 62 
 7 
 10 
1.792
 20 
1.475
 11 
1.792
 21 
1.425
 0 
LINE
 8 
0
 62 
 7 
 10 
1.783
 20 
1.425
 11 
1.8
 21 
1.425
 0 
LINE
 8 
0
 62 
 7 
 10 
1.833
 20 
1.467
 11 
1.842
 21 
1.475
 0 
LINE
 8 
0
 62 
 7 
 10 
1.842
 20 
1.475
 11 
1.842
 21 
1.425
 0 
LINE
 8 
0
 62 
 7 
 10 
1.833
 20 
1.425
 11 
1.85
 21 
1.425
 0 
CIRCLE
 8 
0
 62 
 7 
 10 
1.925
 20 
1.4
 40 
0.014
 0 
CIRCLE
 8 
0
 62 
 7 
 10 
1.925
 20 
1.8
 40 
0.014
 0 
LINE
 8 
0
 62 
 7 
 10 
1.975
 20 
1.485
 11 
1.875
 21 
1.485
 0 
LINE
 8 
0
 62 
 7 
 10 
1.875
 20 
1.715
 11 
1.875
 21 
1.485
 0 
LINE
 8 
0
 62 
 7 
 10 
1.875
 20 
1.715
 11 
1.975
 21 
1.715
 0 
LINE
 8 
0
 62 
 7 
 10 
1.975
 20 
1.485
 11 
1.975
 21 
1.715
 0 
LINE
 8 
0
 62 
 7 
 10 
1.925
 20 
1.485
 11 
1.925
 21 
1.45
 0 
LINE
 8 
0
 62 
 7 
 10 
1.925
 20 
1.715
 11 
1.925
 21 
1.75
 0 
LINE
 8 
0
 62 
 7 
 10 
1.95
 20 
1.525
 11 
1.9
 21 
1.525
 0 
LINE
 8 
0
 62 
 7 
 10 
1.9
 20 
1.525
 11 
1.9
 21 
1.55
 0 
LINE
 8 
0
 62 
 7 
 10 
1.9
 20 
1.55
 11 
1.908
 21 
1.558
 0 
LINE
 8 
0
 62 
 7 
 10 
1.908
 20 
1.558
 11 
1.917
 21 
1.558
 0 
LINE
 8 
0
 62 
 7 
 10 
1.917
 20 
1.558
 11 
1.925
 21 
1.55
 0 
LINE
 8 
0
 62 
 7 
 10 
1.925
 20 
1.55
 11 
1.925
 21 
1.525
 0 
LINE
 8 
0
 62 
 7 
 10 
1.925
 20 
1.533
 11 
1.95
 21 
1.558
 0 
LINE
 8 
0
 62 
 7 
 10 
1.908
 20 
1.583
 11 
1.9
 21 
1.592
 0 
LINE
 8 
0
 62 
 7 
 10 
1.9
 20 
1.592
 11 
1.95
 21 
1.592
 0 
LINE
 8 
0
 62 
 7 
 10 
1.95
 20 
1.583
 11 
1.95
 21 
1.6
 0 
LINE
 8 
0
 62 
 7 
 10 
1.908
 20 
1.625
 11 
1.9
 21 
1.633
 0 
LINE
 8 
0
 62 
 7 
 10 
1.9
 20 
1.633
 11 
1.9
 21 
1.65
 0 
LINE
 8 
0
 62 
 7 
 10 
1.9
 20 
1.65
 11 
1.908
 21 
1.658
 0 
LINE
 8 
0
 62 
 7 
 10 
1.908
 20 
1.658
 11 
1.917
 21 
1.658
 0 
LINE
 8 
0
 62 
 7 
 10 
1.917
 20 
1.658
 11 
1.925
 21 
1.65
 0 
LINE
 8 
0
 62 
 7 
 10 
1.925
 20 
1.65
 11 
1.925
 21 
1.633
 0 
LINE
 8 
0
 62 
 7 
 10 
1.925
 20 
1.633
 11 
1.933
 21 
1.625
 0 
LINE
 8 
0
 62 
 7 
 10 
1.933
 20 
1.625
 11 
1.95
 21 
1.625
 0 
LINE
 8 
0
 62 
 7 
 10 
1.95
 20 
1.625
 11 
1.95
 21 
1.658
 0 
CIRCLE
 8 
0
 62 
 7 
 10 
1.725
 20 
1.2
 40 
0.02
 0 
CIRCLE
 8 
0
 62 
 7 
 10 
1.725
 20 
1.1
 40 
0.02
 0 
CIRCLE
 8 
0
 62 
 7 
 10 
1.725
 20 
1.0
 40 
0.02
 0 
LINE
 8 
0
 62 
 7 
 10 
1.6
 20 
1.26
 11 
1.85
 21 
1.26
 0 
LINE
 8 
0
 62 
 7 
 10 
1.85
 20 
0.94
 11 
1.85
 21 
1.26
 0 
LINE
 8 
0
 62 
 7 
 10 
1.85
 20 
0.94
 11 
1.6
 21 
0.94
 0 
LINE
 8 
0
 62 
 7 
 10 
1.6
 20 
1.26
 11 
1.6
 21 
0.94
 0 
LINE
 8 
0
 62 
 7 
 10 
1.606
 20 
1.2
 11 
1.624
 21 
1.2
 0 
LINE
 8 
0
 62 
 7 
 10 
1.624
 20 
1.0
 11 
1.624
 21 
1.2
 0 
LINE
 8 
0
 62 
 7 
 10 
1.624
 20 
1.0
 11 
1.606
 21 
1.0
 0 
LINE
 8 
0
 62 
 7 
 10 
1.606
 20 
1.2
 11 
1.606
 21 
1.0
 0 
LINE
 8 
0
 62 
 7 
 10 
1.612
 20 
1.2
 11 
1.618
 21 
1.2
 0 
LINE
 8 
0
 62 
 7 
 10 
1.618
 20 
1.0
 11 
1.618
 21 
1.2
 0 
LINE
 8 
0
 62 
 7 
 10 
1.618
 20 
1.0
 11 
1.612
 21 
1.0
 0 
LINE
 8 
0
 62 
 7 
 10 
1.612
 20 
1.2
 11 
1.612
 21 
1.0
 0 
LINE
 8 
0
 62 
 7 
 10 
1.6
 20 
0.875
 11 
1.6
 21 
0.925
 0 
LINE
 8 
0
 62 
 7 
 10 
1.6
 20 
0.925
 11 
1.625
 21 
0.925
 0 
LINE
 8 
0
 62 
 7 
 10 
1.625
 20 
0.925
 11 
1.633
 21 
0.917
 0 
LINE
 8 
0
 62 
 7 
 10 
1.633
 20 
0.917
 11 
1.633
 21 
0.908
 0 
LINE
 8 
0
 62 
 7 
 10 
1.633
 20 
0.908
 11 
1.625
 21 
0.9
 0 
LINE
 8 
0
 62 
 7 
 10 
1.625
 20 
0.9
 11 
1.6
 21 
0.9
 0 
LINE
 8 
0
 62 
 7 
 10 
1.608
 20 
0.9
 11 
1.633
 21 
0.875
 0 
LINE
 8 
0
 62 
 7 
 10 
1.658
 20 
0.917
 11 
1.667
 21 
0.925
 0 
LINE
 8 
0
 62 
 7 
 10 
1.667
 20 
0.925
 11 
1.667
 21 
0.875
 0 
LINE
 8 
0
 62 
 7 
 10 
1.658
 20 
0.875
 11 
1.675
 21 
0.875
 0 
LINE
 8 
0
 62 
 7 
 10 
1.733
 20 
0.925
 11 
1.7
 21 
0.925
 0 
LINE
 8 
0
 62 
 7 
 10 
1.7
 20 
0.925
 11 
1.7
 21 
0.908
 0 
LINE
 8 
0
 62 
 7 
 10 
1.7
 20 
0.908
 11 
1.725
 21 
0.908
 0 
LINE
 8 
0
 62 
 7 
 10 
1.725
 20 
0.908
 11 
1.733
 21 
0.9
 0 
LINE
 8 
0
 62 
 7 
 10 
1.733
 20 
0.9
 11 
1.733
 21 
0.883
 0 
LINE
 8 
0
 62 
 7 
 10 
1.733
 20 
0.883
 11 
1.725
 21 
0.875
 0 
LINE
 8 
0
 62 
 7 
 10 
1.725
 20 
0.875
 11 
1.708
 21 
0.875
 0 
LINE
 8 
0
 62 
 7 
 10 
1.708
 20 
0.875
 11 
1.7
 21 
0.883
 0 
LINE
 8 
0
 62 
 7 
 10 
1.9
 20 
0.957
 11 
1.9
 21 
0.97
 0 
LINE
 8 
0
 62 
 7 
 10 
1.94
 20 
0.957
 11 
1.94
 21 
0.97
 0 
LINE
 8 
0
 62 
 7 
 10 
1.9
 20 
0.963
 11 
1.94
 21 
0.963
 0 
LINE
 8 
0
 62 
 7 
 10 
1.913
 20 
0.99
 11 
1.94
 21 
0.99
 0 
LINE
 8 
0
 62 
 7 
 10 
1.927
 20 
0.99
 11 
1.913
 21 
1.003
 0 
LINE
 8 
0
 62 
 7 
 10 
1.913
 20 
1.003
 11 
1.913
 21 
1.01
 0 
LINE
 8 
0
 62 
 7 
 10 
1.913
 20 
1.01
 11 
1.92
 21 
1.017
 0 
LINE
 8 
0
 62 
 7 
 10 
1.92
 20 
1.017
 11 
1.94
 21 
1.017
 0 
LINE
 8 
0
 62 
 7 
 10 
1.9
 20 
1.037
 11 
1.933
 21 
1.037
 0 
LINE
 8 
0
 62 
 7 
 10 
1.933
 20 
1.037
 11 
1.94
 21 
1.043
 0 
LINE
 8 
0
 62 
 7 
 10 
1.94
 20 
1.043
 11 
1.94
 21 
1.05
 0 
LINE
 8 
0
 62 
 7 
 10 
1.94
 20 
1.05
 11 
1.933
 21 
1.057
 0 
LINE
 8 
0
 62 
 7 
 10 
1.913
 20 
1.03
 11 
1.913
 21 
1.05
 0 
LINE
 8 
0
 62 
 7 
 10 
1.927
 20 
1.07
 11 
1.927
 21 
1.097
 0 
LINE
 8 
0
 62 
 7 
 10 
1.927
 20 
1.097
 11 
1.92
 21 
1.097
 0 
LINE
 8 
0
 62 
 7 
 10 
1.92
 20 
1.097
 11 
1.913
 21 
1.09
 0 
LINE
 8 
0
 62 
 7 
 10 
1.913
 20 
1.09
 11 
1.913
 21 
1.077
 0 
LINE
 8 
0
 62 
 7 
 10 
1.913
 20 
1.077
 11 
1.92
 21 
1.07
 0 
LINE
 8 
0
 62 
 7 
 10 
1.92
 20 
1.07
 11 
1.933
 21 
1.07
 0 
LINE
 8 
0
 62 
 7 
 10 
1.933
 20 
1.07
 11 
1.94
 21 
1.077
 0 
LINE
 8 
0
 62 
 7 
 10 
1.94
 20 
1.077
 11 
1.94
 21 
1.09
 0 
LINE
 8 
0
 62 
 7 
 10 
1.913
 20 
1.11
 11 
1.94
 21 
1.11
 0 
LINE
 8 
0
 62 
 7 
 10 
1.927
 20 
1.11
 11 
1.913
 21 
1.123
 0 
LINE
 8 
0
 62 
 7 
 10 
1.913
 20 
1.123
 11 
1.913
 21 
1.13
 0 
LINE
 8 
0
 62 
 7 
 10 
1.913
 20 
1.13
 11 
1.92
 21 
1.137
 0 
LINE
 8 
0
 62 
 7 
 10 
1.913
 20 
1.15
 11 
1.927
 21 
1.15
 0 
LINE
 8 
0
 62 
 7 
 10 
1.927
 20 
1.15
 11 
1.94
 21 
1.163
 0 
LINE
 8 
0
 62 
 7 
 10 
1.94
 20 
1.163
 11 
1.927
 21 
1.177
 0 
LINE
 8 
0
 62 
 7 
 10 
1.927
 20 
1.177
 11 
1.913
 21 
1.177
 0 
LINE
 8 
0
 62 
 7 
 10 
1.913
 20 
1.197
 11 
1.913
 21 
1.21
 0 
LINE
 8 
0
 62 
 7 
 10 
1.913
 20 
1.21
 11 
1.92
 21 
1.217
 0 
LINE
 8 
0
 62 
 7 
 10 
1.92
 20 
1.217
 11 
1.94
 21 
1.217
 0 
LINE
 8 
0
 62 
 7 
 10 
1.927
 20 
1.217
 11 
1.927
 21 
1.197
 0 
LINE
 8 
0
 62 
 7 
 10 
1.927
 20 
1.197
 11 
1.933
 21 
1.19
 0 
LINE
 8 
0
 62 
 7 
 10 
1.933
 20 
1.19
 11 
1.94
 21 
1.197
 0 
LINE
 8 
0
 62 
 7 
 10 
1.94
 20 
1.197
 11 
1.94
 21 
1.21
 0 
LINE
 8 
0
 62 
 7 
 10 
1.94
 20 
1.21
 11 
1.933
 21 
1.217
 0 
LINE
 8 
0
 62 
 7 
 10 
1.9
 20 
1.237
 11 
1.9
 21 
1.243
 0 
LINE
 8 
0
 62 
 7 
 10 
1.9
 20 
1.243
 11 
1.94
 21 
1.243
 0 
LINE
 8 
0
 62 
 7 
 10 
1.94
 20 
1.237
 11 
1.94
 21 
1.25
 0 
LINE
 8 
0
 62 
 7 
 10 
2.025
 20 
1.35
 11 
2.065
 21 
1.35
 0 
LINE
 8 
0
 62 
 7 
 10 
2.065
 20 
1.35
 11 
2.065
 21 
1.377
 0 
LINE
 8 
0
 62 
 7 
 10 
2.025
 20 
1.403
 11 
2.032
 21 
1.403
 0 
LINE
 8 
0
 62 
 7 
 10 
2.065
 20 
1.397
 11 
2.065
 21 
1.41
 0 
LINE
 8 
0
 62 
 7 
 10 
2.045
 20 
1.397
 11 
2.045
 21 
1.403
 0 
LINE
 8 
0
 62 
 7 
 10 
2.045
 20 
1.403
 11 
2.065
 21 
1.403
 0 
LINE
 8 
0
 62 
 7 
 10 
2.045
 20 
1.457
 11 
2.038
 21 
1.45
 0 
LINE
 8 
0
 62 
 7 
 10 
2.038
 20 
1.45
 11 
2.038
 21 
1.437
 0 
LINE
 8 
0
 62 
 7 
 10 
2.038
 20 
1.437
 11 
2.045
 21 
1.43
 0 
LINE
 8 
0
 62 
 7 
 10 
2.045
 20 
1.43
 11 
2.058
 21 
1.43
 0 
LINE
 8 
0
 62 
 7 
 10 
2.058
 20 
1.43
 11 
2.065
 21 
1.437
 0 
LINE
 8 
0
 62 
 7 
 10 
2.065
 20 
1.437
 11 
2.065
 21 
1.443
 0 
LINE
 8 
0
 62 
 7 
 10 
2.065
 20 
1.443
 11 
2.052
 21 
1.457
 0 
LINE
 8 
0
 62 
 7 
 10 
2.038
 20 
1.457
 11 
2.072
 21 
1.457
 0 
LINE
 8 
0
 62 
 7 
 10 
2.072
 20 
1.457
 11 
2.078
 21 
1.45
 0 
LINE
 8 
0
 62 
 7 
 10 
2.078
 20 
1.45
 11 
2.078
 21 
1.43
 0 
LINE
 8 
0
 62 
 7 
 10 
2.025
 20 
1.47
 11 
2.065
 21 
1.47
 0 
LINE
 8 
0
 62 
 7 
 10 
2.052
 20 
1.47
 11 
2.038
 21 
1.483
 0 
LINE
 8 
0
 62 
 7 
 10 
2.038
 20 
1.483
 11 
2.038
 21 
1.49
 0 
LINE
 8 
0
 62 
 7 
 10 
2.038
 20 
1.49
 11 
2.045
 21 
1.497
 0 
LINE
 8 
0
 62 
 7 
 10 
2.045
 20 
1.497
 11 
2.065
 21 
1.497
 0 
LINE
 8 
0
 62 
 7 
 10 
2.025
 20 
1.517
 11 
2.058
 21 
1.517
 0 
LINE
 8 
0
 62 
 7 
 10 
2.058
 20 
1.517
 11 
2.065
 21 
1.523
 0 
LINE
 8 
0
 62 
 7 
 10 
2.065
 20 
1.523
 11 
2.065
 21 
1.53
 0 
LINE
 8 
0
 62 
 7 
 10 
2.065
 20 
1.53
 11 
2.058
 21 
1.537
 0 
LINE
 8 
0
 62 
 7 
 10 
2.038
 20 
1.51
 11 
2.038
 21 
1.53
 0 
LINE
 8 
0
 62 
 7 
 10 
2.032
 20 
1.617
 11 
2.025
 21 
1.61
 0 
LINE
 8 
0
 62 
 7 
 10 
2.025
 20 
1.61
 11 
2.025
 21 
1.597
 0 
LINE
 8 
0
 62 
 7 
 10 
2.025
 20 
1.597
 11 
2.032
 21 
1.59
 0 
LINE
 8 
0
 62 
 7 
 10 
2.032
 20 
1.59
 11 
2.038
 21 
1.59
 0 
LINE
 8 
0
 62 
 7 
 10 
2.038
 20 
1.59
 11 
2.045
 21 
1.597
 0 
LINE
 8 
0
 62 
 7 
 10 
2.045
 20 
1.597
 11 
2.045
 21 
1.61
 0 
LINE
 8 
0
 62 
 7 
 10 
2.045
 20 
1.61
 11 
2.052
 21 
1.617
 0 
LINE
 8 
0
 62 
 7 
 10 
2.052
 20 
1.617
 11 
2.058
 21 
1.617
 0 
LINE
 8 
0
 62 
 7 
 10 
2.058
 20 
1.617
 11 
2.065
 21 
1.61
 0 
LINE
 8 
0
 62 
 7 
 10 
2.065
 20 
1.61
 11 
2.065
 21 
1.597
 0 
LINE
 8 
0
 62 
 7 
 10 
2.065
 20 
1.597
 11 
2.058
 21 
1.59
 0 
LINE
 8 
0
 62 
 7 
 10 
2.052
 20 
1.63
 11 
2.052
 21 
1.657
 0 
LINE
 8 
0
 62 
 7 
 10 
2.052
 20 
1.657
 11 
2.045
 21 
1.657
 0 
LINE
 8 
0
 62 
 7 
 10 
2.045
 20 
1.657
 11 
2.038
 21 
1.65
 0 
LINE
 8 
0
 62 
 7 
 10 
2.038
 20 
1.65
 11 
2.038
 21 
1.637
 0 
LINE
 8 
0
 62 
 7 
 10 
2.038
 20 
1.637
 11 
2.045
 21 
1.63
 0 
LINE
 8 
0
 62 
 7 
 10 
2.045
 20 
1.63
 11 
2.058
 21 
1.63
 0 
LINE
 8 
0
 62 
 7 
 10 
2.058
 20 
1.63
 11 
2.065
 21 
1.637
 0 
LINE
 8 
0
 62 
 7 
 10 
2.065
 20 
1.637
 11 
2.065
 21 
1.65
 0 
LINE
 8 
0
 62 
 7 
 10 
2.038
 20 
1.67
 11 
2.065
 21 
1.67
 0 
LINE
 8 
0
 62 
 7 
 10 
2.052
 20 
1.67
 11 
2.038
 21 
1.683
 0 
LINE
 8 
0
 62 
 7 
 10 
2.038
 20 
1.683
 11 
2.038
 21 
1.69
 0 
LINE
 8 
0
 62 
 7 
 10 
2.038
 20 
1.69
 11 
2.045
 21 
1.697
 0 
LINE
 8 
0
 62 
 7 
 10 
2.045
 20 
1.697
 11 
2.065
 21 
1.697
 0 
LINE
 8 
0
 62 
 7 
 10 
2.038
 20 
1.737
 11 
2.038
 21 
1.717
 0 
LINE
 8 
0
 62 
 7 
 10 
2.038
 20 
1.717
 11 
2.045
 21 
1.71
 0 
LINE
 8 
0
 62 
 7 
 10 
2.045
 20 
1.71
 11 
2.052
 21 
1.717
 0 
LINE
 8 
0
 62 
 7 
 10 
2.052
 20 
1.717
 11 
2.052
 21 
1.73
 0 
LINE
 8 
0
 62 
 7 
 10 
2.052
 20 
1.73
 11 
2.058
 21 
1.737
 0 
LINE
 8 
0
 62 
 7 
 10 
2.058
 20 
1.737
 11 
2.065
 21 
1.73
 0 
LINE
 8 
0
 62 
 7 
 10 
2.065
 20 
1.73
 11 
2.065
 21 
1.71
 0 
LINE
 8 
0
 62 
 7 
 10 
2.045
 20 
1.777
 11 
2.038
 21 
1.77
 0 
LINE
 8 
0
 62 
 7 
 10 
2.038
 20 
1.77
 11 
2.038
 21 
1.757
 0 
LINE
 8 
0
 62 
 7 
 10 
2.038
 20 
1.757
 11 
2.045
 21 
1.75
 0 
LINE
 8 
0
 62 
 7 
 10 
2.045
 20 
1.75
 11 
2.058
 21 
1.75
 0 
LINE
 8 
0
 62 
 7 
 10 
2.058
 20 
1.75
 11 
2.065
 21 
1.757
 0 
LINE
 8 
0
 62 
 7 
 10 
2.065
 20 
1.757
 11 
2.065
 21 
1.77
 0 
LINE
 8 
0
 62 
 7 
 10 
2.065
 20 
1.77
 11 
2.058
 21 
1.777
 0 
LINE
 8 
0
 62 
 7 
 10 
2.058
 20 
1.777
 11 
2.045
 21 
1.777
 0 
LINE
 8 
0
 62 
 7 
 10 
2.038
 20 
1.79
 11 
2.065
 21 
1.79
 0 
LINE
 8 
0
 62 
 7 
 10 
2.052
 20 
1.79
 11 
2.038
 21 
1.803
 0 
LINE
 8 
0
 62 
 7 
 10 
2.038
 20 
1.803
 11 
2.038
 21 
1.81
 0 
LINE
 8 
0
 62 
 7 
 10 
2.038
 20 
1.81
 11 
2.045
 21 
1.817
 0 
LINE
 8 
0
 62 
 7 
 10 
1.35
 20 
0.977
 11 
1.35
 21 
0.95
 0 
LINE
 8 
0
 62 
 7 
 10 
1.35
 20 
0.95
 11 
1.39
 21 
0.95
 0 
LINE
 8 
0
 62 
 7 
 10 
1.39
 20 
0.95
 11 
1.39
 21 
0.977
 0 
LINE
 8 
0
 62 
 7 
 10 
1.37
 20 
0.95
 11 
1.37
 21 
0.97
 0 
LINE
 8 
0
 62 
 7 
 10 
1.363
 20 
0.99
 11 
1.39
 21 
0.99
 0 
LINE
 8 
0
 62 
 7 
 10 
1.377
 20 
0.99
 11 
1.363
 21 
1.003
 0 
LINE
 8 
0
 62 
 7 
 10 
1.363
 20 
1.003
 11 
1.363
 21 
1.01
 0 
LINE
 8 
0
 62 
 7 
 10 
1.363
 20 
1.01
 11 
1.37
 21 
1.017
 0 
LINE
 8 
0
 62 
 7 
 10 
1.37
 20 
1.017
 11 
1.39
 21 
1.017
 0 
LINE
 8 
0
 62 
 7 
 10 
1.363
 20 
1.037
 11 
1.363
 21 
1.05
 0 
LINE
 8 
0
 62 
 7 
 10 
1.363
 20 
1.05
 11 
1.37
 21 
1.057
 0 
LINE
 8 
0
 62 
 7 
 10 
1.37
 20 
1.057
 11 
1.39
 21 
1.057
 0 
LINE
 8 
0
 62 
 7 
 10 
1.377
 20 
1.057
 11 
1.377
 21 
1.037
 0 
LINE
 8 
0
 62 
 7 
 10 
1.377
 20 
1.037
 11 
1.383
 21 
1.03
 0 
LINE
 8 
0
 62 
 7 
 10 
1.383
 20 
1.03
 11 
1.39
 21 
1.037
 0 
LINE
 8 
0
 62 
 7 
 10 
1.39
 20 
1.037
 11 
1.39
 21 
1.05
 0 
LINE
 8 
0
 62 
 7 
 10 
1.39
 20 
1.05
 11 
1.383
 21 
1.057
 0 
LINE
 8 
0
 62 
 7 
 10 
1.35
 20 
1.07
 11 
1.39
 21 
1.07
 0 
LINE
 8 
0
 62 
 7 
 10 
1.377
 20 
1.07
 11 
1.363
 21 
1.083
 0 
LINE
 8 
0
 62 
 7 
 10 
1.363
 20 
1.083
 11 
1.363
 21 
1.09
 0 
LINE
 8 
0
 62 
 7 
 10 
1.363
 20 
1.09
 11 
1.37
 21 
1.097
 0 
LINE
 8 
0
 62 
 7 
 10 
1.37
 20 
1.097
 11 
1.383
 21 
1.097
 0 
LINE
 8 
0
 62 
 7 
 10 
1.383
 20 
1.097
 11 
1.39
 21 
1.09
 0 
LINE
 8 
0
 62 
 7 
 10 
1.39
 20 
1.09
 11 
1.39
 21 
1.077
 0 
LINE
 8 
0
 62 
 7 
 10 
1.39
 20 
1.077
 11 
1.383
 21 
1.07
 0 
LINE
 8 
0
 62 
 7 
 10 
1.35
 20 
1.117
 11 
1.35
 21 
1.123
 0 
LINE
 8 
0
 62 
 7 
 10 
1.35
 20 
1.123
 11 
1.39
 21 
1.123
 0 
LINE
 8 
0
 62 
 7 
 10 
1.39
 20 
1.117
 11 
1.39
 21 
1.13
 0 
LINE
 8 
0
 62 
 7 
 10 
1.377
 20 
1.15
 11 
1.377
 21 
1.177
 0 
LINE
 8 
0
 62 
 7 
 10 
1.377
 20 
1.177
 11 
1.37
 21 
1.177
 0 
LINE
 8 
0
 62 
 7 
 10 
1.37
 20 
1.177
 11 
1.363
 21 
1.17
 0 
LINE
 8 
0
 62 
 7 
 10 
1.363
 20 
1.17
 11 
1.363
 21 
1.157
 0 
LINE
 8 
0
 62 
 7 
 10 
1.363
 20 
1.157
 11 
1.37
 21 
1.15
 0 
LINE
 8 
0
 62 
 7 
 10 
1.37
 20 
1.15
 11 
1.383
 21 
1.15
 0 
LINE
 8 
0
 62 
 7 
 10 
1.383
 20 
1.15
 11 
1.39
 21 
1.157
 0 
LINE
 8 
0
 62 
 7 
 10 
1.39
 20 
1.157
 11 
1.39
 21 
1.17
 0 
LINE
 8 
0
 62 
 7 
 10 
1.65
 20 
0.525
 11 
1.67
 21 
0.525
 0 
LINE
 8 
0
 62 
 7 
 10 
1.67
 20 
0.525
 11 
1.677
 21 
0.518
 0 
LINE
 8 
0
 62 
 7 
 10 
1.677
 20 
0.518
 11 
1.677
 21 
0.492
 0 
LINE
 8 
0
 62 
 7 
 10 
1.677
 20 
0.492
 11 
1.67
 21 
0.485
 0 
LINE
 8 
0
 62 
 7 
 10 
1.67
 20 
0.485
 11 
1.65
 21 
0.485
 0 
LINE
 8 
0
 62 
 7 
 10 
1.657
 20 
0.525
 11 
1.657
 21 
0.485
 0 
LINE
 8 
0
 62 
 7 
 10 
1.697
 20 
0.512
 11 
1.71
 21 
0.512
 0 
LINE
 8 
0
 62 
 7 
 10 
1.71
 20 
0.512
 11 
1.717
 21 
0.505
 0 
LINE
 8 
0
 62 
 7 
 10 
1.717
 20 
0.505
 11 
1.717
 21 
0.485
 0 
LINE
 8 
0
 62 
 7 
 10 
1.717
 20 
0.498
 11 
1.697
 21 
0.498
 0 
LINE
 8 
0
 62 
 7 
 10 
1.697
 20 
0.498
 11 
1.69
 21 
0.492
 0 
LINE
 8 
0
 62 
 7 
 10 
1.69
 20 
0.492
 11 
1.697
 21 
0.485
 0 
LINE
 8 
0
 62 
 7 
 10 
1.697
 20 
0.485
 11 
1.71
 21 
0.485
 0 
LINE
 8 
0
 62 
 7 
 10 
1.71
 20 
0.485
 11 
1.717
 21 
0.492
 0 
LINE
 8 
0
 62 
 7 
 10 
1.73
 20 
0.512
 11 
1.73
 21 
0.492
 0 
LINE
 8 
0
 62 
 7 
 10 
1.73
 20 
0.492
 11 
1.737
 21 
0.485
 0 
LINE
 8 
0
 62 
 7 
 10 
1.737
 20 
0.485
 11 
1.743
 21 
0.485
 0 
LINE
 8 
0
 62 
 7 
 10 
1.743
 20 
0.485
 11 
1.757
 21 
0.498
 0 
LINE
 8 
0
 62 
 7 
 10 
1.757
 20 
0.512
 11 
1.757
 21 
0.478
 0 
LINE
 8 
0
 62 
 7 
 10 
1.757
 20 
0.478
 11 
1.75
 21 
0.472
 0 
LINE
 8 
0
 62 
 7 
 10 
1.75
 20 
0.472
 11 
1.73
 21 
0.472
 0 
LINE
 8 
0
 62 
 7 
 10 
1.777
 20 
0.525
 11 
1.783
 21 
0.525
 0 
LINE
 8 
0
 62 
 7 
 10 
1.783
 20 
0.525
 11 
1.783
 21 
0.485
 0 
LINE
 8 
0
 62 
 7 
 10 
1.777
 20 
0.485
 11 
1.79
 21 
0.485
 0 
LINE
 8 
0
 62 
 7 
 10 
1.823
 20 
0.525
 11 
1.823
 21 
0.518
 0 
LINE
 8 
0
 62 
 7 
 10 
1.817
 20 
0.485
 11 
1.83
 21 
0.485
 0 
LINE
 8 
0
 62 
 7 
 10 
1.817
 20 
0.505
 11 
1.823
 21 
0.505
 0 
LINE
 8 
0
 62 
 7 
 10 
1.823
 20 
0.505
 11 
1.823
 21 
0.485
 0 
LINE
 8 
0
 62 
 7 
 10 
1.877
 20 
0.505
 11 
1.87
 21 
0.512
 0 
LINE
 8 
0
 62 
 7 
 10 
1.87
 20 
0.512
 11 
1.857
 21 
0.512
 0 
LINE
 8 
0
 62 
 7 
 10 
1.857
 20 
0.512
 11 
1.85
 21 
0.505
 0 
LINE
 8 
0
 62 
 7 
 10 
1.85
 20 
0.505
 11 
1.85
 21 
0.492
 0 
LINE
 8 
0
 62 
 7 
 10 
1.85
 20 
0.492
 11 
1.857
 21 
0.485
 0 
LINE
 8 
0
 62 
 7 
 10 
1.857
 20 
0.485
 11 
1.863
 21 
0.485
 0 
LINE
 8 
0
 62 
 7 
 10 
1.863
 20 
0.485
 11 
1.877
 21 
0.498
 0 
LINE
 8 
0
 62 
 7 
 10 
1.877
 20 
0.512
 11 
1.877
 21 
0.478
 0 
LINE
 8 
0
 62 
 7 
 10 
1.877
 20 
0.478
 11 
1.87
 21 
0.472
 0 
LINE
 8 
0
 62 
 7 
 10 
1.87
 20 
0.472
 11 
1.85
 21 
0.472
 0 
LINE
 8 
0
 62 
 7 
 10 
1.89
 20 
0.525
 11 
1.89
 21 
0.485
 0 
LINE
 8 
0
 62 
 7 
 10 
1.89
 20 
0.498
 11 
1.903
 21 
0.512
 0 
LINE
 8 
0
 62 
 7 
 10 
1.903
 20 
0.512
 11 
1.91
 21 
0.512
 0 
LINE
 8 
0
 62 
 7 
 10 
1.91
 20 
0.512
 11 
1.917
 21 
0.505
 0 
LINE
 8 
0
 62 
 7 
 10 
1.917
 20 
0.505
 11 
1.917
 21 
0.485
 0 
LINE
 8 
0
 62 
 7 
 10 
1.937
 20 
0.525
 11 
1.937
 21 
0.492
 0 
LINE
 8 
0
 62 
 7 
 10 
1.937
 20 
0.492
 11 
1.943
 21 
0.485
 0 
LINE
 8 
0
 62 
 7 
 10 
1.943
 20 
0.485
 11 
1.95
 21 
0.485
 0 
LINE
 8 
0
 62 
 7 
 10 
1.95
 20 
0.485
 11 
1.957
 21 
0.492
 0 
LINE
 8 
0
 62 
 7 
 10 
1.93
 20 
0.512
 11 
1.95
 21 
0.512
 0 
LINE
 8 
0
 62 
 7 
 10 
1.352
 20 
0.518
 11 
1.345
 21 
0.525
 0 
LINE
 8 
0
 62 
 7 
 10 
1.345
 20 
0.525
 11 
1.332
 21 
0.525
 0 
LINE
 8 
0
 62 
 7 
 10 
1.332
 20 
0.525
 11 
1.325
 21 
0.518
 0 
LINE
 8 
0
 62 
 7 
 10 
1.325
 20 
0.518
 11 
1.325
 21 
0.512
 0 
LINE
 8 
0
 62 
 7 
 10 
1.325
 20 
0.512
 11 
1.332
 21 
0.505
 0 
LINE
 8 
0
 62 
 7 
 10 
1.332
 20 
0.505
 11 
1.345
 21 
0.505
 0 
LINE
 8 
0
 62 
 7 
 10 
1.345
 20 
0.505
 11 
1.352
 21 
0.498
 0 
LINE
 8 
0
 62 
 7 
 10 
1.352
 20 
0.498
 11 
1.352
 21 
0.492
 0 
LINE
 8 
0
 62 
 7 
 10 
1.352
 20 
0.492
 11 
1.345
 21 
0.485
 0 
LINE
 8 
0
 62 
 7 
 10 
1.345
 20 
0.485
 11 
1.332
 21 
0.485
 0 
LINE
 8 
0
 62 
 7 
 10 
1.332
 20 
0.485
 11 
1.325
 21 
0.492
 0 
LINE
 8 
0
 62 
 7 
 10 
1.372
 20 
0.525
 11 
1.372
 21 
0.492
 0 
LINE
 8 
0
 62 
 7 
 10 
1.372
 20 
0.492
 11 
1.378
 21 
0.485
 0 
LINE
 8 
0
 62 
 7 
 10 
1.378
 20 
0.485
 11 
1.385
 21 
0.485
 0 
LINE
 8 
0
 62 
 7 
 10 
1.385
 20 
0.485
 11 
1.392
 21 
0.492
 0 
LINE
 8 
0
 62 
 7 
 10 
1.365
 20 
0.512
 11 
1.385
 21 
0.512
 0 
LINE
 8 
0
 62 
 7 
 10 
1.412
 20 
0.512
 11 
1.425
 21 
0.512
 0 
LINE
 8 
0
 62 
 7 
 10 
1.425
 20 
0.512
 11 
1.432
 21 
0.505
 0 
LINE
 8 
0
 62 
 7 
 10 
1.432
 20 
0.505
 11 
1.432
 21 
0.485
 0 
LINE
 8 
0
 62 
 7 
 10 
1.432
 20 
0.498
 11 
1.412
 21 
0.498
 0 
LINE
 8 
0
 62 
 7 
 10 
1.412
 20 
0.498
 11 
1.405
 21 
0.492
 0 
LINE
 8 
0
 62 
 7 
 10 
1.405
 20 
0.492
 11 
1.412
 21 
0.485
 0 
LINE
 8 
0
 62 
 7 
 10 
1.412
 20 
0.485
 11 
1.425
 21 
0.485
 0 
LINE
 8 
0
 62 
 7 
 10 
1.425
 20 
0.485
 11 
1.432
 21 
0.492
 0 
LINE
 8 
0
 62 
 7 
 10 
1.452
 20 
0.525
 11 
1.452
 21 
0.492
 0 
LINE
 8 
0
 62 
 7 
 10 
1.452
 20 
0.492
 11 
1.458
 21 
0.485
 0 
LINE
 8 
0
 62 
 7 
 10 
1.458
 20 
0.485
 11 
1.465
 21 
0.485
 0 
LINE
 8 
0
 62 
 7 
 10 
1.465
 20 
0.485
 11 
1.472
 21 
0.492
 0 
LINE
 8 
0
 62 
 7 
 10 
1.445
 20 
0.512
 11 
1.465
 21 
0.512
 0 
LINE
 8 
0
 62 
 7 
 10 
1.485
 20 
0.512
 11 
1.485
 21 
0.492
 0 
LINE
 8 
0
 62 
 7 
 10 
1.485
 20 
0.492
 11 
1.492
 21 
0.485
 0 
LINE
 8 
0
 62 
 7 
 10 
1.492
 20 
0.485
 11 
1.498
 21 
0.485
 0 
LINE
 8 
0
 62 
 7 
 10 
1.498
 20 
0.485
 11 
1.512
 21 
0.498
 0 
LINE
 8 
0
 62 
 7 
 10 
1.512
 20 
0.512
 11 
1.512
 21 
0.485
 0 
LINE
 8 
0
 62 
 7 
 10 
1.552
 20 
0.512
 11 
1.532
 21 
0.512
 0 
LINE
 8 
0
 62 
 7 
 10 
1.532
 20 
0.512
 11 
1.525
 21 
0.505
 0 
LINE
 8 
0
 62 
 7 
 10 
1.525
 20 
0.505
 11 
1.532
 21 
0.498
 0 
LINE
 8 
0
 62 
 7 
 10 
1.532
 20 
0.498
 11 
1.545
 21 
0.498
 0 
LINE
 8 
0
 62 
 7 
 10 
1.545
 20 
0.498
 11 
1.552
 21 
0.492
 0 
LINE
 8 
0
 62 
 7 
 10 
1.552
 20 
0.492
 11 
1.545
 21 
0.485
 0 
LINE
 8 
0
 62 
 7 
 10 
1.545
 20 
0.485
 11 
1.525
 21 
0.485
 0 
LINE
 8 
0
 62 
 7 
 10 
1.05
 20 
1.71
 11 
1.05
 21 
1.49
 0 
LINE
 8 
0
 62 
 7 
 10 
1.05
 20 
1.71
 11 
1.3
 21 
1.71
 0 
LINE
 8 
0
 62 
 7 
 10 
1.3
 20 
1.49
 11 
1.3
 21 
1.71
 0 
LINE
 8 
0
 62 
 7 
 10 
1.294
 20 
1.55
 11 
1.276
 21 
1.55
 0 
LINE
 8 
0
 62 
 7 
 10 
1.276
 20 
1.65
 11 
1.276
 21 
1.55
 0 
LINE
 8 
0
 62 
 7 
 10 
1.276
 20 
1.65
 11 
1.294
 21 
1.65
 0 
LINE
 8 
0
 62 
 7 
 10 
1.294
 20 
1.55
 11 
1.294
 21 
1.65
 0 
LINE
 8 
0
 62 
 7 
 10 
1.288
 20 
1.55
 11 
1.282
 21 
1.55
 0 
LINE
 8 
0
 62 
 7 
 10 
1.282
 20 
1.65
 11 
1.282
 21 
1.55
 0 
LINE
 8 
0
 62 
 7 
 10 
1.282
 20 
1.65
 11 
1.288
 21 
1.65
 0 
LINE
 8 
0
 62 
 7 
 10 
1.288
 20 
1.55
 11 
1.288
 21 
1.65
 0 
LINE
 8 
0
 62 
 7 
 10 
1.225
 20 
1.425
 11 
1.225
 21 
1.475
 0 
LINE
 8 
0
 62 
 7 
 10 
1.225
 20 
1.475
 11 
1.25
 21 
1.475
 0 
LINE
 8 
0
 62 
 7 
 10 
1.25
 20 
1.475
 11 
1.258
 21 
1.467
 0 
LINE
 8 
0
 62 
 7 
 10 
1.258
 20 
1.467
 11 
1.258
 21 
1.458
 0 
LINE
 8 
0
 62 
 7 
 10 
1.258
 20 
1.458
 11 
1.25
 21 
1.45
 0 
LINE
 8 
0
 62 
 7 
 10 
1.25
 20 
1.45
 11 
1.225
 21 
1.45
 0 
LINE
 8 
0
 62 
 7 
 10 
1.233
 20 
1.45
 11 
1.258
 21 
1.425
 0 
LINE
 8 
0
 62 
 7 
 10 
1.308
 20 
1.458
 11 
1.3
 21 
1.45
 0 
LINE
 8 
0
 62 
 7 
 10 
1.3
 20 
1.45
 11 
1.283
 21 
1.45
 0 
LINE
 8 
0
 62 
 7 
 10 
1.283
 20 
1.45
 11 
1.275
 21 
1.458
 0 
LINE
 8 
0
 62 
 7 
 10 
1.275
 20 
1.458
 11 
1.275
 21 
1.467
 0 
LINE
 8 
0
 62 
 7 
 10 
1.275
 20 
1.467
 11 
1.283
 21 
1.475
 0 
LINE
 8 
0
 62 
 7 
 10 
1.283
 20 
1.475
 11 
1.3
 21 
1.475
 0 
LINE
 8 
0
 62 
 7 
 10 
1.3
 20 
1.475
 11 
1.308
 21 
1.467
 0 
LINE
 8 
0
 62 
 7 
 10 
1.308
 20 
1.467
 11 
1.308
 21 
1.442
 0 
LINE
 8 
0
 62 
 7 
 10 
1.308
 20 
1.442
 11 
1.292
 21 
1.425
 0 
LINE
 8 
0
 62 
 7 
 10 
1.292
 20 
1.425
 11 
1.283
 21 
1.425
 0 
CIRCLE
 8 
0
 62 
 7 
 10 
1.375
 20 
1.4
 40 
0.014
 0 
CIRCLE
 8 
0
 62 
 7 
 10 
1.375
 20 
1.8
 40 
0.014
 0 
LINE
 8 
0
 62 
 7 
 10 
1.425
 20 
1.485
 11 
1.325
 21 
1.485
 0 
LINE
 8 
0
 62 
 7 
 10 
1.325
 20 
1.715
 11 
1.325
 21 
1.485
 0 
LINE
 8 
0
 62 
 7 
 10 
1.325
 20 
1.715
 11 
1.425
 21 
1.715
 0 
LINE
 8 
0
 62 
 7 
 10 
1.425
 20 
1.485
 11 
1.425
 21 
1.715
 0 
LINE
 8 
0
 62 
 7 
 10 
1.375
 20 
1.485
 11 
1.375
 21 
1.45
 0 
LINE
 8 
0
 62 
 7 
 10 
1.375
 20 
1.715
 11 
1.375
 21 
1.75
 0 
LINE
 8 
0
 62 
 7 
 10 
1.4
 20 
1.55
 11 
1.35
 21 
1.55
 0 
LINE
 8 
0
 62 
 7 
 10 
1.35
 20 
1.55
 11 
1.35
 21 
1.575
 0 
LINE
 8 
0
 62 
 7 
 10 
1.35
 20 
1.575
 11 
1.358
 21 
1.583
 0 
LINE
 8 
0
 62 
 7 
 10 
1.358
 20 
1.583
 11 
1.367
 21 
1.583
 0 
LINE
 8 
0
 62 
 7 
 10 
1.367
 20 
1.583
 11 
1.375
 21 
1.575
 0 
LINE
 8 
0
 62 
 7 
 10 
1.375
 20 
1.575
 11 
1.375
 21 
1.55
 0 
LINE
 8 
0
 62 
 7 
 10 
1.375
 20 
1.558
 11 
1.4
 21 
1.583
 0 
LINE
 8 
0
 62 
 7 
 10 
1.358
 20 
1.608
 11 
1.35
 21 
1.617
 0 
LINE
 8 
0
 62 
 7 
 10 
1.35
 20 
1.617
 11 
1.4
 21 
1.617
 0 
LINE
 8 
0
 62 
 7 
 10 
1.4
 20 
1.608
 11 
1.4
 21 
1.625
 0 
LINE
 8 
0
 62 
 7 
 10 
1.392
 20 
1.65
 11 
1.358
 21 
1.65
 0 
LINE
 8 
0
 62 
 7 
 10 
1.358
 20 
1.65
 11 
1.35
 21 
1.658
 0 
LINE
 8 
0
 62 
 7 
 10 
1.35
 20 
1.658
 11 
1.35
 21 
1.675
 0 
LINE
 8 
0
 62 
 7 
 10 
1.35
 20 
1.675
 11 
1.358
 21 
1.683
 0 
LINE
 8 
0
 62 
 7 
 10 
1.358
 20 
1.683
 11 
1.392
 21 
1.683
 0 
LINE
 8 
0
 62 
 7 
 10 
1.392
 20 
1.683
 11 
1.4
 21 
1.675
 0 
LINE
 8 
0
 62 
 7 
 10 
1.4
 20 
1.675
 11 
1.4
 21 
1.658
 0 
LINE
 8 
0
 62 
 7 
 10 
1.4
 20 
1.658
 11 
1.392
 21 
1.65
 0 
LINE
 8 
0
 62 
 7 
 10 
1.392
 20 
1.65
 11 
1.358
 21 
1.683
 0 
LINE
 8 
0
 62 
 7 
 10 
1.457
 20 
1.377
 11 
1.45
 21 
1.37
 0 
LINE
 8 
0
 62 
 7 
 10 
1.45
 20 
1.37
 11 
1.45
 21 
1.357
 0 
LINE
 8 
0
 62 
 7 
 10 
1.45
 20 
1.357
 11 
1.457
 21 
1.35
 0 
LINE
 8 
0
 62 
 7 
 10 
1.457
 20 
1.35
 11 
1.483
 21 
1.35
 0 
LINE
 8 
0
 62 
 7 
 10 
1.483
 20 
1.35
 11 
1.49
 21 
1.357
 0 
LINE
 8 
0
 62 
 7 
 10 
1.49
 20 
1.357
 11 
1.49
 21 
1.37
 0 
LINE
 8 
0
 62 
 7 
 10 
1.49
 20 
1.37
 11 
1.483
 21 
1.377
 0 
LINE
 8 
0
 62 
 7 
 10 
1.463
 20 
1.397
 11 
1.463
 21 
1.41
 0 
LINE
 8 
0
 62 
 7 
 10 
1.463
 20 
1.41
 11 
1.47
 21 
1.417
 0 
LINE
 8 
0
 62 
 7 
 10 
1.47
 20 
1.417
 11 
1.49
 21 
1.417
 0 
LINE
 8 
0
 62 
 7 
 10 
1.477
 20 
1.417
 11 
1.477
 21 
1.397
 0 
LINE
 8 
0
 62 
 7 
 10 
1.477
 20 
1.397
 11 
1.483
 21 
1.39
 0 
LINE
 8 
0
 62 
 7 
 10 
1.483
 20 
1.39
 11 
1.49
 21 
1.397
 0 
LINE
 8 
0
 62 
 7 
 10 
1.49
 20 
1.397
 11 
1.49
 21 
1.41
 0 
LINE
 8 
0
 62 
 7 
 10 
1.49
 20 
1.41
 11 
1.483
 21 
1.417
 0 
LINE
 8 
0
 62 
 7 
 10 
1.463
 20 
1.43
 11 
1.49
 21 
1.43
 0 
LINE
 8 
0
 62 
 7 
 10 
1.47
 20 
1.43
 11 
1.463
 21 
1.437
 0 
LINE
 8 
0
 62 
 7 
 10 
1.463
 20 
1.437
 11 
1.47
 21 
1.443
 0 
LINE
 8 
0
 62 
 7 
 10 
1.47
 20 
1.443
 11 
1.49
 21 
1.443
 0 
LINE
 8 
0
 62 
 7 
 10 
1.47
 20 
1.443
 11 
1.463
 21 
1.45
 0 
LINE
 8 
0
 62 
 7 
 10 
1.463
 20 
1.45
 11 
1.47
 21 
1.457
 0 
LINE
 8 
0
 62 
 7 
 10 
1.47
 20 
1.457
 11 
1.49
 21 
1.457
 0 
LINE
 8 
0
 62 
 7 
 10 
1.477
 20 
1.47
 11 
1.477
 21 
1.497
 0 
LINE
 8 
0
 62 
 7 
 10 
1.477
 20 
1.497
 11 
1.47
 21 
1.497
 0 
LINE
 8 
0
 62 
 7 
 10 
1.47
 20 
1.497
 11 
1.463
 21 
1.49
 0 
LINE
 8 
0
 62 
 7 
 10 
1.463
 20 
1.49
 11 
1.463
 21 
1.477
 0 
LINE
 8 
0
 62 
 7 
 10 
1.463
 20 
1.477
 11 
1.47
 21 
1.47
 0 
LINE
 8 
0
 62 
 7 
 10 
1.47
 20 
1.47
 11 
1.483
 21 
1.47
 0 
LINE
 8 
0
 62 
 7 
 10 
1.483
 20 
1.47
 11 
1.49
 21 
1.477
 0 
LINE
 8 
0
 62 
 7 
 10 
1.49
 20 
1.477
 11 
1.49
 21 
1.49
 0 
LINE
 8 
0
 62 
 7 
 10 
1.463
 20 
1.51
 11 
1.49
 21 
1.51
 0 
LINE
 8 
0
 62 
 7 
 10 
1.477
 20 
1.51
 11 
1.463
 21 
1.523
 0 
LINE
 8 
0
 62 
 7 
 10 
1.463
 20 
1.523
 11 
1.463
 21 
1.53
 0 
LINE
 8 
0
 62 
 7 
 10 
1.463
 20 
1.53
 11 
1.47
 21 
1.537
 0 
LINE
 8 
0
 62 
 7 
 10 
1.463
 20 
1.557
 11 
1.463
 21 
1.57
 0 
LINE
 8 
0
 62 
 7 
 10 
1.463
 20 
1.57
 11 
1.47
 21 
1.577
 0 
LINE
 8 
0
 62 
 7 
 10 
1.47
 20 
1.577
 11 
1.49
 21 
1.577
 0 
LINE
 8 
0
 62 
 7 
 10 
1.477
 20 
1.577
 11 
1.477
 21 
1.557
 0 
LINE
 8 
0
 62 
 7 
 10 
1.477
 20 
1.557
 11 
1.483
 21 
1.55
 0 
LINE
 8 
0
 62 
 7 
 10 
1.483
 20 
1.55
 11 
1.49
 21 
1.557
 0 
LINE
 8 
0
 62 
 7 
 10 
1.49
 20 
1.557
 11 
1.49
 21 
1.57
 0 
LINE
 8 
0
 62 
 7 
 10 
1.49
 20 
1.57
 11 
1.483
 21 
1.577
 0 
LINE
 8 
0
 62 
 7 
 10 
1.457
 20 
1.657
 11 
1.45
 21 
1.65
 0 
LINE
 8 
0
 62 
 7 
 10 
1.45
 20 
1.65
 11 
1.45
 21 
1.637
 0 
LINE
 8 
0
 62 
 7 
 10 
1.45
 20 
1.637
 11 
1.457
 21 
1.63
 0 
LINE
 8 
0
 62 
 7 
 10 
1.457
 20 
1.63
 11 
1.463
 21 
1.63
 0 
LINE
 8 
0
 62 
 7 
 10 
1.463
 20 
1.63
 11 
1.47
 21 
1.637
 0 
LINE
 8 
0
 62 
 7 
 10 
1.47
 20 
1.637
 11 
1.47
 21 
1.65
 0 
LINE
 8 
0
 62 
 7 
 10 
1.47
 20 
1.65
 11 
1.477
 21 
1.657
 0 
LINE
 8 
0
 62 
 7 
 10 
1.477
 20 
1.657
 11 
1.483
 21 
1.657
 0 
LINE
 8 
0
 62 
 7 
 10 
1.483
 20 
1.657
 11 
1.49
 21 
1.65
 0 
LINE
 8 
0
 62 
 7 
 10 
1.49
 20 
1.65
 11 
1.49
 21 
1.637
 0 
LINE
 8 
0
 62 
 7 
 10 
1.49
 20 
1.637
 11 
1.483
 21 
1.63
 0 
LINE
 8 
0
 62 
 7 
 10 
1.477
 20 
1.67
 11 
1.477
 21 
1.697
 0 
LINE
 8 
0
 62 
 7 
 10 
1.477
 20 
1.697
 11 
1.47
 21 
1.697
 0 
LINE
 8 
0
 62 
 7 
 10 
1.47
 20 
1.697
 11 
1.463
 21 
1.69
 0 
LINE
 8 
0
 62 
 7 
 10 
1.463
 20 
1.69
 11 
1.463
 21 
1.677
 0 
LINE
 8 
0
 62 
 7 
 10 
1.463
 20 
1.677
 11 
1.47
 21 
1.67
 0 
LINE
 8 
0
 62 
 7 
 10 
1.47
 20 
1.67
 11 
1.483
 21 
1.67
 0 
LINE
 8 
0
 62 
 7 
 10 
1.483
 20 
1.67
 11 
1.49
 21 
1.677
 0 
LINE
 8 
0
 62 
 7 
 10 
1.49
 20 
1.677
 11 
1.49
 21 
1.69
 0 
LINE
 8 
0
 62 
 7 
 10 
1.463
 20 
1.71
 11 
1.49
 21 
1.71
 0 
LINE
 8 
0
 62 
 7 
 10 
1.477
 20 
1.71
 11 
1.463
 21 
1.723
 0 
LINE
 8 
0
 62 
 7 
 10 
1.463
 20 
1.723
 11 
1.463
 21 
1.73
 0 
LINE
 8 
0
 62 
 7 
 10 
1.463
 20 
1.73
 11 
1.47
 21 
1.737
 0 
LINE
 8 
0
 62 
 7 
 10 
1.47
 20 
1.737
 11 
1.49
 21 
1.737
 0 
LINE
 8 
0
 62 
 7 
 10 
1.463
 20 
1.777
 11 
1.463
 21 
1.757
 0 
LINE
 8 
0
 62 
 7 
 10 
1.463
 20 
1.757
 11 
1.47
 21 
1.75
 0 
LINE
 8 
0
 62 
 7 
 10 
1.47
 20 
1.75
 11 
1.477
 21 
1.757
 0 
LINE
 8 
0
 62 
 7 
 10 
1.477
 20 
1.757
 11 
1.477
 21 
1.77
 0 
LINE
 8 
0
 62 
 7 
 10 
1.477
 20 
1.77
 11 
1.483
 21 
1.777
 0 
LINE
 8 
0
 62 
 7 
 10 
1.483
 20 
1.777
 11 
1.49
 21 
1.77
 0 
LINE
 8 
0
 62 
 7 
 10 
1.49
 20 
1.77
 11 
1.49
 21 
1.75
 0 
LINE
 8 
0
 62 
 7 
 10 
1.47
 20 
1.817
 11 
1.463
 21 
1.81
 0 
LINE
 8 
0
 62 
 7 
 10 
1.463
 20 
1.81
 11 
1.463
 21 
1.797
 0 
LINE
 8 
0
 62 
 7 
 10 
1.463
 20 
1.797
 11 
1.47
 21 
1.79
 0 
LINE
 8 
0
 62 
 7 
 10 
1.47
 20 
1.79
 11 
1.483
 21 
1.79
 0 
LINE
 8 
0
 62 
 7 
 10 
1.483
 20 
1.79
 11 
1.49
 21 
1.797
 0 
LINE
 8 
0
 62 
 7 
 10 
1.49
 20 
1.797
 11 
1.49
 21 
1.81
 0 
LINE
 8 
0
 62 
 7 
 10 
1.49
 20 
1.81
 11 
1.483
 21 
1.817
 0 
LINE
 8 
0
 62 
 7 
 10 
1.483
 20 
1.817
 11 
1.47
 21 
1.817
 0 
LINE
 8 
0
 62 
 7 
 10 
1.463
 20 
1.83
 11 
1.49
 21 
1.83
 0 
LINE
 8 
0
 62 
 7 
 10 
1.477
 20 
1.83
 11 
1.463
 21 
1.843
 0 
LINE
 8 
0
 62 
 7 
 10 
1.463
 20 
1.843
 11 
1.463
 21 
1.85
 0 
LINE
 8 
0
 62 
 7 
 10 
1.463
 20 
1.85
 11 
1.47
 21 
1.857
 0 
CIRCLE
 8 
0
 62 
 7 
 10 
2.8
 20 
1.65
 40 
0.014
 0 
CIRCLE
 8 
0
 62 
 7 
 10 
2.8
 20 
1.55
 40 
0.014
 0 
CIRCLE
 8 
0
 62 
 7 
 10 
2.8
 20 
1.45
 40 
0.014
 0 
LINE
 8 
0
 62 
 7 
 10 
2.85
 20 
1.696
 11 
2.755
 21 
1.696
 0 
LINE
 8 
0
 62 
 7 
 10 
2.755
 20 
1.696
 11 
2.71
 21 
1.651
 0 
LINE
 8 
0
 62 
 7 
 10 
2.71
 20 
1.651
 11 
2.71
 21 
1.449
 0 
LINE
 8 
0
 62 
 7 
 10 
2.71
 20 
1.449
 11 
2.755
 21 
1.404
 0 
LINE
 8 
0
 62 
 7 
 10 
2.755
 20 
1.404
 11 
2.85
 21 
1.404
 0 
LINE
 8 
0
 62 
 7 
 10 
2.85
 20 
1.404
 11 
2.85
 21 
1.696
 0 
LINE
 8 
0
 62 
 7 
 10 
2.925
 20 
1.575
 11 
2.925
 21 
1.542
 0 
LINE
 8 
0
 62 
 7 
 10 
2.925
 20 
1.558
 11 
2.875
 21 
1.558
 0 
LINE
 8 
0
 62 
 7 
 10 
2.917
 20 
1.525
 11 
2.925
 21 
1.517
 0 
LINE
 8 
0
 62 
 7 
 10 
2.925
 20 
1.517
 11 
2.925
 21 
1.5
 0 
LINE
 8 
0
 62 
 7 
 10 
2.925
 20 
1.5
 11 
2.917
 21 
1.492
 0 
LINE
 8 
0
 62 
 7 
 10 
2.917
 20 
1.492
 11 
2.908
 21 
1.492
 0 
LINE
 8 
0
 62 
 7 
 10 
2.908
 20 
1.492
 11 
2.9
 21 
1.5
 0 
LINE
 8 
0
 62 
 7 
 10 
2.9
 20 
1.5
 11 
2.9
 21 
1.517
 0 
LINE
 8 
0
 62 
 7 
 10 
2.9
 20 
1.517
 11 
2.892
 21 
1.525
 0 
LINE
 8 
0
 62 
 7 
 10 
2.892
 20 
1.525
 11 
2.875
 21 
1.525
 0 
LINE
 8 
0
 62 
 7 
 10 
2.875
 20 
1.525
 11 
2.875
 21 
1.492
 0 
CIRCLE
 8 
0
 62 
 7 
 10 
2.8
 20 
0.775
 40 
0.014
 0 
CIRCLE
 8 
0
 62 
 7 
 10 
2.8
 20 
0.675
 40 
0.014
 0 
CIRCLE
 8 
0
 62 
 7 
 10 
2.8
 20 
0.575
 40 
0.014
 0 
LINE
 8 
0
 62 
 7 
 10 
2.85
 20 
0.821
 11 
2.755
 21 
0.821
 0 
LINE
 8 
0
 62 
 7 
 10 
2.755
 20 
0.821
 11 
2.71
 21 
0.776
 0 
LINE
 8 
0
 62 
 7 
 10 
2.71
 20 
0.776
 11 
2.71
 21 
0.574
 0 
LINE
 8 
0
 62 
 7 
 10 
2.71
 20 
0.574
 11 
2.755
 21 
0.529
 0 
LINE
 8 
0
 62 
 7 
 10 
2.755
 20 
0.529
 11 
2.85
 21 
0.529
 0 
LINE
 8 
0
 62 
 7 
 10 
2.85
 20 
0.529
 11 
2.85
 21 
0.821
 0 
LINE
 8 
0
 62 
 7 
 10 
2.925
 20 
0.7
 11 
2.925
 21 
0.667
 0 
LINE
 8 
0
 62 
 7 
 10 
2.925
 20 
0.683
 11 
2.875
 21 
0.683
 0 
LINE
 8 
0
 62 
 7 
 10 
2.917
 20 
0.642
 11 
2.925
 21 
0.633
 0 
LINE
 8 
0
 62 
 7 
 10 
2.925
 20 
0.633
 11 
2.875
 21 
0.633
 0 
LINE
 8 
0
 62 
 7 
 10 
2.875
 20 
0.642
 11 
2.875
 21 
0.625
 0 
CIRCLE
 8 
0
 62 
 7 
 10 
2.35
 20 
0.575
 40 
0.014
 0 
CIRCLE
 8 
0
 62 
 7 
 10 
2.35
 20 
0.975
 40 
0.014
 0 
LINE
 8 
0
 62 
 7 
 10 
2.4
 20 
0.66
 11 
2.3
 21 
0.66
 0 
LINE
 8 
0
 62 
 7 
 10 
2.3
 20 
0.89
 11 
2.3
 21 
0.66
 0 
LINE
 8 
0
 62 
 7 
 10 
2.3
 20 
0.89
 11 
2.4
 21 
0.89
 0 
LINE
 8 
0
 62 
 7 
 10 
2.4
 20 
0.66
 11 
2.4
 21 
0.89
 0 
LINE
 8 
0
 62 
 7 
 10 
2.35
 20 
0.66
 11 
2.35
 21 
0.625
 0 
LINE
 8 
0
 62 
 7 
 10 
2.35
 20 
0.89
 11 
2.35
 21 
0.925
 0 
LINE
 8 
0
 62 
 7 
 10 
2.376
 20 
0.743
 11 
2.326
 21 
0.743
 0 
LINE
 8 
0
 62 
 7 
 10 
2.326
 20 
0.743
 11 
2.326
 21 
0.768
 0 
LINE
 8 
0
 62 
 7 
 10 
2.326
 20 
0.768
 11 
2.334
 21 
0.776
 0 
LINE
 8 
0
 62 
 7 
 10 
2.334
 20 
0.776
 11 
2.343
 21 
0.776
 0 
LINE
 8 
0
 62 
 7 
 10 
2.343
 20 
0.776
 11 
2.351
 21 
0.768
 0 
LINE
 8 
0
 62 
 7 
 10 
2.351
 20 
0.768
 11 
2.351
 21 
0.743
 0 
LINE
 8 
0
 62 
 7 
 10 
2.351
 20 
0.751
 11 
2.376
 21 
0.776
 0 
LINE
 8 
0
 62 
 7 
 10 
2.334
 20 
0.793
 11 
2.326
 21 
0.793
 0 
LINE
 8 
0
 62 
 7 
 10 
2.326
 20 
0.793
 11 
2.326
 21 
0.826
 0 
LINE
 8 
0
 62 
 7 
 10 
2.326
 20 
0.826
 11 
2.334
 21 
0.826
 0 
LINE
 8 
0
 62 
 7 
 10 
2.334
 20 
0.826
 11 
2.359
 21 
0.801
 0 
LINE
 8 
0
 62 
 7 
 10 
2.359
 20 
0.801
 11 
2.376
 21 
0.801
 0 
CIRCLE
 8 
0
 62 
 7 
 10 
2.475
 20 
0.575
 40 
0.014
 0 
CIRCLE
 8 
0
 62 
 7 
 10 
2.475
 20 
0.975
 40 
0.014
 0 
LINE
 8 
0
 62 
 7 
 10 
2.525
 20 
0.66
 11 
2.425
 21 
0.66
 0 
LINE
 8 
0
 62 
 7 
 10 
2.425
 20 
0.89
 11 
2.425
 21 
0.66
 0 
LINE
 8 
0
 62 
 7 
 10 
2.425
 20 
0.89
 11 
2.525
 21 
0.89
 0 
LINE
 8 
0
 62 
 7 
 10 
2.525
 20 
0.66
 11 
2.525
 21 
0.89
 0 
LINE
 8 
0
 62 
 7 
 10 
2.475
 20 
0.66
 11 
2.475
 21 
0.625
 0 
LINE
 8 
0
 62 
 7 
 10 
2.475
 20 
0.89
 11 
2.475
 21 
0.925
 0 
LINE
 8 
0
 62 
 7 
 10 
2.5
 20 
0.725
 11 
2.45
 21 
0.725
 0 
LINE
 8 
0
 62 
 7 
 10 
2.45
 20 
0.725
 11 
2.45
 21 
0.75
 0 
LINE
 8 
0
 62 
 7 
 10 
2.45
 20 
0.75
 11 
2.458
 21 
0.758
 0 
LINE
 8 
0
 62 
 7 
 10 
2.458
 20 
0.758
 11 
2.467
 21 
0.758
 0 
LINE
 8 
0
 62 
 7 
 10 
2.467
 20 
0.758
 11 
2.475
 21 
0.75
 0 
LINE
 8 
0
 62 
 7 
 10 
2.475
 20 
0.75
 11 
2.475
 21 
0.725
 0 
LINE
 8 
0
 62 
 7 
 10 
2.475
 20 
0.733
 11 
2.5
 21 
0.758
 0 
LINE
 8 
0
 62 
 7 
 10 
2.458
 20 
0.775
 11 
2.45
 21 
0.783
 0 
LINE
 8 
0
 62 
 7 
 10 
2.45
 20 
0.783
 11 
2.45
 21 
0.8
 0 
LINE
 8 
0
 62 
 7 
 10 
2.45
 20 
0.8
 11 
2.458
 21 
0.808
 0 
LINE
 8 
0
 62 
 7 
 10 
2.458
 20 
0.808
 11 
2.467
 21 
0.808
 0 
LINE
 8 
0
 62 
 7 
 10 
2.467
 20 
0.808
 11 
2.475
 21 
0.8
 0 
LINE
 8 
0
 62 
 7 
 10 
2.475
 20 
0.8
 11 
2.475
 21 
0.792
 0 
LINE
 8 
0
 62 
 7 
 10 
2.475
 20 
0.8
 11 
2.483
 21 
0.808
 0 
LINE
 8 
0
 62 
 7 
 10 
2.483
 20 
0.808
 11 
2.492
 21 
0.808
 0 
LINE
 8 
0
 62 
 7 
 10 
2.492
 20 
0.808
 11 
2.5
 21 
0.8
 0 
LINE
 8 
0
 62 
 7 
 10 
2.5
 20 
0.8
 11 
2.5
 21 
0.783
 0 
LINE
 8 
0
 62 
 7 
 10 
2.5
 20 
0.783
 11 
2.492
 21 
0.775
 0 
CIRCLE
 8 
0
 62 
 7 
 10 
2.6
 20 
0.575
 40 
0.014
 0 
CIRCLE
 8 
0
 62 
 7 
 10 
2.6
 20 
0.975
 40 
0.014
 0 
LINE
 8 
0
 62 
 7 
 10 
2.65
 20 
0.66
 11 
2.55
 21 
0.66
 0 
LINE
 8 
0
 62 
 7 
 10 
2.55
 20 
0.89
 11 
2.55
 21 
0.66
 0 
LINE
 8 
0
 62 
 7 
 10 
2.55
 20 
0.89
 11 
2.65
 21 
0.89
 0 
LINE
 8 
0
 62 
 7 
 10 
2.65
 20 
0.66
 11 
2.65
 21 
0.89
 0 
LINE
 8 
0
 62 
 7 
 10 
2.6
 20 
0.66
 11 
2.6
 21 
0.625
 0 
LINE
 8 
0
 62 
 7 
 10 
2.6
 20 
0.89
 11 
2.6
 21 
0.925
 0 
LINE
 8 
0
 62 
 7 
 10 
2.626
 20 
0.743
 11 
2.576
 21 
0.743
 0 
LINE
 8 
0
 62 
 7 
 10 
2.576
 20 
0.743
 11 
2.576
 21 
0.768
 0 
LINE
 8 
0
 62 
 7 
 10 
2.576
 20 
0.768
 11 
2.584
 21 
0.776
 0 
LINE
 8 
0
 62 
 7 
 10 
2.584
 20 
0.776
 11 
2.593
 21 
0.776
 0 
LINE
 8 
0
 62 
 7 
 10 
2.593
 20 
0.776
 11 
2.601
 21 
0.768
 0 
LINE
 8 
0
 62 
 7 
 10 
2.601
 20 
0.768
 11 
2.601
 21 
0.743
 0 
LINE
 8 
0
 62 
 7 
 10 
2.601
 20 
0.751
 11 
2.626
 21 
0.776
 0 
LINE
 8 
0
 62 
 7 
 10 
2.576
 20 
0.826
 11 
2.576
 21 
0.793
 0 
LINE
 8 
0
 62 
 7 
 10 
2.576
 20 
0.793
 11 
2.593
 21 
0.793
 0 
LINE
 8 
0
 62 
 7 
 10 
2.593
 20 
0.793
 11 
2.593
 21 
0.818
 0 
LINE
 8 
0
 62 
 7 
 10 
2.593
 20 
0.818
 11 
2.601
 21 
0.826
 0 
LINE
 8 
0
 62 
 7 
 10 
2.601
 20 
0.826
 11 
2.618
 21 
0.826
 0 
LINE
 8 
0
 62 
 7 
 10 
2.618
 20 
0.826
 11 
2.626
 21 
0.818
 0 
LINE
 8 
0
 62 
 7 
 10 
2.626
 20 
0.818
 11 
2.626
 21 
0.801
 0 
LINE
 8 
0
 62 
 7 
 10 
2.626
 20 
0.801
 11 
2.618
 21 
0.793
 0 
CIRCLE
 8 
0
 62 
 7 
 10 
2.475
 20 
1.2
 40 
0.018
 0 
CIRCLE
 8 
0
 62 
 7 
 10 
2.475
 20 
1.1
 40 
0.018
 0 
LINE
 8 
0
 62 
 7 
 10 
2.418
 20 
1.248
 11 
2.4
 21 
1.235
 0 
LINE
 8 
0
 62 
 7 
 10 
2.4
 20 
1.235
 11 
2.385
 21 
1.219
 0 
LINE
 8 
0
 62 
 7 
 10 
2.385
 20 
1.219
 11 
2.374
 21 
1.201
 0 
LINE
 8 
0
 62 
 7 
 10 
2.374
 20 
1.201
 11 
2.366
 21 
1.18
 0 
LINE
 8 
0
 62 
 7 
 10 
2.366
 20 
1.18
 11 
2.362
 21 
1.159
 0 
LINE
 8 
0
 62 
 7 
 10 
2.362
 20 
1.159
 11 
2.362
 21 
1.137
 0 
LINE
 8 
0
 62 
 7 
 10 
2.362
 20 
1.137
 11 
2.367
 21 
1.115
 0 
LINE
 8 
0
 62 
 7 
 10 
2.367
 20 
1.115
 11 
2.376
 21 
1.095
 0 
LINE
 8 
0
 62 
 7 
 10 
2.376
 20 
1.095
 11 
2.388
 21 
1.077
 0 
LINE
 8 
0
 62 
 7 
 10 
2.388
 20 
1.077
 11 
2.404
 21 
1.062
 0 
LINE
 8 
0
 62 
 7 
 10 
2.404
 20 
1.062
 11 
2.422
 21 
1.05
 0 
LINE
 8 
0
 62 
 7 
 10 
2.422
 20 
1.05
 11 
2.443
 21 
1.041
 0 
LINE
 8 
0
 62 
 7 
 10 
2.443
 20 
1.041
 11 
2.464
 21 
1.037
 0 
LINE
 8 
0
 62 
 7 
 10 
2.464
 20 
1.037
 11 
2.486
 21 
1.037
 0 
LINE
 8 
0
 62 
 7 
 10 
2.486
 20 
1.037
 11 
2.507
 21 
1.041
 0 
LINE
 8 
0
 62 
 7 
 10 
2.507
 20 
1.041
 11 
2.528
 21 
1.05
 0 
LINE
 8 
0
 62 
 7 
 10 
2.528
 20 
1.05
 11 
2.546
 21 
1.062
 0 
LINE
 8 
0
 62 
 7 
 10 
2.546
 20 
1.062
 11 
2.562
 21 
1.077
 0 
LINE
 8 
0
 62 
 7 
 10 
2.562
 20 
1.077
 11 
2.574
 21 
1.095
 0 
LINE
 8 
0
 62 
 7 
 10 
2.574
 20 
1.095
 11 
2.583
 21 
1.115
 0 
LINE
 8 
0
 62 
 7 
 10 
2.583
 20 
1.115
 11 
2.588
 21 
1.137
 0 
LINE
 8 
0
 62 
 7 
 10 
2.588
 20 
1.137
 11 
2.588
 21 
1.159
 0 
LINE
 8 
0
 62 
 7 
 10 
2.588
 20 
1.159
 11 
2.584
 21 
1.18
 0 
LINE
 8 
0
 62 
 7 
 10 
2.584
 20 
1.18
 11 
2.576
 21 
1.201
 0 
LINE
 8 
0
 62 
 7 
 10 
2.576
 20 
1.201
 11 
2.565
 21 
1.219
 0 
LINE
 8 
0
 62 
 7 
 10 
2.565
 20 
1.219
 11 
2.55
 21 
1.235
 0 
LINE
 8 
0
 62 
 7 
 10 
2.55
 20 
1.235
 11 
2.532
 21 
1.248
 0 
LINE
 8 
0
 62 
 7 
 10 
2.419
 20 
1.247
 11 
2.531
 21 
1.247
 0 
LINE
 8 
0
 62 
 7 
 10 
2.289
 20 
1.017
 11 
2.289
 21 
1.042
 0 
LINE
 8 
0
 62 
 7 
 10 
2.289
 20 
1.042
 11 
2.297
 21 
1.05
 0 
LINE
 8 
0
 62 
 7 
 10 
2.297
 20 
1.05
 11 
2.331
 21 
1.05
 0 
LINE
 8 
0
 62 
 7 
 10 
2.331
 20 
1.05
 11 
2.339
 21 
1.042
 0 
LINE
 8 
0
 62 
 7 
 10 
2.339
 20 
1.042
 11 
2.339
 21 
1.017
 0 
LINE
 8 
0
 62 
 7 
 10 
2.289
 20 
1.025
 11 
2.339
 21 
1.025
 0 
LINE
 8 
0
 62 
 7 
 10 
2.297
 20 
1.075
 11 
2.289
 21 
1.084
 0 
LINE
 8 
0
 62 
 7 
 10 
2.289
 20 
1.084
 11 
2.339
 21 
1.084
 0 
LINE
 8 
0
 62 
 7 
 10 
2.339
 20 
1.075
 11 
2.339
 21 
1.092
 0 
CIRCLE
 8 
0
 62 
 7 
 10 
2.775
 20 
1.025
 40 
0.014
 0 
CIRCLE
 8 
0
 62 
 7 
 10 
2.875
 20 
1.125
 40 
0.014
 0 
CIRCLE
 8 
0
 62 
 7 
 10 
2.875
 20 
0.925
 40 
0.014
 0 
CIRCLE
 8 
0
 62 
 7 
 10 
3.675
 20 
1.025
 40 
0.014
 0 
LINE
 8 
0
 62 
 7 
 10 
2.716
 20 
0.868
 11 
3.74
 21 
0.868
 0 
LINE
 8 
0
 62 
 7 
 10 
3.74
 20 
0.868
 11 
3.74
 21 
1.183
 0 
LINE
 8 
0
 62 
 7 
 10 
3.74
 20 
1.183
 11 
2.716
 21 
1.183
 0 
LINE
 8 
0
 62 
 7 
 10 
2.716
 20 
1.183
 11 
2.716
 21 
0.868
 0 
LINE
 8 
0
 62 
 7 
 10 
3.55
 20 
1.225
 11 
3.55
 21 
1.275
 0 
LINE
 8 
0
 62 
 7 
 10 
3.55
 20 
1.275
 11 
3.575
 21 
1.275
 0 
LINE
 8 
0
 62 
 7 
 10 
3.575
 20 
1.275
 11 
3.583
 21 
1.267
 0 
LINE
 8 
0
 62 
 7 
 10 
3.583
 20 
1.267
 11 
3.583
 21 
1.258
 0 
LINE
 8 
0
 62 
 7 
 10 
3.583
 20 
1.258
 11 
3.575
 21 
1.25
 0 
LINE
 8 
0
 62 
 7 
 10 
3.575
 20 
1.25
 11 
3.55
 21 
1.25
 0 
LINE
 8 
0
 62 
 7 
 10 
3.558
 20 
1.25
 11 
3.583
 21 
1.225
 0 
LINE
 8 
0
 62 
 7 
 10 
3.6
 20 
1.275
 11 
3.6
 21 
1.225
 0 
LINE
 8 
0
 62 
 7 
 10 
3.6
 20 
1.225
 11 
3.633
 21 
1.225
 0 
LINE
 8 
0
 62 
 7 
 10 
3.65
 20 
1.275
 11 
3.65
 21 
1.267
 0 
LINE
 8 
0
 62 
 7 
 10 
3.65
 20 
1.267
 11 
3.667
 21 
1.25
 0 
LINE
 8 
0
 62 
 7 
 10 
3.667
 20 
1.25
 11 
3.683
 21 
1.267
 0 
LINE
 8 
0
 62 
 7 
 10 
3.683
 20 
1.267
 11 
3.683
 21 
1.275
 0 
LINE
 8 
0
 62 
 7 
 10 
3.667
 20 
1.225
 11 
3.667
 21 
1.25
 0 
LINE
 8 
0
 62 
 7 
 10 
3.7
 20 
1.267
 11 
3.708
 21 
1.275
 0 
LINE
 8 
0
 62 
 7 
 10 
3.708
 20 
1.275
 11 
3.725
 21 
1.275
 0 
LINE
 8 
0
 62 
 7 
 10 
3.725
 20 
1.275
 11 
3.733
 21 
1.267
 0 
LINE
 8 
0
 62 
 7 
 10 
3.733
 20 
1.267
 11 
3.733
 21 
1.258
 0 
LINE
 8 
0
 62 
 7 
 10 
3.733
 20 
1.258
 11 
3.725
 21 
1.25
 0 
LINE
 8 
0
 62 
 7 
 10 
3.725
 20 
1.25
 11 
3.708
 21 
1.25
 0 
LINE
 8 
0
 62 
 7 
 10 
3.708
 20 
1.25
 11 
3.7
 21 
1.242
 0 
LINE
 8 
0
 62 
 7 
 10 
3.7
 20 
1.242
 11 
3.7
 21 
1.225
 0 
LINE
 8 
0
 62 
 7 
 10 
3.7
 20 
1.225
 11 
3.733
 21 
1.225
 0 
CIRCLE
 8 
0
 62 
 7 
 10 
3.6
 20 
0.75
 40 
0.02
 0 
CIRCLE
 8 
0
 62 
 7 
 10 
3.6
 20 
0.65
 40 
0.02
 0 
LINE
 8 
0
 62 
 7 
 10 
3.475
 20 
0.81
 11 
3.725
 21 
0.81
 0 
LINE
 8 
0
 62 
 7 
 10 
3.725
 20 
0.59
 11 
3.725
 21 
0.81
 0 
LINE
 8 
0
 62 
 7 
 10 
3.725
 20 
0.59
 11 
3.475
 21 
0.59
 0 
LINE
 8 
0
 62 
 7 
 10 
3.475
 20 
0.81
 11 
3.475
 21 
0.59
 0 
LINE
 8 
0
 62 
 7 
 10 
3.481
 20 
0.75
 11 
3.499
 21 
0.75
 0 
LINE
 8 
0
 62 
 7 
 10 
3.499
 20 
0.65
 11 
3.499
 21 
0.75
 0 
LINE
 8 
0
 62 
 7 
 10 
3.499
 20 
0.65
 11 
3.481
 21 
0.65
 0 
LINE
 8 
0
 62 
 7 
 10 
3.481
 20 
0.75
 11 
3.481
 21 
0.65
 0 
LINE
 8 
0
 62 
 7 
 10 
3.487
 20 
0.75
 11 
3.493
 21 
0.75
 0 
LINE
 8 
0
 62 
 7 
 10 
3.493
 20 
0.65
 11 
3.493
 21 
0.75
 0 
LINE
 8 
0
 62 
 7 
 10 
3.493
 20 
0.65
 11 
3.487
 21 
0.65
 0 
LINE
 8 
0
 62 
 7 
 10 
3.487
 20 
0.75
 11 
3.487
 21 
0.65
 0 
LINE
 8 
0
 62 
 7 
 10 
3.375
 20 
0.608
 11 
3.375
 21 
0.633
 0 
LINE
 8 
0
 62 
 7 
 10 
3.375
 20 
0.633
 11 
3.417
 21 
0.633
 0 
LINE
 8 
0
 62 
 7 
 10 
3.417
 20 
0.633
 11 
3.425
 21 
0.625
 0 
LINE
 8 
0
 62 
 7 
 10 
3.425
 20 
0.625
 11 
3.425
 21 
0.608
 0 
LINE
 8 
0
 62 
 7 
 10 
3.425
 20 
0.608
 11 
3.417
 21 
0.6
 0 
LINE
 8 
0
 62 
 7 
 10 
3.383
 20 
0.65
 11 
3.375
 21 
0.65
 0 
LINE
 8 
0
 62 
 7 
 10 
3.375
 20 
0.65
 11 
3.375
 21 
0.683
 0 
LINE
 8 
0
 62 
 7 
 10 
3.375
 20 
0.683
 11 
3.383
 21 
0.683
 0 
LINE
 8 
0
 62 
 7 
 10 
3.383
 20 
0.683
 11 
3.408
 21 
0.658
 0 
LINE
 8 
0
 62 
 7 
 10 
3.408
 20 
0.658
 11 
3.425
 21 
0.658
 0 
CIRCLE
 8 
0
 62 
 7 
 10 
2.35
 20 
1.45
 40 
0.014
 0 
CIRCLE
 8 
0
 62 
 7 
 10 
2.35
 20 
1.85
 40 
0.014
 0 
CIRCLE
 8 
0
 62 
 7 
 10 
2.475
 20 
1.45
 40 
0.014
 0 
CIRCLE
 8 
0
 62 
 7 
 10 
2.475
 20 
1.85
 40 
0.014
 0 
CIRCLE
 8 
0
 62 
 7 
 10 
2.6
 20 
1.45
 40 
0.014
 0 
CIRCLE
 8 
0
 62 
 7 
 10 
2.6
 20 
1.85
 40 
0.014
 0 
LINE
 8 
0
 62 
 7 
 10 
2.4
 20 
1.535
 11 
2.3
 21 
1.535
 0 
LINE
 8 
0
 62 
 7 
 10 
2.3
 20 
1.765
 11 
2.3
 21 
1.535
 0 
LINE
 8 
0
 62 
 7 
 10 
2.3
 20 
1.765
 11 
2.4
 21 
1.765
 0 
LINE
 8 
0
 62 
 7 
 10 
2.4
 20 
1.535
 11 
2.4
 21 
1.765
 0 
LINE
 8 
0
 62 
 7 
 10 
2.35
 20 
1.535
 11 
2.35
 21 
1.5
 0 
LINE
 8 
0
 62 
 7 
 10 
2.35
 20 
1.765
 11 
2.35
 21 
1.8
 0 
LINE
 8 
0
 62 
 7 
 10 
2.374
 20 
1.617
 11 
2.324
 21 
1.617
 0 
LINE
 8 
0
 62 
 7 
 10 
2.324
 20 
1.617
 11 
2.324
 21 
1.642
 0 
LINE
 8 
0
 62 
 7 
 10 
2.324
 20 
1.642
 11 
2.332
 21 
1.65
 0 
LINE
 8 
0
 62 
 7 
 10 
2.332
 20 
1.65
 11 
2.341
 21 
1.65
 0 
LINE
 8 
0
 62 
 7 
 10 
2.341
 20 
1.65
 11 
2.349
 21 
1.642
 0 
LINE
 8 
0
 62 
 7 
 10 
2.349
 20 
1.642
 11 
2.349
 21 
1.617
 0 
LINE
 8 
0
 62 
 7 
 10 
2.349
 20 
1.625
 11 
2.374
 21 
1.65
 0 
LINE
 8 
0
 62 
 7 
 10 
2.349
 20 
1.675
 11 
2.341
 21 
1.667
 0 
LINE
 8 
0
 62 
 7 
 10 
2.341
 20 
1.667
 11 
2.332
 21 
1.667
 0 
LINE
 8 
0
 62 
 7 
 10 
2.332
 20 
1.667
 11 
2.324
 21 
1.675
 0 
LINE
 8 
0
 62 
 7 
 10 
2.324
 20 
1.675
 11 
2.324
 21 
1.692
 0 
LINE
 8 
0
 62 
 7 
 10 
2.324
 20 
1.692
 11 
2.332
 21 
1.7
 0 
LINE
 8 
0
 62 
 7 
 10 
2.332
 20 
1.7
 11 
2.341
 21 
1.7
 0 
LINE
 8 
0
 62 
 7 
 10 
2.341
 20 
1.7
 11 
2.349
 21 
1.692
 0 
LINE
 8 
0
 62 
 7 
 10 
2.349
 20 
1.692
 11 
2.349
 21 
1.675
 0 
LINE
 8 
0
 62 
 7 
 10 
2.349
 20 
1.675
 11 
2.357
 21 
1.667
 0 
LINE
 8 
0
 62 
 7 
 10 
2.357
 20 
1.667
 11 
2.366
 21 
1.667
 0 
LINE
 8 
0
 62 
 7 
 10 
2.366
 20 
1.667
 11 
2.374
 21 
1.675
 0 
LINE
 8 
0
 62 
 7 
 10 
2.374
 20 
1.675
 11 
2.374
 21 
1.692
 0 
LINE
 8 
0
 62 
 7 
 10 
2.374
 20 
1.692
 11 
2.366
 21 
1.7
 0 
LINE
 8 
0
 62 
 7 
 10 
2.366
 20 
1.7
 11 
2.357
 21 
1.7
 0 
LINE
 8 
0
 62 
 7 
 10 
2.357
 20 
1.7
 11 
2.349
 21 
1.692
 0 
LINE
 8 
0
 62 
 7 
 10 
2.525
 20 
1.535
 11 
2.425
 21 
1.535
 0 
LINE
 8 
0
 62 
 7 
 10 
2.425
 20 
1.765
 11 
2.425
 21 
1.535
 0 
LINE
 8 
0
 62 
 7 
 10 
2.425
 20 
1.765
 11 
2.525
 21 
1.765
 0 
LINE
 8 
0
 62 
 7 
 10 
2.525
 20 
1.535
 11 
2.525
 21 
1.765
 0 
LINE
 8 
0
 62 
 7 
 10 
2.475
 20 
1.535
 11 
2.475
 21 
1.5
 0 
LINE
 8 
0
 62 
 7 
 10 
2.475
 20 
1.765
 11 
2.475
 21 
1.8
 0 
LINE
 8 
0
 62 
 7 
 10 
2.5
 20 
1.601
 11 
2.45
 21 
1.601
 0 
LINE
 8 
0
 62 
 7 
 10 
2.45
 20 
1.601
 11 
2.45
 21 
1.626
 0 
LINE
 8 
0
 62 
 7 
 10 
2.45
 20 
1.626
 11 
2.458
 21 
1.634
 0 
LINE
 8 
0
 62 
 7 
 10 
2.458
 20 
1.634
 11 
2.467
 21 
1.634
 0 
LINE
 8 
0
 62 
 7 
 10 
2.467
 20 
1.634
 11 
2.475
 21 
1.626
 0 
LINE
 8 
0
 62 
 7 
 10 
2.475
 20 
1.626
 11 
2.475
 21 
1.601
 0 
LINE
 8 
0
 62 
 7 
 10 
2.475
 20 
1.609
 11 
2.5
 21 
1.634
 0 
LINE
 8 
0
 62 
 7 
 10 
2.483
 20 
1.684
 11 
2.483
 21 
1.651
 0 
LINE
 8 
0
 62 
 7 
 10 
2.483
 20 
1.651
 11 
2.475
 21 
1.651
 0 
LINE
 8 
0
 62 
 7 
 10 
2.475
 20 
1.651
 11 
2.45
 21 
1.676
 0 
LINE
 8 
0
 62 
 7 
 10 
2.45
 20 
1.676
 11 
2.5
 21 
1.676
 0 
LINE
 8 
0
 62 
 7 
 10 
2.65
 20 
1.535
 11 
2.55
 21 
1.535
 0 
LINE
 8 
0
 62 
 7 
 10 
2.55
 20 
1.765
 11 
2.55
 21 
1.535
 0 
LINE
 8 
0
 62 
 7 
 10 
2.55
 20 
1.765
 11 
2.65
 21 
1.765
 0 
LINE
 8 
0
 62 
 7 
 10 
2.65
 20 
1.535
 11 
2.65
 21 
1.765
 0 
LINE
 8 
0
 62 
 7 
 10 
2.6
 20 
1.535
 11 
2.6
 21 
1.5
 0 
LINE
 8 
0
 62 
 7 
 10 
2.6
 20 
1.765
 11 
2.6
 21 
1.8
 0 
LINE
 8 
0
 62 
 7 
 10 
2.624
 20 
1.617
 11 
2.574
 21 
1.617
 0 
LINE
 8 
0
 62 
 7 
 10 
2.574
 20 
1.617
 11 
2.574
 21 
1.642
 0 
LINE
 8 
0
 62 
 7 
 10 
2.574
 20 
1.642
 11 
2.582
 21 
1.65
 0 
LINE
 8 
0
 62 
 7 
 10 
2.582
 20 
1.65
 11 
2.591
 21 
1.65
 0 
LINE
 8 
0
 62 
 7 
 10 
2.591
 20 
1.65
 11 
2.599
 21 
1.642
 0 
LINE
 8 
0
 62 
 7 
 10 
2.599
 20 
1.642
 11 
2.599
 21 
1.617
 0 
LINE
 8 
0
 62 
 7 
 10 
2.599
 20 
1.625
 11 
2.624
 21 
1.65
 0 
LINE
 8 
0
 62 
 7 
 10 
2.574
 20 
1.692
 11 
2.574
 21 
1.684
 0 
LINE
 8 
0
 62 
 7 
 10 
2.574
 20 
1.684
 11 
2.591
 21 
1.667
 0 
LINE
 8 
0
 62 
 7 
 10 
2.591
 20 
1.667
 11 
2.616
 21 
1.667
 0 
LINE
 8 
0
 62 
 7 
 10 
2.616
 20 
1.667
 11 
2.624
 21 
1.675
 0 
LINE
 8 
0
 62 
 7 
 10 
2.624
 20 
1.675
 11 
2.624
 21 
1.692
 0 
LINE
 8 
0
 62 
 7 
 10 
2.624
 20 
1.692
 11 
2.616
 21 
1.7
 0 
LINE
 8 
0
 62 
 7 
 10 
2.616
 20 
1.7
 11 
2.607
 21 
1.7
 0 
LINE
 8 
0
 62 
 7 
 10 
2.607
 20 
1.7
 11 
2.599
 21 
1.692
 0 
LINE
 8 
0
 62 
 7 
 10 
2.599
 20 
1.692
 11 
2.599
 21 
1.675
 0 
LINE
 8 
0
 62 
 7 
 10 
2.599
 20 
1.675
 11 
2.607
 21 
1.667
 0 
CIRCLE
 8 
0
 62 
 7 
 10 
2.475
 20 
2.075
 40 
0.018
 0 
CIRCLE
 8 
0
 62 
 7 
 10 
2.475
 20 
1.975
 40 
0.018
 0 
LINE
 8 
0
 62 
 7 
 10 
2.418
 20 
2.123
 11 
2.4
 21 
2.11
 0 
LINE
 8 
0
 62 
 7 
 10 
2.4
 20 
2.11
 11 
2.385
 21 
2.094
 0 
LINE
 8 
0
 62 
 7 
 10 
2.385
 20 
2.094
 11 
2.374
 21 
2.076
 0 
LINE
 8 
0
 62 
 7 
 10 
2.374
 20 
2.076
 11 
2.366
 21 
2.055
 0 
LINE
 8 
0
 62 
 7 
 10 
2.366
 20 
2.055
 11 
2.362
 21 
2.034
 0 
LINE
 8 
0
 62 
 7 
 10 
2.362
 20 
2.034
 11 
2.362
 21 
2.012
 0 
LINE
 8 
0
 62 
 7 
 10 
2.362
 20 
2.012
 11 
2.367
 21 
1.99
 0 
LINE
 8 
0
 62 
 7 
 10 
2.367
 20 
1.99
 11 
2.376
 21 
1.97
 0 
LINE
 8 
0
 62 
 7 
 10 
2.376
 20 
1.97
 11 
2.388
 21 
1.952
 0 
LINE
 8 
0
 62 
 7 
 10 
2.388
 20 
1.952
 11 
2.404
 21 
1.937
 0 
LINE
 8 
0
 62 
 7 
 10 
2.404
 20 
1.937
 11 
2.422
 21 
1.925
 0 
LINE
 8 
0
 62 
 7 
 10 
2.422
 20 
1.925
 11 
2.443
 21 
1.916
 0 
LINE
 8 
0
 62 
 7 
 10 
2.443
 20 
1.916
 11 
2.464
 21 
1.912
 0 
LINE
 8 
0
 62 
 7 
 10 
2.464
 20 
1.912
 11 
2.486
 21 
1.912
 0 
LINE
 8 
0
 62 
 7 
 10 
2.486
 20 
1.912
 11 
2.507
 21 
1.916
 0 
LINE
 8 
0
 62 
 7 
 10 
2.507
 20 
1.916
 11 
2.528
 21 
1.925
 0 
LINE
 8 
0
 62 
 7 
 10 
2.528
 20 
1.925
 11 
2.546
 21 
1.937
 0 
LINE
 8 
0
 62 
 7 
 10 
2.546
 20 
1.937
 11 
2.562
 21 
1.952
 0 
LINE
 8 
0
 62 
 7 
 10 
2.562
 20 
1.952
 11 
2.574
 21 
1.97
 0 
LINE
 8 
0
 62 
 7 
 10 
2.574
 20 
1.97
 11 
2.583
 21 
1.99
 0 
LINE
 8 
0
 62 
 7 
 10 
2.583
 20 
1.99
 11 
2.588
 21 
2.012
 0 
LINE
 8 
0
 62 
 7 
 10 
2.588
 20 
2.012
 11 
2.588
 21 
2.034
 0 
LINE
 8 
0
 62 
 7 
 10 
2.588
 20 
2.034
 11 
2.584
 21 
2.055
 0 
LINE
 8 
0
 62 
 7 
 10 
2.584
 20 
2.055
 11 
2.576
 21 
2.076
 0 
LINE
 8 
0
 62 
 7 
 10 
2.576
 20 
2.076
 11 
2.565
 21 
2.094
 0 
LINE
 8 
0
 62 
 7 
 10 
2.565
 20 
2.094
 11 
2.55
 21 
2.11
 0 
LINE
 8 
0
 62 
 7 
 10 
2.55
 20 
2.11
 11 
2.532
 21 
2.123
 0 
LINE
 8 
0
 62 
 7 
 10 
2.419
 20 
2.122
 11 
2.531
 21 
2.122
 0 
LINE
 8 
0
 62 
 7 
 10 
2.289
 20 
1.892
 11 
2.289
 21 
1.917
 0 
LINE
 8 
0
 62 
 7 
 10 
2.289
 20 
1.917
 11 
2.297
 21 
1.925
 0 
LINE
 8 
0
 62 
 7 
 10 
2.297
 20 
1.925
 11 
2.331
 21 
1.925
 0 
LINE
 8 
0
 62 
 7 
 10 
2.331
 20 
1.925
 11 
2.339
 21 
1.917
 0 
LINE
 8 
0
 62 
 7 
 10 
2.339
 20 
1.917
 11 
2.339
 21 
1.892
 0 
LINE
 8 
0
 62 
 7 
 10 
2.289
 20 
1.9
 11 
2.339
 21 
1.9
 0 
LINE
 8 
0
 62 
 7 
 10 
2.297
 20 
1.942
 11 
2.289
 21 
1.95
 0 
LINE
 8 
0
 62 
 7 
 10 
2.289
 20 
1.95
 11 
2.289
 21 
1.967
 0 
LINE
 8 
0
 62 
 7 
 10 
2.289
 20 
1.967
 11 
2.297
 21 
1.975
 0 
LINE
 8 
0
 62 
 7 
 10 
2.297
 20 
1.975
 11 
2.306
 21 
1.975
 0 
LINE
 8 
0
 62 
 7 
 10 
2.306
 20 
1.975
 11 
2.314
 21 
1.967
 0 
LINE
 8 
0
 62 
 7 
 10 
2.314
 20 
1.967
 11 
2.314
 21 
1.95
 0 
LINE
 8 
0
 62 
 7 
 10 
2.314
 20 
1.95
 11 
2.322
 21 
1.942
 0 
LINE
 8 
0
 62 
 7 
 10 
2.322
 20 
1.942
 11 
2.339
 21 
1.942
 0 
LINE
 8 
0
 62 
 7 
 10 
2.339
 20 
1.942
 11 
2.339
 21 
1.975
 0 
CIRCLE
 8 
0
 62 
 7 
 10 
2.775
 20 
1.9
 40 
0.014
 0 
CIRCLE
 8 
0
 62 
 7 
 10 
2.875
 20 
2.0
 40 
0.014
 0 
CIRCLE
 8 
0
 62 
 7 
 10 
2.875
 20 
1.8
 40 
0.014
 0 
CIRCLE
 8 
0
 62 
 7 
 10 
3.675
 20 
1.9
 40 
0.014
 0 
LINE
 8 
0
 62 
 7 
 10 
2.716
 20 
1.743
 11 
3.74
 21 
1.743
 0 
LINE
 8 
0
 62 
 7 
 10 
3.74
 20 
1.743
 11 
3.74
 21 
2.058
 0 
LINE
 8 
0
 62 
 7 
 10 
3.74
 20 
2.058
 11 
2.716
 21 
2.058
 0 
LINE
 8 
0
 62 
 7 
 10 
2.716
 20 
2.058
 11 
2.716
 21 
1.743
 0 
LINE
 8 
0
 62 
 7 
 10 
3.55
 20 
2.1
 11 
3.55
 21 
2.15
 0 
LINE
 8 
0
 62 
 7 
 10 
3.55
 20 
2.15
 11 
3.575
 21 
2.15
 0 
LINE
 8 
0
 62 
 7 
 10 
3.575
 20 
2.15
 11 
3.583
 21 
2.142
 0 
LINE
 8 
0
 62 
 7 
 10 
3.583
 20 
2.142
 11 
3.583
 21 
2.133
 0 
LINE
 8 
0
 62 
 7 
 10 
3.583
 20 
2.133
 11 
3.575
 21 
2.125
 0 
LINE
 8 
0
 62 
 7 
 10 
3.575
 20 
2.125
 11 
3.55
 21 
2.125
 0 
LINE
 8 
0
 62 
 7 
 10 
3.558
 20 
2.125
 11 
3.583
 21 
2.1
 0 
LINE
 8 
0
 62 
 7 
 10 
3.6
 20 
2.15
 11 
3.6
 21 
2.1
 0 
LINE
 8 
0
 62 
 7 
 10 
3.6
 20 
2.1
 11 
3.633
 21 
2.1
 0 
LINE
 8 
0
 62 
 7 
 10 
3.65
 20 
2.15
 11 
3.65
 21 
2.142
 0 
LINE
 8 
0
 62 
 7 
 10 
3.65
 20 
2.142
 11 
3.667
 21 
2.125
 0 
LINE
 8 
0
 62 
 7 
 10 
3.667
 20 
2.125
 11 
3.683
 21 
2.142
 0 
LINE
 8 
0
 62 
 7 
 10 
3.683
 20 
2.142
 11 
3.683
 21 
2.15
 0 
LINE
 8 
0
 62 
 7 
 10 
3.667
 20 
2.1
 11 
3.667
 21 
2.125
 0 
LINE
 8 
0
 62 
 7 
 10 
3.708
 20 
2.142
 11 
3.717
 21 
2.15
 0 
LINE
 8 
0
 62 
 7 
 10 
3.717
 20 
2.15
 11 
3.717
 21 
2.1
 0 
LINE
 8 
0
 62 
 7 
 10 
3.708
 20 
2.1
 11 
3.725
 21 
2.1
 0 
CIRCLE
 8 
0
 62 
 7 
 10 
3.6
 20 
1.625
 40 
0.02
 0 
CIRCLE
 8 
0
 62 
 7 
 10 
3.6
 20 
1.525
 40 
0.02
 0 
LINE
 8 
0
 62 
 7 
 10 
3.475
 20 
1.685
 11 
3.725
 21 
1.685
 0 
LINE
 8 
0
 62 
 7 
 10 
3.725
 20 
1.465
 11 
3.725
 21 
1.685
 0 
LINE
 8 
0
 62 
 7 
 10 
3.725
 20 
1.465
 11 
3.475
 21 
1.465
 0 
LINE
 8 
0
 62 
 7 
 10 
3.475
 20 
1.685
 11 
3.475
 21 
1.465
 0 
LINE
 8 
0
 62 
 7 
 10 
3.481
 20 
1.625
 11 
3.499
 21 
1.625
 0 
LINE
 8 
0
 62 
 7 
 10 
3.499
 20 
1.525
 11 
3.499
 21 
1.625
 0 
LINE
 8 
0
 62 
 7 
 10 
3.499
 20 
1.525
 11 
3.481
 21 
1.525
 0 
LINE
 8 
0
 62 
 7 
 10 
3.481
 20 
1.625
 11 
3.481
 21 
1.525
 0 
LINE
 8 
0
 62 
 7 
 10 
3.487
 20 
1.625
 11 
3.493
 21 
1.625
 0 
LINE
 8 
0
 62 
 7 
 10 
3.493
 20 
1.525
 11 
3.493
 21 
1.625
 0 
LINE
 8 
0
 62 
 7 
 10 
3.493
 20 
1.525
 11 
3.487
 21 
1.525
 0 
LINE
 8 
0
 62 
 7 
 10 
3.487
 20 
1.625
 11 
3.487
 21 
1.525
 0 
LINE
 8 
0
 62 
 7 
 10 
3.375
 20 
1.483
 11 
3.375
 21 
1.508
 0 
LINE
 8 
0
 62 
 7 
 10 
3.375
 20 
1.508
 11 
3.417
 21 
1.508
 0 
LINE
 8 
0
 62 
 7 
 10 
3.417
 20 
1.508
 11 
3.425
 21 
1.5
 0 
LINE
 8 
0
 62 
 7 
 10 
3.425
 20 
1.5
 11 
3.425
 21 
1.483
 0 
LINE
 8 
0
 62 
 7 
 10 
3.425
 20 
1.483
 11 
3.417
 21 
1.475
 0 
LINE
 8 
0
 62 
 7 
 10 
3.4
 20 
1.533
 11 
3.392
 21 
1.525
 0 
LINE
 8 
0
 62 
 7 
 10 
3.392
 20 
1.525
 11 
3.383
 21 
1.525
 0 
LINE
 8 
0
 62 
 7 
 10 
3.383
 20 
1.525
 11 
3.375
 21 
1.533
 0 
LINE
 8 
0
 62 
 7 
 10 
3.375
 20 
1.533
 11 
3.375
 21 
1.55
 0 
LINE
 8 
0
 62 
 7 
 10 
3.375
 20 
1.55
 11 
3.383
 21 
1.558
 0 
LINE
 8 
0
 62 
 7 
 10 
3.383
 20 
1.558
 11 
3.392
 21 
1.558
 0 
LINE
 8 
0
 62 
 7 
 10 
3.392
 20 
1.558
 11 
3.4
 21 
1.55
 0 
LINE
 8 
0
 62 
 7 
 10 
3.4
 20 
1.55
 11 
3.4
 21 
1.533
 0 
LINE
 8 
0
 62 
 7 
 10 
3.4
 20 
1.533
 11 
3.408
 21 
1.525
 0 
LINE
 8 
0
 62 
 7 
 10 
3.408
 20 
1.525
 11 
3.417
 21 
1.525
 0 
LINE
 8 
0
 62 
 7 
 10 
3.417
 20 
1.525
 11 
3.425
 21 
1.533
 0 
LINE
 8 
0
 62 
 7 
 10 
3.425
 20 
1.533
 11 
3.425
 21 
1.55
 0 
LINE
 8 
0
 62 
 7 
 10 
3.425
 20 
1.55
 11 
3.417
 21 
1.558
 0 
LINE
 8 
0
 62 
 7 
 10 
3.417
 20 
1.558
 11 
3.408
 21 
1.558
 0 
LINE
 8 
0
 62 
 7 
 10 
3.408
 20 
1.558
 11 
3.4
 21 
1.55
 0 
CIRCLE
 8 
0
 62 
 7 
 10 
3.0
 20 
0.775
 40 
0.02
 0 
CIRCLE
 8 
0
 62 
 7 
 10 
3.4
 20 
0.775
 40 
0.02
 0 
LINE
 8 
0
 62 
 7 
 10 
3.085
 20 
0.725
 11 
3.085
 21 
0.825
 0 
LINE
 8 
0
 62 
 7 
 10 
3.315
 20 
0.825
 11 
3.085
 21 
0.825
 0 
LINE
 8 
0
 62 
 7 
 10 
3.315
 20 
0.825
 11 
3.315
 21 
0.725
 0 
LINE
 8 
0
 62 
 7 
 10 
3.085
 20 
0.725
 11 
3.315
 21 
0.725
 0 
LINE
 8 
0
 62 
 7 
 10 
3.085
 20 
0.775
 11 
3.05
 21 
0.775
 0 
LINE
 8 
0
 62 
 7 
 10 
3.315
 20 
0.775
 11 
3.35
 21 
0.775
 0 
LINE
 8 
0
 62 
 7 
 10 
3.12
 20 
0.725
 11 
3.12
 21 
0.825
 0 
LINE
 8 
0
 62 
 7 
 10 
3.175
 20 
0.8
 11 
3.2
 21 
0.8
 0 
LINE
 8 
0
 62 
 7 
 10 
3.2
 20 
0.8
 11 
3.208
 21 
0.792
 0 
LINE
 8 
0
 62 
 7 
 10 
3.208
 20 
0.792
 11 
3.208
 21 
0.758
 0 
LINE
 8 
0
 62 
 7 
 10 
3.208
 20 
0.758
 11 
3.2
 21 
0.75
 0 
LINE
 8 
0
 62 
 7 
 10 
3.2
 20 
0.75
 11 
3.175
 21 
0.75
 0 
LINE
 8 
0
 62 
 7 
 10 
3.183
 20 
0.8
 11 
3.183
 21 
0.75
 0 
LINE
 8 
0
 62 
 7 
 10 
3.225
 20 
0.792
 11 
3.233
 21 
0.8
 0 
LINE
 8 
0
 62 
 7 
 10 
3.233
 20 
0.8
 11 
3.25
 21 
0.8
 0 
LINE
 8 
0
 62 
 7 
 10 
3.25
 20 
0.8
 11 
3.258
 21 
0.792
 0 
LINE
 8 
0
 62 
 7 
 10 
3.258
 20 
0.792
 11 
3.258
 21 
0.783
 0 
LINE
 8 
0
 62 
 7 
 10 
3.258
 20 
0.783
 11 
3.25
 21 
0.775
 0 
LINE
 8 
0
 62 
 7 
 10 
3.25
 20 
0.775
 11 
3.242
 21 
0.775
 0 
LINE
 8 
0
 62 
 7 
 10 
3.25
 20 
0.775
 11 
3.258
 21 
0.767
 0 
LINE
 8 
0
 62 
 7 
 10 
3.258
 20 
0.767
 11 
3.258
 21 
0.758
 0 
LINE
 8 
0
 62 
 7 
 10 
3.258
 20 
0.758
 11 
3.25
 21 
0.75
 0 
LINE
 8 
0
 62 
 7 
 10 
3.25
 20 
0.75
 11 
3.233
 21 
0.75
 0 
LINE
 8 
0
 62 
 7 
 10 
3.233
 20 
0.75
 11 
3.225
 21 
0.758
 0 
CIRCLE
 8 
0
 62 
 7 
 10 
3.0
 20 
1.65
 40 
0.02
 0 
CIRCLE
 8 
0
 62 
 7 
 10 
3.4
 20 
1.65
 40 
0.02
 0 
LINE
 8 
0
 62 
 7 
 10 
3.085
 20 
1.6
 11 
3.085
 21 
1.7
 0 
LINE
 8 
0
 62 
 7 
 10 
3.315
 20 
1.7
 11 
3.085
 21 
1.7
 0 
LINE
 8 
0
 62 
 7 
 10 
3.315
 20 
1.7
 11 
3.315
 21 
1.6
 0 
LINE
 8 
0
 62 
 7 
 10 
3.085
 20 
1.6
 11 
3.315
 21 
1.6
 0 
LINE
 8 
0
 62 
 7 
 10 
3.085
 20 
1.65
 11 
3.05
 21 
1.65
 0 
LINE
 8 
0
 62 
 7 
 10 
3.315
 20 
1.65
 11 
3.35
 21 
1.65
 0 
LINE
 8 
0
 62 
 7 
 10 
3.12
 20 
1.6
 11 
3.12
 21 
1.7
 0 
LINE
 8 
0
 62 
 7 
 10 
3.175
 20 
1.675
 11 
3.2
 21 
1.675
 0 
LINE
 8 
0
 62 
 7 
 10 
3.2
 20 
1.675
 11 
3.208
 21 
1.667
 0 
LINE
 8 
0
 62 
 7 
 10 
3.208
 20 
1.667
 11 
3.208
 21 
1.633
 0 
LINE
 8 
0
 62 
 7 
 10 
3.208
 20 
1.633
 11 
3.2
 21 
1.625
 0 
LINE
 8 
0
 62 
 7 
 10 
3.2
 20 
1.625
 11 
3.175
 21 
1.625
 0 
LINE
 8 
0
 62 
 7 
 10 
3.183
 20 
1.675
 11 
3.183
 21 
1.625
 0 
LINE
 8 
0
 62 
 7 
 10 
3.258
 20 
1.642
 11 
3.225
 21 
1.642
 0 
LINE
 8 
0
 62 
 7 
 10 
3.225
 20 
1.642
 11 
3.225
 21 
1.65
 0 
LINE
 8 
0
 62 
 7 
 10 
3.225
 20 
1.65
 11 
3.25
 21 
1.675
 0 
LINE
 8 
0
 62 
 7 
 10 
3.25
 20 
1.675
 11 
3.25
 21 
1.625
 0 
LINE
 8 
0
 62 
 7 
 10 
0.452
 20 
0.068
 11 
0.445
 21 
0.075
 0 
LINE
 8 
0
 62 
 7 
 10 
0.445
 20 
0.075
 11 
0.432
 21 
0.075
 0 
LINE
 8 
0
 62 
 7 
 10 
0.432
 20 
0.075
 11 
0.425
 21 
0.068
 0 
LINE
 8 
0
 62 
 7 
 10 
0.425
 20 
0.068
 11 
0.425
 21 
0.042
 0 
LINE
 8 
0
 62 
 7 
 10 
0.425
 20 
0.042
 11 
0.432
 21 
0.035
 0 
LINE
 8 
0
 62 
 7 
 10 
0.432
 20 
0.035
 11 
0.445
 21 
0.035
 0 
LINE
 8 
0
 62 
 7 
 10 
0.445
 20 
0.035
 11 
0.452
 21 
0.042
 0 
LINE
 8 
0
 62 
 7 
 10 
0.452
 20 
0.042
 11 
0.452
 21 
0.068
 0 
LINE
 8 
0
 62 
 7 
 10 
0.465
 20 
0.062
 11 
0.465
 21 
0.042
 0 
LINE
 8 
0
 62 
 7 
 10 
0.465
 20 
0.042
 11 
0.472
 21 
0.035
 0 
LINE
 8 
0
 62 
 7 
 10 
0.472
 20 
0.035
 11 
0.478
 21 
0.035
 0 
LINE
 8 
0
 62 
 7 
 10 
0.478
 20 
0.035
 11 
0.492
 21 
0.048
 0 
LINE
 8 
0
 62 
 7 
 10 
0.492
 20 
0.062
 11 
0.492
 21 
0.035
 0 
LINE
 8 
0
 62 
 7 
 10 
0.512
 20 
0.075
 11 
0.512
 21 
0.042
 0 
LINE
 8 
0
 62 
 7 
 10 
0.512
 20 
0.042
 11 
0.518
 21 
0.035
 0 
LINE
 8 
0
 62 
 7 
 10 
0.518
 20 
0.035
 11 
0.525
 21 
0.035
 0 
LINE
 8 
0
 62 
 7 
 10 
0.525
 20 
0.035
 11 
0.532
 21 
0.042
 0 
LINE
 8 
0
 62 
 7 
 10 
0.505
 20 
0.062
 11 
0.525
 21 
0.062
 0 
LINE
 8 
0
 62 
 7 
 10 
0.565
 20 
0.075
 11 
0.572
 21 
0.075
 0 
LINE
 8 
0
 62 
 7 
 10 
0.572
 20 
0.075
 11 
0.572
 21 
0.035
 0 
LINE
 8 
0
 62 
 7 
 10 
0.572
 20 
0.055
 11 
0.565
 21 
0.062
 0 
LINE
 8 
0
 62 
 7 
 10 
0.565
 20 
0.062
 11 
0.552
 21 
0.062
 0 
LINE
 8 
0
 62 
 7 
 10 
0.552
 20 
0.062
 11 
0.545
 21 
0.055
 0 
LINE
 8 
0
 62 
 7 
 10 
0.545
 20 
0.055
 11 
0.545
 21 
0.042
 0 
LINE
 8 
0
 62 
 7 
 10 
0.545
 20 
0.042
 11 
0.552
 21 
0.035
 0 
LINE
 8 
0
 62 
 7 
 10 
0.552
 20 
0.035
 11 
0.558
 21 
0.035
 0 
LINE
 8 
0
 62 
 7 
 10 
0.558
 20 
0.035
 11 
0.572
 21 
0.048
 0 
LINE
 8 
0
 62 
 7 
 10 
0.612
 20 
0.055
 11 
0.605
 21 
0.062
 0 
LINE
 8 
0
 62 
 7 
 10 
0.605
 20 
0.062
 11 
0.592
 21 
0.062
 0 
LINE
 8 
0
 62 
 7 
 10 
0.592
 20 
0.062
 11 
0.585
 21 
0.055
 0 
LINE
 8 
0
 62 
 7 
 10 
0.585
 20 
0.055
 11 
0.585
 21 
0.042
 0 
LINE
 8 
0
 62 
 7 
 10 
0.585
 20 
0.042
 11 
0.592
 21 
0.035
 0 
LINE
 8 
0
 62 
 7 
 10 
0.592
 20 
0.035
 11 
0.605
 21 
0.035
 0 
LINE
 8 
0
 62 
 7 
 10 
0.605
 20 
0.035
 11 
0.612
 21 
0.042
 0 
LINE
 8 
0
 62 
 7 
 10 
0.612
 20 
0.042
 11 
0.612
 21 
0.055
 0 
LINE
 8 
0
 62 
 7 
 10 
0.652
 20 
0.055
 11 
0.645
 21 
0.062
 0 
LINE
 8 
0
 62 
 7 
 10 
0.645
 20 
0.062
 11 
0.632
 21 
0.062
 0 
LINE
 8 
0
 62 
 7 
 10 
0.632
 20 
0.062
 11 
0.625
 21 
0.055
 0 
LINE
 8 
0
 62 
 7 
 10 
0.625
 20 
0.055
 11 
0.625
 21 
0.042
 0 
LINE
 8 
0
 62 
 7 
 10 
0.625
 20 
0.042
 11 
0.632
 21 
0.035
 0 
LINE
 8 
0
 62 
 7 
 10 
0.632
 20 
0.035
 11 
0.645
 21 
0.035
 0 
LINE
 8 
0
 62 
 7 
 10 
0.645
 20 
0.035
 11 
0.652
 21 
0.042
 0 
LINE
 8 
0
 62 
 7 
 10 
0.652
 20 
0.042
 11 
0.652
 21 
0.055
 0 
LINE
 8 
0
 62 
 7 
 10 
0.665
 20 
0.062
 11 
0.665
 21 
0.035
 0 
LINE
 8 
0
 62 
 7 
 10 
0.665
 20 
0.048
 11 
0.678
 21 
0.062
 0 
LINE
 8 
0
 62 
 7 
 10 
0.678
 20 
0.062
 11 
0.685
 21 
0.062
 0 
LINE
 8 
0
 62 
 7 
 10 
0.685
 20 
0.062
 11 
0.692
 21 
0.055
 0 
LINE
 8 
0
 62 
 7 
 10 
0.745
 20 
0.075
 11 
0.772
 21 
0.075
 0 
LINE
 8 
0
 62 
 7 
 10 
0.758
 20 
0.075
 11 
0.758
 21 
0.035
 0 
LINE
 8 
0
 62 
 7 
 10 
0.798
 20 
0.075
 11 
0.798
 21 
0.068
 0 
LINE
 8 
0
 62 
 7 
 10 
0.792
 20 
0.035
 11 
0.805
 21 
0.035
 0 
LINE
 8 
0
 62 
 7 
 10 
0.792
 20 
0.055
 11 
0.798
 21 
0.055
 0 
LINE
 8 
0
 62 
 7 
 10 
0.798
 20 
0.055
 11 
0.798
 21 
0.035
 0 
LINE
 8 
0
 62 
 7 
 10 
0.825
 20 
0.062
 11 
0.825
 21 
0.035
 0 
LINE
 8 
0
 62 
 7 
 10 
0.825
 20 
0.055
 11 
0.832
 21 
0.062
 0 
LINE
 8 
0
 62 
 7 
 10 
0.832
 20 
0.062
 11 
0.838
 21 
0.055
 0 
LINE
 8 
0
 62 
 7 
 10 
0.838
 20 
0.055
 11 
0.838
 21 
0.035
 0 
LINE
 8 
0
 62 
 7 
 10 
0.838
 20 
0.055
 11 
0.845
 21 
0.062
 0 
LINE
 8 
0
 62 
 7 
 10 
0.845
 20 
0.062
 11 
0.852
 21 
0.055
 0 
LINE
 8 
0
 62 
 7 
 10 
0.852
 20 
0.055
 11 
0.852
 21 
0.035
 0 
LINE
 8 
0
 62 
 7 
 10 
0.865
 20 
0.048
 11 
0.892
 21 
0.048
 0 
LINE
 8 
0
 62 
 7 
 10 
0.892
 20 
0.048
 11 
0.892
 21 
0.055
 0 
LINE
 8 
0
 62 
 7 
 10 
0.892
 20 
0.055
 11 
0.885
 21 
0.062
 0 
LINE
 8 
0
 62 
 7 
 10 
0.885
 20 
0.062
 11 
0.872
 21 
0.062
 0 
LINE
 8 
0
 62 
 7 
 10 
0.872
 20 
0.062
 11 
0.865
 21 
0.055
 0 
LINE
 8 
0
 62 
 7 
 10 
0.865
 20 
0.055
 11 
0.865
 21 
0.042
 0 
LINE
 8 
0
 62 
 7 
 10 
0.865
 20 
0.042
 11 
0.872
 21 
0.035
 0 
LINE
 8 
0
 62 
 7 
 10 
0.872
 20 
0.035
 11 
0.885
 21 
0.035
 0 
LINE
 8 
0
 62 
 7 
 10 
0.945
 20 
0.075
 11 
0.945
 21 
0.035
 0 
LINE
 8 
0
 62 
 7 
 10 
0.945
 20 
0.035
 11 
0.972
 21 
0.035
 0 
LINE
 8 
0
 62 
 7 
 10 
0.992
 20 
0.062
 11 
1.005
 21 
0.062
 0 
LINE
 8 
0
 62 
 7 
 10 
1.005
 20 
0.062
 11 
1.012
 21 
0.055
 0 
LINE
 8 
0
 62 
 7 
 10 
1.012
 20 
0.055
 11 
1.012
 21 
0.035
 0 
LINE
 8 
0
 62 
 7 
 10 
1.012
 20 
0.048
 11 
0.992
 21 
0.048
 0 
LINE
 8 
0
 62 
 7 
 10 
0.992
 20 
0.048
 11 
0.985
 21 
0.042
 0 
LINE
 8 
0
 62 
 7 
 10 
0.985
 20 
0.042
 11 
0.992
 21 
0.035
 0 
LINE
 8 
0
 62 
 7 
 10 
0.992
 20 
0.035
 11 
1.005
 21 
0.035
 0 
LINE
 8 
0
 62 
 7 
 10 
1.005
 20 
0.035
 11 
1.012
 21 
0.042
 0 
LINE
 8 
0
 62 
 7 
 10 
1.025
 20 
0.062
 11 
1.025
 21 
0.022
 0 
LINE
 8 
0
 62 
 7 
 10 
1.025
 20 
0.055
 11 
1.032
 21 
0.062
 0 
LINE
 8 
0
 62 
 7 
 10 
1.032
 20 
0.062
 11 
1.045
 21 
0.062
 0 
LINE
 8 
0
 62 
 7 
 10 
1.045
 20 
0.062
 11 
1.052
 21 
0.055
 0 
LINE
 8 
0
 62 
 7 
 10 
1.052
 20 
0.055
 11 
1.052
 21 
0.042
 0 
LINE
 8 
0
 62 
 7 
 10 
1.052
 20 
0.042
 11 
1.045
 21 
0.035
 0 
LINE
 8 
0
 62 
 7 
 10 
1.045
 20 
0.035
 11 
1.038
 21 
0.035
 0 
LINE
 8 
0
 62 
 7 
 10 
1.038
 20 
0.035
 11 
1.025
 21 
0.048
 0 
LINE
 8 
0
 62 
 7 
 10 
1.092
 20 
0.062
 11 
1.072
 21 
0.062
 0 
LINE
 8 
0
 62 
 7 
 10 
1.072
 20 
0.062
 11 
1.065
 21 
0.055
 0 
LINE
 8 
0
 62 
 7 
 10 
1.065
 20 
0.055
 11 
1.072
 21 
0.048
 0 
LINE
 8 
0
 62 
 7 
 10 
1.072
 20 
0.048
 11 
1.085
 21 
0.048
 0 
LINE
 8 
0
 62 
 7 
 10 
1.085
 20 
0.048
 11 
1.092
 21 
0.042
 0 
LINE
 8 
0
 62 
 7 
 10 
1.092
 20 
0.042
 11 
1.085
 21 
0.035
 0 
LINE
 8 
0
 62 
 7 
 10 
1.085
 20 
0.035
 11 
1.065
 21 
0.035
 0 
LINE
 8 
0
 62 
 7 
 10 
1.105
 20 
0.048
 11 
1.132
 21 
0.048
 0 
LINE
 8 
0
 62 
 7 
 10 
1.132
 20 
0.048
 11 
1.132
 21 
0.055
 0 
LINE
 8 
0
 62 
 7 
 10 
1.132
 20 
0.055
 11 
1.125
 21 
0.062
 0 
LINE
 8 
0
 62 
 7 
 10 
1.125
 20 
0.062
 11 
1.112
 21 
0.062
 0 
LINE
 8 
0
 62 
 7 
 10 
1.112
 20 
0.062
 11 
1.105
 21 
0.055
 0 
LINE
 8 
0
 62 
 7 
 10 
1.105
 20 
0.055
 11 
1.105
 21 
0.042
 0 
LINE
 8 
0
 62 
 7 
 10 
1.105
 20 
0.042
 11 
1.112
 21 
0.035
 0 
LINE
 8 
0
 62 
 7 
 10 
1.112
 20 
0.035
 11 
1.125
 21 
0.035
 0 
LINE
 8 
0
 62 
 7 
 10 
1.185
 20 
0.062
 11 
1.185
 21 
0.048
 0 
LINE
 8 
0
 62 
 7 
 10 
1.185
 20 
0.048
 11 
1.198
 21 
0.035
 0 
LINE
 8 
0
 62 
 7 
 10 
1.198
 20 
0.035
 11 
1.212
 21 
0.048
 0 
LINE
 8 
0
 62 
 7 
 10 
1.212
 20 
0.048
 11 
1.212
 21 
0.062
 0 
LINE
 8 
0
 62 
 7 
 10 
1.232
 20 
0.068
 11 
1.238
 21 
0.075
 0 
LINE
 8 
0
 62 
 7 
 10 
1.238
 20 
0.075
 11 
1.238
 21 
0.035
 0 
LINE
 8 
0
 62 
 7 
 10 
1.232
 20 
0.035
 11 
1.245
 21 
0.035
 0 
LINE
 8 
0
 62 
 7 
 10 
1.278
 20 
0.035
 11 
1.272
 21 
0.035
 0 
LINE
 8 
0
 62 
 7 
 10 
1.272
 20 
0.035
 11 
1.272
 21 
0.042
 0 
LINE
 8 
0
 62 
 7 
 10 
1.272
 20 
0.042
 11 
1.278
 21 
0.042
 0 
LINE
 8 
0
 62 
 7 
 10 
1.278
 20 
0.042
 11 
1.278
 21 
0.035
 0 
LINE
 8 
0
 62 
 7 
 10 
1.305
 20 
0.042
 11 
1.305
 21 
0.068
 0 
LINE
 8 
0
 62 
 7 
 10 
1.305
 20 
0.068
 11 
1.312
 21 
0.075
 0 
LINE
 8 
0
 62 
 7 
 10 
1.312
 20 
0.075
 11 
1.325
 21 
0.075
 0 
LINE
 8 
0
 62 
 7 
 10 
1.325
 20 
0.075
 11 
1.332
 21 
0.068
 0 
LINE
 8 
0
 62 
 7 
 10 
1.332
 20 
0.068
 11 
1.332
 21 
0.042
 0 
LINE
 8 
0
 62 
 7 
 10 
1.332
 20 
0.042
 11 
1.325
 21 
0.035
 0 
LINE
 8 
0
 62 
 7 
 10 
1.325
 20 
0.035
 11 
1.312
 21 
0.035
 0 
LINE
 8 
0
 62 
 7 
 10 
1.312
 20 
0.035
 11 
1.305
 21 
0.042
 0 
LINE
 8 
0
 62 
 7 
 10 
1.305
 20 
0.042
 11 
1.332
 21 
0.068
 0 
LINE
 8 
0
 62 
 7 
 10 
1.485
 20 
0.075
 11 
1.472
 21 
0.062
 0 
LINE
 8 
0
 62 
 7 
 10 
1.472
 20 
0.062
 11 
1.472
 21 
0.048
 0 
LINE
 8 
0
 62 
 7 
 10 
1.472
 20 
0.048
 11 
1.485
 21 
0.035
 0 
LINE
 8 
0
 62 
 7 
 10 
1.532
 20 
0.055
 11 
1.525
 21 
0.062
 0 
LINE
 8 
0
 62 
 7 
 10 
1.525
 20 
0.062
 11 
1.512
 21 
0.062
 0 
LINE
 8 
0
 62 
 7 
 10 
1.512
 20 
0.062
 11 
1.505
 21 
0.055
 0 
LINE
 8 
0
 62 
 7 
 10 
1.505
 20 
0.055
 11 
1.505
 21 
0.042
 0 
LINE
 8 
0
 62 
 7 
 10 
1.505
 20 
0.042
 11 
1.512
 21 
0.035
 0 
LINE
 8 
0
 62 
 7 
 10 
1.512
 20 
0.035
 11 
1.525
 21 
0.035
 0 
LINE
 8 
0
 62 
 7 
 10 
1.525
 20 
0.035
 11 
1.532
 21 
0.042
 0 
LINE
 8 
0
 62 
 7 
 10 
1.552
 20 
0.075
 11 
1.565
 21 
0.062
 0 
LINE
 8 
0
 62 
 7 
 10 
1.565
 20 
0.062
 11 
1.565
 21 
0.048
 0 
LINE
 8 
0
 62 
 7 
 10 
1.565
 20 
0.048
 11 
1.552
 21 
0.035
 0 
LINE
 8 
0
 62 
 7 
 10 
1.625
 20 
0.068
 11 
1.632
 21 
0.075
 0 
LINE
 8 
0
 62 
 7 
 10 
1.632
 20 
0.075
 11 
1.645
 21 
0.075
 0 
LINE
 8 
0
 62 
 7 
 10 
1.645
 20 
0.075
 11 
1.652
 21 
0.068
 0 
LINE
 8 
0
 62 
 7 
 10 
1.652
 20 
0.068
 11 
1.652
 21 
0.062
 0 
LINE
 8 
0
 62 
 7 
 10 
1.652
 20 
0.062
 11 
1.645
 21 
0.055
 0 
LINE
 8 
0
 62 
 7 
 10 
1.645
 20 
0.055
 11 
1.632
 21 
0.055
 0 
LINE
 8 
0
 62 
 7 
 10 
1.632
 20 
0.055
 11 
1.625
 21 
0.048
 0 
LINE
 8 
0
 62 
 7 
 10 
1.625
 20 
0.048
 11 
1.625
 21 
0.035
 0 
LINE
 8 
0
 62 
 7 
 10 
1.625
 20 
0.035
 11 
1.652
 21 
0.035
 0 
LINE
 8 
0
 62 
 7 
 10 
1.665
 20 
0.042
 11 
1.665
 21 
0.068
 0 
LINE
 8 
0
 62 
 7 
 10 
1.665
 20 
0.068
 11 
1.672
 21 
0.075
 0 
LINE
 8 
0
 62 
 7 
 10 
1.672
 20 
0.075
 11 
1.685
 21 
0.075
 0 
LINE
 8 
0
 62 
 7 
 10 
1.685
 20 
0.075
 11 
1.692
 21 
0.068
 0 
LINE
 8 
0
 62 
 7 
 10 
1.692
 20 
0.068
 11 
1.692
 21 
0.042
 0 
LINE
 8 
0
 62 
 7 
 10 
1.692
 20 
0.042
 11 
1.685
 21 
0.035
 0 
LINE
 8 
0
 62 
 7 
 10 
1.685
 20 
0.035
 11 
1.672
 21 
0.035
 0 
LINE
 8 
0
 62 
 7 
 10 
1.672
 20 
0.035
 11 
1.665
 21 
0.042
 0 
LINE
 8 
0
 62 
 7 
 10 
1.665
 20 
0.042
 11 
1.692
 21 
0.068
 0 
LINE
 8 
0
 62 
 7 
 10 
1.712
 20 
0.068
 11 
1.718
 21 
0.075
 0 
LINE
 8 
0
 62 
 7 
 10 
1.718
 20 
0.075
 11 
1.718
 21 
0.035
 0 
LINE
 8 
0
 62 
 7 
 10 
1.712
 20 
0.035
 11 
1.725
 21 
0.035
 0 
LINE
 8 
0
 62 
 7 
 10 
1.745
 20 
0.068
 11 
1.752
 21 
0.075
 0 
LINE
 8 
0
 62 
 7 
 10 
1.752
 20 
0.075
 11 
1.765
 21 
0.075
 0 
LINE
 8 
0
 62 
 7 
 10 
1.765
 20 
0.075
 11 
1.772
 21 
0.068
 0 
LINE
 8 
0
 62 
 7 
 10 
1.772
 20 
0.068
 11 
1.772
 21 
0.062
 0 
LINE
 8 
0
 62 
 7 
 10 
1.772
 20 
0.062
 11 
1.765
 21 
0.055
 0 
LINE
 8 
0
 62 
 7 
 10 
1.765
 20 
0.055
 11 
1.752
 21 
0.055
 0 
LINE
 8 
0
 62 
 7 
 10 
1.752
 20 
0.055
 11 
1.745
 21 
0.048
 0 
LINE
 8 
0
 62 
 7 
 10 
1.745
 20 
0.048
 11 
1.745
 21 
0.035
 0 
LINE
 8 
0
 62 
 7 
 10 
1.745
 20 
0.035
 11 
1.772
 21 
0.035
 0 
LINE
 8 
0
 62 
 7 
 10 
1.825
 20 
0.075
 11 
1.825
 21 
0.055
 0 
LINE
 8 
0
 62 
 7 
 10 
1.825
 20 
0.055
 11 
1.838
 21 
0.042
 0 
LINE
 8 
0
 62 
 7 
 10 
1.838
 20 
0.042
 11 
1.852
 21 
0.055
 0 
LINE
 8 
0
 62 
 7 
 10 
1.852
 20 
0.055
 11 
1.852
 21 
0.075
 0 
LINE
 8 
0
 62 
 7 
 10 
1.838
 20 
0.042
 11 
1.838
 21 
0.035
 0 
LINE
 8 
0
 62 
 7 
 10 
1.878
 20 
0.075
 11 
1.878
 21 
0.068
 0 
LINE
 8 
0
 62 
 7 
 10 
1.872
 20 
0.035
 11 
1.885
 21 
0.035
 0 
LINE
 8 
0
 62 
 7 
 10 
1.872
 20 
0.055
 11 
1.878
 21 
0.055
 0 
LINE
 8 
0
 62 
 7 
 10 
1.878
 20 
0.055
 11 
1.878
 21 
0.035
 0 
LINE
 8 
0
 62 
 7 
 10 
1.905
 20 
0.062
 11 
1.905
 21 
0.035
 0 
LINE
 8 
0
 62 
 7 
 10 
1.905
 20 
0.048
 11 
1.918
 21 
0.062
 0 
LINE
 8 
0
 62 
 7 
 10 
1.918
 20 
0.062
 11 
1.925
 21 
0.062
 0 
LINE
 8 
0
 62 
 7 
 10 
1.925
 20 
0.062
 11 
1.932
 21 
0.055
 0 
LINE
 8 
0
 62 
 7 
 10 
1.932
 20 
0.055
 11 
1.932
 21 
0.035
 0 
LINE
 8 
0
 62 
 7 
 10 
1.985
 20 
0.035
 11 
1.985
 21 
0.075
 0 
LINE
 8 
0
 62 
 7 
 10 
1.985
 20 
0.075
 11 
1.998
 21 
0.062
 0 
LINE
 8 
0
 62 
 7 
 10 
1.998
 20 
0.062
 11 
1.998
 21 
0.055
 0 
LINE
 8 
0
 62 
 7 
 10 
1.998
 20 
0.062
 11 
2.012
 21 
0.075
 0 
LINE
 8 
0
 62 
 7 
 10 
2.012
 20 
0.075
 11 
2.012
 21 
0.035
 0 
LINE
 8 
0
 62 
 7 
 10 
2.032
 20 
0.062
 11 
2.045
 21 
0.062
 0 
LINE
 8 
0
 62 
 7 
 10 
2.045
 20 
0.062
 11 
2.052
 21 
0.055
 0 
LINE
 8 
0
 62 
 7 
 10 
2.052
 20 
0.055
 11 
2.052
 21 
0.035
 0 
LINE
 8 
0
 62 
 7 
 10 
2.052
 20 
0.048
 11 
2.032
 21 
0.048
 0 
LINE
 8 
0
 62 
 7 
 10 
2.032
 20 
0.048
 11 
2.025
 21 
0.042
 0 
LINE
 8 
0
 62 
 7 
 10 
2.025
 20 
0.042
 11 
2.032
 21 
0.035
 0 
LINE
 8 
0
 62 
 7 
 10 
2.032
 20 
0.035
 11 
2.045
 21 
0.035
 0 
LINE
 8 
0
 62 
 7 
 10 
2.045
 20 
0.035
 11 
2.052
 21 
0.042
 0 
LINE
 8 
0
 62 
 7 
 10 
2.065
 20 
0.062
 11 
2.065
 21 
0.035
 0 
LINE
 8 
0
 62 
 7 
 10 
2.065
 20 
0.048
 11 
2.078
 21 
0.062
 0 
LINE
 8 
0
 62 
 7 
 10 
2.078
 20 
0.062
 11 
2.085
 21 
0.062
 0 
LINE
 8 
0
 62 
 7 
 10 
2.085
 20 
0.062
 11 
2.092
 21 
0.055
 0 
LINE
 8 
0
 62 
 7 
 10 
2.132
 20 
0.062
 11 
2.112
 21 
0.062
 0 
LINE
 8 
0
 62 
 7 
 10 
2.112
 20 
0.062
 11 
2.105
 21 
0.055
 0 
LINE
 8 
0
 62 
 7 
 10 
2.105
 20 
0.055
 11 
2.112
 21 
0.048
 0 
LINE
 8 
0
 62 
 7 
 10 
2.112
 20 
0.048
 11 
2.125
 21 
0.048
 0 
LINE
 8 
0
 62 
 7 
 10 
2.125
 20 
0.048
 11 
2.132
 21 
0.042
 0 
LINE
 8 
0
 62 
 7 
 10 
2.132
 20 
0.042
 11 
2.125
 21 
0.035
 0 
LINE
 8 
0
 62 
 7 
 10 
2.125
 20 
0.035
 11 
2.105
 21 
0.035
 0 
LINE
 8 
0
 62 
 7 
 10 
2.145
 20 
0.075
 11 
2.145
 21 
0.035
 0 
LINE
 8 
0
 62 
 7 
 10 
2.145
 20 
0.048
 11 
2.158
 21 
0.062
 0 
LINE
 8 
0
 62 
 7 
 10 
2.158
 20 
0.062
 11 
2.165
 21 
0.062
 0 
LINE
 8 
0
 62 
 7 
 10 
2.165
 20 
0.062
 11 
2.172
 21 
0.055
 0 
LINE
 8 
0
 62 
 7 
 10 
2.172
 20 
0.055
 11 
2.172
 21 
0.035
 0 
LINE
 8 
0
 62 
 7 
 10 
2.192
 20 
0.062
 11 
2.205
 21 
0.062
 0 
LINE
 8 
0
 62 
 7 
 10 
2.205
 20 
0.062
 11 
2.212
 21 
0.055
 0 
LINE
 8 
0
 62 
 7 
 10 
2.212
 20 
0.055
 11 
2.212
 21 
0.035
 0 
LINE
 8 
0
 62 
 7 
 10 
2.212
 20 
0.048
 11 
2.192
 21 
0.048
 0 
LINE
 8 
0
 62 
 7 
 10 
2.192
 20 
0.048
 11 
2.185
 21 
0.042
 0 
LINE
 8 
0
 62 
 7 
 10 
2.185
 20 
0.042
 11 
2.192
 21 
0.035
 0 
LINE
 8 
0
 62 
 7 
 10 
2.192
 20 
0.035
 11 
2.205
 21 
0.035
 0 
LINE
 8 
0
 62 
 7 
 10 
2.205
 20 
0.035
 11 
2.212
 21 
0.042
 0 
LINE
 8 
0
 62 
 7 
 10 
2.232
 20 
0.075
 11 
2.238
 21 
0.075
 0 
LINE
 8 
0
 62 
 7 
 10 
2.238
 20 
0.075
 11 
2.238
 21 
0.035
 0 
LINE
 8 
0
 62 
 7 
 10 
2.232
 20 
0.035
 11 
2.245
 21 
0.035
 0 
LINE
 8 
0
 62 
 7 
 10 
2.272
 20 
0.075
 11 
2.278
 21 
0.075
 0 
LINE
 8 
0
 62 
 7 
 10 
2.278
 20 
0.075
 11 
2.278
 21 
0.035
 0 
LINE
 8 
0
 62 
 7 
 10 
2.272
 20 
0.035
 11 
2.285
 21 
0.035
 0 
LINE
 8 
0
 62 
 7 
 10 
2.365
 20 
0.075
 11 
2.352
 21 
0.062
 0 
LINE
 8 
0
 62 
 7 
 10 
2.352
 20 
0.062
 11 
2.352
 21 
0.048
 0 
LINE
 8 
0
 62 
 7 
 10 
2.352
 20 
0.048
 11 
2.365
 21 
0.035
 0 
LINE
 8 
0
 62 
 7 
 10 
2.385
 20 
0.062
 11 
2.385
 21 
0.048
 0 
LINE
 8 
0
 62 
 7 
 10 
2.385
 20 
0.048
 11 
2.398
 21 
0.035
 0 
LINE
 8 
0
 62 
 7 
 10 
2.398
 20 
0.035
 11 
2.412
 21 
0.048
 0 
LINE
 8 
0
 62 
 7 
 10 
2.412
 20 
0.048
 11 
2.412
 21 
0.062
 0 
LINE
 8 
0
 62 
 7 
 10 
2.432
 20 
0.075
 11 
2.438
 21 
0.075
 0 
LINE
 8 
0
 62 
 7 
 10 
2.438
 20 
0.075
 11 
2.438
 21 
0.035
 0 
LINE
 8 
0
 62 
 7 
 10 
2.432
 20 
0.035
 11 
2.445
 21 
0.035
 0 
LINE
 8 
0
 62 
 7 
 10 
2.465
 20 
0.062
 11 
2.465
 21 
0.035
 0 
LINE
 8 
0
 62 
 7 
 10 
2.465
 20 
0.055
 11 
2.472
 21 
0.062
 0 
LINE
 8 
0
 62 
 7 
 10 
2.472
 20 
0.062
 11 
2.478
 21 
0.055
 0 
LINE
 8 
0
 62 
 7 
 10 
2.478
 20 
0.055
 11 
2.478
 21 
0.035
 0 
LINE
 8 
0
 62 
 7 
 10 
2.478
 20 
0.055
 11 
2.485
 21 
0.062
 0 
LINE
 8 
0
 62 
 7 
 10 
2.485
 20 
0.062
 11 
2.492
 21 
0.055
 0 
LINE
 8 
0
 62 
 7 
 10 
2.492
 20 
0.055
 11 
2.492
 21 
0.035
 0 
LINE
 8 
0
 62 
 7 
 10 
2.525
 20 
0.035
 11 
2.512
 21 
0.035
 0 
LINE
 8 
0
 62 
 7 
 10 
2.512
 20 
0.035
 11 
2.505
 21 
0.042
 0 
LINE
 8 
0
 62 
 7 
 10 
2.505
 20 
0.042
 11 
2.505
 21 
0.068
 0 
LINE
 8 
0
 62 
 7 
 10 
2.505
 20 
0.068
 11 
2.512
 21 
0.075
 0 
LINE
 8 
0
 62 
 7 
 10 
2.512
 20 
0.075
 11 
2.525
 21 
0.075
 0 
LINE
 8 
0
 62 
 7 
 10 
2.525
 20 
0.075
 11 
2.532
 21 
0.068
 0 
LINE
 8 
0
 62 
 7 
 10 
2.532
 20 
0.068
 11 
2.532
 21 
0.048
 0 
LINE
 8 
0
 62 
 7 
 10 
2.532
 20 
0.048
 11 
2.518
 21 
0.048
 0 
LINE
 8 
0
 62 
 7 
 10 
2.518
 20 
0.048
 11 
2.518
 21 
0.062
 0 
LINE
 8 
0
 62 
 7 
 10 
2.518
 20 
0.062
 11 
2.525
 21 
0.062
 0 
LINE
 8 
0
 62 
 7 
 10 
2.525
 20 
0.062
 11 
2.525
 21 
0.048
 0 
LINE
 8 
0
 62 
 7 
 10 
2.545
 20 
0.068
 11 
2.552
 21 
0.075
 0 
LINE
 8 
0
 62 
 7 
 10 
2.552
 20 
0.075
 11 
2.565
 21 
0.075
 0 
LINE
 8 
0
 62 
 7 
 10 
2.565
 20 
0.075
 11 
2.572
 21 
0.068
 0 
LINE
 8 
0
 62 
 7 
 10 
2.572
 20 
0.068
 11 
2.572
 21 
0.062
 0 
LINE
 8 
0
 62 
 7 
 10 
2.572
 20 
0.062
 11 
2.565
 21 
0.055
 0 
LINE
 8 
0
 62 
 7 
 10 
2.565
 20 
0.055
 11 
2.552
 21 
0.055
 0 
LINE
 8 
0
 62 
 7 
 10 
2.552
 20 
0.055
 11 
2.545
 21 
0.048
 0 
LINE
 8 
0
 62 
 7 
 10 
2.545
 20 
0.048
 11 
2.545
 21 
0.035
 0 
LINE
 8 
0
 62 
 7 
 10 
2.545
 20 
0.035
 11 
2.572
 21 
0.035
 0 
LINE
 8 
0
 62 
 7 
 10 
2.612
 20 
0.075
 11 
2.585
 21 
0.075
 0 
LINE
 8 
0
 62 
 7 
 10 
2.585
 20 
0.075
 11 
2.585
 21 
0.062
 0 
LINE
 8 
0
 62 
 7 
 10 
2.585
 20 
0.062
 11 
2.605
 21 
0.062
 0 
LINE
 8 
0
 62 
 7 
 10 
2.605
 20 
0.062
 11 
2.612
 21 
0.055
 0 
LINE
 8 
0
 62 
 7 
 10 
2.612
 20 
0.055
 11 
2.612
 21 
0.042
 0 
LINE
 8 
0
 62 
 7 
 10 
2.612
 20 
0.042
 11 
2.605
 21 
0.035
 0 
LINE
 8 
0
 62 
 7 
 10 
2.605
 20 
0.035
 11 
2.592
 21 
0.035
 0 
LINE
 8 
0
 62 
 7 
 10 
2.592
 20 
0.035
 11 
2.585
 21 
0.042
 0 
LINE
 8 
0
 62 
 7 
 10 
2.652
 20 
0.075
 11 
2.625
 21 
0.075
 0 
LINE
 8 
0
 62 
 7 
 10 
2.625
 20 
0.075
 11 
2.625
 21 
0.062
 0 
LINE
 8 
0
 62 
 7 
 10 
2.625
 20 
0.062
 11 
2.645
 21 
0.062
 0 
LINE
 8 
0
 62 
 7 
 10 
2.645
 20 
0.062
 11 
2.652
 21 
0.055
 0 
LINE
 8 
0
 62 
 7 
 10 
2.652
 20 
0.055
 11 
2.652
 21 
0.042
 0 
LINE
 8 
0
 62 
 7 
 10 
2.652
 20 
0.042
 11 
2.645
 21 
0.035
 0 
LINE
 8 
0
 62 
 7 
 10 
2.645
 20 
0.035
 11 
2.632
 21 
0.035
 0 
LINE
 8 
0
 62 
 7 
 10 
2.632
 20 
0.035
 11 
2.625
 21 
0.042
 0 
LINE
 8 
0
 62 
 7 
 10 
2.665
 20 
0.068
 11 
2.672
 21 
0.075
 0 
LINE
 8 
0
 62 
 7 
 10 
2.672
 20 
0.075
 11 
2.685
 21 
0.075
 0 
LINE
 8 
0
 62 
 7 
 10 
2.685
 20 
0.075
 11 
2.692
 21 
0.068
 0 
LINE
 8 
0
 62 
 7 
 10 
2.692
 20 
0.068
 11 
2.692
 21 
0.062
 0 
LINE
 8 
0
 62 
 7 
 10 
2.692
 20 
0.062
 11 
2.685
 21 
0.055
 0 
LINE
 8 
0
 62 
 7 
 10 
2.685
 20 
0.055
 11 
2.672
 21 
0.055
 0 
LINE
 8 
0
 62 
 7 
 10 
2.672
 20 
0.055
 11 
2.665
 21 
0.048
 0 
LINE
 8 
0
 62 
 7 
 10 
2.665
 20 
0.048
 11 
2.665
 21 
0.035
 0 
LINE
 8 
0
 62 
 7 
 10 
2.665
 20 
0.035
 11 
2.692
 21 
0.035
 0 
LINE
 8 
0
 62 
 7 
 10 
2.718
 20 
0.035
 11 
2.712
 21 
0.035
 0 
LINE
 8 
0
 62 
 7 
 10 
2.712
 20 
0.035
 11 
2.712
 21 
0.042
 0 
LINE
 8 
0
 62 
 7 
 10 
2.712
 20 
0.042
 11 
2.718
 21 
0.042
 0 
LINE
 8 
0
 62 
 7 
 10 
2.718
 20 
0.042
 11 
2.718
 21 
0.035
 0 
LINE
 8 
0
 62 
 7 
 10 
2.772
 20 
0.055
 11 
2.765
 21 
0.062
 0 
LINE
 8 
0
 62 
 7 
 10 
2.765
 20 
0.062
 11 
2.752
 21 
0.062
 0 
LINE
 8 
0
 62 
 7 
 10 
2.752
 20 
0.062
 11 
2.745
 21 
0.055
 0 
LINE
 8 
0
 62 
 7 
 10 
2.745
 20 
0.055
 11 
2.745
 21 
0.042
 0 
LINE
 8 
0
 62 
 7 
 10 
2.745
 20 
0.042
 11 
2.752
 21 
0.035
 0 
LINE
 8 
0
 62 
 7 
 10 
2.752
 20 
0.035
 11 
2.765
 21 
0.035
 0 
LINE
 8 
0
 62 
 7 
 10 
2.765
 20 
0.035
 11 
2.772
 21 
0.042
 0 
LINE
 8 
0
 62 
 7 
 10 
2.812
 20 
0.055
 11 
2.805
 21 
0.062
 0 
LINE
 8 
0
 62 
 7 
 10 
2.805
 20 
0.062
 11 
2.792
 21 
0.062
 0 
LINE
 8 
0
 62 
 7 
 10 
2.792
 20 
0.062
 11 
2.785
 21 
0.055
 0 
LINE
 8 
0
 62 
 7 
 10 
2.785
 20 
0.055
 11 
2.785
 21 
0.042
 0 
LINE
 8 
0
 62 
 7 
 10 
2.785
 20 
0.042
 11 
2.792
 21 
0.035
 0 
LINE
 8 
0
 62 
 7 
 10 
2.792
 20 
0.035
 11 
2.805
 21 
0.035
 0 
LINE
 8 
0
 62 
 7 
 10 
2.805
 20 
0.035
 11 
2.812
 21 
0.042
 0 
LINE
 8 
0
 62 
 7 
 10 
2.812
 20 
0.042
 11 
2.812
 21 
0.055
 0 
LINE
 8 
0
 62 
 7 
 10 
2.825
 20 
0.062
 11 
2.825
 21 
0.035
 0 
LINE
 8 
0
 62 
 7 
 10 
2.825
 20 
0.055
 11 
2.832
 21 
0.062
 0 
LINE
 8 
0
 62 
 7 
 10 
2.832
 20 
0.062
 11 
2.838
 21 
0.055
 0 
LINE
 8 
0
 62 
 7 
 10 
2.838
 20 
0.055
 11 
2.838
 21 
0.035
 0 
LINE
 8 
0
 62 
 7 
 10 
2.838
 20 
0.055
 11 
2.845
 21 
0.062
 0 
LINE
 8 
0
 62 
 7 
 10 
2.845
 20 
0.062
 11 
2.852
 21 
0.055
 0 
LINE
 8 
0
 62 
 7 
 10 
2.852
 20 
0.055
 11 
2.852
 21 
0.035
 0 
LINE
 8 
0
 62 
 7 
 10 
2.872
 20 
0.075
 11 
2.885
 21 
0.062
 0 
LINE
 8 
0
 62 
 7 
 10 
2.885
 20 
0.062
 11 
2.885
 21 
0.048
 0 
LINE
 8 
0
 62 
 7 
 10 
2.885
 20 
0.048
 11 
2.872
 21 
0.035
 0 
LINE
 8 
0
 62 
 7 
 10 
3.25
 20 
0.51
 11 
3.25
 21 
0.55
 0 
LINE
 8 
0
 62 
 7 
 10 
3.25
 20 
0.55
 11 
3.27
 21 
0.55
 0 
LINE
 8 
0
 62 
 7 
 10 
3.27
 20 
0.55
 11 
3.277
 21 
0.543
 0 
LINE
 8 
0
 62 
 7 
 10 
3.277
 20 
0.543
 11 
3.277
 21 
0.537
 0 
LINE
 8 
0
 62 
 7 
 10 
3.277
 20 
0.537
 11 
3.27
 21 
0.53
 0 
LINE
 8 
0
 62 
 7 
 10 
3.27
 20 
0.53
 11 
3.25
 21 
0.53
 0 
LINE
 8 
0
 62 
 7 
 10 
3.317
 20 
0.53
 11 
3.31
 21 
0.537
 0 
LINE
 8 
0
 62 
 7 
 10 
3.31
 20 
0.537
 11 
3.297
 21 
0.537
 0 
LINE
 8 
0
 62 
 7 
 10 
3.297
 20 
0.537
 11 
3.29
 21 
0.53
 0 
LINE
 8 
0
 62 
 7 
 10 
3.29
 20 
0.53
 11 
3.29
 21 
0.517
 0 
LINE
 8 
0
 62 
 7 
 10 
3.29
 20 
0.517
 11 
3.297
 21 
0.51
 0 
LINE
 8 
0
 62 
 7 
 10 
3.297
 20 
0.51
 11 
3.31
 21 
0.51
 0 
LINE
 8 
0
 62 
 7 
 10 
3.31
 20 
0.51
 11 
3.317
 21 
0.517
 0 
LINE
 8 
0
 62 
 7 
 10 
3.317
 20 
0.517
 11 
3.317
 21 
0.53
 0 
LINE
 8 
0
 62 
 7 
 10 
3.33
 20 
0.537
 11 
3.33
 21 
0.517
 0 
LINE
 8 
0
 62 
 7 
 10 
3.33
 20 
0.517
 11 
3.337
 21 
0.51
 0 
LINE
 8 
0
 62 
 7 
 10 
3.337
 20 
0.51
 11 
3.343
 21 
0.517
 0 
LINE
 8 
0
 62 
 7 
 10 
3.343
 20 
0.517
 11 
3.343
 21 
0.523
 0 
LINE
 8 
0
 62 
 7 
 10 
3.343
 20 
0.517
 11 
3.35
 21 
0.51
 0 
LINE
 8 
0
 62 
 7 
 10 
3.35
 20 
0.51
 11 
3.357
 21 
0.517
 0 
LINE
 8 
0
 62 
 7 
 10 
3.357
 20 
0.517
 11 
3.357
 21 
0.537
 0 
LINE
 8 
0
 62 
 7 
 10 
3.37
 20 
0.523
 11 
3.397
 21 
0.523
 0 
LINE
 8 
0
 62 
 7 
 10 
3.397
 20 
0.523
 11 
3.397
 21 
0.53
 0 
LINE
 8 
0
 62 
 7 
 10 
3.397
 20 
0.53
 11 
3.39
 21 
0.537
 0 
LINE
 8 
0
 62 
 7 
 10 
3.39
 20 
0.537
 11 
3.377
 21 
0.537
 0 
LINE
 8 
0
 62 
 7 
 10 
3.377
 20 
0.537
 11 
3.37
 21 
0.53
 0 
LINE
 8 
0
 62 
 7 
 10 
3.37
 20 
0.53
 11 
3.37
 21 
0.517
 0 
LINE
 8 
0
 62 
 7 
 10 
3.37
 20 
0.517
 11 
3.377
 21 
0.51
 0 
LINE
 8 
0
 62 
 7 
 10 
3.377
 20 
0.51
 11 
3.39
 21 
0.51
 0 
LINE
 8 
0
 62 
 7 
 10 
3.41
 20 
0.537
 11 
3.41
 21 
0.51
 0 
LINE
 8 
0
 62 
 7 
 10 
3.41
 20 
0.523
 11 
3.423
 21 
0.537
 0 
LINE
 8 
0
 62 
 7 
 10 
3.423
 20 
0.537
 11 
3.43
 21 
0.537
 0 
LINE
 8 
0
 62 
 7 
 10 
3.43
 20 
0.537
 11 
3.437
 21 
0.53
 0 
LINE
 8 
0
 62 
 7 
 10 
3.49
 20 
0.55
 11 
3.51
 21 
0.55
 0 
LINE
 8 
0
 62 
 7 
 10 
3.51
 20 
0.55
 11 
3.517
 21 
0.543
 0 
LINE
 8 
0
 62 
 7 
 10 
3.517
 20 
0.543
 11 
3.517
 21 
0.537
 0 
LINE
 8 
0
 62 
 7 
 10 
3.517
 20 
0.537
 11 
3.51
 21 
0.53
 0 
LINE
 8 
0
 62 
 7 
 10 
3.51
 20 
0.53
 11 
3.517
 21 
0.523
 0 
LINE
 8 
0
 62 
 7 
 10 
3.517
 20 
0.523
 11 
3.517
 21 
0.517
 0 
LINE
 8 
0
 62 
 7 
 10 
3.517
 20 
0.517
 11 
3.51
 21 
0.51
 0 
LINE
 8 
0
 62 
 7 
 10 
3.51
 20 
0.51
 11 
3.49
 21 
0.51
 0 
LINE
 8 
0
 62 
 7 
 10 
3.497
 20 
0.55
 11 
3.497
 21 
0.51
 0 
LINE
 8 
0
 62 
 7 
 10 
3.497
 20 
0.53
 11 
3.51
 21 
0.53
 0 
LINE
 8 
0
 62 
 7 
 10 
3.53
 20 
0.537
 11 
3.53
 21 
0.517
 0 
LINE
 8 
0
 62 
 7 
 10 
3.53
 20 
0.517
 11 
3.537
 21 
0.51
 0 
LINE
 8 
0
 62 
 7 
 10 
3.537
 20 
0.51
 11 
3.543
 21 
0.51
 0 
LINE
 8 
0
 62 
 7 
 10 
3.543
 20 
0.51
 11 
3.557
 21 
0.523
 0 
LINE
 8 
0
 62 
 7 
 10 
3.557
 20 
0.537
 11 
3.557
 21 
0.51
 0 
LINE
 8 
0
 62 
 7 
 10 
3.577
 20 
0.55
 11 
3.577
 21 
0.517
 0 
LINE
 8 
0
 62 
 7 
 10 
3.577
 20 
0.517
 11 
3.583
 21 
0.51
 0 
LINE
 8 
0
 62 
 7 
 10 
3.583
 20 
0.51
 11 
3.59
 21 
0.51
 0 
LINE
 8 
0
 62 
 7 
 10 
3.59
 20 
0.51
 11 
3.597
 21 
0.517
 0 
LINE
 8 
0
 62 
 7 
 10 
3.57
 20 
0.537
 11 
3.59
 21 
0.537
 0 
LINE
 8 
0
 62 
 7 
 10 
3.617
 20 
0.55
 11 
3.617
 21 
0.517
 0 
LINE
 8 
0
 62 
 7 
 10 
3.617
 20 
0.517
 11 
3.623
 21 
0.51
 0 
LINE
 8 
0
 62 
 7 
 10 
3.623
 20 
0.51
 11 
3.63
 21 
0.51
 0 
LINE
 8 
0
 62 
 7 
 10 
3.63
 20 
0.51
 11 
3.637
 21 
0.517
 0 
LINE
 8 
0
 62 
 7 
 10 
3.61
 20 
0.537
 11 
3.63
 21 
0.537
 0 
LINE
 8 
0
 62 
 7 
 10 
3.677
 20 
0.53
 11 
3.67
 21 
0.537
 0 
LINE
 8 
0
 62 
 7 
 10 
3.67
 20 
0.537
 11 
3.657
 21 
0.537
 0 
LINE
 8 
0
 62 
 7 
 10 
3.657
 20 
0.537
 11 
3.65
 21 
0.53
 0 
LINE
 8 
0
 62 
 7 
 10 
3.65
 20 
0.53
 11 
3.65
 21 
0.517
 0 
LINE
 8 
0
 62 
 7 
 10 
3.65
 20 
0.517
 11 
3.657
 21 
0.51
 0 
LINE
 8 
0
 62 
 7 
 10 
3.657
 20 
0.51
 11 
3.67
 21 
0.51
 0 
LINE
 8 
0
 62 
 7 
 10 
3.67
 20 
0.51
 11 
3.677
 21 
0.517
 0 
LINE
 8 
0
 62 
 7 
 10 
3.677
 20 
0.517
 11 
3.677
 21 
0.53
 0 
LINE
 8 
0
 62 
 7 
 10 
3.69
 20 
0.537
 11 
3.69
 21 
0.51
 0 
LINE
 8 
0
 62 
 7 
 10 
3.69
 20 
0.523
 11 
3.703
 21 
0.537
 0 
LINE
 8 
0
 62 
 7 
 10 
3.703
 20 
0.537
 11 
3.71
 21 
0.537
 0 
LINE
 8 
0
 62 
 7 
 10 
3.71
 20 
0.537
 11 
3.717
 21 
0.53
 0 
LINE
 8 
0
 62 
 7 
 10 
3.717
 20 
0.53
 11 
3.717
 21 
0.51
 0 
LINE
 8 
0
 62 
 7 
 10 
3.202
 20 
1.418
 11 
3.195
 21 
1.425
 0 
LINE
 8 
0
 62 
 7 
 10 
3.195
 20 
1.425
 11 
3.182
 21 
1.425
 0 
LINE
 8 
0
 62 
 7 
 10 
3.182
 20 
1.425
 11 
3.175
 21 
1.418
 0 
LINE
 8 
0
 62 
 7 
 10 
3.175
 20 
1.418
 11 
3.175
 21 
1.412
 0 
LINE
 8 
0
 62 
 7 
 10 
3.175
 20 
1.412
 11 
3.182
 21 
1.405
 0 
LINE
 8 
0
 62 
 7 
 10 
3.182
 20 
1.405
 11 
3.195
 21 
1.405
 0 
LINE
 8 
0
 62 
 7 
 10 
3.195
 20 
1.405
 11 
3.202
 21 
1.398
 0 
LINE
 8 
0
 62 
 7 
 10 
3.202
 20 
1.398
 11 
3.202
 21 
1.392
 0 
LINE
 8 
0
 62 
 7 
 10 
3.202
 20 
1.392
 11 
3.195
 21 
1.385
 0 
LINE
 8 
0
 62 
 7 
 10 
3.195
 20 
1.385
 11 
3.182
 21 
1.385
 0 
LINE
 8 
0
 62 
 7 
 10 
3.182
 20 
1.385
 11 
3.175
 21 
1.392
 0 
LINE
 8 
0
 62 
 7 
 10 
3.215
 20 
1.425
 11 
3.215
 21 
1.385
 0 
LINE
 8 
0
 62 
 7 
 10 
3.215
 20 
1.398
 11 
3.228
 21 
1.412
 0 
LINE
 8 
0
 62 
 7 
 10 
3.228
 20 
1.412
 11 
3.235
 21 
1.412
 0 
LINE
 8 
0
 62 
 7 
 10 
3.235
 20 
1.412
 11 
3.242
 21 
1.405
 0 
LINE
 8 
0
 62 
 7 
 10 
3.242
 20 
1.405
 11 
3.242
 21 
1.385
 0 
LINE
 8 
0
 62 
 7 
 10 
3.255
 20 
1.412
 11 
3.255
 21 
1.392
 0 
LINE
 8 
0
 62 
 7 
 10 
3.255
 20 
1.392
 11 
3.262
 21 
1.385
 0 
LINE
 8 
0
 62 
 7 
 10 
3.262
 20 
1.385
 11 
3.268
 21 
1.385
 0 
LINE
 8 
0
 62 
 7 
 10 
3.268
 20 
1.385
 11 
3.282
 21 
1.398
 0 
LINE
 8 
0
 62 
 7 
 10 
3.282
 20 
1.412
 11 
3.282
 21 
1.385
 0 
LINE
 8 
0
 62 
 7 
 10 
3.302
 20 
1.425
 11 
3.302
 21 
1.392
 0 
LINE
 8 
0
 62 
 7 
 10 
3.302
 20 
1.392
 11 
3.308
 21 
1.385
 0 
LINE
 8 
0
 62 
 7 
 10 
3.308
 20 
1.385
 11 
3.315
 21 
1.385
 0 
LINE
 8 
0
 62 
 7 
 10 
3.315
 20 
1.385
 11 
3.322
 21 
1.392
 0 
LINE
 8 
0
 62 
 7 
 10 
3.295
 20 
1.412
 11 
3.315
 21 
1.412
 0 
LINE
 8 
0
 62 
 7 
 10 
3.342
 20 
1.425
 11 
3.342
 21 
1.392
 0 
LINE
 8 
0
 62 
 7 
 10 
3.342
 20 
1.392
 11 
3.348
 21 
1.385
 0 
LINE
 8 
0
 62 
 7 
 10 
3.348
 20 
1.385
 11 
3.355
 21 
1.385
 0 
LINE
 8 
0
 62 
 7 
 10 
3.355
 20 
1.385
 11 
3.362
 21 
1.392
 0 
LINE
 8 
0
 62 
 7 
 10 
3.335
 20 
1.412
 11 
3.355
 21 
1.412
 0 
LINE
 8 
0
 62 
 7 
 10 
3.375
 20 
1.398
 11 
3.402
 21 
1.398
 0 
LINE
 8 
0
 62 
 7 
 10 
3.402
 20 
1.398
 11 
3.402
 21 
1.405
 0 
LINE
 8 
0
 62 
 7 
 10 
3.402
 20 
1.405
 11 
3.395
 21 
1.412
 0 
LINE
 8 
0
 62 
 7 
 10 
3.395
 20 
1.412
 11 
3.382
 21 
1.412
 0 
LINE
 8 
0
 62 
 7 
 10 
3.382
 20 
1.412
 11 
3.375
 21 
1.405
 0 
LINE
 8 
0
 62 
 7 
 10 
3.375
 20 
1.405
 11 
3.375
 21 
1.392
 0 
LINE
 8 
0
 62 
 7 
 10 
3.375
 20 
1.392
 11 
3.382
 21 
1.385
 0 
LINE
 8 
0
 62 
 7 
 10 
3.382
 20 
1.385
 11 
3.395
 21 
1.385
 0 
LINE
 8 
0
 62 
 7 
 10 
3.415
 20 
1.412
 11 
3.415
 21 
1.385
 0 
LINE
 8 
0
 62 
 7 
 10 
3.415
 20 
1.398
 11 
3.428
 21 
1.412
 0 
LINE
 8 
0
 62 
 7 
 10 
3.428
 20 
1.412
 11 
3.435
 21 
1.412
 0 
LINE
 8 
0
 62 
 7 
 10 
3.435
 20 
1.412
 11 
3.442
 21 
1.405
 0 
LINE
 8 
0
 62 
 7 
 10 
3.495
 20 
1.425
 11 
3.515
 21 
1.425
 0 
LINE
 8 
0
 62 
 7 
 10 
3.515
 20 
1.425
 11 
3.522
 21 
1.418
 0 
LINE
 8 
0
 62 
 7 
 10 
3.522
 20 
1.418
 11 
3.522
 21 
1.412
 0 
LINE
 8 
0
 62 
 7 
 10 
3.522
 20 
1.412
 11 
3.515
 21 
1.405
 0 
LINE
 8 
0
 62 
 7 
 10 
3.515
 20 
1.405
 11 
3.522
 21 
1.398
 0 
LINE
 8 
0
 62 
 7 
 10 
3.522
 20 
1.398
 11 
3.522
 21 
1.392
 0 
LINE
 8 
0
 62 
 7 
 10 
3.522
 20 
1.392
 11 
3.515
 21 
1.385
 0 
LINE
 8 
0
 62 
 7 
 10 
3.515
 20 
1.385
 11 
3.495
 21 
1.385
 0 
LINE
 8 
0
 62 
 7 
 10 
3.502
 20 
1.425
 11 
3.502
 21 
1.385
 0 
LINE
 8 
0
 62 
 7 
 10 
3.502
 20 
1.405
 11 
3.515
 21 
1.405
 0 
LINE
 8 
0
 62 
 7 
 10 
3.535
 20 
1.412
 11 
3.535
 21 
1.392
 0 
LINE
 8 
0
 62 
 7 
 10 
3.535
 20 
1.392
 11 
3.542
 21 
1.385
 0 
LINE
 8 
0
 62 
 7 
 10 
3.542
 20 
1.385
 11 
3.548
 21 
1.385
 0 
LINE
 8 
0
 62 
 7 
 10 
3.548
 20 
1.385
 11 
3.562
 21 
1.398
 0 
LINE
 8 
0
 62 
 7 
 10 
3.562
 20 
1.412
 11 
3.562
 21 
1.385
 0 
LINE
 8 
0
 62 
 7 
 10 
3.582
 20 
1.425
 11 
3.582
 21 
1.392
 0 
LINE
 8 
0
 62 
 7 
 10 
3.582
 20 
1.392
 11 
3.588
 21 
1.385
 0 
LINE
 8 
0
 62 
 7 
 10 
3.588
 20 
1.385
 11 
3.595
 21 
1.385
 0 
LINE
 8 
0
 62 
 7 
 10 
3.595
 20 
1.385
 11 
3.602
 21 
1.392
 0 
LINE
 8 
0
 62 
 7 
 10 
3.575
 20 
1.412
 11 
3.595
 21 
1.412
 0 
LINE
 8 
0
 62 
 7 
 10 
3.622
 20 
1.425
 11 
3.622
 21 
1.392
 0 
LINE
 8 
0
 62 
 7 
 10 
3.622
 20 
1.392
 11 
3.628
 21 
1.385
 0 
LINE
 8 
0
 62 
 7 
 10 
3.628
 20 
1.385
 11 
3.635
 21 
1.385
 0 
LINE
 8 
0
 62 
 7 
 10 
3.635
 20 
1.385
 11 
3.642
 21 
1.392
 0 
LINE
 8 
0
 62 
 7 
 10 
3.615
 20 
1.412
 11 
3.635
 21 
1.412
 0 
LINE
 8 
0
 62 
 7 
 10 
3.682
 20 
1.405
 11 
3.675
 21 
1.412
 0 
LINE
 8 
0
 62 
 7 
 10 
3.675
 20 
1.412
 11 
3.662
 21 
1.412
 0 
LINE
 8 
0
 62 
 7 
 10 
3.662
 20 
1.412
 11 
3.655
 21 
1.405
 0 
LINE
 8 
0
 62 
 7 
 10 
3.655
 20 
1.405
 11 
3.655
 21 
1.392
 0 
LINE
 8 
0
 62 
 7 
 10 
3.655
 20 
1.392
 11 
3.662
 21 
1.385
 0 
LINE
 8 
0
 62 
 7 
 10 
3.662
 20 
1.385
 11 
3.675
 21 
1.385
 0 
LINE
 8 
0
 62 
 7 
 10 
3.675
 20 
1.385
 11 
3.682
 21 
1.392
 0 
LINE
 8 
0
 62 
 7 
 10 
3.682
 20 
1.392
 11 
3.682
 21 
1.405
 0 
LINE
 8 
0
 62 
 7 
 10 
3.695
 20 
1.412
 11 
3.695
 21 
1.385
 0 
LINE
 8 
0
 62 
 7 
 10 
3.695
 20 
1.398
 11 
3.708
 21 
1.412
 0 
LINE
 8 
0
 62 
 7 
 10 
3.708
 20 
1.412
 11 
3.715
 21 
1.412
 0 
LINE
 8 
0
 62 
 7 
 10 
3.715
 20 
1.412
 11 
3.722
 21 
1.405
 0 
LINE
 8 
0
 62 
 7 
 10 
3.722
 20 
1.405
 11 
3.722
 21 
1.385
 0 
LINE
 8 
0
 62 
 7 
 10 
3.1
 20 
0.375
 11 
3.12
 21 
0.375
 0 
LINE
 8 
0
 62 
 7 
 10 
3.12
 20 
0.375
 11 
3.127
 21 
0.368
 0 
LINE
 8 
0
 62 
 7 
 10 
3.127
 20 
0.368
 11 
3.127
 21 
0.362
 0 
LINE
 8 
0
 62 
 7 
 10 
3.127
 20 
0.362
 11 
3.12
 21 
0.355
 0 
LINE
 8 
0
 62 
 7 
 10 
3.12
 20 
0.355
 11 
3.127
 21 
0.348
 0 
LINE
 8 
0
 62 
 7 
 10 
3.127
 20 
0.348
 11 
3.127
 21 
0.342
 0 
LINE
 8 
0
 62 
 7 
 10 
3.127
 20 
0.342
 11 
3.12
 21 
0.335
 0 
LINE
 8 
0
 62 
 7 
 10 
3.12
 20 
0.335
 11 
3.1
 21 
0.335
 0 
LINE
 8 
0
 62 
 7 
 10 
3.107
 20 
0.375
 11 
3.107
 21 
0.335
 0 
LINE
 8 
0
 62 
 7 
 10 
3.107
 20 
0.355
 11 
3.12
 21 
0.355
 0 
LINE
 8 
0
 62 
 7 
 10 
3.147
 20 
0.362
 11 
3.16
 21 
0.362
 0 
LINE
 8 
0
 62 
 7 
 10 
3.16
 20 
0.362
 11 
3.167
 21 
0.355
 0 
LINE
 8 
0
 62 
 7 
 10 
3.167
 20 
0.355
 11 
3.167
 21 
0.335
 0 
LINE
 8 
0
 62 
 7 
 10 
3.167
 20 
0.348
 11 
3.147
 21 
0.348
 0 
LINE
 8 
0
 62 
 7 
 10 
3.147
 20 
0.348
 11 
3.14
 21 
0.342
 0 
LINE
 8 
0
 62 
 7 
 10 
3.14
 20 
0.342
 11 
3.147
 21 
0.335
 0 
LINE
 8 
0
 62 
 7 
 10 
3.147
 20 
0.335
 11 
3.16
 21 
0.335
 0 
LINE
 8 
0
 62 
 7 
 10 
3.16
 20 
0.335
 11 
3.167
 21 
0.342
 0 
LINE
 8 
0
 62 
 7 
 10 
3.187
 20 
0.375
 11 
3.187
 21 
0.342
 0 
LINE
 8 
0
 62 
 7 
 10 
3.187
 20 
0.342
 11 
3.193
 21 
0.335
 0 
LINE
 8 
0
 62 
 7 
 10 
3.193
 20 
0.335
 11 
3.2
 21 
0.335
 0 
LINE
 8 
0
 62 
 7 
 10 
3.2
 20 
0.335
 11 
3.207
 21 
0.342
 0 
LINE
 8 
0
 62 
 7 
 10 
3.18
 20 
0.362
 11 
3.2
 21 
0.362
 0 
LINE
 8 
0
 62 
 7 
 10 
3.227
 20 
0.375
 11 
3.227
 21 
0.342
 0 
LINE
 8 
0
 62 
 7 
 10 
3.227
 20 
0.342
 11 
3.233
 21 
0.335
 0 
LINE
 8 
0
 62 
 7 
 10 
3.233
 20 
0.335
 11 
3.24
 21 
0.335
 0 
LINE
 8 
0
 62 
 7 
 10 
3.24
 20 
0.335
 11 
3.247
 21 
0.342
 0 
LINE
 8 
0
 62 
 7 
 10 
3.22
 20 
0.362
 11 
3.24
 21 
0.362
 0 
LINE
 8 
0
 62 
 7 
 10 
3.26
 20 
0.348
 11 
3.287
 21 
0.348
 0 
LINE
 8 
0
 62 
 7 
 10 
3.287
 20 
0.348
 11 
3.287
 21 
0.355
 0 
LINE
 8 
0
 62 
 7 
 10 
3.287
 20 
0.355
 11 
3.28
 21 
0.362
 0 
LINE
 8 
0
 62 
 7 
 10 
3.28
 20 
0.362
 11 
3.267
 21 
0.362
 0 
LINE
 8 
0
 62 
 7 
 10 
3.267
 20 
0.362
 11 
3.26
 21 
0.355
 0 
LINE
 8 
0
 62 
 7 
 10 
3.26
 20 
0.355
 11 
3.26
 21 
0.342
 0 
LINE
 8 
0
 62 
 7 
 10 
3.26
 20 
0.342
 11 
3.267
 21 
0.335
 0 
LINE
 8 
0
 62 
 7 
 10 
3.267
 20 
0.335
 11 
3.28
 21 
0.335
 0 
LINE
 8 
0
 62 
 7 
 10 
3.3
 20 
0.362
 11 
3.3
 21 
0.335
 0 
LINE
 8 
0
 62 
 7 
 10 
3.3
 20 
0.348
 11 
3.313
 21 
0.362
 0 
LINE
 8 
0
 62 
 7 
 10 
3.313
 20 
0.362
 11 
3.32
 21 
0.362
 0 
LINE
 8 
0
 62 
 7 
 10 
3.32
 20 
0.362
 11 
3.327
 21 
0.355
 0 
LINE
 8 
0
 62 
 7 
 10 
3.34
 20 
0.362
 11 
3.34
 21 
0.342
 0 
LINE
 8 
0
 62 
 7 
 10 
3.34
 20 
0.342
 11 
3.347
 21 
0.335
 0 
LINE
 8 
0
 62 
 7 
 10 
3.347
 20 
0.335
 11 
3.353
 21 
0.335
 0 
LINE
 8 
0
 62 
 7 
 10 
3.353
 20 
0.335
 11 
3.367
 21 
0.348
 0 
LINE
 8 
0
 62 
 7 
 10 
3.367
 20 
0.362
 11 
3.367
 21 
0.328
 0 
LINE
 8 
0
 62 
 7 
 10 
3.367
 20 
0.328
 11 
3.36
 21 
0.322
 0 
LINE
 8 
0
 62 
 7 
 10 
3.36
 20 
0.322
 11 
3.34
 21 
0.322
 0 
LINE
 8 
0
 62 
 7 
 10 
3.138
 20 
0.293
 11 
3.138
 21 
0.267
 0 
LINE
 8 
0
 62 
 7 
 10 
3.125
 20 
0.28
 11 
3.152
 21 
0.28
 0 
LINE
 8 
0
 62 
 7 
 10 
3.325
 20 
0.28
 11 
3.352
 21 
0.28
 0 
LINE
 8 
0
 62 
 7 
 10 
0.365
 20 
0.25
 11 
0.325
 21 
0.25
 0 
LINE
 8 
0
 62 
 7 
 10 
0.325
 20 
0.25
 11 
0.325
 21 
0.27
 0 
LINE
 8 
0
 62 
 7 
 10 
0.325
 20 
0.27
 11 
0.332
 21 
0.277
 0 
LINE
 8 
0
 62 
 7 
 10 
0.332
 20 
0.277
 11 
0.338
 21 
0.277
 0 
LINE
 8 
0
 62 
 7 
 10 
0.338
 20 
0.277
 11 
0.345
 21 
0.27
 0 
LINE
 8 
0
 62 
 7 
 10 
0.345
 20 
0.27
 11 
0.345
 21 
0.25
 0 
LINE
 8 
0
 62 
 7 
 10 
0.345
 20 
0.317
 11 
0.338
 21 
0.31
 0 
LINE
 8 
0
 62 
 7 
 10 
0.338
 20 
0.31
 11 
0.338
 21 
0.297
 0 
LINE
 8 
0
 62 
 7 
 10 
0.338
 20 
0.297
 11 
0.345
 21 
0.29
 0 
LINE
 8 
0
 62 
 7 
 10 
0.345
 20 
0.29
 11 
0.358
 21 
0.29
 0 
LINE
 8 
0
 62 
 7 
 10 
0.358
 20 
0.29
 11 
0.365
 21 
0.297
 0 
LINE
 8 
0
 62 
 7 
 10 
0.365
 20 
0.297
 11 
0.365
 21 
0.31
 0 
LINE
 8 
0
 62 
 7 
 10 
0.365
 20 
0.31
 11 
0.358
 21 
0.317
 0 
LINE
 8 
0
 62 
 7 
 10 
0.358
 20 
0.317
 11 
0.345
 21 
0.317
 0 
LINE
 8 
0
 62 
 7 
 10 
0.338
 20 
0.33
 11 
0.358
 21 
0.33
 0 
LINE
 8 
0
 62 
 7 
 10 
0.358
 20 
0.33
 11 
0.365
 21 
0.337
 0 
LINE
 8 
0
 62 
 7 
 10 
0.365
 20 
0.337
 11 
0.358
 21 
0.343
 0 
LINE
 8 
0
 62 
 7 
 10 
0.358
 20 
0.343
 11 
0.352
 21 
0.343
 0 
LINE
 8 
0
 62 
 7 
 10 
0.358
 20 
0.343
 11 
0.365
 21 
0.35
 0 
LINE
 8 
0
 62 
 7 
 10 
0.365
 20 
0.35
 11 
0.358
 21 
0.357
 0 
LINE
 8 
0
 62 
 7 
 10 
0.358
 20 
0.357
 11 
0.338
 21 
0.357
 0 
LINE
 8 
0
 62 
 7 
 10 
0.352
 20 
0.37
 11 
0.352
 21 
0.397
 0 
LINE
 8 
0
 62 
 7 
 10 
0.352
 20 
0.397
 11 
0.345
 21 
0.397
 0 
LINE
 8 
0
 62 
 7 
 10 
0.345
 20 
0.397
 11 
0.338
 21 
0.39
 0 
LINE
 8 
0
 62 
 7 
 10 
0.338
 20 
0.39
 11 
0.338
 21 
0.377
 0 
LINE
 8 
0
 62 
 7 
 10 
0.338
 20 
0.377
 11 
0.345
 21 
0.37
 0 
LINE
 8 
0
 62 
 7 
 10 
0.345
 20 
0.37
 11 
0.358
 21 
0.37
 0 
LINE
 8 
0
 62 
 7 
 10 
0.358
 20 
0.37
 11 
0.365
 21 
0.377
 0 
LINE
 8 
0
 62 
 7 
 10 
0.365
 20 
0.377
 11 
0.365
 21 
0.39
 0 
LINE
 8 
0
 62 
 7 
 10 
0.338
 20 
0.41
 11 
0.365
 21 
0.41
 0 
LINE
 8 
0
 62 
 7 
 10 
0.352
 20 
0.41
 11 
0.338
 21 
0.423
 0 
LINE
 8 
0
 62 
 7 
 10 
0.338
 20 
0.423
 11 
0.338
 21 
0.43
 0 
LINE
 8 
0
 62 
 7 
 10 
0.338
 20 
0.43
 11 
0.345
 21 
0.437
 0 
LINE
 8 
0
 62 
 7 
 10 
0.332
 20 
0.517
 11 
0.325
 21 
0.51
 0 
LINE
 8 
0
 62 
 7 
 10 
0.325
 20 
0.51
 11 
0.325
 21 
0.497
 0 
LINE
 8 
0
 62 
 7 
 10 
0.325
 20 
0.497
 11 
0.332
 21 
0.49
 0 
LINE
 8 
0
 62 
 7 
 10 
0.332
 20 
0.49
 11 
0.338
 21 
0.49
 0 
LINE
 8 
0
 62 
 7 
 10 
0.338
 20 
0.49
 11 
0.345
 21 
0.497
 0 
LINE
 8 
0
 62 
 7 
 10 
0.345
 20 
0.497
 11 
0.345
 21 
0.51
 0 
LINE
 8 
0
 62 
 7 
 10 
0.345
 20 
0.51
 11 
0.352
 21 
0.517
 0 
LINE
 8 
0
 62 
 7 
 10 
0.352
 20 
0.517
 11 
0.358
 21 
0.517
 0 
LINE
 8 
0
 62 
 7 
 10 
0.358
 20 
0.517
 11 
0.365
 21 
0.51
 0 
LINE
 8 
0
 62 
 7 
 10 
0.365
 20 
0.51
 11 
0.365
 21 
0.497
 0 
LINE
 8 
0
 62 
 7 
 10 
0.365
 20 
0.497
 11 
0.358
 21 
0.49
 0 
LINE
 8 
0
 62 
 7 
 10 
0.338
 20 
0.53
 11 
0.358
 21 
0.53
 0 
LINE
 8 
0
 62 
 7 
 10 
0.358
 20 
0.53
 11 
0.365
 21 
0.537
 0 
LINE
 8 
0
 62 
 7 
 10 
0.365
 20 
0.537
 11 
0.358
 21 
0.543
 0 
LINE
 8 
0
 62 
 7 
 10 
0.358
 20 
0.543
 11 
0.352
 21 
0.543
 0 
LINE
 8 
0
 62 
 7 
 10 
0.358
 20 
0.543
 11 
0.365
 21 
0.55
 0 
LINE
 8 
0
 62 
 7 
 10 
0.365
 20 
0.55
 11 
0.358
 21 
0.557
 0 
LINE
 8 
0
 62 
 7 
 10 
0.358
 20 
0.557
 11 
0.338
 21 
0.557
 0 
LINE
 8 
0
 62 
 7 
 10 
0.325
 20 
0.583
 11 
0.332
 21 
0.583
 0 
LINE
 8 
0
 62 
 7 
 10 
0.365
 20 
0.577
 11 
0.365
 21 
0.59
 0 
LINE
 8 
0
 62 
 7 
 10 
0.345
 20 
0.577
 11 
0.345
 21 
0.583
 0 
LINE
 8 
0
 62 
 7 
 10 
0.345
 20 
0.583
 11 
0.365
 21 
0.583
 0 
LINE
 8 
0
 62 
 7 
 10 
0.325
 20 
0.617
 11 
0.358
 21 
0.617
 0 
LINE
 8 
0
 62 
 7 
 10 
0.358
 20 
0.617
 11 
0.365
 21 
0.623
 0 
LINE
 8 
0
 62 
 7 
 10 
0.365
 20 
0.623
 11 
0.365
 21 
0.63
 0 
LINE
 8 
0
 62 
 7 
 10 
0.365
 20 
0.63
 11 
0.358
 21 
0.637
 0 
LINE
 8 
0
 62 
 7 
 10 
0.338
 20 
0.61
 11 
0.338
 21 
0.63
 0 
LINE
 8 
0
 62 
 7 
 10 
0.345
 20 
0.677
 11 
0.338
 21 
0.67
 0 
LINE
 8 
0
 62 
 7 
 10 
0.338
 20 
0.67
 11 
0.338
 21 
0.657
 0 
LINE
 8 
0
 62 
 7 
 10 
0.338
 20 
0.657
 11 
0.345
 21 
0.65
 0 
LINE
 8 
0
 62 
 7 
 10 
0.345
 20 
0.65
 11 
0.358
 21 
0.65
 0 
LINE
 8 
0
 62 
 7 
 10 
0.358
 20 
0.65
 11 
0.365
 21 
0.657
 0 
LINE
 8 
0
 62 
 7 
 10 
0.365
 20 
0.657
 11 
0.365
 21 
0.67
 0 
LINE
 8 
0
 62 
 7 
 10 
0.365
 20 
0.67
 11 
0.358
 21 
0.677
 0 
LINE
 8 
0
 62 
 7 
 10 
0.325
 20 
0.69
 11 
0.365
 21 
0.69
 0 
LINE
 8 
0
 62 
 7 
 10 
0.352
 20 
0.69
 11 
0.338
 21 
0.703
 0 
LINE
 8 
0
 62 
 7 
 10 
0.338
 20 
0.703
 11 
0.338
 21 
0.71
 0 
LINE
 8 
0
 62 
 7 
 10 
0.338
 20 
0.71
 11 
0.345
 21 
0.717
 0 
LINE
 8 
0
 62 
 7 
 10 
0.345
 20 
0.717
 11 
0.365
 21 
0.717
 0 
ENDSEC
 0 
EOF
