  0
SECTION
  2
HEADER
  9
$MEASUREMENT
  70
  0
  9
$INSUNITS
  70
  1
  0
ENDSEC
  0
SECTION
  2
TABLES
  0
TABLE
  2
LTYPE
 70
     1
  0
LTYPE
  2
CONTINUOUS
 70
    64
  3
Ausgezogene Linie
 72
    65
 73
     0
 40
0.0
  0
ENDTAB
  0
TABLE
  2
LAYER
 70
     3
  0
LAYER
  2
Contour
 70
    64
 62
     7
  6
CONTINUOUS
  0
LAYER
  2
Engraving
 70
    64
 62
     7
  6
CONTINUOUS
  0
LAYER
  2
Reference_points
 70
    64
 62
     1
  6
CONTINUOUS
  0
ENDTAB
  0
TABLE
  2
STYLE
 70
     1
  0
STYLE
  2
TXT
 70
    64
 40
0.0
 41
1.0
 50
0.0
 71
     0
 42
3.500000
  3
TXT
  0
ENDTAB
  0
ENDSEC
  0
SECTION
  2
BLOCKS
  0
ENDSEC
  0
SECTION
  2
ENTITIES
  0
LINE
  8
Contour
 62
   7
 39
0.004
  6
CONTINUOUS
 10
8.97500
 20
7.20000
 30
 0
 11
0.37500
 21
7.20000
  0
ARC
  8
Contour
 62
   7
 39
0.004
  6
CONTINUOUS
 10
0.37500
 20
6.82500
 30
 0
 40
0.37500
 50
90.00000
 51
180.00000
  0
LINE
  8
Contour
 62
   7
 39
0.004
  6
CONTINUOUS
 10
0.00000
 20
6.82500
 30
 0
 11
0.00000
 21
0.37500
  0
ARC
  8
Contour
 62
   7
 39
0.004
  6
CONTINUOUS
 10
0.37500
 20
0.37500
 30
 0
 40
0.37500
 50
180.00000
 51
270.00000
  0
LINE
  8
Contour
 62
   7
 39
0.004
  6
CONTINUOUS
 10
0.37500
 20
0.00000
 30
 0
 11
8.97500
 21
0.00000
  0
ARC
  8
Contour
 62
   7
 39
0.004
  6
CONTINUOUS
 10
8.97500
 20
0.37500
 30
 0
 40
0.37500
 50
-90.00000
 51
0.00000
  0
LINE
  8
Contour
 62
   7
 39
0.004
  6
CONTINUOUS
 10
9.35000
 20
0.37500
 30
 0
 11
9.35000
 21
6.82500
  0
ARC
  8
Contour
 62
   7
 39
0.004
  6
CONTINUOUS
 10
8.97500
 20
6.82500
 30
 0
 40
0.37500
 50
0.00000
 51
90.00000
  0
LINE
  8
Engraving
 62
   2
 39
0.008
  6
CONTINUOUS
 10
1.26193
 20
4.01717
 30
 0
 11
1.17500
 21
4.01717
  0
LINE
  8
Engraving
 62
   2
 39
0.008
  6
CONTINUOUS
 10
1.17500
 20
4.01717
 30
 0
 11
1.17500
 21
3.94913
  0
LINE
  8
Engraving
 62
   2
 39
0.008
  6
CONTINUOUS
 10
1.17500
 20
3.94913
 30
 0
 11
1.25437
 21
3.94913
  0
LINE
  8
Engraving
 62
   2
 39
0.008
  6
CONTINUOUS
 10
1.25437
 20
3.94913
 30
 0
 11
1.17500
 21
3.94913
  0
LINE
  8
Engraving
 62
   2
 39
0.008
  6
CONTINUOUS
 10
1.17500
 20
3.94913
 30
 0
 11
1.17500
 21
3.88110
  0
LINE
  8
Engraving
 62
   2
 39
0.008
  6
CONTINUOUS
 10
1.17500
 20
3.88110
 30
 0
 11
1.26571
 21
3.88110
  0
LINE
  8
Engraving
 62
   2
 39
0.008
  6
CONTINUOUS
 10
1.28650
 20
3.97559
 30
 0
 11
1.28650
 21
3.88110
  0
LINE
  8
Engraving
 62
   2
 39
0.008
  6
CONTINUOUS
 10
1.28650
 20
3.88110
 30
 0
 11
1.28650
 21
3.93780
  0
ARC
  8
Engraving
 62
   2
 39
0.008
  6
CONTINUOUS
 10
1.32783
 20
3.93803
 30
 0
 40
0.04134
 50
89.67260
 51
-179.67260
  0
ARC
  8
Engraving
 62
   2
 39
0.008
  6
CONTINUOUS
 10
1.32823
 20
3.94929
 30
 0
 40
0.03008
 50
359.70002
 51
90.29998
  0
LINE
  8
Engraving
 62
   2
 39
0.008
  6
CONTINUOUS
 10
1.35831
 20
3.94913
 30
 0
 11
1.35831
 21
3.88110
  0
ARC
  8
Engraving
 62
   2
 39
0.008
  6
CONTINUOUS
 10
1.41189
 20
3.95276
 30
 0
 40
0.02661
 50
451.44057
 51
169.43758
  0
LINE
  8
Engraving
 62
   2
 39
0.008
  6
CONTINUOUS
 10
1.41122
 20
3.97937
 30
 0
 11
1.42256
 21
3.97937
  0
ARC
  8
Engraving
 62
   2
 39
0.008
  6
CONTINUOUS
 10
1.42272
 20
3.95307
 30
 0
 40
0.02630
 50
359.65692
 51
90.34308
  0
LINE
  8
Engraving
 62
   2
 39
0.008
  6
CONTINUOUS
 10
1.44902
 20
3.95291
 30
 0
 11
1.44902
 21
3.91512
  0
ARC
  8
Engraving
 62
   2
 39
0.008
  6
CONTINUOUS
 10
1.40409
 20
3.92409
 30
 0
 40
0.04583
 50
270.63987
 51
-11.30028
  0
ARC
  8
Engraving
 62
   2
 39
0.008
  6
CONTINUOUS
 10
1.40445
 20
3.90457
 30
 0
 40
0.02630
 50
179.65692
 51
-89.65692
  0
ARC
  8
Engraving
 62
   2
 39
0.008
  6
CONTINUOUS
 10
1.40083
 20
3.90504
 30
 0
 40
0.02268
 50
99.59313
 51
-179.20428
  0
LINE
  8
Engraving
 62
   2
 39
0.008
  6
CONTINUOUS
 10
1.39705
 20
3.92740
 30
 0
 11
1.43957
 21
3.93496
  0
ARC
  8
Engraving
 62
   2
 39
0.008
  6
CONTINUOUS
 10
1.43799
 20
3.94618
 30
 0
 40
0.01134
 50
-82.01067
 51
-13.84349
  0
LINE
  8
Engraving
 62
   2
 39
0.008
  6
CONTINUOUS
 10
1.44902
 20
3.94346
 30
 0
 11
1.44902
 21
3.89622
  0
ARC
  8
Engraving
 62
   2
 39
0.008
  6
CONTINUOUS
 10
1.46406
 20
3.89614
 30
 0
 40
0.01504
 50
179.70002
 51
270.29998
  0
LINE
  8
Engraving
 62
   2
 39
0.008
  6
CONTINUOUS
 10
1.48492
 20
4.01717
 30
 0
 11
1.48492
 21
3.94913
  0
LINE
  8
Engraving
 62
   2
 39
0.008
  6
CONTINUOUS
 10
1.48492
 20
3.94913
 30
 0
 11
1.48492
 21
3.88110
  0
LINE
  8
Engraving
 62
   2
 39
0.008
  6
CONTINUOUS
 10
1.48492
 20
3.88110
 30
 0
 11
1.48492
 21
3.93780
  0
ARC
  8
Engraving
 62
   2
 39
0.008
  6
CONTINUOUS
 10
1.52638
 20
3.93772
 30
 0
 40
0.04146
 50
370.61631
 51
179.89118
  0
ARC
  8
Engraving
 62
   2
 39
0.008
  6
CONTINUOUS
 10
1.48535
 20
3.92976
 30
 0
 40
0.08323
 50
349.20556
 51
10.79444
  0
ARC
  8
Engraving
 62
   2
 39
0.008
  6
CONTINUOUS
 10
1.52642
 20
3.92220
 30
 0
 40
0.04150
 50
179.34770
 51
-11.16067
  0
LINE
  8
Engraving
 62
   2
 39
0.008
  6
CONTINUOUS
 10
1.58886
 20
4.01717
 30
 0
 11
1.58886
 21
3.94913
  0
LINE
  8
Engraving
 62
   2
 39
0.008
  6
CONTINUOUS
 10
1.58886
 20
3.94913
 30
 0
 11
1.58886
 21
3.88110
  0
LINE
  8
Engraving
 62
   2
 39
0.008
  6
CONTINUOUS
 10
1.61059
 20
3.93118
 30
 0
 11
1.69374
 21
3.93118
  0
LINE
  8
Engraving
 62
   2
 39
0.008
  6
CONTINUOUS
 10
1.69374
 20
3.93118
 30
 0
 11
1.69374
 21
3.93874
  0
ARC
  8
Engraving
 62
   2
 39
0.008
  6
CONTINUOUS
 10
1.65228
 20
3.93866
 30
 0
 40
0.04146
 50
0.10882
 51
169.38369
  0
ARC
  8
Engraving
 62
   2
 39
0.008
  6
CONTINUOUS
 10
1.69331
 20
3.93071
 30
 0
 40
0.08323
 50
169.20556
 51
190.79444
  0
ARC
  8
Engraving
 62
   2
 39
0.008
  6
CONTINUOUS
 10
1.65583
 20
3.92331
 30
 0
 40
0.04504
 50
-169.52494
 51
-89.84975
  0
ARC
  8
Engraving
 62
   2
 39
0.008
  6
CONTINUOUS
 10
1.65583
 20
3.92390
 30
 0
 40
0.04563
 50
-89.85169
 51
-31.59131
  0
LINE
  8
Engraving
 62
   2
 39
0.016
  6
CONTINUOUS
 10
5.49614
 20
5.65626
 30
 0
 11
5.41039
 21
5.65626
  0
LINE
  8
Engraving
 62
   2
 39
0.016
  6
CONTINUOUS
 10
5.41039
 20
5.65626
 30
 0
 11
5.41039
 21
5.66665
  0
LINE
  8
Engraving
 62
   2
 39
0.016
  6
CONTINUOUS
 10
5.41039
 20
5.66665
 30
 0
 11
5.58449
 21
5.66665
  0
LINE
  8
Engraving
 62
   2
 39
0.016
  6
CONTINUOUS
 10
5.58449
 20
5.66665
 30
 0
 11
5.58449
 21
5.65626
  0
LINE
  8
Engraving
 62
   2
 39
0.016
  6
CONTINUOUS
 10
5.58449
 20
5.65626
 30
 0
 11
5.50394
 21
5.65626
  0
LINE
  8
Engraving
 62
   2
 39
0.016
  6
CONTINUOUS
 10
5.50394
 20
5.65626
 30
 0
 11
5.50394
 21
5.43020
  0
LINE
  8
Engraving
 62
   2
 39
0.016
  6
CONTINUOUS
 10
5.50394
 20
5.43020
 30
 0
 11
5.49094
 21
5.43020
  0
LINE
  8
Engraving
 62
   2
 39
0.016
  6
CONTINUOUS
 10
5.49094
 20
5.43020
 30
 0
 11
5.49094
 21
5.65626
  0
LINE
  8
Engraving
 62
   2
 39
0.016
  6
CONTINUOUS
 10
5.49094
 20
5.65626
 30
 0
 11
5.47795
 21
5.64846
  0
LINE
  8
Engraving
 62
   2
 39
0.016
  6
CONTINUOUS
 10
5.47795
 20
5.64846
 30
 0
 11
5.40000
 21
5.64846
  0
LINE
  8
Engraving
 62
   2
 39
0.016
  6
CONTINUOUS
 10
5.40000
 20
5.64846
 30
 0
 11
5.40000
 21
5.67445
  0
LINE
  8
Engraving
 62
   2
 39
0.016
  6
CONTINUOUS
 10
5.40000
 20
5.67445
 30
 0
 11
5.59488
 21
5.67445
  0
LINE
  8
Engraving
 62
   2
 39
0.016
  6
CONTINUOUS
 10
5.59488
 20
5.67445
 30
 0
 11
5.59488
 21
5.64846
  0
LINE
  8
Engraving
 62
   2
 39
0.016
  6
CONTINUOUS
 10
5.59488
 20
5.64846
 30
 0
 11
5.51693
 21
5.64846
  0
LINE
  8
Engraving
 62
   2
 39
0.016
  6
CONTINUOUS
 10
5.51693
 20
5.64846
 30
 0
 11
5.51693
 21
5.42500
  0
LINE
  8
Engraving
 62
   2
 39
0.016
  6
CONTINUOUS
 10
5.51693
 20
5.42500
 30
 0
 11
5.47795
 21
5.42500
  0
LINE
  8
Engraving
 62
   2
 39
0.016
  6
CONTINUOUS
 10
5.47795
 20
5.42500
 30
 0
 11
5.47795
 21
5.64846
  0
LINE
  8
Engraving
 62
   2
 39
0.016
  6
CONTINUOUS
 10
5.67024
 20
5.65106
 30
 0
 11
5.68323
 21
5.65106
  0
LINE
  8
Engraving
 62
   2
 39
0.016
  6
CONTINUOUS
 10
5.68323
 20
5.65106
 30
 0
 11
5.68323
 21
5.66406
  0
LINE
  8
Engraving
 62
   2
 39
0.016
  6
CONTINUOUS
 10
5.68323
 20
5.66406
 30
 0
 11
5.67024
 21
5.66406
  0
LINE
  8
Engraving
 62
   2
 39
0.016
  6
CONTINUOUS
 10
5.67024
 20
5.66406
 30
 0
 11
5.67024
 21
5.65106
  0
LINE
  8
Engraving
 62
   2
 39
0.016
  6
CONTINUOUS
 10
5.67024
 20
5.65106
 30
 0
 11
5.65984
 21
5.64067
  0
LINE
  8
Engraving
 62
   2
 39
0.016
  6
CONTINUOUS
 10
5.65984
 20
5.64067
 30
 0
 11
5.69362
 21
5.64067
  0
LINE
  8
Engraving
 62
   2
 39
0.016
  6
CONTINUOUS
 10
5.69362
 20
5.64067
 30
 0
 11
5.69362
 21
5.67445
  0
LINE
  8
Engraving
 62
   2
 39
0.016
  6
CONTINUOUS
 10
5.69362
 20
5.67445
 30
 0
 11
5.65984
 21
5.67445
  0
LINE
  8
Engraving
 62
   2
 39
0.016
  6
CONTINUOUS
 10
5.65984
 20
5.67445
 30
 0
 11
5.65984
 21
5.64067
  0
LINE
  8
Engraving
 62
   2
 39
0.016
  6
CONTINUOUS
 10
5.68323
 20
5.59390
 30
 0
 11
5.68323
 21
5.43020
  0
LINE
  8
Engraving
 62
   2
 39
0.016
  6
CONTINUOUS
 10
5.68323
 20
5.43020
 30
 0
 11
5.67024
 21
5.43020
  0
LINE
  8
Engraving
 62
   2
 39
0.016
  6
CONTINUOUS
 10
5.67024
 20
5.43020
 30
 0
 11
5.67024
 21
5.59390
  0
LINE
  8
Engraving
 62
   2
 39
0.016
  6
CONTINUOUS
 10
5.67024
 20
5.59390
 30
 0
 11
5.68323
 21
5.59390
  0
LINE
  8
Engraving
 62
   2
 39
0.016
  6
CONTINUOUS
 10
5.68323
 20
5.59390
 30
 0
 11
5.69362
 21
5.60169
  0
LINE
  8
Engraving
 62
   2
 39
0.016
  6
CONTINUOUS
 10
5.69362
 20
5.60169
 30
 0
 11
5.69362
 21
5.42500
  0
LINE
  8
Engraving
 62
   2
 39
0.016
  6
CONTINUOUS
 10
5.69362
 20
5.42500
 30
 0
 11
5.65984
 21
5.42500
  0
LINE
  8
Engraving
 62
   2
 39
0.016
  6
CONTINUOUS
 10
5.65984
 20
5.42500
 30
 0
 11
5.65984
 21
5.60169
  0
LINE
  8
Engraving
 62
   2
 39
0.016
  6
CONTINUOUS
 10
5.65984
 20
5.60169
 30
 0
 11
5.69362
 21
5.60169
  0
LINE
  8
Engraving
 62
   2
 39
0.016
  6
CONTINUOUS
 10
5.78197
 20
5.59390
 30
 0
 11
5.78197
 21
5.43020
  0
LINE
  8
Engraving
 62
   2
 39
0.016
  6
CONTINUOUS
 10
5.78197
 20
5.43020
 30
 0
 11
5.77157
 21
5.43020
  0
LINE
  8
Engraving
 62
   2
 39
0.016
  6
CONTINUOUS
 10
5.77157
 20
5.43020
 30
 0
 11
5.77157
 21
5.59390
  0
LINE
  8
Engraving
 62
   2
 39
0.016
  6
CONTINUOUS
 10
5.77157
 20
5.59390
 30
 0
 11
5.78197
 21
5.59390
  0
LINE
  8
Engraving
 62
   2
 39
0.016
  6
CONTINUOUS
 10
5.78197
 20
5.59390
 30
 0
 11
5.78197
 21
5.53154
  0
LINE
  8
Engraving
 62
   2
 39
0.016
  6
CONTINUOUS
 10
5.78197
 20
5.53154
 30
 0
 11
5.79496
 21
5.56012
  0
ARC
  8
Engraving
 62
   2
 39
0.016
  6
CONTINUOUS
 10
5.83965
 20
5.54043
 30
 0
 40
0.04882
 50
441.41896
 51
156.22513
  0
ARC
  8
Engraving
 62
   2
 39
0.016
  6
CONTINUOUS
 10
5.83567
 20
5.53709
 30
 0
 40
0.05283
 50
359.61576
 51
77.69350
  0
LINE
  8
Engraving
 62
   2
 39
0.016
  6
CONTINUOUS
 10
5.88850
 20
5.53673
 30
 0
 11
5.88850
 21
5.43020
  0
LINE
  8
Engraving
 62
   2
 39
0.016
  6
CONTINUOUS
 10
5.88850
 20
5.43020
 30
 0
 11
5.89890
 21
5.43020
  0
LINE
  8
Engraving
 62
   2
 39
0.016
  6
CONTINUOUS
 10
5.89890
 20
5.43020
 30
 0
 11
5.89890
 21
5.53154
  0
ARC
  8
Engraving
 62
   2
 39
0.016
  6
CONTINUOUS
 10
6.02839
 20
5.49280
 30
 0
 40
0.13516
 50
503.54069
 51
163.34392
  0
ARC
  8
Engraving
 62
   2
 39
0.016
  6
CONTINUOUS
 10
5.95736
 20
5.53673
 30
 0
 40
0.05236
 50
442.87498
 51
136.00509
  0
ARC
  8
Engraving
 62
   2
 39
0.016
  6
CONTINUOUS
 10
5.95260
 20
5.53709
 30
 0
 40
0.05283
 50
359.61576
 51
77.69350
  0
LINE
  8
Engraving
 62
   2
 39
0.016
  6
CONTINUOUS
 10
6.00543
 20
5.53673
 30
 0
 11
6.00543
 21
5.43020
  0
LINE
  8
Engraving
 62
   2
 39
0.016
  6
CONTINUOUS
 10
6.00543
 20
5.43020
 30
 0
 11
6.01583
 21
5.43020
  0
LINE
  8
Engraving
 62
   2
 39
0.016
  6
CONTINUOUS
 10
6.01583
 20
5.43020
 30
 0
 11
6.01583
 21
5.53673
  0
ARC
  8
Engraving
 62
   2
 39
0.016
  6
CONTINUOUS
 10
5.94260
 20
5.52969
 30
 0
 40
0.07358
 50
5.49702
 51
50.05706
  0
ARC
  8
Engraving
 62
   2
 39
0.016
  6
CONTINUOUS
 10
5.95969
 20
5.55311
 30
 0
 40
0.04469
 50
47.57016
 51
127.19303
  0
ARC
  8
Engraving
 62
   2
 39
0.016
  6
CONTINUOUS
 10
6.03512
 20
5.48961
 30
 0
 40
0.14252
 50
135.95130
 51
162.89145
  0
ARC
  8
Engraving
 62
   2
 39
0.016
  6
CONTINUOUS
 10
5.83323
 20
5.53528
 30
 0
 40
0.06579
 50
-3.25973
 51
58.38351
  0
ARC
  8
Engraving
 62
   2
 39
0.016
  6
CONTINUOUS
 10
5.84154
 20
5.54213
 30
 0
 40
0.05571
 50
61.96800
 51
111.68864
  0
ARC
  8
Engraving
 62
   2
 39
0.016
  6
CONTINUOUS
 10
5.85634
 20
5.53496
 30
 0
 40
0.06874
 50
120.98627
 51
158.53372
  0
LINE
  8
Engraving
 62
   2
 39
0.016
  6
CONTINUOUS
 10
5.79236
 20
5.56012
 30
 0
 11
5.79236
 21
5.60169
  0
LINE
  8
Engraving
 62
   2
 39
0.016
  6
CONTINUOUS
 10
5.79236
 20
5.60169
 30
 0
 11
5.76118
 21
5.60169
  0
LINE
  8
Engraving
 62
   2
 39
0.016
  6
CONTINUOUS
 10
5.76118
 20
5.60169
 30
 0
 11
5.76118
 21
5.42500
  0
LINE
  8
Engraving
 62
   2
 39
0.016
  6
CONTINUOUS
 10
5.76118
 20
5.42500
 30
 0
 11
5.79236
 21
5.42500
  0
LINE
  8
Engraving
 62
   2
 39
0.016
  6
CONTINUOUS
 10
5.79236
 20
5.42500
 30
 0
 11
5.79236
 21
5.53673
  0
ARC
  8
Engraving
 62
   2
 39
0.016
  6
CONTINUOUS
 10
5.84134
 20
5.53654
 30
 0
 40
0.04898
 50
481.49287
 51
179.76971
  0
ARC
  8
Engraving
 62
   2
 39
0.016
  6
CONTINUOUS
 10
5.83524
 20
5.54669
 30
 0
 40
0.03713
 50
418.34873
 51
121.65127
  0
ARC
  8
Engraving
 62
   2
 39
0.016
  6
CONTINUOUS
 10
5.82913
 20
5.53654
 30
 0
 40
0.04898
 50
360.23029
 51
58.50713
  0
LINE
  8
Engraving
 62
   2
 39
0.016
  6
CONTINUOUS
 10
5.87811
 20
5.53673
 30
 0
 11
5.87811
 21
5.42500
  0
LINE
  8
Engraving
 62
   2
 39
0.016
  6
CONTINUOUS
 10
5.87811
 20
5.42500
 30
 0
 11
5.90929
 21
5.42500
  0
LINE
  8
Engraving
 62
   2
 39
0.016
  6
CONTINUOUS
 10
5.90929
 20
5.42500
 30
 0
 11
5.90929
 21
5.53673
  0
ARC
  8
Engraving
 62
   2
 39
0.016
  6
CONTINUOUS
 10
5.95827
 20
5.53654
 30
 0
 40
0.04898
 50
481.49287
 51
179.76971
  0
ARC
  8
Engraving
 62
   2
 39
0.016
  6
CONTINUOUS
 10
5.95217
 20
5.54669
 30
 0
 40
0.03713
 50
418.34873
 51
121.65127
  0
ARC
  8
Engraving
 62
   2
 39
0.016
  6
CONTINUOUS
 10
5.94606
 20
5.53654
 30
 0
 40
0.04898
 50
360.23029
 51
58.50713
  0
LINE
  8
Engraving
 62
   2
 39
0.016
  6
CONTINUOUS
 10
5.99504
 20
5.53673
 30
 0
 11
5.99504
 21
5.42500
  0
LINE
  8
Engraving
 62
   2
 39
0.016
  6
CONTINUOUS
 10
5.99504
 20
5.42500
 30
 0
 11
6.02622
 21
5.42500
  0
LINE
  8
Engraving
 62
   2
 39
0.016
  6
CONTINUOUS
 10
6.02622
 20
5.42500
 30
 0
 11
6.02622
 21
5.53673
  0
ARC
  8
Engraving
 62
   2
 39
0.016
  6
CONTINUOUS
 10
5.95480
 20
5.53677
 30
 0
 40
0.07142
 50
-0.03159
 51
53.13642
  0
ARC
  8
Engraving
 62
   2
 39
0.016
  6
CONTINUOUS
 10
5.96516
 20
5.55016
 30
 0
 40
0.05449
 50
53.40337
 51
126.59663
  0
ARC
  8
Engraving
 62
   2
 39
0.016
  6
CONTINUOUS
 10
5.97701
 20
5.53618
 30
 0
 40
0.07280
 50
127.52702
 51
165.07657
  0
ARC
  8
Engraving
 62
   2
 39
0.016
  6
CONTINUOUS
 10
5.83638
 20
5.53618
 30
 0
 40
0.07276
 50
14.92343
 51
52.47298
  0
ARC
  8
Engraving
 62
   2
 39
0.016
  6
CONTINUOUS
 10
5.84823
 20
5.55016
 30
 0
 40
0.05449
 50
53.40337
 51
126.59663
  0
ARC
  8
Engraving
 62
   2
 39
0.016
  6
CONTINUOUS
 10
5.85374
 20
5.54260
 30
 0
 40
0.06382
 50
126.52360
 51
164.06917
  0
LINE
  8
Engraving
 62
   2
 39
0.016
  6
CONTINUOUS
 10
6.13016
 20
5.52114
 30
 0
 11
6.24189
 21
5.52114
  0
ARC
  8
Engraving
 62
   2
 39
0.016
  6
CONTINUOUS
 10
6.16937
 20
5.51976
 30
 0
 40
0.07252
 50
1.08855
 51
47.35390
  0
ARC
  8
Engraving
 62
   2
 39
0.016
  6
CONTINUOUS
 10
6.17681
 20
5.52996
 30
 0
 40
0.06000
 50
45.98364
 51
130.34449
  0
ARC
  8
Engraving
 62
   2
 39
0.016
  6
CONTINUOUS
 10
6.20307
 20
5.51335
 30
 0
 40
0.09016
 50
136.23844
 51
223.76156
  0
ARC
  8
Engraving
 62
   2
 39
0.016
  6
CONTINUOUS
 10
6.17713
 20
5.49362
 30
 0
 40
0.05791
 50
-132.57506
 51
-51.34627
  0
ARC
  8
Engraving
 62
   2
 39
0.016
  6
CONTINUOUS
 10
6.15122
 20
5.52346
 30
 0
 40
0.09744
 50
-50.41084
 51
-39.58916
  0
LINE
  8
Engraving
 62
   2
 39
0.016
  6
CONTINUOUS
 10
6.22630
 20
5.46138
 30
 0
 11
6.23929
 21
5.46138
  0
ARC
  8
Engraving
 62
   2
 39
0.016
  6
CONTINUOUS
 10
6.17724
 20
5.50311
 30
 0
 40
0.07476
 50
192.16220
 51
-33.92434
  0
ARC
  8
Engraving
 62
   2
 39
0.016
  6
CONTINUOUS
 10
6.21264
 20
5.51335
 30
 0
 40
0.11154
 50
166.52787
 51
-166.52787
  0
ARC
  8
Engraving
 62
   2
 39
0.016
  6
CONTINUOUS
 10
6.17437
 20
5.52516
 30
 0
 40
0.07161
 50
414.55385
 51
168.58505
  0
ARC
  8
Engraving
 62
   2
 39
0.016
  6
CONTINUOUS
 10
6.17244
 20
5.51346
 30
 0
 40
0.08244
 50
359.91791
 51
58.17736
  0
LINE
  8
Engraving
 62
   2
 39
0.016
  6
CONTINUOUS
 10
6.25488
 20
5.51335
 30
 0
 11
6.12496
 21
5.51335
  0
LINE
  8
Engraving
 62
   2
 39
0.016
  6
CONTINUOUS
 10
6.12496
 20
5.51335
 30
 0
 11
6.12496
 21
5.52894
  0
LINE
  8
Engraving
 62
   2
 39
0.016
  6
CONTINUOUS
 10
6.12496
 20
5.52894
 30
 0
 11
6.22890
 21
5.52894
  0
ARC
  8
Engraving
 62
   2
 39
0.016
  6
CONTINUOUS
 10
6.13382
 20
5.51177
 30
 0
 40
0.09661
 50
10.23385
 51
31.82471
  0
ARC
  8
Engraving
 62
   2
 39
0.016
  6
CONTINUOUS
 10
6.17693
 20
5.53878
 30
 0
 40
0.04575
 50
31.55581
 51
148.44419
  0
ARC
  8
Engraving
 62
   2
 39
0.016
  6
CONTINUOUS
 10
6.21807
 20
5.51335
 30
 0
 40
0.09409
 50
148.35795
 51
211.64205
  0
ARC
  8
Engraving
 62
   2
 39
0.016
  6
CONTINUOUS
 10
6.17685
 20
5.48815
 30
 0
 40
0.04579
 50
-148.14081
 51
-24.49290
  0
LINE
  8
Engraving
 62
   2
 39
0.016
  6
CONTINUOUS
 10
6.21850
 20
5.46917
 30
 0
 11
6.25488
 21
5.46917
  0
ARC
  8
Engraving
 62
   2
 39
0.016
  6
CONTINUOUS
 10
6.16823
 20
5.51622
 30
 0
 40
0.09858
 50
309.91395
 51
-28.49909
  0
ARC
  8
Engraving
 62
   2
 39
0.016
  6
CONTINUOUS
 10
6.17823
 20
5.50449
 30
 0
 40
0.08319
 50
230.18401
 51
-50.18401
  0
ARC
  8
Engraving
 62
   2
 39
0.016
  6
CONTINUOUS
 10
6.18634
 20
5.51335
 30
 0
 40
0.09520
 50
130.15147
 51
-130.15147
  0
ARC
  8
Engraving
 62
   2
 39
0.016
  6
CONTINUOUS
 10
6.17693
 20
5.52378
 30
 0
 40
0.08114
 50
410.17663
 51
129.82337
  0
ARC
  8
Engraving
 62
   2
 39
0.016
  6
CONTINUOUS
 10
6.16299
 20
5.50787
 30
 0
 40
0.10228
 50
360.15438
 51
49.88666
  0
LINE
  8
Engraving
 62
   2
 39
0.016
  6
CONTINUOUS
 10
6.26528
 20
5.50815
 30
 0
 11
6.12496
 21
5.50815
  0
LINE
  8
Engraving
 62
   2
 39
0.016
  6
CONTINUOUS
 10
6.70961
 20
5.43799
 30
 0
 11
6.56150
 21
5.43799
  0
LINE
  8
Engraving
 62
   2
 39
0.016
  6
CONTINUOUS
 10
6.56150
 20
5.43799
 30
 0
 11
6.56150
 21
5.66665
  0
LINE
  8
Engraving
 62
   2
 39
0.016
  6
CONTINUOUS
 10
6.56150
 20
5.66665
 30
 0
 11
6.57449
 21
5.66665
  0
LINE
  8
Engraving
 62
   2
 39
0.016
  6
CONTINUOUS
 10
6.57449
 20
5.66665
 30
 0
 11
6.57449
 21
5.45098
  0
LINE
  8
Engraving
 62
   2
 39
0.016
  6
CONTINUOUS
 10
6.57449
 20
5.45098
 30
 0
 11
6.71740
 21
5.45098
  0
LINE
  8
Engraving
 62
   2
 39
0.016
  6
CONTINUOUS
 10
6.71740
 20
5.45098
 30
 0
 11
6.71740
 21
5.42500
  0
LINE
  8
Engraving
 62
   2
 39
0.016
  6
CONTINUOUS
 10
6.71740
 20
5.42500
 30
 0
 11
6.54850
 21
5.42500
  0
LINE
  8
Engraving
 62
   2
 39
0.016
  6
CONTINUOUS
 10
6.54850
 20
5.42500
 30
 0
 11
6.54850
 21
5.67445
  0
LINE
  8
Engraving
 62
   2
 39
0.016
  6
CONTINUOUS
 10
6.54850
 20
5.67445
 30
 0
 11
6.58748
 21
5.67445
  0
LINE
  8
Engraving
 62
   2
 39
0.016
  6
CONTINUOUS
 10
6.58748
 20
5.67445
 30
 0
 11
6.58748
 21
5.45098
  0
ARC
  8
Engraving
 62
   2
 39
0.016
  6
CONTINUOUS
 10
6.85031
 20
5.54673
 30
 0
 40
0.04654
 50
466.71782
 51
163.28218
  0
ARC
  8
Engraving
 62
   2
 39
0.016
  6
CONTINUOUS
 10
6.86638
 20
5.49157
 30
 0
 40
0.10398
 50
425.38547
 51
106.45198
  0
ARC
  8
Engraving
 62
   2
 39
0.016
  6
CONTINUOUS
 10
6.89480
 20
5.55366
 30
 0
 40
0.03571
 50
362.02285
 51
65.35728
  0
LINE
  8
Engraving
 62
   2
 39
0.016
  6
CONTINUOUS
 10
6.93047
 20
5.55492
 30
 0
 11
6.93047
 21
5.43799
  0
LINE
  8
Engraving
 62
   2
 39
0.016
  6
CONTINUOUS
 10
6.93047
 20
5.43799
 30
 0
 11
6.93567
 21
5.42760
  0
LINE
  8
Engraving
 62
   2
 39
0.016
  6
CONTINUOUS
 10
6.93567
 20
5.42760
 30
 0
 11
6.92268
 21
5.45618
  0
LINE
  8
Engraving
 62
   2
 39
0.016
  6
CONTINUOUS
 10
6.92268
 20
5.45618
 30
 0
 11
6.92268
 21
5.43020
  0
LINE
  8
Engraving
 62
   2
 39
0.016
  6
CONTINUOUS
 10
6.92268
 20
5.43020
 30
 0
 11
6.91228
 21
5.44839
  0
LINE
  8
Engraving
 62
   2
 39
0.016
  6
CONTINUOUS
 10
6.91228
 20
5.44839
 30
 0
 11
6.92268
 21
5.47177
  0
ARC
  8
Engraving
 62
   2
 39
0.016
  6
CONTINUOUS
 10
6.85732
 20
5.52280
 30
 0
 40
0.08291
 50
277.47598
 51
-37.97997
  0
ARC
  8
Engraving
 62
   2
 39
0.016
  6
CONTINUOUS
 10
6.85201
 20
5.50866
 30
 0
 40
0.06996
 50
243.99736
 51
-76.69116
  0
ARC
  8
Engraving
 62
   2
 39
0.016
  6
CONTINUOUS
 10
6.83780
 20
5.47177
 30
 0
 40
0.03075
 50
122.34744
 51
-122.34744
  0
ARC
  8
Engraving
 62
   2
 39
0.016
  6
CONTINUOUS
 10
6.77307
 20
5.72724
 30
 0
 40
0.23453
 50
-78.12224
 51
-51.18096
  0
LINE
  8
Engraving
 62
   2
 39
0.016
  6
CONTINUOUS
 10
6.92008
 20
5.54453
 30
 0
 11
6.90709
 21
5.52634
  0
LINE
  8
Engraving
 62
   2
 39
0.016
  6
CONTINUOUS
 10
6.90709
 20
5.52634
 30
 0
 11
6.90709
 21
5.48736
  0
ARC
  8
Engraving
 62
   2
 39
0.016
  6
CONTINUOUS
 10
6.86350
 20
5.48756
 30
 0
 40
0.04358
 50
286.53561
 51
-0.25879
  0
ARC
  8
Engraving
 62
   2
 39
0.016
  6
CONTINUOUS
 10
6.85988
 20
5.50004
 30
 0
 40
0.05657
 50
240.15123
 51
-73.54520
  0
ARC
  8
Engraving
 62
   2
 39
0.016
  6
CONTINUOUS
 10
6.84323
 20
5.47142
 30
 0
 40
0.02346
 50
145.32309
 51
-119.36299
  0
ARC
  8
Engraving
 62
   2
 39
0.016
  6
CONTINUOUS
 10
6.86122
 20
5.45913
 30
 0
 40
0.04524
 50
464.45940
 51
145.49404
  0
ARC
  8
Engraving
 62
   2
 39
0.016
  6
CONTINUOUS
 10
6.70315
 20
6.08551
 30
 0
 40
0.60075
 50
-75.85903
 51
-72.25018
  0
ARC
  8
Engraving
 62
   2
 39
0.016
  6
CONTINUOUS
 10
6.87134
 20
5.56043
 30
 0
 40
0.04941
 50
-72.37361
 51
-43.64376
  0
LINE
  8
Engraving
 62
   2
 39
0.016
  6
CONTINUOUS
 10
6.90709
 20
5.52634
 30
 0
 11
6.92008
 21
5.55232
  0
LINE
  8
Engraving
 62
   2
 39
0.016
  6
CONTINUOUS
 10
6.92008
 20
5.55232
 30
 0
 11
6.92008
 21
5.48996
  0
ARC
  8
Engraving
 62
   2
 39
0.016
  6
CONTINUOUS
 10
6.84598
 20
5.50665
 30
 0
 40
0.07594
 50
244.71034
 51
-12.69632
  0
ARC
  8
Engraving
 62
   2
 39
0.016
  6
CONTINUOUS
 10
6.82945
 20
5.46846
 30
 0
 40
0.03437
 50
156.49096
 51
-117.56293
  0
ARC
  8
Engraving
 62
   2
 39
0.016
  6
CONTINUOUS
 10
6.84028
 20
5.46429
 30
 0
 40
0.04594
 50
467.39502
 51
157.10442
  0
ARC
  8
Engraving
 62
   2
 39
0.016
  6
CONTINUOUS
 10
6.71594
 20
5.99760
 30
 0
 40
0.50177
 50
-77.26786
 51
-68.24951
  0
ARC
  8
Engraving
 62
   2
 39
0.016
  6
CONTINUOUS
 10
6.88957
 20
5.55697
 30
 0
 40
0.02827
 50
-64.14888
 51
69.87369
  0
ARC
  8
Engraving
 62
   2
 39
0.016
  6
CONTINUOUS
 10
6.87201
 20
5.49437
 30
 0
 40
0.09323
 50
72.98089
 51
107.01911
  0
ARC
  8
Engraving
 62
   2
 39
0.016
  6
CONTINUOUS
 10
6.85134
 20
5.55000
 30
 0
 40
0.03413
 50
101.16744
 51
162.75636
  0
LINE
  8
Engraving
 62
   2
 39
0.016
  6
CONTINUOUS
 10
6.81874
 20
5.56012
 30
 0
 11
6.80575
 21
5.56012
  0
LINE
  8
Engraving
 62
   2
 39
0.016
  6
CONTINUOUS
 10
6.80575
 20
5.56012
 30
 0
 11
6.79535
 21
5.55232
  0
LINE
  8
Engraving
 62
   2
 39
0.016
  6
CONTINUOUS
 10
6.79535
 20
5.55232
 30
 0
 11
6.82913
 21
5.55232
  0
ARC
  8
Engraving
 62
   2
 39
0.016
  6
CONTINUOUS
 10
6.85248
 20
5.55220
 30
 0
 40
0.02335
 50
476.34884
 51
179.71014
  0
ARC
  8
Engraving
 62
   2
 39
0.016
  6
CONTINUOUS
 10
6.86811
 20
5.51917
 30
 0
 40
0.05988
 50
424.27747
 51
115.72253
  0
ARC
  8
Engraving
 62
   2
 39
0.016
  6
CONTINUOUS
 10
6.88445
 20
5.55319
 30
 0
 40
0.02213
 50
281.61012
 51
64.16421
  0
LINE
  8
Engraving
 62
   2
 39
0.016
  6
CONTINUOUS
 10
6.88890
 20
5.53154
 30
 0
 11
6.83693
 21
5.52114
  0
ARC
  8
Engraving
 62
   2
 39
0.016
  6
CONTINUOUS
 10
6.85142
 20
5.44709
 30
 0
 40
0.07547
 50
101.06956
 51
135.10567
  0
ARC
  8
Engraving
 62
   2
 39
0.016
  6
CONTINUOUS
 10
6.83024
 20
5.46827
 30
 0
 40
0.04551
 50
135.17522
 51
251.95695
  0
ARC
  8
Engraving
 62
   2
 39
0.016
  6
CONTINUOUS
 10
6.84732
 20
5.52154
 30
 0
 40
0.10146
 50
-107.90054
 51
-72.09946
  0
ARC
  8
Engraving
 62
   2
 39
0.016
  6
CONTINUOUS
 10
6.86681
 20
5.46008
 30
 0
 40
0.03697
 50
-71.56505
 51
-18.43495
  0
ARC
  8
Engraving
 62
   2
 39
0.016
  6
CONTINUOUS
 10
6.96839
 20
5.46394
 30
 0
 40
0.06831
 50
-166.83703
 51
-145.23800
  0
LINE
  8
Engraving
 62
   2
 39
0.016
  6
CONTINUOUS
 10
6.91228
 20
5.42500
 30
 0
 11
6.95126
 21
5.42500
  0
ARC
  8
Engraving
 62
   2
 39
0.016
  6
CONTINUOUS
 10
6.95437
 20
5.43543
 30
 0
 40
0.01091
 50
180.20684
 51
-106.60001
  0
LINE
  8
Engraving
 62
   2
 39
0.016
  6
CONTINUOUS
 10
6.94346
 20
5.43539
 30
 0
 11
6.94346
 21
5.54713
  0
ARC
  8
Engraving
 62
   2
 39
0.016
  6
CONTINUOUS
 10
6.89465
 20
5.54815
 30
 0
 40
0.04882
 50
-1.20119
 51
62.11234
  0
ARC
  8
Engraving
 62
   2
 39
0.016
  6
CONTINUOUS
 10
6.86811
 20
5.49957
 30
 0
 40
0.10417
 50
61.71098
 51
118.28902
  0
ARC
  8
Engraving
 62
   2
 39
0.016
  6
CONTINUOUS
 10
6.83972
 20
5.55220
 30
 0
 40
0.04437
 50
118.22500
 51
179.84748
  0
LINE
  8
Engraving
 62
   2
 39
0.016
  6
CONTINUOUS
 10
7.04220
 20
5.59390
 30
 0
 11
7.04220
 21
5.36004
  0
LINE
  8
Engraving
 62
   2
 39
0.016
  6
CONTINUOUS
 10
7.04220
 20
5.36004
 30
 0
 11
7.02921
 21
5.36004
  0
LINE
  8
Engraving
 62
   2
 39
0.016
  6
CONTINUOUS
 10
7.02921
 20
5.36004
 30
 0
 11
7.02921
 21
5.59390
  0
LINE
  8
Engraving
 62
   2
 39
0.016
  6
CONTINUOUS
 10
7.02921
 20
5.59390
 30
 0
 11
7.04220
 21
5.59390
  0
LINE
  8
Engraving
 62
   2
 39
0.016
  6
CONTINUOUS
 10
7.04220
 20
5.59390
 30
 0
 11
7.04220
 21
5.52114
  0
ARC
  8
Engraving
 62
   2
 39
0.016
  6
CONTINUOUS
 10
7.12598
 20
5.51020
 30
 0
 40
0.08449
 50
486.28254
 51
172.55708
  0
ARC
  8
Engraving
 62
   2
 39
0.016
  6
CONTINUOUS
 10
7.10949
 20
5.53213
 30
 0
 40
0.05705
 50
431.11490
 51
125.96052
  0
ARC
  8
Engraving
 62
   2
 39
0.016
  6
CONTINUOUS
 10
7.10299
 20
5.52756
 30
 0
 40
0.06366
 50
375.46340
 51
66.90845
  0
ARC
  8
Engraving
 62
   2
 39
0.016
  6
CONTINUOUS
 10
7.04996
 20
5.51335
 30
 0
 40
0.11854
 50
344.74989
 51
15.25011
  0
ARC
  8
Engraving
 62
   2
 39
0.016
  6
CONTINUOUS
 10
7.10299
 20
5.49913
 30
 0
 40
0.06366
 50
293.09155
 51
-15.46340
  0
ARC
  8
Engraving
 62
   2
 39
0.016
  6
CONTINUOUS
 10
7.10732
 20
5.48323
 30
 0
 40
0.04736
 50
200.58950
 51
-64.18039
  0
ARC
  8
Engraving
 62
   2
 39
0.016
  6
CONTINUOUS
 10
7.10457
 20
5.48705
 30
 0
 40
0.04634
 50
-153.78325
 51
-26.21675
  0
ARC
  8
Engraving
 62
   2
 39
0.016
  6
CONTINUOUS
 10
7.04906
 20
5.51335
 30
 0
 40
0.10776
 50
-25.72253
 51
25.72253
  0
ARC
  8
Engraving
 62
   2
 39
0.016
  6
CONTINUOUS
 10
7.10457
 20
5.53965
 30
 0
 40
0.04634
 50
26.21675
 51
153.78325
  0
ARC
  8
Engraving
 62
   2
 39
0.016
  6
CONTINUOUS
 10
7.16008
 20
5.51335
 30
 0
 40
0.10776
 50
154.27747
 51
205.72253
  0
ARC
  8
Engraving
 62
   2
 39
0.016
  6
CONTINUOUS
 10
7.09996
 20
5.47110
 30
 0
 40
0.03724
 50
-173.01772
 51
-125.01682
  0
ARC
  8
Engraving
 62
   2
 39
0.016
  6
CONTINUOUS
 10
7.11201
 20
5.49323
 30
 0
 40
0.06236
 50
-122.41570
 51
-22.69501
  0
ARC
  8
Engraving
 62
   2
 39
0.016
  6
CONTINUOUS
 10
7.06169
 20
5.51335
 30
 0
 40
0.11654
 50
-22.27590
 51
22.27590
  0
ARC
  8
Engraving
 62
   2
 39
0.016
  6
CONTINUOUS
 10
7.11366
 20
5.53409
 30
 0
 40
0.06059
 50
22.74876
 51
125.37323
  0
ARC
  8
Engraving
 62
   2
 39
0.016
  6
CONTINUOUS
 10
7.11047
 20
5.52563
 30
 0
 40
0.06606
 50
118.85566
 51
151.14434
  0
LINE
  8
Engraving
 62
   2
 39
0.016
  6
CONTINUOUS
 10
7.05260
 20
5.55752
 30
 0
 11
7.05260
 21
5.59909
  0
LINE
  8
Engraving
 62
   2
 39
0.016
  6
CONTINUOUS
 10
7.05260
 20
5.59909
 30
 0
 11
7.01882
 21
5.59909
  0
LINE
  8
Engraving
 62
   2
 39
0.016
  6
CONTINUOUS
 10
7.01882
 20
5.59909
 30
 0
 11
7.01882
 21
5.35224
  0
LINE
  8
Engraving
 62
   2
 39
0.016
  6
CONTINUOUS
 10
7.01882
 20
5.35224
 30
 0
 11
7.05260
 21
5.35224
  0
LINE
  8
Engraving
 62
   2
 39
0.016
  6
CONTINUOUS
 10
7.05260
 20
5.35224
 30
 0
 11
7.05260
 21
5.47957
  0
LINE
  8
Engraving
 62
   2
 39
0.016
  6
CONTINUOUS
 10
7.05260
 20
5.47957
 30
 0
 11
7.05260
 21
5.46917
  0
ARC
  8
Engraving
 62
   2
 39
0.016
  6
CONTINUOUS
 10
7.11756
 20
5.49130
 30
 0
 40
0.06862
 50
-161.19085
 51
-18.80915
  0
ARC
  8
Engraving
 62
   2
 39
0.016
  6
CONTINUOUS
 10
7.05264
 20
5.51335
 30
 0
 40
0.13720
 50
-18.78333
 51
18.78333
  0
ARC
  8
Engraving
 62
   2
 39
0.016
  6
CONTINUOUS
 10
7.11756
 20
5.53539
 30
 0
 40
0.06862
 50
18.80915
 51
161.19085
  0
ARC
  8
Engraving
 62
   2
 39
0.016
  6
CONTINUOUS
 10
7.31500
 20
5.47827
 30
 0
 40
0.03949
 50
-170.52828
 51
-117.35687
  0
ARC
  8
Engraving
 62
   2
 39
0.016
  6
CONTINUOUS
 10
7.33370
 20
5.50772
 30
 0
 40
0.07429
 50
-119.72982
 51
-56.42777
  0
ARC
  8
Engraving
 62
   2
 39
0.016
  6
CONTINUOUS
 10
7.35579
 20
5.47154
 30
 0
 40
0.03201
 50
-53.55294
 51
79.14643
  0
LINE
  8
Engraving
 62
   2
 39
0.016
  6
CONTINUOUS
 10
7.36181
 20
5.50295
 30
 0
 11
7.30205
 21
5.51854
  0
ARC
  8
Engraving
 62
   2
 39
0.016
  6
CONTINUOUS
 10
7.31091
 20
5.55504
 30
 0
 40
0.03756
 50
116.32330
 51
-103.64291
  0
ARC
  8
Engraving
 62
   2
 39
0.016
  6
CONTINUOUS
 10
7.33205
 20
5.51173
 30
 0
 40
0.08575
 50
433.35366
 51
116.15328
  0
ARC
  8
Engraving
 62
   2
 39
0.016
  6
CONTINUOUS
 10
7.34327
 20
5.54417
 30
 0
 40
0.05150
 50
375.02455
 51
74.97545
  0
LINE
  8
Engraving
 62
   2
 39
0.016
  6
CONTINUOUS
 10
7.39299
 20
5.55752
 30
 0
 11
7.38260
 21
5.55752
  0
ARC
  8
Engraving
 62
   2
 39
0.016
  6
CONTINUOUS
 10
7.33713
 20
5.54453
 30
 0
 40
0.04728
 50
15.94540
 51
69.07550
  0
ARC
  8
Engraving
 62
   2
 39
0.016
  6
CONTINUOUS
 10
7.33138
 20
5.52929
 30
 0
 40
0.06358
 50
69.14081
 51
125.72740
  0
ARC
  8
Engraving
 62
   2
 39
0.016
  6
CONTINUOUS
 10
7.31240
 20
5.55567
 30
 0
 40
0.03110
 50
125.72326
 51
250.55594
  0
LINE
  8
Engraving
 62
   2
 39
0.016
  6
CONTINUOUS
 10
7.30205
 20
5.52634
 30
 0
 11
7.36701
 21
5.51075
  0
ARC
  8
Engraving
 62
   2
 39
0.016
  6
CONTINUOUS
 10
7.35776
 20
5.47394
 30
 0
 40
0.03795
 50
305.88316
 51
75.89169
  0
ARC
  8
Engraving
 62
   2
 39
0.016
  6
CONTINUOUS
 10
7.33071
 20
5.50764
 30
 0
 40
0.08114
 50
239.11728
 51
-52.59075
  0
ARC
  8
Engraving
 62
   2
 39
0.016
  6
CONTINUOUS
 10
7.31370
 20
5.47646
 30
 0
 40
0.04567
 50
185.88751
 51
-122.64919
  0
LINE
  8
Engraving
 62
   2
 39
0.016
  6
CONTINUOUS
 10
7.26827
 20
5.47177
 30
 0
 11
7.25787
 21
5.47697
  0
ARC
  8
Engraving
 62
   2
 39
0.016
  6
CONTINUOUS
 10
7.31020
 20
5.47807
 30
 0
 40
0.05232
 50
-178.79304
 51
-113.82682
  0
ARC
  8
Engraving
 62
   2
 39
0.016
  6
CONTINUOUS
 10
7.33193
 20
5.52272
 30
 0
 40
0.10197
 50
-114.86321
 51
-65.13679
  0
ARC
  8
Engraving
 62
   2
 39
0.016
  6
CONTINUOUS
 10
7.35236
 20
5.47602
 30
 0
 40
0.05102
 50
-63.90944
 51
1.06091
  0
ARC
  8
Engraving
 62
   2
 39
0.016
  6
CONTINUOUS
 10
7.36138
 20
5.47795
 30
 0
 40
0.04201
 50
-1.34220
 51
75.06512
  0
LINE
  8
Engraving
 62
   2
 39
0.016
  6
CONTINUOUS
 10
7.37220
 20
5.51854
 30
 0
 11
7.30724
 21
5.53413
  0
ARC
  8
Engraving
 62
   2
 39
0.016
  6
CONTINUOUS
 10
7.31157
 20
5.55665
 30
 0
 40
0.02291
 50
190.88553
 51
-100.88553
  0
ARC
  8
Engraving
 62
   2
 39
0.016
  6
CONTINUOUS
 10
7.31413
 20
5.55602
 30
 0
 40
0.02535
 50
118.47553
 51
-171.60563
  0
ARC
  8
Engraving
 62
   2
 39
0.016
  6
CONTINUOUS
 10
7.33063
 20
5.52874
 30
 0
 40
0.05720
 50
420.03018
 51
119.96982
  0
ARC
  8
Engraving
 62
   2
 39
0.016
  6
CONTINUOUS
 10
7.34449
 20
5.55181
 30
 0
 40
0.03031
 50
360.96724
 51
60.93817
  0
LINE
  8
Engraving
 62
   2
 39
0.016
  6
CONTINUOUS
 10
7.37480
 20
5.55232
 30
 0
 11
7.40079
 21
5.55232
  0
ARC
  8
Engraving
 62
   2
 39
0.016
  6
CONTINUOUS
 10
7.35287
 20
5.55264
 30
 0
 40
0.04791
 50
-0.37663
 51
66.21432
  0
ARC
  8
Engraving
 62
   2
 39
0.016
  6
CONTINUOUS
 10
7.33063
 20
5.50311
 30
 0
 40
0.10220
 50
66.00166
 51
113.99834
  0
ARC
  8
Engraving
 62
   2
 39
0.016
  6
CONTINUOUS
 10
7.30752
 20
5.55496
 30
 0
 40
0.04547
 50
113.96753
 51
256.43289
  0
LINE
  8
Engraving
 62
   2
 39
0.016
  6
CONTINUOUS
 10
7.29685
 20
5.51075
 30
 0
 11
7.35921
 21
5.49776
  0
ARC
  8
Engraving
 62
   2
 39
0.016
  6
CONTINUOUS
 10
7.35224
 20
5.47256
 30
 0
 40
0.02614
 50
304.38409
 51
74.54055
  0
ARC
  8
Engraving
 62
   2
 39
0.016
  6
CONTINUOUS
 10
7.33453
 20
5.49744
 30
 0
 40
0.05669
 50
235.04058
 51
-55.04058
  0
ARC
  8
Engraving
 62
   2
 39
0.016
  6
CONTINUOUS
 10
7.32122
 20
5.48016
 30
 0
 40
0.03492
 50
185.24123
 51
-123.31372
  0
LINE
  8
Engraving
 62
   2
 39
0.016
  6
CONTINUOUS
 10
7.28646
 20
5.47697
 30
 0
 11
7.25787
 21
5.47697
  0
LINE
  8
Engraving
 62
   2
 39
0.016
  6
CONTINUOUS
 10
7.50732
 20
5.52114
 30
 0
 11
7.61906
 21
5.52114
  0
ARC
  8
Engraving
 62
   2
 39
0.016
  6
CONTINUOUS
 10
7.54654
 20
5.51976
 30
 0
 40
0.07252
 50
1.08855
 51
47.35390
  0
ARC
  8
Engraving
 62
   2
 39
0.016
  6
CONTINUOUS
 10
7.55398
 20
5.52996
 30
 0
 40
0.06000
 50
45.98364
 51
130.34449
  0
ARC
  8
Engraving
 62
   2
 39
0.016
  6
CONTINUOUS
 10
7.58024
 20
5.51335
 30
 0
 40
0.09016
 50
136.23844
 51
223.76156
  0
ARC
  8
Engraving
 62
   2
 39
0.016
  6
CONTINUOUS
 10
7.55429
 20
5.49362
 30
 0
 40
0.05791
 50
-132.57506
 51
-51.34627
  0
ARC
  8
Engraving
 62
   2
 39
0.016
  6
CONTINUOUS
 10
7.52839
 20
5.52346
 30
 0
 40
0.09744
 50
-50.41084
 51
-39.58916
  0
LINE
  8
Engraving
 62
   2
 39
0.016
  6
CONTINUOUS
 10
7.60346
 20
5.46138
 30
 0
 11
7.61646
 21
5.46138
  0
ARC
  8
Engraving
 62
   2
 39
0.016
  6
CONTINUOUS
 10
7.55441
 20
5.50311
 30
 0
 40
0.07476
 50
192.16220
 51
-33.92434
  0
ARC
  8
Engraving
 62
   2
 39
0.016
  6
CONTINUOUS
 10
7.58980
 20
5.51335
 30
 0
 40
0.11154
 50
166.52787
 51
-166.52787
  0
ARC
  8
Engraving
 62
   2
 39
0.016
  6
CONTINUOUS
 10
7.55154
 20
5.52516
 30
 0
 40
0.07161
 50
414.55385
 51
168.58505
  0
ARC
  8
Engraving
 62
   2
 39
0.016
  6
CONTINUOUS
 10
7.54961
 20
5.51346
 30
 0
 40
0.08244
 50
359.91791
 51
58.17736
  0
LINE
  8
Engraving
 62
   2
 39
0.016
  6
CONTINUOUS
 10
7.63205
 20
5.51335
 30
 0
 11
7.50213
 21
5.51335
  0
LINE
  8
Engraving
 62
   2
 39
0.016
  6
CONTINUOUS
 10
7.50213
 20
5.51335
 30
 0
 11
7.50213
 21
5.52894
  0
LINE
  8
Engraving
 62
   2
 39
0.016
  6
CONTINUOUS
 10
7.50213
 20
5.52894
 30
 0
 11
7.60606
 21
5.52894
  0
ARC
  8
Engraving
 62
   2
 39
0.016
  6
CONTINUOUS
 10
7.51098
 20
5.51177
 30
 0
 40
0.09661
 50
10.23385
 51
31.82471
  0
ARC
  8
Engraving
 62
   2
 39
0.016
  6
CONTINUOUS
 10
7.55409
 20
5.53878
 30
 0
 40
0.04575
 50
31.55581
 51
148.44419
  0
ARC
  8
Engraving
 62
   2
 39
0.016
  6
CONTINUOUS
 10
7.59524
 20
5.51335
 30
 0
 40
0.09409
 50
148.35795
 51
211.64205
  0
ARC
  8
Engraving
 62
   2
 39
0.016
  6
CONTINUOUS
 10
7.55402
 20
5.48815
 30
 0
 40
0.04579
 50
-148.14081
 51
-24.49290
  0
LINE
  8
Engraving
 62
   2
 39
0.016
  6
CONTINUOUS
 10
7.59567
 20
5.46917
 30
 0
 11
7.63205
 21
5.46917
  0
ARC
  8
Engraving
 62
   2
 39
0.016
  6
CONTINUOUS
 10
7.54539
 20
5.51622
 30
 0
 40
0.09858
 50
309.91395
 51
-28.49909
  0
ARC
  8
Engraving
 62
   2
 39
0.016
  6
CONTINUOUS
 10
7.55539
 20
5.50449
 30
 0
 40
0.08319
 50
230.18401
 51
-50.18401
  0
ARC
  8
Engraving
 62
   2
 39
0.016
  6
CONTINUOUS
 10
7.56350
 20
5.51335
 30
 0
 40
0.09520
 50
130.15147
 51
-130.15147
  0
ARC
  8
Engraving
 62
   2
 39
0.016
  6
CONTINUOUS
 10
7.55409
 20
5.52378
 30
 0
 40
0.08114
 50
410.17663
 51
129.82337
  0
ARC
  8
Engraving
 62
   2
 39
0.016
  6
CONTINUOUS
 10
7.54016
 20
5.50787
 30
 0
 40
0.10228
 50
360.15438
 51
49.88666
  0
LINE
  8
Engraving
 62
   2
 39
0.016
  6
CONTINUOUS
 10
7.64244
 20
5.50815
 30
 0
 11
7.50213
 21
5.50815
  0
LINE
  8
Engraving
 62
   2
 39
0.016
  6
CONTINUOUS
 10
5.60220
 20
5.23709
 30
 0
 11
5.59181
 21
5.23709
  0
LINE
  8
Engraving
 62
   2
 39
0.016
  6
CONTINUOUS
 10
5.59181
 20
5.23709
 30
 0
 11
5.57882
 21
5.25787
  0
ARC
  8
Engraving
 62
   2
 39
0.016
  6
CONTINUOUS
 10
5.51598
 20
5.20185
 30
 0
 40
0.08417
 50
41.72032
 51
142.85137
  0
ARC
  8
Engraving
 62
   2
 39
0.016
  6
CONTINUOUS
 10
5.56752
 20
5.17472
 30
 0
 40
0.14193
 50
146.68899
 51
213.31101
  0
ARC
  8
Engraving
 62
   2
 39
0.016
  6
CONTINUOUS
 10
5.51610
 20
5.14449
 30
 0
 40
0.08244
 50
-144.62458
 51
-37.60863
  0
LINE
  8
Engraving
 62
   2
 39
0.016
  6
CONTINUOUS
 10
5.58142
 20
5.09417
 30
 0
 11
5.59961
 21
5.12535
  0
LINE
  8
Engraving
 62
   2
 39
0.016
  6
CONTINUOUS
 10
5.59961
 20
5.12535
 30
 0
 11
5.61000
 21
5.12535
  0
ARC
  8
Engraving
 62
   2
 39
0.016
  6
CONTINUOUS
 10
5.48921
 20
5.17268
 30
 0
 40
0.12972
 50
324.18741
 51
-21.39456
  0
ARC
  8
Engraving
 62
   2
 39
0.016
  6
CONTINUOUS
 10
5.51646
 20
5.14602
 30
 0
 40
0.09220
 50
212.28544
 51
-32.28544
  0
ARC
  8
Engraving
 62
   2
 39
0.016
  6
CONTINUOUS
 10
5.54346
 20
5.17472
 30
 0
 40
0.13075
 50
143.39926
 51
-143.39926
  0
ARC
  8
Engraving
 62
   2
 39
0.016
  6
CONTINUOUS
 10
5.51646
 20
5.20343
 30
 0
 40
0.09220
 50
392.28544
 51
147.71456
  0
ARC
  8
Engraving
 62
   2
 39
0.016
  6
CONTINUOUS
 10
5.51724
 20
5.18028
 30
 0
 40
0.10583
 50
394.15717
 51
43.17572
  0
LINE
  8
Engraving
 62
   2
 39
0.016
  6
CONTINUOUS
 10
5.60480
 20
5.23969
 30
 0
 11
5.62299
 21
5.22929
  0
LINE
  8
Engraving
 62
   2
 39
0.016
  6
CONTINUOUS
 10
5.62299
 20
5.22929
 30
 0
 11
5.58661
 21
5.22929
  0
ARC
  8
Engraving
 62
   2
 39
0.016
  6
CONTINUOUS
 10
5.51646
 20
5.20378
 30
 0
 40
0.07465
 50
19.98311
 51
160.01689
  0
ARC
  8
Engraving
 62
   2
 39
0.016
  6
CONTINUOUS
 10
5.59909
 20
5.17472
 30
 0
 40
0.16224
 50
160.34711
 51
199.65289
  0
ARC
  8
Engraving
 62
   2
 39
0.016
  6
CONTINUOUS
 10
5.51646
 20
5.14567
 30
 0
 40
0.07465
 50
-160.01689
 51
-19.98311
  0
ARC
  8
Engraving
 62
   2
 39
0.016
  6
CONTINUOUS
 10
5.42295
 20
5.16657
 30
 0
 40
0.17012
 50
-15.83429
 51
-12.22534
  0
LINE
  8
Engraving
 62
   2
 39
0.016
  6
CONTINUOUS
 10
5.58921
 20
5.13055
 30
 0
 11
5.62559
 21
5.13055
  0
ARC
  8
Engraving
 62
   2
 39
0.016
  6
CONTINUOUS
 10
5.48402
 20
5.17535
 30
 0
 40
0.14850
 50
324.43054
 51
-17.56064
  0
ARC
  8
Engraving
 62
   2
 39
0.016
  6
CONTINUOUS
 10
5.51646
 20
5.15437
 30
 0
 40
0.10992
 50
216.50870
 51
-36.50870
  0
ARC
  8
Engraving
 62
   2
 39
0.016
  6
CONTINUOUS
 10
5.54358
 20
5.17472
 30
 0
 40
0.14382
 50
143.40300
 51
-143.40300
  0
ARC
  8
Engraving
 62
   2
 39
0.016
  6
CONTINUOUS
 10
5.51646
 20
5.19508
 30
 0
 40
0.10992
 50
396.50870
 51
143.49130
  0
ARC
  8
Engraving
 62
   2
 39
0.016
  6
CONTINUOUS
 10
5.49067
 20
5.17299
 30
 0
 40
0.14382
 50
383.04823
 51
37.46913
  0
ARC
  8
Engraving
 62
   2
 39
0.016
  6
CONTINUOUS
 10
5.75850
 20
5.17173
 30
 0
 40
0.04654
 50
466.71782
 51
163.28218
  0
ARC
  8
Engraving
 62
   2
 39
0.016
  6
CONTINUOUS
 10
5.77457
 20
5.11657
 30
 0
 40
0.10398
 50
425.38547
 51
106.45198
  0
ARC
  8
Engraving
 62
   2
 39
0.016
  6
CONTINUOUS
 10
5.80299
 20
5.17866
 30
 0
 40
0.03571
 50
362.02285
 51
65.35728
  0
LINE
  8
Engraving
 62
   2
 39
0.016
  6
CONTINUOUS
 10
5.83866
 20
5.17992
 30
 0
 11
5.83866
 21
5.06299
  0
LINE
  8
Engraving
 62
   2
 39
0.016
  6
CONTINUOUS
 10
5.83866
 20
5.06299
 30
 0
 11
5.84386
 21
5.05260
  0
LINE
  8
Engraving
 62
   2
 39
0.016
  6
CONTINUOUS
 10
5.84386
 20
5.05260
 30
 0
 11
5.83087
 21
5.08118
  0
LINE
  8
Engraving
 62
   2
 39
0.016
  6
CONTINUOUS
 10
5.83087
 20
5.08118
 30
 0
 11
5.83087
 21
5.05520
  0
LINE
  8
Engraving
 62
   2
 39
0.016
  6
CONTINUOUS
 10
5.83087
 20
5.05520
 30
 0
 11
5.82047
 21
5.07339
  0
LINE
  8
Engraving
 62
   2
 39
0.016
  6
CONTINUOUS
 10
5.82047
 20
5.07339
 30
 0
 11
5.83087
 21
5.09677
  0
ARC
  8
Engraving
 62
   2
 39
0.016
  6
CONTINUOUS
 10
5.76551
 20
5.14780
 30
 0
 40
0.08291
 50
277.47598
 51
-37.97997
  0
ARC
  8
Engraving
 62
   2
 39
0.016
  6
CONTINUOUS
 10
5.76020
 20
5.13366
 30
 0
 40
0.06996
 50
243.99736
 51
-76.69116
  0
ARC
  8
Engraving
 62
   2
 39
0.016
  6
CONTINUOUS
 10
5.74598
 20
5.09677
 30
 0
 40
0.03075
 50
122.34744
 51
-122.34744
  0
ARC
  8
Engraving
 62
   2
 39
0.016
  6
CONTINUOUS
 10
5.68126
 20
5.35224
 30
 0
 40
0.23453
 50
-78.12224
 51
-51.18096
  0
LINE
  8
Engraving
 62
   2
 39
0.016
  6
CONTINUOUS
 10
5.82827
 20
5.16953
 30
 0
 11
5.81528
 21
5.15134
  0
LINE
  8
Engraving
 62
   2
 39
0.016
  6
CONTINUOUS
 10
5.81528
 20
5.15134
 30
 0
 11
5.81528
 21
5.11236
  0
ARC
  8
Engraving
 62
   2
 39
0.016
  6
CONTINUOUS
 10
5.77169
 20
5.11256
 30
 0
 40
0.04358
 50
286.53561
 51
-0.25879
  0
ARC
  8
Engraving
 62
   2
 39
0.016
  6
CONTINUOUS
 10
5.76807
 20
5.12504
 30
 0
 40
0.05657
 50
240.15123
 51
-73.54520
  0
ARC
  8
Engraving
 62
   2
 39
0.016
  6
CONTINUOUS
 10
5.75142
 20
5.09642
 30
 0
 40
0.02346
 50
145.32309
 51
-119.36299
  0
ARC
  8
Engraving
 62
   2
 39
0.016
  6
CONTINUOUS
 10
5.76941
 20
5.08413
 30
 0
 40
0.04524
 50
464.45940
 51
145.49404
  0
ARC
  8
Engraving
 62
   2
 39
0.016
  6
CONTINUOUS
 10
5.61134
 20
5.71051
 30
 0
 40
0.60075
 50
-75.85903
 51
-72.25018
  0
ARC
  8
Engraving
 62
   2
 39
0.016
  6
CONTINUOUS
 10
5.77953
 20
5.18543
 30
 0
 40
0.04941
 50
-72.37361
 51
-43.64376
  0
LINE
  8
Engraving
 62
   2
 39
0.016
  6
CONTINUOUS
 10
5.81528
 20
5.15134
 30
 0
 11
5.82827
 21
5.17732
  0
LINE
  8
Engraving
 62
   2
 39
0.016
  6
CONTINUOUS
 10
5.82827
 20
5.17732
 30
 0
 11
5.82827
 21
5.11496
  0
ARC
  8
Engraving
 62
   2
 39
0.016
  6
CONTINUOUS
 10
5.75417
 20
5.13165
 30
 0
 40
0.07594
 50
244.71034
 51
-12.69632
  0
ARC
  8
Engraving
 62
   2
 39
0.016
  6
CONTINUOUS
 10
5.73764
 20
5.09346
 30
 0
 40
0.03437
 50
156.49096
 51
-117.56293
  0
ARC
  8
Engraving
 62
   2
 39
0.016
  6
CONTINUOUS
 10
5.74846
 20
5.08929
 30
 0
 40
0.04594
 50
467.39502
 51
157.10442
  0
ARC
  8
Engraving
 62
   2
 39
0.016
  6
CONTINUOUS
 10
5.62413
 20
5.62260
 30
 0
 40
0.50177
 50
-77.26786
 51
-68.24951
  0
ARC
  8
Engraving
 62
   2
 39
0.016
  6
CONTINUOUS
 10
5.79776
 20
5.18197
 30
 0
 40
0.02827
 50
-64.14888
 51
69.87369
  0
ARC
  8
Engraving
 62
   2
 39
0.016
  6
CONTINUOUS
 10
5.78020
 20
5.11937
 30
 0
 40
0.09323
 50
72.98089
 51
107.01911
  0
ARC
  8
Engraving
 62
   2
 39
0.016
  6
CONTINUOUS
 10
5.75953
 20
5.17500
 30
 0
 40
0.03413
 50
101.16744
 51
162.75636
  0
LINE
  8
Engraving
 62
   2
 39
0.016
  6
CONTINUOUS
 10
5.72693
 20
5.18512
 30
 0
 11
5.71394
 21
5.18512
  0
LINE
  8
Engraving
 62
   2
 39
0.016
  6
CONTINUOUS
 10
5.71394
 20
5.18512
 30
 0
 11
5.70354
 21
5.17732
  0
LINE
  8
Engraving
 62
   2
 39
0.016
  6
CONTINUOUS
 10
5.70354
 20
5.17732
 30
 0
 11
5.73732
 21
5.17732
  0
ARC
  8
Engraving
 62
   2
 39
0.016
  6
CONTINUOUS
 10
5.76067
 20
5.17720
 30
 0
 40
0.02335
 50
476.34884
 51
179.71014
  0
ARC
  8
Engraving
 62
   2
 39
0.016
  6
CONTINUOUS
 10
5.77630
 20
5.14417
 30
 0
 40
0.05988
 50
424.27747
 51
115.72253
  0
ARC
  8
Engraving
 62
   2
 39
0.016
  6
CONTINUOUS
 10
5.79264
 20
5.17819
 30
 0
 40
0.02213
 50
281.61012
 51
64.16421
  0
LINE
  8
Engraving
 62
   2
 39
0.016
  6
CONTINUOUS
 10
5.79709
 20
5.15654
 30
 0
 11
5.74512
 21
5.14614
  0
ARC
  8
Engraving
 62
   2
 39
0.016
  6
CONTINUOUS
 10
5.75961
 20
5.07209
 30
 0
 40
0.07547
 50
101.06956
 51
135.10567
  0
ARC
  8
Engraving
 62
   2
 39
0.016
  6
CONTINUOUS
 10
5.73843
 20
5.09327
 30
 0
 40
0.04551
 50
135.17522
 51
251.95695
  0
ARC
  8
Engraving
 62
   2
 39
0.016
  6
CONTINUOUS
 10
5.75551
 20
5.14654
 30
 0
 40
0.10146
 50
-107.90054
 51
-72.09946
  0
ARC
  8
Engraving
 62
   2
 39
0.016
  6
CONTINUOUS
 10
5.77500
 20
5.08508
 30
 0
 40
0.03697
 50
-71.56505
 51
-18.43495
  0
ARC
  8
Engraving
 62
   2
 39
0.016
  6
CONTINUOUS
 10
5.87657
 20
5.08894
 30
 0
 40
0.06831
 50
-166.83703
 51
-145.23800
  0
LINE
  8
Engraving
 62
   2
 39
0.016
  6
CONTINUOUS
 10
5.82047
 20
5.05000
 30
 0
 11
5.85945
 21
5.05000
  0
ARC
  8
Engraving
 62
   2
 39
0.016
  6
CONTINUOUS
 10
5.86256
 20
5.06043
 30
 0
 40
0.01091
 50
180.20684
 51
-106.60001
  0
LINE
  8
Engraving
 62
   2
 39
0.016
  6
CONTINUOUS
 10
5.85165
 20
5.06039
 30
 0
 11
5.85165
 21
5.17213
  0
ARC
  8
Engraving
 62
   2
 39
0.016
  6
CONTINUOUS
 10
5.80283
 20
5.17315
 30
 0
 40
0.04882
 50
-1.20119
 51
62.11234
  0
ARC
  8
Engraving
 62
   2
 39
0.016
  6
CONTINUOUS
 10
5.77630
 20
5.12457
 30
 0
 40
0.10417
 50
61.71098
 51
118.28902
  0
ARC
  8
Engraving
 62
   2
 39
0.016
  6
CONTINUOUS
 10
5.74791
 20
5.17720
 30
 0
 40
0.04437
 50
118.22500
 51
179.84748
  0
LINE
  8
Engraving
 62
   2
 39
0.016
  6
CONTINUOUS
 10
5.94780
 20
5.21890
 30
 0
 11
5.94780
 21
5.05520
  0
LINE
  8
Engraving
 62
   2
 39
0.016
  6
CONTINUOUS
 10
5.94780
 20
5.05520
 30
 0
 11
5.93740
 21
5.05520
  0
LINE
  8
Engraving
 62
   2
 39
0.016
  6
CONTINUOUS
 10
5.93740
 20
5.05520
 30
 0
 11
5.93740
 21
5.21890
  0
LINE
  8
Engraving
 62
   2
 39
0.016
  6
CONTINUOUS
 10
5.93740
 20
5.21890
 30
 0
 11
5.94780
 21
5.21890
  0
LINE
  8
Engraving
 62
   2
 39
0.016
  6
CONTINUOUS
 10
5.94780
 20
5.21890
 30
 0
 11
5.94780
 21
5.15654
  0
LINE
  8
Engraving
 62
   2
 39
0.016
  6
CONTINUOUS
 10
5.94780
 20
5.15654
 30
 0
 11
5.96079
 21
5.18512
  0
ARC
  8
Engraving
 62
   2
 39
0.016
  6
CONTINUOUS
 10
6.00547
 20
5.16543
 30
 0
 40
0.04882
 50
441.41896
 51
156.22513
  0
ARC
  8
Engraving
 62
   2
 39
0.016
  6
CONTINUOUS
 10
6.00150
 20
5.16209
 30
 0
 40
0.05283
 50
359.61576
 51
77.69350
  0
LINE
  8
Engraving
 62
   2
 39
0.016
  6
CONTINUOUS
 10
6.05433
 20
5.16173
 30
 0
 11
6.05433
 21
5.05520
  0
LINE
  8
Engraving
 62
   2
 39
0.016
  6
CONTINUOUS
 10
6.05433
 20
5.05520
 30
 0
 11
6.06472
 21
5.05520
  0
LINE
  8
Engraving
 62
   2
 39
0.016
  6
CONTINUOUS
 10
6.06472
 20
5.05520
 30
 0
 11
6.06472
 21
5.15654
  0
ARC
  8
Engraving
 62
   2
 39
0.016
  6
CONTINUOUS
 10
6.19421
 20
5.11780
 30
 0
 40
0.13516
 50
503.54069
 51
163.34392
  0
ARC
  8
Engraving
 62
   2
 39
0.016
  6
CONTINUOUS
 10
6.12319
 20
5.16173
 30
 0
 40
0.05236
 50
442.87498
 51
136.00509
  0
ARC
  8
Engraving
 62
   2
 39
0.016
  6
CONTINUOUS
 10
6.11843
 20
5.16209
 30
 0
 40
0.05283
 50
359.61576
 51
77.69350
  0
LINE
  8
Engraving
 62
   2
 39
0.016
  6
CONTINUOUS
 10
6.17126
 20
5.16173
 30
 0
 11
6.17126
 21
5.05520
  0
LINE
  8
Engraving
 62
   2
 39
0.016
  6
CONTINUOUS
 10
6.17126
 20
5.05520
 30
 0
 11
6.18165
 21
5.05520
  0
LINE
  8
Engraving
 62
   2
 39
0.016
  6
CONTINUOUS
 10
6.18165
 20
5.05520
 30
 0
 11
6.18165
 21
5.16173
  0
ARC
  8
Engraving
 62
   2
 39
0.016
  6
CONTINUOUS
 10
6.10843
 20
5.15469
 30
 0
 40
0.07358
 50
5.49702
 51
50.05706
  0
ARC
  8
Engraving
 62
   2
 39
0.016
  6
CONTINUOUS
 10
6.12551
 20
5.17811
 30
 0
 40
0.04469
 50
47.57016
 51
127.19303
  0
ARC
  8
Engraving
 62
   2
 39
0.016
  6
CONTINUOUS
 10
6.20094
 20
5.11461
 30
 0
 40
0.14252
 50
135.95130
 51
162.89145
  0
ARC
  8
Engraving
 62
   2
 39
0.016
  6
CONTINUOUS
 10
5.99906
 20
5.16028
 30
 0
 40
0.06579
 50
-3.25973
 51
58.38351
  0
ARC
  8
Engraving
 62
   2
 39
0.016
  6
CONTINUOUS
 10
6.00736
 20
5.16713
 30
 0
 40
0.05571
 50
61.96800
 51
111.68864
  0
ARC
  8
Engraving
 62
   2
 39
0.016
  6
CONTINUOUS
 10
6.02217
 20
5.15996
 30
 0
 40
0.06874
 50
120.98627
 51
158.53372
  0
LINE
  8
Engraving
 62
   2
 39
0.016
  6
CONTINUOUS
 10
5.95819
 20
5.18512
 30
 0
 11
5.95819
 21
5.22669
  0
LINE
  8
Engraving
 62
   2
 39
0.016
  6
CONTINUOUS
 10
5.95819
 20
5.22669
 30
 0
 11
5.92701
 21
5.22669
  0
LINE
  8
Engraving
 62
   2
 39
0.016
  6
CONTINUOUS
 10
5.92701
 20
5.22669
 30
 0
 11
5.92701
 21
5.05000
  0
LINE
  8
Engraving
 62
   2
 39
0.016
  6
CONTINUOUS
 10
5.92701
 20
5.05000
 30
 0
 11
5.95819
 21
5.05000
  0
LINE
  8
Engraving
 62
   2
 39
0.016
  6
CONTINUOUS
 10
5.95819
 20
5.05000
 30
 0
 11
5.95819
 21
5.16173
  0
ARC
  8
Engraving
 62
   2
 39
0.016
  6
CONTINUOUS
 10
6.00717
 20
5.16154
 30
 0
 40
0.04898
 50
481.49287
 51
179.76971
  0
ARC
  8
Engraving
 62
   2
 39
0.016
  6
CONTINUOUS
 10
6.00106
 20
5.17169
 30
 0
 40
0.03713
 50
418.34873
 51
121.65127
  0
ARC
  8
Engraving
 62
   2
 39
0.016
  6
CONTINUOUS
 10
5.99496
 20
5.16154
 30
 0
 40
0.04898
 50
360.23029
 51
58.50713
  0
LINE
  8
Engraving
 62
   2
 39
0.016
  6
CONTINUOUS
 10
6.04394
 20
5.16173
 30
 0
 11
6.04394
 21
5.05000
  0
LINE
  8
Engraving
 62
   2
 39
0.016
  6
CONTINUOUS
 10
6.04394
 20
5.05000
 30
 0
 11
6.07512
 21
5.05000
  0
LINE
  8
Engraving
 62
   2
 39
0.016
  6
CONTINUOUS
 10
6.07512
 20
5.05000
 30
 0
 11
6.07512
 21
5.16173
  0
ARC
  8
Engraving
 62
   2
 39
0.016
  6
CONTINUOUS
 10
6.12409
 20
5.16154
 30
 0
 40
0.04898
 50
481.49287
 51
179.76971
  0
ARC
  8
Engraving
 62
   2
 39
0.016
  6
CONTINUOUS
 10
6.11799
 20
5.17169
 30
 0
 40
0.03713
 50
418.34873
 51
121.65127
  0
ARC
  8
Engraving
 62
   2
 39
0.016
  6
CONTINUOUS
 10
6.11189
 20
5.16154
 30
 0
 40
0.04898
 50
360.23029
 51
58.50713
  0
LINE
  8
Engraving
 62
   2
 39
0.016
  6
CONTINUOUS
 10
6.16087
 20
5.16173
 30
 0
 11
6.16087
 21
5.05000
  0
LINE
  8
Engraving
 62
   2
 39
0.016
  6
CONTINUOUS
 10
6.16087
 20
5.05000
 30
 0
 11
6.19205
 21
5.05000
  0
LINE
  8
Engraving
 62
   2
 39
0.016
  6
CONTINUOUS
 10
6.19205
 20
5.05000
 30
 0
 11
6.19205
 21
5.16173
  0
ARC
  8
Engraving
 62
   2
 39
0.016
  6
CONTINUOUS
 10
6.12063
 20
5.16177
 30
 0
 40
0.07142
 50
-0.03159
 51
53.13642
  0
ARC
  8
Engraving
 62
   2
 39
0.016
  6
CONTINUOUS
 10
6.13098
 20
5.17516
 30
 0
 40
0.05449
 50
53.40337
 51
126.59663
  0
ARC
  8
Engraving
 62
   2
 39
0.016
  6
CONTINUOUS
 10
6.14283
 20
5.16118
 30
 0
 40
0.07280
 50
127.52702
 51
165.07657
  0
ARC
  8
Engraving
 62
   2
 39
0.016
  6
CONTINUOUS
 10
6.00220
 20
5.16118
 30
 0
 40
0.07276
 50
14.92343
 51
52.47298
  0
ARC
  8
Engraving
 62
   2
 39
0.016
  6
CONTINUOUS
 10
6.01406
 20
5.17516
 30
 0
 40
0.05449
 50
53.40337
 51
126.59663
  0
ARC
  8
Engraving
 62
   2
 39
0.016
  6
CONTINUOUS
 10
6.01957
 20
5.16760
 30
 0
 40
0.06382
 50
126.52360
 51
164.06917
  0
LINE
  8
Engraving
 62
   2
 39
0.016
  6
CONTINUOUS
 10
6.29598
 20
5.14614
 30
 0
 11
6.40772
 21
5.14614
  0
ARC
  8
Engraving
 62
   2
 39
0.016
  6
CONTINUOUS
 10
6.33520
 20
5.14476
 30
 0
 40
0.07252
 50
1.08855
 51
47.35390
  0
ARC
  8
Engraving
 62
   2
 39
0.016
  6
CONTINUOUS
 10
6.34264
 20
5.15496
 30
 0
 40
0.06000
 50
45.98364
 51
130.34449
  0
ARC
  8
Engraving
 62
   2
 39
0.016
  6
CONTINUOUS
 10
6.36890
 20
5.13835
 30
 0
 40
0.09016
 50
136.23844
 51
223.76156
  0
ARC
  8
Engraving
 62
   2
 39
0.016
  6
CONTINUOUS
 10
6.34295
 20
5.11862
 30
 0
 40
0.05791
 50
-132.57506
 51
-51.34627
  0
ARC
  8
Engraving
 62
   2
 39
0.016
  6
CONTINUOUS
 10
6.31705
 20
5.14846
 30
 0
 40
0.09744
 50
-50.41084
 51
-39.58916
  0
LINE
  8
Engraving
 62
   2
 39
0.016
  6
CONTINUOUS
 10
6.39213
 20
5.08638
 30
 0
 11
6.40512
 21
5.08638
  0
ARC
  8
Engraving
 62
   2
 39
0.016
  6
CONTINUOUS
 10
6.34307
 20
5.12811
 30
 0
 40
0.07476
 50
192.16220
 51
-33.92434
  0
ARC
  8
Engraving
 62
   2
 39
0.016
  6
CONTINUOUS
 10
6.37846
 20
5.13835
 30
 0
 40
0.11154
 50
166.52787
 51
-166.52787
  0
ARC
  8
Engraving
 62
   2
 39
0.016
  6
CONTINUOUS
 10
6.34020
 20
5.15016
 30
 0
 40
0.07161
 50
414.55385
 51
168.58505
  0
ARC
  8
Engraving
 62
   2
 39
0.016
  6
CONTINUOUS
 10
6.33827
 20
5.13846
 30
 0
 40
0.08244
 50
359.91791
 51
58.17736
  0
LINE
  8
Engraving
 62
   2
 39
0.016
  6
CONTINUOUS
 10
6.42071
 20
5.13835
 30
 0
 11
6.29079
 21
5.13835
  0
LINE
  8
Engraving
 62
   2
 39
0.016
  6
CONTINUOUS
 10
6.29079
 20
5.13835
 30
 0
 11
6.29079
 21
5.15394
  0
LINE
  8
Engraving
 62
   2
 39
0.016
  6
CONTINUOUS
 10
6.29079
 20
5.15394
 30
 0
 11
6.39472
 21
5.15394
  0
ARC
  8
Engraving
 62
   2
 39
0.016
  6
CONTINUOUS
 10
6.29965
 20
5.13677
 30
 0
 40
0.09661
 50
10.23385
 51
31.82471
  0
ARC
  8
Engraving
 62
   2
 39
0.016
  6
CONTINUOUS
 10
6.34276
 20
5.16378
 30
 0
 40
0.04575
 50
31.55581
 51
148.44419
  0
ARC
  8
Engraving
 62
   2
 39
0.016
  6
CONTINUOUS
 10
6.38390
 20
5.13835
 30
 0
 40
0.09409
 50
148.35795
 51
211.64205
  0
ARC
  8
Engraving
 62
   2
 39
0.016
  6
CONTINUOUS
 10
6.34268
 20
5.11315
 30
 0
 40
0.04579
 50
-148.14081
 51
-24.49290
  0
LINE
  8
Engraving
 62
   2
 39
0.016
  6
CONTINUOUS
 10
6.38433
 20
5.09417
 30
 0
 11
6.42071
 21
5.09417
  0
ARC
  8
Engraving
 62
   2
 39
0.016
  6
CONTINUOUS
 10
6.33406
 20
5.14122
 30
 0
 40
0.09858
 50
309.91395
 51
-28.49909
  0
ARC
  8
Engraving
 62
   2
 39
0.016
  6
CONTINUOUS
 10
6.34406
 20
5.12949
 30
 0
 40
0.08319
 50
230.18401
 51
-50.18401
  0
ARC
  8
Engraving
 62
   2
 39
0.016
  6
CONTINUOUS
 10
6.35217
 20
5.13835
 30
 0
 40
0.09520
 50
130.15147
 51
-130.15147
  0
ARC
  8
Engraving
 62
   2
 39
0.016
  6
CONTINUOUS
 10
6.34276
 20
5.14878
 30
 0
 40
0.08114
 50
410.17663
 51
129.82337
  0
ARC
  8
Engraving
 62
   2
 39
0.016
  6
CONTINUOUS
 10
6.32882
 20
5.13287
 30
 0
 40
0.10228
 50
360.15438
 51
49.88666
  0
LINE
  8
Engraving
 62
   2
 39
0.016
  6
CONTINUOUS
 10
6.43110
 20
5.13315
 30
 0
 11
6.29079
 21
5.13315
  0
LINE
  8
Engraving
 62
   2
 39
0.016
  6
CONTINUOUS
 10
6.52205
 20
5.21890
 30
 0
 11
6.52205
 21
5.05520
  0
LINE
  8
Engraving
 62
   2
 39
0.016
  6
CONTINUOUS
 10
6.52205
 20
5.05520
 30
 0
 11
6.50906
 21
5.05520
  0
LINE
  8
Engraving
 62
   2
 39
0.016
  6
CONTINUOUS
 10
6.50906
 20
5.05520
 30
 0
 11
6.50906
 21
5.21890
  0
LINE
  8
Engraving
 62
   2
 39
0.016
  6
CONTINUOUS
 10
6.50906
 20
5.21890
 30
 0
 11
6.52205
 21
5.21890
  0
LINE
  8
Engraving
 62
   2
 39
0.016
  6
CONTINUOUS
 10
6.52205
 20
5.21890
 30
 0
 11
6.52205
 21
5.14874
  0
LINE
  8
Engraving
 62
   2
 39
0.016
  6
CONTINUOUS
 10
6.52205
 20
5.14874
 30
 0
 11
6.53764
 21
5.18512
  0
ARC
  8
Engraving
 62
   2
 39
0.016
  6
CONTINUOUS
 10
6.58933
 20
5.16248
 30
 0
 40
0.05642
 50
449.72012
 51
156.35002
  0
LINE
  8
Engraving
 62
   2
 39
0.016
  6
CONTINUOUS
 10
6.58961
 20
5.21890
 30
 0
 11
6.59740
 21
5.22929
  0
LINE
  8
Engraving
 62
   2
 39
0.016
  6
CONTINUOUS
 10
6.59740
 20
5.22929
 30
 0
 11
6.59740
 21
5.20591
  0
ARC
  8
Engraving
 62
   2
 39
0.016
  6
CONTINUOUS
 10
6.58984
 20
5.15035
 30
 0
 40
0.05606
 50
82.25114
 51
109.18562
  0
ARC
  8
Engraving
 62
   2
 39
0.016
  6
CONTINUOUS
 10
6.58976
 20
5.14902
 30
 0
 40
0.05732
 50
108.67145
 51
180.27546
  0
LINE
  8
Engraving
 62
   2
 39
0.016
  6
CONTINUOUS
 10
6.53244
 20
5.14874
 30
 0
 11
6.53244
 21
5.05000
  0
LINE
  8
Engraving
 62
   2
 39
0.016
  6
CONTINUOUS
 10
6.53244
 20
5.05000
 30
 0
 11
6.49866
 21
5.05000
  0
LINE
  8
Engraving
 62
   2
 39
0.016
  6
CONTINUOUS
 10
6.49866
 20
5.05000
 30
 0
 11
6.49866
 21
5.22669
  0
LINE
  8
Engraving
 62
   2
 39
0.016
  6
CONTINUOUS
 10
6.49866
 20
5.22669
 30
 0
 11
6.53244
 21
5.22669
  0
LINE
  8
Engraving
 62
   2
 39
0.016
  6
CONTINUOUS
 10
6.53244
 20
5.22669
 30
 0
 11
6.53244
 21
5.18512
  0
ARC
  8
Engraving
 62
   2
 39
0.016
  6
CONTINUOUS
 10
6.58417
 20
5.17689
 30
 0
 40
0.05240
 50
449.74172
 51
170.96245
  0
LINE
  8
Engraving
 62
   2
 39
0.016
  6
CONTINUOUS
 10
6.58441
 20
5.22929
 30
 0
 11
6.59740
 21
5.22929
  0
ARC
  8
Engraving
 62
   2
 39
0.016
  6
CONTINUOUS
 10
6.73031
 20
5.17173
 30
 0
 40
0.04654
 50
466.71782
 51
163.28218
  0
ARC
  8
Engraving
 62
   2
 39
0.016
  6
CONTINUOUS
 10
6.74638
 20
5.11657
 30
 0
 40
0.10398
 50
425.38547
 51
106.45198
  0
ARC
  8
Engraving
 62
   2
 39
0.016
  6
CONTINUOUS
 10
6.77480
 20
5.17866
 30
 0
 40
0.03571
 50
362.02285
 51
65.35728
  0
LINE
  8
Engraving
 62
   2
 39
0.016
  6
CONTINUOUS
 10
6.81047
 20
5.17992
 30
 0
 11
6.81047
 21
5.06299
  0
LINE
  8
Engraving
 62
   2
 39
0.016
  6
CONTINUOUS
 10
6.81047
 20
5.06299
 30
 0
 11
6.81567
 21
5.05260
  0
LINE
  8
Engraving
 62
   2
 39
0.016
  6
CONTINUOUS
 10
6.81567
 20
5.05260
 30
 0
 11
6.80268
 21
5.08118
  0
LINE
  8
Engraving
 62
   2
 39
0.016
  6
CONTINUOUS
 10
6.80268
 20
5.08118
 30
 0
 11
6.80268
 21
5.05520
  0
LINE
  8
Engraving
 62
   2
 39
0.016
  6
CONTINUOUS
 10
6.80268
 20
5.05520
 30
 0
 11
6.79228
 21
5.07339
  0
LINE
  8
Engraving
 62
   2
 39
0.016
  6
CONTINUOUS
 10
6.79228
 20
5.07339
 30
 0
 11
6.80268
 21
5.09677
  0
ARC
  8
Engraving
 62
   2
 39
0.016
  6
CONTINUOUS
 10
6.73732
 20
5.14780
 30
 0
 40
0.08291
 50
277.47598
 51
-37.97997
  0
ARC
  8
Engraving
 62
   2
 39
0.016
  6
CONTINUOUS
 10
6.73201
 20
5.13366
 30
 0
 40
0.06996
 50
243.99736
 51
-76.69116
  0
ARC
  8
Engraving
 62
   2
 39
0.016
  6
CONTINUOUS
 10
6.71780
 20
5.09677
 30
 0
 40
0.03075
 50
122.34744
 51
-122.34744
  0
ARC
  8
Engraving
 62
   2
 39
0.016
  6
CONTINUOUS
 10
6.65307
 20
5.35224
 30
 0
 40
0.23453
 50
-78.12224
 51
-51.18096
  0
LINE
  8
Engraving
 62
   2
 39
0.016
  6
CONTINUOUS
 10
6.80008
 20
5.16953
 30
 0
 11
6.78709
 21
5.15134
  0
LINE
  8
Engraving
 62
   2
 39
0.016
  6
CONTINUOUS
 10
6.78709
 20
5.15134
 30
 0
 11
6.78709
 21
5.11236
  0
ARC
  8
Engraving
 62
   2
 39
0.016
  6
CONTINUOUS
 10
6.74350
 20
5.11256
 30
 0
 40
0.04358
 50
286.53561
 51
-0.25879
  0
ARC
  8
Engraving
 62
   2
 39
0.016
  6
CONTINUOUS
 10
6.73988
 20
5.12504
 30
 0
 40
0.05657
 50
240.15123
 51
-73.54520
  0
ARC
  8
Engraving
 62
   2
 39
0.016
  6
CONTINUOUS
 10
6.72323
 20
5.09642
 30
 0
 40
0.02346
 50
145.32309
 51
-119.36299
  0
ARC
  8
Engraving
 62
   2
 39
0.016
  6
CONTINUOUS
 10
6.74122
 20
5.08413
 30
 0
 40
0.04524
 50
464.45940
 51
145.49404
  0
ARC
  8
Engraving
 62
   2
 39
0.016
  6
CONTINUOUS
 10
6.58315
 20
5.71051
 30
 0
 40
0.60075
 50
-75.85903
 51
-72.25018
  0
ARC
  8
Engraving
 62
   2
 39
0.016
  6
CONTINUOUS
 10
6.75134
 20
5.18543
 30
 0
 40
0.04941
 50
-72.37361
 51
-43.64376
  0
LINE
  8
Engraving
 62
   2
 39
0.016
  6
CONTINUOUS
 10
6.78709
 20
5.15134
 30
 0
 11
6.80008
 21
5.17732
  0
LINE
  8
Engraving
 62
   2
 39
0.016
  6
CONTINUOUS
 10
6.80008
 20
5.17732
 30
 0
 11
6.80008
 21
5.11496
  0
ARC
  8
Engraving
 62
   2
 39
0.016
  6
CONTINUOUS
 10
6.72598
 20
5.13165
 30
 0
 40
0.07594
 50
244.71034
 51
-12.69632
  0
ARC
  8
Engraving
 62
   2
 39
0.016
  6
CONTINUOUS
 10
6.70945
 20
5.09346
 30
 0
 40
0.03437
 50
156.49096
 51
-117.56293
  0
ARC
  8
Engraving
 62
   2
 39
0.016
  6
CONTINUOUS
 10
6.72028
 20
5.08929
 30
 0
 40
0.04594
 50
467.39502
 51
157.10442
  0
ARC
  8
Engraving
 62
   2
 39
0.016
  6
CONTINUOUS
 10
6.59594
 20
5.62260
 30
 0
 40
0.50177
 50
-77.26786
 51
-68.24951
  0
ARC
  8
Engraving
 62
   2
 39
0.016
  6
CONTINUOUS
 10
6.76957
 20
5.18197
 30
 0
 40
0.02827
 50
-64.14888
 51
69.87369
  0
ARC
  8
Engraving
 62
   2
 39
0.016
  6
CONTINUOUS
 10
6.75201
 20
5.11937
 30
 0
 40
0.09323
 50
72.98089
 51
107.01911
  0
ARC
  8
Engraving
 62
   2
 39
0.016
  6
CONTINUOUS
 10
6.73134
 20
5.17500
 30
 0
 40
0.03413
 50
101.16744
 51
162.75636
  0
LINE
  8
Engraving
 62
   2
 39
0.016
  6
CONTINUOUS
 10
6.69874
 20
5.18512
 30
 0
 11
6.68575
 21
5.18512
  0
LINE
  8
Engraving
 62
   2
 39
0.016
  6
CONTINUOUS
 10
6.68575
 20
5.18512
 30
 0
 11
6.67535
 21
5.17732
  0
LINE
  8
Engraving
 62
   2
 39
0.016
  6
CONTINUOUS
 10
6.67535
 20
5.17732
 30
 0
 11
6.70913
 21
5.17732
  0
ARC
  8
Engraving
 62
   2
 39
0.016
  6
CONTINUOUS
 10
6.73248
 20
5.17720
 30
 0
 40
0.02335
 50
476.34884
 51
179.71014
  0
ARC
  8
Engraving
 62
   2
 39
0.016
  6
CONTINUOUS
 10
6.74811
 20
5.14417
 30
 0
 40
0.05988
 50
424.27747
 51
115.72253
  0
ARC
  8
Engraving
 62
   2
 39
0.016
  6
CONTINUOUS
 10
6.76445
 20
5.17819
 30
 0
 40
0.02213
 50
281.61012
 51
64.16421
  0
LINE
  8
Engraving
 62
   2
 39
0.016
  6
CONTINUOUS
 10
6.76890
 20
5.15654
 30
 0
 11
6.71693
 21
5.14614
  0
ARC
  8
Engraving
 62
   2
 39
0.016
  6
CONTINUOUS
 10
6.73142
 20
5.07209
 30
 0
 40
0.07547
 50
101.06956
 51
135.10567
  0
ARC
  8
Engraving
 62
   2
 39
0.016
  6
CONTINUOUS
 10
6.71024
 20
5.09327
 30
 0
 40
0.04551
 50
135.17522
 51
251.95695
  0
ARC
  8
Engraving
 62
   2
 39
0.016
  6
CONTINUOUS
 10
6.72732
 20
5.14654
 30
 0
 40
0.10146
 50
-107.90054
 51
-72.09946
  0
ARC
  8
Engraving
 62
   2
 39
0.016
  6
CONTINUOUS
 10
6.74681
 20
5.08508
 30
 0
 40
0.03697
 50
-71.56505
 51
-18.43495
  0
ARC
  8
Engraving
 62
   2
 39
0.016
  6
CONTINUOUS
 10
6.84839
 20
5.08894
 30
 0
 40
0.06831
 50
-166.83703
 51
-145.23800
  0
LINE
  8
Engraving
 62
   2
 39
0.016
  6
CONTINUOUS
 10
6.79228
 20
5.05000
 30
 0
 11
6.83126
 21
5.05000
  0
ARC
  8
Engraving
 62
   2
 39
0.016
  6
CONTINUOUS
 10
6.83437
 20
5.06043
 30
 0
 40
0.01091
 50
180.20684
 51
-106.60001
  0
LINE
  8
Engraving
 62
   2
 39
0.016
  6
CONTINUOUS
 10
6.82346
 20
5.06039
 30
 0
 11
6.82346
 21
5.17213
  0
ARC
  8
Engraving
 62
   2
 39
0.016
  6
CONTINUOUS
 10
6.77465
 20
5.17315
 30
 0
 40
0.04882
 50
-1.20119
 51
62.11234
  0
ARC
  8
Engraving
 62
   2
 39
0.016
  6
CONTINUOUS
 10
6.74811
 20
5.12457
 30
 0
 40
0.10417
 50
61.71098
 51
118.28902
  0
ARC
  8
Engraving
 62
   2
 39
0.016
  6
CONTINUOUS
 10
6.71972
 20
5.17720
 30
 0
 40
0.04437
 50
118.22500
 51
179.84748
  0
LINE
  8
Engraving
 62
   2
 39
0.008
  6
CONTINUOUS
 10
2.52500
 20
4.01717
 30
 0
 11
2.52500
 21
3.94913
  0
LINE
  8
Engraving
 62
   2
 39
0.008
  6
CONTINUOUS
 10
2.52500
 20
3.94913
 30
 0
 11
2.52500
 21
3.88110
  0
LINE
  8
Engraving
 62
   2
 39
0.008
  6
CONTINUOUS
 10
2.54579
 20
3.97559
 30
 0
 11
2.54579
 21
3.88110
  0
LINE
  8
Engraving
 62
   2
 39
0.008
  6
CONTINUOUS
 10
2.54579
 20
3.88110
 30
 0
 11
2.54579
 21
3.93780
  0
ARC
  8
Engraving
 62
   2
 39
0.008
  6
CONTINUOUS
 10
2.58713
 20
3.93803
 30
 0
 40
0.04134
 50
89.67260
 51
-179.67260
  0
ARC
  8
Engraving
 62
   2
 39
0.008
  6
CONTINUOUS
 10
2.58752
 20
3.94929
 30
 0
 40
0.03008
 50
359.70002
 51
90.29998
  0
LINE
  8
Engraving
 62
   2
 39
0.008
  6
CONTINUOUS
 10
2.61760
 20
3.94913
 30
 0
 11
2.61760
 21
3.88110
  0
LINE
  8
Engraving
 62
   2
 39
0.008
  6
CONTINUOUS
 10
2.63839
 20
3.97937
 30
 0
 11
2.67240
 21
3.97937
  0
LINE
  8
Engraving
 62
   2
 39
0.008
  6
CONTINUOUS
 10
2.67240
 20
3.97937
 30
 0
 11
2.65350
 21
3.97937
  0
LINE
  8
Engraving
 62
   2
 39
0.008
  6
CONTINUOUS
 10
2.65350
 20
3.97937
 30
 0
 11
2.65350
 21
4.00961
  0
LINE
  8
Engraving
 62
   2
 39
0.008
  6
CONTINUOUS
 10
2.65350
 20
4.00961
 30
 0
 11
2.65350
 21
3.90000
  0
ARC
  8
Engraving
 62
   2
 39
0.008
  6
CONTINUOUS
 10
2.67228
 20
3.89988
 30
 0
 40
0.01878
 50
179.63965
 51
270.36035
  0
LINE
  8
Engraving
 62
   2
 39
0.008
  6
CONTINUOUS
 10
2.69413
 20
3.93118
 30
 0
 11
2.77728
 21
3.93118
  0
LINE
  8
Engraving
 62
   2
 39
0.008
  6
CONTINUOUS
 10
2.77728
 20
3.93118
 30
 0
 11
2.77728
 21
3.93874
  0
ARC
  8
Engraving
 62
   2
 39
0.008
  6
CONTINUOUS
 10
2.73583
 20
3.93866
 30
 0
 40
0.04146
 50
0.10882
 51
169.38369
  0
ARC
  8
Engraving
 62
   2
 39
0.008
  6
CONTINUOUS
 10
2.77685
 20
3.93071
 30
 0
 40
0.08323
 50
169.20556
 51
190.79444
  0
ARC
  8
Engraving
 62
   2
 39
0.008
  6
CONTINUOUS
 10
2.73937
 20
3.92331
 30
 0
 40
0.04504
 50
-169.52494
 51
-89.84975
  0
ARC
  8
Engraving
 62
   2
 39
0.008
  6
CONTINUOUS
 10
2.73937
 20
3.92390
 30
 0
 40
0.04563
 50
-89.85169
 51
-31.59131
  0
LINE
  8
Engraving
 62
   2
 39
0.008
  6
CONTINUOUS
 10
2.79902
 20
3.97559
 30
 0
 11
2.79902
 21
3.88110
  0
LINE
  8
Engraving
 62
   2
 39
0.008
  6
CONTINUOUS
 10
2.79902
 20
3.88110
 30
 0
 11
2.79902
 21
3.93780
  0
ARC
  8
Engraving
 62
   2
 39
0.008
  6
CONTINUOUS
 10
2.84122
 20
3.93764
 30
 0
 40
0.04220
 50
458.58362
 51
179.78621
  0
LINE
  8
Engraving
 62
   2
 39
0.008
  6
CONTINUOUS
 10
2.85571
 20
3.97559
 30
 0
 11
2.88972
 21
3.88110
  0
LINE
  8
Engraving
 62
   2
 39
0.008
  6
CONTINUOUS
 10
2.88972
 20
3.88110
 30
 0
 11
2.89350
 21
3.88110
  0
LINE
  8
Engraving
 62
   2
 39
0.008
  6
CONTINUOUS
 10
2.89350
 20
3.88110
 30
 0
 11
2.92752
 21
3.97559
  0
ARC
  8
Engraving
 62
   2
 39
0.008
  6
CONTINUOUS
 10
2.98110
 20
3.95276
 30
 0
 40
0.02661
 50
451.44057
 51
169.43758
  0
LINE
  8
Engraving
 62
   2
 39
0.008
  6
CONTINUOUS
 10
2.98043
 20
3.97937
 30
 0
 11
2.99177
 21
3.97937
  0
ARC
  8
Engraving
 62
   2
 39
0.008
  6
CONTINUOUS
 10
2.99193
 20
3.95307
 30
 0
 40
0.02630
 50
359.65692
 51
90.34308
  0
LINE
  8
Engraving
 62
   2
 39
0.008
  6
CONTINUOUS
 10
3.01823
 20
3.95291
 30
 0
 11
3.01823
 21
3.91512
  0
ARC
  8
Engraving
 62
   2
 39
0.008
  6
CONTINUOUS
 10
2.97331
 20
3.92409
 30
 0
 40
0.04583
 50
270.63987
 51
-11.30028
  0
ARC
  8
Engraving
 62
   2
 39
0.008
  6
CONTINUOUS
 10
2.97366
 20
3.90457
 30
 0
 40
0.02630
 50
179.65692
 51
-89.65692
  0
ARC
  8
Engraving
 62
   2
 39
0.008
  6
CONTINUOUS
 10
2.97004
 20
3.90504
 30
 0
 40
0.02268
 50
99.59313
 51
-179.20428
  0
LINE
  8
Engraving
 62
   2
 39
0.008
  6
CONTINUOUS
 10
2.96626
 20
3.92740
 30
 0
 11
3.00878
 21
3.93496
  0
ARC
  8
Engraving
 62
   2
 39
0.008
  6
CONTINUOUS
 10
3.00720
 20
3.94618
 30
 0
 40
0.01134
 50
-82.01067
 51
-13.84349
  0
LINE
  8
Engraving
 62
   2
 39
0.008
  6
CONTINUOUS
 10
3.01823
 20
3.94346
 30
 0
 11
3.01823
 21
3.89622
  0
ARC
  8
Engraving
 62
   2
 39
0.008
  6
CONTINUOUS
 10
3.03327
 20
3.89614
 30
 0
 40
0.01504
 50
179.70002
 51
270.29998
  0
LINE
  8
Engraving
 62
   2
 39
0.008
  6
CONTINUOUS
 10
3.05413
 20
4.01717
 30
 0
 11
3.05413
 21
3.94913
  0
LINE
  8
Engraving
 62
   2
 39
0.008
  6
CONTINUOUS
 10
3.05413
 20
3.94913
 30
 0
 11
3.05413
 21
3.88110
  0
ARC
  8
Engraving
 62
   2
 39
0.008
  6
CONTINUOUS
 10
3.90858
 20
3.91843
 30
 0
 40
0.03358
 50
179.19402
 51
230.65863
  0
ARC
  8
Engraving
 62
   2
 39
0.008
  6
CONTINUOUS
 10
3.92535
 20
3.93913
 30
 0
 40
0.06024
 50
-129.19193
 51
-64.23881
  0
ARC
  8
Engraving
 62
   2
 39
0.008
  6
CONTINUOUS
 10
3.93772
 20
3.91559
 30
 0
 40
0.03366
 50
-65.77225
 51
-0.80410
  0
ARC
  8
Engraving
 62
   2
 39
0.008
  6
CONTINUOUS
 10
3.94079
 20
3.91512
 30
 0
 40
0.03059
 50
0.00000
 51
73.17367
  0
LINE
  8
Engraving
 62
   2
 39
0.008
  6
CONTINUOUS
 10
3.94965
 20
3.94441
 30
 0
 11
3.89673
 21
3.95575
  0
ARC
  8
Engraving
 62
   2
 39
0.008
  6
CONTINUOUS
 10
3.90559
 20
3.98504
 30
 0
 40
0.03059
 50
180.00000
 51
-106.82633
  0
ARC
  8
Engraving
 62
   2
 39
0.008
  6
CONTINUOUS
 10
3.90866
 20
3.98457
 30
 0
 40
0.03366
 50
474.22775
 51
179.19590
  0
ARC
  8
Engraving
 62
   2
 39
0.008
  6
CONTINUOUS
 10
3.92102
 20
3.96102
 30
 0
 40
0.06024
 50
410.80807
 51
115.76119
  0
ARC
  8
Engraving
 62
   2
 39
0.008
  6
CONTINUOUS
 10
3.93780
 20
3.98173
 30
 0
 40
0.03358
 50
359.19402
 51
50.65863
  0
LINE
  8
Engraving
 62
   2
 39
0.008
  6
CONTINUOUS
 10
3.99217
 20
3.97937
 30
 0
 11
4.02618
 21
3.97937
  0
LINE
  8
Engraving
 62
   2
 39
0.008
  6
CONTINUOUS
 10
4.02618
 20
3.97937
 30
 0
 11
4.00728
 21
3.97937
  0
LINE
  8
Engraving
 62
   2
 39
0.008
  6
CONTINUOUS
 10
4.00728
 20
3.97937
 30
 0
 11
4.00728
 21
4.00961
  0
LINE
  8
Engraving
 62
   2
 39
0.008
  6
CONTINUOUS
 10
4.00728
 20
4.00961
 30
 0
 11
4.00728
 21
3.90000
  0
ARC
  8
Engraving
 62
   2
 39
0.008
  6
CONTINUOUS
 10
4.02606
 20
3.89988
 30
 0
 40
0.01878
 50
179.63965
 51
270.36035
  0
ARC
  8
Engraving
 62
   2
 39
0.008
  6
CONTINUOUS
 10
4.07976
 20
3.95276
 30
 0
 40
0.02661
 50
451.44057
 51
169.43758
  0
LINE
  8
Engraving
 62
   2
 39
0.008
  6
CONTINUOUS
 10
4.07909
 20
3.97937
 30
 0
 11
4.09043
 21
3.97937
  0
ARC
  8
Engraving
 62
   2
 39
0.008
  6
CONTINUOUS
 10
4.09059
 20
3.95307
 30
 0
 40
0.02630
 50
359.65692
 51
90.34308
  0
LINE
  8
Engraving
 62
   2
 39
0.008
  6
CONTINUOUS
 10
4.11689
 20
3.95291
 30
 0
 11
4.11689
 21
3.91512
  0
ARC
  8
Engraving
 62
   2
 39
0.008
  6
CONTINUOUS
 10
4.07197
 20
3.92409
 30
 0
 40
0.04583
 50
270.63987
 51
-11.30028
  0
ARC
  8
Engraving
 62
   2
 39
0.008
  6
CONTINUOUS
 10
4.07232
 20
3.90457
 30
 0
 40
0.02630
 50
179.65692
 51
-89.65692
  0
ARC
  8
Engraving
 62
   2
 39
0.008
  6
CONTINUOUS
 10
4.06870
 20
3.90504
 30
 0
 40
0.02268
 50
99.59313
 51
-179.20428
  0
LINE
  8
Engraving
 62
   2
 39
0.008
  6
CONTINUOUS
 10
4.06492
 20
3.92740
 30
 0
 11
4.10744
 21
3.93496
  0
ARC
  8
Engraving
 62
   2
 39
0.008
  6
CONTINUOUS
 10
4.10587
 20
3.94618
 30
 0
 40
0.01134
 50
-82.01067
 51
-13.84349
  0
LINE
  8
Engraving
 62
   2
 39
0.008
  6
CONTINUOUS
 10
4.11689
 20
3.94346
 30
 0
 11
4.11689
 21
3.89622
  0
ARC
  8
Engraving
 62
   2
 39
0.008
  6
CONTINUOUS
 10
4.13193
 20
3.89614
 30
 0
 40
0.01504
 50
179.70002
 51
270.29998
  0
LINE
  8
Engraving
 62
   2
 39
0.008
  6
CONTINUOUS
 10
4.15280
 20
3.97937
 30
 0
 11
4.18681
 21
3.97937
  0
LINE
  8
Engraving
 62
   2
 39
0.008
  6
CONTINUOUS
 10
4.18681
 20
3.97937
 30
 0
 11
4.16791
 21
3.97937
  0
LINE
  8
Engraving
 62
   2
 39
0.008
  6
CONTINUOUS
 10
4.16791
 20
3.97937
 30
 0
 11
4.16791
 21
4.00961
  0
LINE
  8
Engraving
 62
   2
 39
0.008
  6
CONTINUOUS
 10
4.16791
 20
4.00961
 30
 0
 11
4.16791
 21
3.90000
  0
ARC
  8
Engraving
 62
   2
 39
0.008
  6
CONTINUOUS
 10
4.18669
 20
3.89988
 30
 0
 40
0.01878
 50
179.63965
 51
270.36035
  0
LINE
  8
Engraving
 62
   2
 39
0.008
  6
CONTINUOUS
 10
4.20760
 20
3.97559
 30
 0
 11
4.20760
 21
3.90756
  0
ARC
  8
Engraving
 62
   2
 39
0.008
  6
CONTINUOUS
 10
4.23390
 20
3.90740
 30
 0
 40
0.02630
 50
179.65692
 51
270.34308
  0
ARC
  8
Engraving
 62
   2
 39
0.008
  6
CONTINUOUS
 10
4.23429
 20
3.92244
 30
 0
 40
0.04134
 50
-90.32740
 51
0.32740
  0
LINE
  8
Engraving
 62
   2
 39
0.008
  6
CONTINUOUS
 10
4.27563
 20
3.92268
 30
 0
 11
4.27563
 21
3.97559
  0
LINE
  8
Engraving
 62
   2
 39
0.008
  6
CONTINUOUS
 10
4.27563
 20
3.97559
 30
 0
 11
4.27563
 21
3.88110
  0
ARC
  8
Engraving
 62
   2
 39
0.008
  6
CONTINUOUS
 10
4.31539
 20
3.90409
 30
 0
 40
0.01898
 50
-179.04912
 51
-134.49594
  0
ARC
  8
Engraving
 62
   2
 39
0.008
  6
CONTINUOUS
 10
4.33173
 20
3.92016
 30
 0
 40
0.04189
 50
-135.03807
 51
-90.48463
  0
LINE
  8
Engraving
 62
   2
 39
0.008
  6
CONTINUOUS
 10
4.33138
 20
3.87827
 30
 0
 11
4.33516
 21
3.87827
  0
ARC
  8
Engraving
 62
   2
 39
0.008
  6
CONTINUOUS
 10
4.33480
 20
3.92016
 30
 0
 40
0.04189
 50
-89.51537
 51
-44.96193
  0
ARC
  8
Engraving
 62
   2
 39
0.008
  6
CONTINUOUS
 10
4.35000
 20
3.90500
 30
 0
 40
0.02043
 50
-45.00000
 51
73.10002
  0
LINE
  8
Engraving
 62
   2
 39
0.008
  6
CONTINUOUS
 10
4.35594
 20
3.92457
 30
 0
 11
4.31437
 21
3.93591
  0
ARC
  8
Engraving
 62
   2
 39
0.008
  6
CONTINUOUS
 10
4.32016
 20
3.95421
 30
 0
 40
0.01921
 50
134.00365
 51
-107.54326
  0
ARC
  8
Engraving
 62
   2
 39
0.008
  6
CONTINUOUS
 10
4.33016
 20
3.94390
 30
 0
 40
0.03358
 50
449.52982
 51
134.04991
  0
LINE
  8
Engraving
 62
   2
 39
0.008
  6
CONTINUOUS
 10
4.33043
 20
3.97748
 30
 0
 11
4.33421
 21
3.97748
  0
ARC
  8
Engraving
 62
   2
 39
0.008
  6
CONTINUOUS
 10
4.33406
 20
3.94319
 30
 0
 40
0.03429
 50
379.78650
 51
89.73688
  0
LINE
  8
Engraving
 62
   2
 39
0.008
  6
CONTINUOUS
 10
1.85000
 20
0.94913
 30
 0
 11
1.90858
 21
0.94913
  0
ARC
  8
Engraving
 62
   2
 39
0.008
  6
CONTINUOUS
 10
1.90874
 20
0.97732
 30
 0
 40
0.02819
 50
-90.32008
 51
0.32008
  0
LINE
  8
Engraving
 62
   2
 39
0.008
  6
CONTINUOUS
 10
1.93693
 20
0.97748
 30
 0
 11
1.93693
 21
0.98882
  0
ARC
  8
Engraving
 62
   2
 39
0.008
  6
CONTINUOUS
 10
1.90874
 20
0.98898
 30
 0
 40
0.02819
 50
-0.32008
 51
90.32008
  0
LINE
  8
Engraving
 62
   2
 39
0.008
  6
CONTINUOUS
 10
1.90858
 20
1.01717
 30
 0
 11
1.85000
 21
1.01717
  0
LINE
  8
Engraving
 62
   2
 39
0.008
  6
CONTINUOUS
 10
1.85000
 20
1.01717
 30
 0
 11
1.85000
 21
0.94913
  0
LINE
  8
Engraving
 62
   2
 39
0.008
  6
CONTINUOUS
 10
1.85000
 20
0.94913
 30
 0
 11
1.85000
 21
0.88110
  0
ARC
  8
Engraving
 62
   2
 39
0.008
  6
CONTINUOUS
 10
2.04138
 20
0.93071
 30
 0
 40
0.08323
 50
169.20556
 51
-169.20556
  0
ARC
  8
Engraving
 62
   2
 39
0.008
  6
CONTINUOUS
 10
2.00024
 20
0.93846
 30
 0
 40
0.04138
 50
370.91435
 51
169.08565
  0
ARC
  8
Engraving
 62
   2
 39
0.008
  6
CONTINUOUS
 10
1.95909
 20
0.93071
 30
 0
 40
0.08323
 50
349.20556
 51
10.79444
  0
ARC
  8
Engraving
 62
   2
 39
0.008
  6
CONTINUOUS
 10
2.00024
 20
0.92295
 30
 0
 40
0.04138
 50
190.91435
 51
-10.91435
  0
LINE
  8
Engraving
 62
   2
 39
0.008
  6
CONTINUOUS
 10
2.06354
 20
0.97559
 30
 0
 11
2.09000
 21
0.88110
  0
LINE
  8
Engraving
 62
   2
 39
0.008
  6
CONTINUOUS
 10
2.09000
 20
0.88110
 30
 0
 11
2.09378
 21
0.88110
  0
LINE
  8
Engraving
 62
   2
 39
0.008
  6
CONTINUOUS
 10
2.09378
 20
0.88110
 30
 0
 11
2.12024
 21
0.97559
  0
LINE
  8
Engraving
 62
   2
 39
0.008
  6
CONTINUOUS
 10
2.12024
 20
0.97559
 30
 0
 11
2.12402
 21
0.97559
  0
LINE
  8
Engraving
 62
   2
 39
0.008
  6
CONTINUOUS
 10
2.12402
 20
0.97559
 30
 0
 11
2.15047
 21
0.88110
  0
LINE
  8
Engraving
 62
   2
 39
0.008
  6
CONTINUOUS
 10
2.15047
 20
0.88110
 30
 0
 11
2.15425
 21
0.88110
  0
LINE
  8
Engraving
 62
   2
 39
0.008
  6
CONTINUOUS
 10
2.15425
 20
0.88110
 30
 0
 11
2.18071
 21
0.97559
  0
LINE
  8
Engraving
 62
   2
 39
0.008
  6
CONTINUOUS
 10
2.20244
 20
0.93118
 30
 0
 11
2.28559
 21
0.93118
  0
LINE
  8
Engraving
 62
   2
 39
0.008
  6
CONTINUOUS
 10
2.28559
 20
0.93118
 30
 0
 11
2.28559
 21
0.93874
  0
ARC
  8
Engraving
 62
   2
 39
0.008
  6
CONTINUOUS
 10
2.24413
 20
0.93866
 30
 0
 40
0.04146
 50
0.10882
 51
169.38369
  0
ARC
  8
Engraving
 62
   2
 39
0.008
  6
CONTINUOUS
 10
2.28516
 20
0.93071
 30
 0
 40
0.08323
 50
169.20556
 51
190.79444
  0
ARC
  8
Engraving
 62
   2
 39
0.008
  6
CONTINUOUS
 10
2.24768
 20
0.92331
 30
 0
 40
0.04504
 50
-169.52494
 51
-89.84975
  0
ARC
  8
Engraving
 62
   2
 39
0.008
  6
CONTINUOUS
 10
2.24768
 20
0.92390
 30
 0
 40
0.04563
 50
-89.85169
 51
-31.59131
  0
LINE
  8
Engraving
 62
   2
 39
0.008
  6
CONTINUOUS
 10
2.30732
 20
0.97559
 30
 0
 11
2.30732
 21
0.88110
  0
LINE
  8
Engraving
 62
   2
 39
0.008
  6
CONTINUOUS
 10
2.30732
 20
0.88110
 30
 0
 11
2.30732
 21
0.93780
  0
ARC
  8
Engraving
 62
   2
 39
0.008
  6
CONTINUOUS
 10
2.34953
 20
0.93764
 30
 0
 40
0.04220
 50
458.58362
 51
179.78621
  0
LINE
  8
Engraving
 62
   2
 39
0.008
  6
CONTINUOUS
 10
3.82500
 20
0.88110
 30
 0
 11
3.82500
 21
0.94913
  0
LINE
  8
Engraving
 62
   2
 39
0.008
  6
CONTINUOUS
 10
3.82500
 20
0.94913
 30
 0
 11
3.82500
 21
1.01717
  0
LINE
  8
Engraving
 62
   2
 39
0.008
  6
CONTINUOUS
 10
3.82500
 20
1.01717
 30
 0
 11
3.87791
 21
1.01717
  0
ARC
  8
Engraving
 62
   2
 39
0.008
  6
CONTINUOUS
 10
3.87819
 20
0.97661
 30
 0
 40
0.04055
 50
402.36350
 51
90.38938
  0
ARC
  8
Engraving
 62
   2
 39
0.008
  6
CONTINUOUS
 10
3.85406
 20
0.95634
 30
 0
 40
0.07205
 50
360.28178
 51
41.34496
  0
LINE
  8
Engraving
 62
   2
 39
0.008
  6
CONTINUOUS
 10
3.92610
 20
0.95669
 30
 0
 11
3.92610
 21
0.94157
  0
ARC
  8
Engraving
 62
   2
 39
0.008
  6
CONTINUOUS
 10
3.85406
 20
0.94193
 30
 0
 40
0.07205
 50
318.65504
 51
-0.28178
  0
ARC
  8
Engraving
 62
   2
 39
0.008
  6
CONTINUOUS
 10
3.87819
 20
0.92165
 30
 0
 40
0.04055
 50
269.61062
 51
-42.36350
  0
LINE
  8
Engraving
 62
   2
 39
0.008
  6
CONTINUOUS
 10
3.87791
 20
0.88110
 30
 0
 11
3.82500
 21
0.88110
  0
ARC
  8
Engraving
 62
   2
 39
0.008
  6
CONTINUOUS
 10
3.97874
 20
0.95276
 30
 0
 40
0.02661
 50
451.44057
 51
169.43758
  0
LINE
  8
Engraving
 62
   2
 39
0.008
  6
CONTINUOUS
 10
3.97807
 20
0.97937
 30
 0
 11
3.98941
 21
0.97937
  0
ARC
  8
Engraving
 62
   2
 39
0.008
  6
CONTINUOUS
 10
3.98957
 20
0.95307
 30
 0
 40
0.02630
 50
359.65692
 51
90.34308
  0
LINE
  8
Engraving
 62
   2
 39
0.008
  6
CONTINUOUS
 10
4.01587
 20
0.95291
 30
 0
 11
4.01587
 21
0.91512
  0
ARC
  8
Engraving
 62
   2
 39
0.008
  6
CONTINUOUS
 10
3.97094
 20
0.92409
 30
 0
 40
0.04583
 50
270.63987
 51
-11.30028
  0
ARC
  8
Engraving
 62
   2
 39
0.008
  6
CONTINUOUS
 10
3.97130
 20
0.90457
 30
 0
 40
0.02630
 50
179.65692
 51
-89.65692
  0
ARC
  8
Engraving
 62
   2
 39
0.008
  6
CONTINUOUS
 10
3.96768
 20
0.90504
 30
 0
 40
0.02268
 50
99.59313
 51
-179.20428
  0
LINE
  8
Engraving
 62
   2
 39
0.008
  6
CONTINUOUS
 10
3.96390
 20
0.92740
 30
 0
 11
4.00642
 21
0.93496
  0
ARC
  8
Engraving
 62
   2
 39
0.008
  6
CONTINUOUS
 10
4.00484
 20
0.94618
 30
 0
 40
0.01134
 50
-82.01067
 51
-13.84349
  0
LINE
  8
Engraving
 62
   2
 39
0.008
  6
CONTINUOUS
 10
4.01587
 20
0.94346
 30
 0
 11
4.01587
 21
0.89622
  0
ARC
  8
Engraving
 62
   2
 39
0.008
  6
CONTINUOUS
 10
4.03091
 20
0.89614
 30
 0
 40
0.01504
 50
179.70002
 51
270.29998
  0
LINE
  8
Engraving
 62
   2
 39
0.008
  6
CONTINUOUS
 10
4.05177
 20
0.97559
 30
 0
 11
4.09335
 21
0.87732
  0
ARC
  8
Engraving
 62
   2
 39
0.008
  6
CONTINUOUS
 10
4.06858
 20
0.86370
 30
 0
 40
0.01945
 50
-89.42010
 51
-27.75854
  0
LINE
  8
Engraving
 62
   2
 39
0.008
  6
CONTINUOUS
 10
4.08579
 20
0.85465
 30
 0
 11
4.10657
 21
0.91512
  0
LINE
  8
Engraving
 62
   2
 39
0.008
  6
CONTINUOUS
 10
4.10657
 20
0.91512
 30
 0
 11
4.12736
 21
0.97559
  0
LINE
  8
Engraving
 62
   2
 39
0.008
  6
CONTINUOUS
 10
4.14815
 20
1.01717
 30
 0
 11
4.14815
 21
0.94913
  0
LINE
  8
Engraving
 62
   2
 39
0.008
  6
CONTINUOUS
 10
4.14815
 20
0.94913
 30
 0
 11
4.14815
 21
0.88110
  0
LINE
  8
Engraving
 62
   2
 39
0.008
  6
CONTINUOUS
 10
4.16894
 20
1.02945
 30
 0
 11
4.16894
 21
1.02189
  0
LINE
  8
Engraving
 62
   2
 39
0.008
  6
CONTINUOUS
 10
4.16894
 20
0.97559
 30
 0
 11
4.16894
 21
0.88110
  0
LINE
  8
Engraving
 62
   2
 39
0.008
  6
CONTINUOUS
 10
4.27287
 20
0.97559
 30
 0
 11
4.27287
 21
0.92268
  0
ARC
  8
Engraving
 62
   2
 39
0.008
  6
CONTINUOUS
 10
4.23138
 20
0.92220
 30
 0
 40
0.04150
 50
191.16067
 51
0.65230
  0
ARC
  8
Engraving
 62
   2
 39
0.008
  6
CONTINUOUS
 10
4.27244
 20
0.92976
 30
 0
 40
0.08323
 50
169.20556
 51
-169.20556
  0
ARC
  8
Engraving
 62
   2
 39
0.008
  6
CONTINUOUS
 10
4.23142
 20
0.93772
 30
 0
 40
0.04146
 50
360.10882
 51
169.38369
  0
LINE
  8
Engraving
 62
   2
 39
0.008
  6
CONTINUOUS
 10
4.27287
 20
0.93780
 30
 0
 11
4.27287
 21
0.87732
  0
ARC
  8
Engraving
 62
   2
 39
0.008
  6
CONTINUOUS
 10
4.23878
 20
0.87673
 30
 0
 40
0.03409
 50
281.32291
 51
0.99232
  0
ARC
  8
Engraving
 62
   2
 39
0.008
  6
CONTINUOUS
 10
4.23130
 20
0.91764
 30
 0
 40
0.07567
 50
259.20455
 51
-79.20455
  0
ARC
  8
Engraving
 62
   2
 39
0.008
  6
CONTINUOUS
 10
4.22382
 20
0.87681
 30
 0
 40
0.03417
 50
210.70327
 51
-101.29698
  0
LINE
  8
Engraving
 62
   2
 39
0.008
  6
CONTINUOUS
 10
4.29366
 20
1.01717
 30
 0
 11
4.29366
 21
0.94913
  0
LINE
  8
Engraving
 62
   2
 39
0.008
  6
CONTINUOUS
 10
4.29366
 20
0.94913
 30
 0
 11
4.29366
 21
0.88110
  0
LINE
  8
Engraving
 62
   2
 39
0.008
  6
CONTINUOUS
 10
4.29366
 20
0.88110
 30
 0
 11
4.29366
 21
0.93780
  0
ARC
  8
Engraving
 62
   2
 39
0.008
  6
CONTINUOUS
 10
4.33500
 20
0.93803
 30
 0
 40
0.04134
 50
89.67260
 51
-179.67260
  0
ARC
  8
Engraving
 62
   2
 39
0.008
  6
CONTINUOUS
 10
4.33539
 20
0.94929
 30
 0
 40
0.03008
 50
359.70002
 51
90.29998
  0
LINE
  8
Engraving
 62
   2
 39
0.008
  6
CONTINUOUS
 10
4.36547
 20
0.94913
 30
 0
 11
4.36547
 21
0.88110
  0
LINE
  8
Engraving
 62
   2
 39
0.008
  6
CONTINUOUS
 10
4.38626
 20
0.97937
 30
 0
 11
4.42028
 21
0.97937
  0
LINE
  8
Engraving
 62
   2
 39
0.008
  6
CONTINUOUS
 10
4.42028
 20
0.97937
 30
 0
 11
4.40138
 21
0.97937
  0
LINE
  8
Engraving
 62
   2
 39
0.008
  6
CONTINUOUS
 10
4.40138
 20
0.97937
 30
 0
 11
4.40138
 21
1.00961
  0
LINE
  8
Engraving
 62
   2
 39
0.008
  6
CONTINUOUS
 10
4.40138
 20
1.00961
 30
 0
 11
4.40138
 21
0.90000
  0
ARC
  8
Engraving
 62
   2
 39
0.008
  6
CONTINUOUS
 10
4.42016
 20
0.89988
 30
 0
 40
0.01878
 50
179.63965
 51
270.36035
  0
ARC
  8
Engraving
 62
   2
 39
0.008
  6
CONTINUOUS
 10
6.81508
 20
1.56543
 30
 0
 40
0.03642
 50
179.19482
 51
230.61472
  0
ARC
  8
Engraving
 62
   2
 39
0.008
  6
CONTINUOUS
 10
6.83319
 20
1.58783
 30
 0
 40
0.06524
 50
-129.19451
 51
-64.20812
  0
ARC
  8
Engraving
 62
   2
 39
0.008
  6
CONTINUOUS
 10
6.84661
 20
1.56232
 30
 0
 40
0.03646
 50
-65.76096
 51
-0.74245
  0
ARC
  8
Engraving
 62
   2
 39
0.008
  6
CONTINUOUS
 10
6.84992
 20
1.56185
 30
 0
 40
0.03315
 50
0.00000
 51
73.15739
  0
LINE
  8
Engraving
 62
   2
 39
0.008
  6
CONTINUOUS
 10
6.85953
 20
1.59358
 30
 0
 11
6.80220
 21
1.60587
  0
ARC
  8
Engraving
 62
   2
 39
0.008
  6
CONTINUOUS
 10
6.81181
 20
1.63760
 30
 0
 40
0.03315
 50
180.00000
 51
-106.84261
  0
ARC
  8
Engraving
 62
   2
 39
0.008
  6
CONTINUOUS
 10
6.81512
 20
1.63713
 30
 0
 40
0.03646
 50
474.23904
 51
179.25755
  0
ARC
  8
Engraving
 62
   2
 39
0.008
  6
CONTINUOUS
 10
6.82854
 20
1.61161
 30
 0
 40
0.06524
 50
410.80549
 51
115.79188
  0
ARC
  8
Engraving
 62
   2
 39
0.008
  6
CONTINUOUS
 10
6.84665
 20
1.63402
 30
 0
 40
0.03642
 50
359.19482
 51
50.61472
  0
LINE
  8
Engraving
 62
   2
 39
0.008
  6
CONTINUOUS
 10
6.90559
 20
1.52500
 30
 0
 11
6.90559
 21
1.59870
  0
LINE
  8
Engraving
 62
   2
 39
0.008
  6
CONTINUOUS
 10
6.90559
 20
1.59870
 30
 0
 11
6.90559
 21
1.67240
  0
LINE
  8
Engraving
 62
   2
 39
0.008
  6
CONTINUOUS
 10
6.90559
 20
1.67240
 30
 0
 11
6.96291
 21
1.67240
  0
ARC
  8
Engraving
 62
   2
 39
0.008
  6
CONTINUOUS
 10
6.96319
 20
1.62846
 30
 0
 40
0.04394
 50
402.34965
 51
90.35938
  0
ARC
  8
Engraving
 62
   2
 39
0.008
  6
CONTINUOUS
 10
6.93705
 20
1.60650
 30
 0
 40
0.07807
 50
360.28893
 51
41.34084
  0
LINE
  8
Engraving
 62
   2
 39
0.008
  6
CONTINUOUS
 10
7.01512
 20
1.60689
 30
 0
 11
7.01512
 21
1.59051
  0
ARC
  8
Engraving
 62
   2
 39
0.008
  6
CONTINUOUS
 10
6.93705
 20
1.59091
 30
 0
 40
0.07807
 50
318.65916
 51
-0.28893
  0
ARC
  8
Engraving
 62
   2
 39
0.008
  6
CONTINUOUS
 10
6.96319
 20
1.56894
 30
 0
 40
0.04394
 50
269.64062
 51
-42.34965
  0
LINE
  8
Engraving
 62
   2
 39
0.008
  6
CONTINUOUS
 10
6.96291
 20
1.52500
 30
 0
 11
6.90559
 21
1.52500
  0
ARC
  8
Engraving
 62
   2
 39
0.008
  6
CONTINUOUS
 10
7.20043
 20
1.61004
 30
 0
 40
0.06559
 50
30.92246
 51
157.11297
  0
ARC
  8
Engraving
 62
   2
 39
0.008
  6
CONTINUOUS
 10
7.21260
 20
1.60780
 30
 0
 40
0.07772
 50
159.07709
 51
180.66755
  0
LINE
  8
Engraving
 62
   2
 39
0.008
  6
CONTINUOUS
 10
7.13488
 20
1.60689
 30
 0
 11
7.13488
 21
1.59051
  0
ARC
  8
Engraving
 62
   2
 39
0.008
  6
CONTINUOUS
 10
7.21260
 20
1.58961
 30
 0
 40
0.07772
 50
179.33245
 51
200.92291
  0
ARC
  8
Engraving
 62
   2
 39
0.008
  6
CONTINUOUS
 10
7.20039
 20
1.58752
 30
 0
 40
0.06563
 50
-156.97293
 51
-23.02707
  0
ARC
  8
Engraving
 62
   2
 39
0.008
  6
CONTINUOUS
 10
7.18654
 20
1.59791
 30
 0
 40
0.08256
 50
-25.90510
 51
-20.49208
  0
ARC
  8
Engraving
 62
   2
 39
0.008
  6
CONTINUOUS
 10
7.32189
 20
1.60264
 30
 0
 40
0.02882
 50
451.40863
 51
169.45724
  0
LINE
  8
Engraving
 62
   2
 39
0.008
  6
CONTINUOUS
 10
7.32118
 20
1.63146
 30
 0
 11
7.33346
 21
1.63146
  0
ARC
  8
Engraving
 62
   2
 39
0.008
  6
CONTINUOUS
 10
7.33362
 20
1.60295
 30
 0
 40
0.02850
 50
359.68345
 51
90.31655
  0
LINE
  8
Engraving
 62
   2
 39
0.008
  6
CONTINUOUS
 10
7.36213
 20
1.60280
 30
 0
 11
7.36213
 21
1.56185
  0
ARC
  8
Engraving
 62
   2
 39
0.008
  6
CONTINUOUS
 10
7.31343
 20
1.57157
 30
 0
 40
0.04965
 50
270.68152
 51
-11.29212
  0
ARC
  8
Engraving
 62
   2
 39
0.008
  6
CONTINUOUS
 10
7.31386
 20
1.55043
 30
 0
 40
0.02850
 50
179.68345
 51
-89.68345
  0
ARC
  8
Engraving
 62
   2
 39
0.008
  6
CONTINUOUS
 10
7.30992
 20
1.55094
 30
 0
 40
0.02457
 50
99.59824
 51
-179.17368
  0
LINE
  8
Engraving
 62
   2
 39
0.008
  6
CONTINUOUS
 10
7.30583
 20
1.57516
 30
 0
 11
7.35189
 21
1.58335
  0
ARC
  8
Engraving
 62
   2
 39
0.008
  6
CONTINUOUS
 10
7.35020
 20
1.59551
 30
 0
 40
0.01228
 50
-82.07768
 51
-13.90269
  0
LINE
  8
Engraving
 62
   2
 39
0.008
  6
CONTINUOUS
 10
7.36213
 20
1.59256
 30
 0
 11
7.36213
 21
1.54138
  0
ARC
  8
Engraving
 62
   2
 39
0.008
  6
CONTINUOUS
 10
7.37843
 20
1.54130
 30
 0
 40
0.01630
 50
179.72321
 51
270.27679
  0
LINE
  8
Engraving
 62
   2
 39
0.008
  6
CONTINUOUS
 10
7.40102
 20
1.62736
 30
 0
 11
7.40102
 21
1.52500
  0
LINE
  8
Engraving
 62
   2
 39
0.008
  6
CONTINUOUS
 10
7.40102
 20
1.52500
 30
 0
 11
7.40102
 21
1.58642
  0
ARC
  8
Engraving
 62
   2
 39
0.008
  6
CONTINUOUS
 10
7.44673
 20
1.58626
 30
 0
 40
0.04571
 50
458.56981
 51
179.80260
  0
LINE
  8
Engraving
 62
   2
 39
0.008
  6
CONTINUOUS
 10
7.55252
 20
1.67240
 30
 0
 11
7.55252
 21
1.59870
  0
LINE
  8
Engraving
 62
   2
 39
0.008
  6
CONTINUOUS
 10
7.55252
 20
1.59870
 30
 0
 11
7.55252
 21
1.52500
  0
LINE
  8
Engraving
 62
   2
 39
0.008
  6
CONTINUOUS
 10
7.55252
 20
1.52500
 30
 0
 11
7.55252
 21
1.58642
  0
ARC
  8
Engraving
 62
   2
 39
0.008
  6
CONTINUOUS
 10
7.50764
 20
1.58665
 30
 0
 40
0.04488
 50
-0.30155
 51
169.79405
  0
ARC
  8
Engraving
 62
   2
 39
0.008
  6
CONTINUOUS
 10
7.55201
 20
1.57772
 30
 0
 40
0.09016
 50
169.20048
 51
190.79952
  0
ARC
  8
Engraving
 62
   2
 39
0.008
  6
CONTINUOUS
 10
7.50756
 20
1.56961
 30
 0
 40
0.04496
 50
-168.73927
 51
0.55187
  0
CIRCLE
  8
Contour
 62
   7
 39
0.004
  6
CONTINUOUS
 10
0.42500
 20
1.85000
 30
 0
 40
0.07500
  0
CIRCLE
  8
Contour
 62
   7
 39
0.004
  6
CONTINUOUS
 10
0.42500
 20
5.35000
 30
 0
 40
0.07500
  0
CIRCLE
  8
Contour
 62
   7
 39
0.004
  6
CONTINUOUS
 10
8.92500
 20
5.35000
 30
 0
 40
0.07500
  0
CIRCLE
  8
Contour
 62
   7
 39
0.004
  6
CONTINUOUS
 10
8.92500
 20
1.85000
 30
 0
 40
0.07500
  0
CIRCLE
  8
Contour
 62
   7
 39
0.004
  6
CONTINUOUS
 10
1.67500
 20
0.45000
 30
 0
 40
0.07500
  0
CIRCLE
  8
Contour
 62
   7
 39
0.004
  6
CONTINUOUS
 10
4.67500
 20
0.45000
 30
 0
 40
0.07500
  0
CIRCLE
  8
Contour
 62
   7
 39
0.004
  6
CONTINUOUS
 10
7.67500
 20
0.45000
 30
 0
 40
0.07500
  0
CIRCLE
  8
Contour
 62
   7
 39
0.004
  6
CONTINUOUS
 10
7.67500
 20
6.75000
 30
 0
 40
0.07500
  0
CIRCLE
  8
Contour
 62
   7
 39
0.004
  6
CONTINUOUS
 10
4.67500
 20
6.75000
 30
 0
 40
0.07500
  0
CIRCLE
  8
Contour
 62
   7
 39
0.004
  6
CONTINUOUS
 10
1.67500
 20
6.75000
 30
 0
 40
0.07500
  0
CIRCLE
  8
Contour
 62
   7
 39
0.004
  6
CONTINUOUS
 10
1.67500
 20
1.85000
 30
 0
 40
0.07500
  0
CIRCLE
  8
Contour
 62
   7
 39
0.004
  6
CONTINUOUS
 10
3.87500
 20
1.85000
 30
 0
 40
0.07500
  0
CIRCLE
  8
Contour
 62
   7
 39
0.004
  6
CONTINUOUS
 10
1.67500
 20
5.35000
 30
 0
 40
0.07500
  0
CIRCLE
  8
Contour
 62
   7
 39
0.004
  6
CONTINUOUS
 10
3.87500
 20
5.35000
 30
 0
 40
0.07500
  0
CIRCLE
  8
Contour
 62
   7
 39
0.004
  6
CONTINUOUS
 10
1.42500
 20
1.45000
 30
 0
 40
0.12500
  0
CIRCLE
  8
Contour
 62
   7
 39
0.004
  6
CONTINUOUS
 10
2.77500
 20
1.45000
 30
 0
 40
0.14047
  0
CIRCLE
  8
Contour
 62
   7
 39
0.004
  6
CONTINUOUS
 10
4.12500
 20
1.45000
 30
 0
 40
0.14047
  0
CIRCLE
  8
Contour
 62
   7
 39
0.004
  6
CONTINUOUS
 10
1.42500
 20
4.45000
 30
 0
 40
0.12500
  0
CIRCLE
  8
Contour
 62
   7
 39
0.004
  6
CONTINUOUS
 10
2.77500
 20
4.45000
 30
 0
 40
0.15622
  0
CIRCLE
  8
Contour
 62
   7
 39
0.004
  6
CONTINUOUS
 10
4.12500
 20
4.45000
 30
 0
 40
0.14047
  0
LINE
  8
Contour
 62
   7
 39
0.004
  6
CONTINUOUS
 10
7.67500
 20
1.87500
 30
 0
 11
7.67500
 21
1.82500
  0
ARC
  8
Contour
 62
   7
 39
0.004
  6
CONTINUOUS
 10
7.62500
 20
1.82500
 30
 0
 40
0.05000
 50
270.00000
 51
0.00000
  0
LINE
  8
Contour
 62
   7
 39
0.004
  6
CONTINUOUS
 10
7.62500
 20
1.77500
 30
 0
 11
6.72500
 21
1.77500
  0
ARC
  8
Contour
 62
   7
 39
0.004
  6
CONTINUOUS
 10
6.72500
 20
1.82500
 30
 0
 40
0.05000
 50
180.00000
 51
-90.00000
  0
LINE
  8
Contour
 62
   7
 39
0.004
  6
CONTINUOUS
 10
6.67500
 20
1.82500
 30
 0
 11
6.67500
 21
1.87500
  0
ARC
  8
Contour
 62
   7
 39
0.004
  6
CONTINUOUS
 10
6.72500
 20
1.87500
 30
 0
 40
0.05000
 50
450.00000
 51
180.00000
  0
LINE
  8
Contour
 62
   7
 39
0.004
  6
CONTINUOUS
 10
6.72500
 20
1.92500
 30
 0
 11
7.62500
 21
1.92500
  0
ARC
  8
Contour
 62
   7
 39
0.004
  6
CONTINUOUS
 10
7.62500
 20
1.87500
 30
 0
 40
0.05000
 50
360.00000
 51
90.00000
  0
CIRCLE
  8
Contour
 62
   7
 39
0.004
  6
CONTINUOUS
 10
7.42500
 20
1.27500
 30
 0
 40
0.07500
  0
CIRCLE
  8
Contour
 62
   7
 39
0.004
  6
CONTINUOUS
 10
6.92500
 20
1.27500
 30
 0
 40
0.07500
  0
LINE
  8
Reference_points
 62
   1
 39
0.004
  6
CONTINUOUS
 10
-0.03937
 20
0.00000
 30
 0
 11
0.03937
 21
0.00000
  0
LINE
  8
Reference_points
 62
   1
 39
0.004
  6
CONTINUOUS
 10
0.00000
 20
-0.03937
 30
 0
 11
0.00000
 21
0.03937
  0
LINE
  8
Reference_points
 62
   1
 39
0.004
  6
CONTINUOUS
 10
0.38563
 20
1.85000
 30
 0
 11
0.46437
 21
1.85000
  0
LINE
  8
Reference_points
 62
   1
 39
0.004
  6
CONTINUOUS
 10
0.42500
 20
1.81063
 30
 0
 11
0.42500
 21
1.88937
  0
LINE
  8
Reference_points
 62
   1
 39
0.004
  6
CONTINUOUS
 10
0.38563
 20
5.35000
 30
 0
 11
0.46437
 21
5.35000
  0
LINE
  8
Reference_points
 62
   1
 39
0.004
  6
CONTINUOUS
 10
0.42500
 20
5.31063
 30
 0
 11
0.42500
 21
5.38937
  0
LINE
  8
Reference_points
 62
   1
 39
0.004
  6
CONTINUOUS
 10
8.88563
 20
5.35000
 30
 0
 11
8.96437
 21
5.35000
  0
LINE
  8
Reference_points
 62
   1
 39
0.004
  6
CONTINUOUS
 10
8.92500
 20
5.31063
 30
 0
 11
8.92500
 21
5.38937
  0
LINE
  8
Reference_points
 62
   1
 39
0.004
  6
CONTINUOUS
 10
8.88563
 20
1.85000
 30
 0
 11
8.96437
 21
1.85000
  0
LINE
  8
Reference_points
 62
   1
 39
0.004
  6
CONTINUOUS
 10
8.92500
 20
1.81063
 30
 0
 11
8.92500
 21
1.88937
  0
LINE
  8
Reference_points
 62
   1
 39
0.004
  6
CONTINUOUS
 10
1.63563
 20
0.45000
 30
 0
 11
1.71437
 21
0.45000
  0
LINE
  8
Reference_points
 62
   1
 39
0.004
  6
CONTINUOUS
 10
1.67500
 20
0.41063
 30
 0
 11
1.67500
 21
0.48937
  0
LINE
  8
Reference_points
 62
   1
 39
0.004
  6
CONTINUOUS
 10
4.63563
 20
0.45000
 30
 0
 11
4.71437
 21
0.45000
  0
LINE
  8
Reference_points
 62
   1
 39
0.004
  6
CONTINUOUS
 10
4.67500
 20
0.41063
 30
 0
 11
4.67500
 21
0.48937
  0
LINE
  8
Reference_points
 62
   1
 39
0.004
  6
CONTINUOUS
 10
7.63563
 20
0.45000
 30
 0
 11
7.71437
 21
0.45000
  0
LINE
  8
Reference_points
 62
   1
 39
0.004
  6
CONTINUOUS
 10
7.67500
 20
0.41063
 30
 0
 11
7.67500
 21
0.48937
  0
LINE
  8
Reference_points
 62
   1
 39
0.004
  6
CONTINUOUS
 10
7.63563
 20
6.75000
 30
 0
 11
7.71437
 21
6.75000
  0
LINE
  8
Reference_points
 62
   1
 39
0.004
  6
CONTINUOUS
 10
7.67500
 20
6.71063
 30
 0
 11
7.67500
 21
6.78937
  0
LINE
  8
Reference_points
 62
   1
 39
0.004
  6
CONTINUOUS
 10
4.63563
 20
6.75000
 30
 0
 11
4.71437
 21
6.75000
  0
LINE
  8
Reference_points
 62
   1
 39
0.004
  6
CONTINUOUS
 10
4.67500
 20
6.71063
 30
 0
 11
4.67500
 21
6.78937
  0
LINE
  8
Reference_points
 62
   1
 39
0.004
  6
CONTINUOUS
 10
1.63563
 20
6.75000
 30
 0
 11
1.71437
 21
6.75000
  0
LINE
  8
Reference_points
 62
   1
 39
0.004
  6
CONTINUOUS
 10
1.67500
 20
6.71063
 30
 0
 11
1.67500
 21
6.78937
  0
LINE
  8
Reference_points
 62
   1
 39
0.004
  6
CONTINUOUS
 10
1.63563
 20
1.85000
 30
 0
 11
1.71437
 21
1.85000
  0
LINE
  8
Reference_points
 62
   1
 39
0.004
  6
CONTINUOUS
 10
1.67500
 20
1.81063
 30
 0
 11
1.67500
 21
1.88937
  0
LINE
  8
Reference_points
 62
   1
 39
0.004
  6
CONTINUOUS
 10
3.83563
 20
1.85000
 30
 0
 11
3.91437
 21
1.85000
  0
LINE
  8
Reference_points
 62
   1
 39
0.004
  6
CONTINUOUS
 10
3.87500
 20
1.81063
 30
 0
 11
3.87500
 21
1.88937
  0
LINE
  8
Reference_points
 62
   1
 39
0.004
  6
CONTINUOUS
 10
1.63563
 20
5.35000
 30
 0
 11
1.71437
 21
5.35000
  0
LINE
  8
Reference_points
 62
   1
 39
0.004
  6
CONTINUOUS
 10
1.67500
 20
5.31063
 30
 0
 11
1.67500
 21
5.38937
  0
LINE
  8
Reference_points
 62
   1
 39
0.004
  6
CONTINUOUS
 10
3.83563
 20
5.35000
 30
 0
 11
3.91437
 21
5.35000
  0
LINE
  8
Reference_points
 62
   1
 39
0.004
  6
CONTINUOUS
 10
3.87500
 20
5.31063
 30
 0
 11
3.87500
 21
5.38937
  0
LINE
  8
Reference_points
 62
   1
 39
0.004
  6
CONTINUOUS
 10
1.38563
 20
1.45000
 30
 0
 11
1.46437
 21
1.45000
  0
LINE
  8
Reference_points
 62
   1
 39
0.004
  6
CONTINUOUS
 10
1.42500
 20
1.41063
 30
 0
 11
1.42500
 21
1.48937
  0
LINE
  8
Reference_points
 62
   1
 39
0.004
  6
CONTINUOUS
 10
2.73563
 20
1.45000
 30
 0
 11
2.81437
 21
1.45000
  0
LINE
  8
Reference_points
 62
   1
 39
0.004
  6
CONTINUOUS
 10
2.77500
 20
1.41063
 30
 0
 11
2.77500
 21
1.48937
  0
LINE
  8
Reference_points
 62
   1
 39
0.004
  6
CONTINUOUS
 10
4.08563
 20
1.45000
 30
 0
 11
4.16437
 21
1.45000
  0
LINE
  8
Reference_points
 62
   1
 39
0.004
  6
CONTINUOUS
 10
4.12500
 20
1.41063
 30
 0
 11
4.12500
 21
1.48937
  0
LINE
  8
Reference_points
 62
   1
 39
0.004
  6
CONTINUOUS
 10
1.38563
 20
4.45000
 30
 0
 11
1.46437
 21
4.45000
  0
LINE
  8
Reference_points
 62
   1
 39
0.004
  6
CONTINUOUS
 10
1.42500
 20
4.41063
 30
 0
 11
1.42500
 21
4.48937
  0
LINE
  8
Reference_points
 62
   1
 39
0.004
  6
CONTINUOUS
 10
2.73563
 20
4.45000
 30
 0
 11
2.81437
 21
4.45000
  0
LINE
  8
Reference_points
 62
   1
 39
0.004
  6
CONTINUOUS
 10
2.77500
 20
4.41063
 30
 0
 11
2.77500
 21
4.48937
  0
LINE
  8
Reference_points
 62
   1
 39
0.004
  6
CONTINUOUS
 10
4.08563
 20
4.45000
 30
 0
 11
4.16437
 21
4.45000
  0
LINE
  8
Reference_points
 62
   1
 39
0.004
  6
CONTINUOUS
 10
4.12500
 20
4.41063
 30
 0
 11
4.12500
 21
4.48937
  0
LINE
  8
Reference_points
 62
   1
 39
0.004
  6
CONTINUOUS
 10
7.13563
 20
1.85000
 30
 0
 11
7.21437
 21
1.85000
  0
LINE
  8
Reference_points
 62
   1
 39
0.004
  6
CONTINUOUS
 10
7.17500
 20
1.81063
 30
 0
 11
7.17500
 21
1.88937
  0
LINE
  8
Reference_points
 62
   1
 39
0.004
  6
CONTINUOUS
 10
7.38563
 20
1.27500
 30
 0
 11
7.46437
 21
1.27500
  0
LINE
  8
Reference_points
 62
   1
 39
0.004
  6
CONTINUOUS
 10
7.42500
 20
1.23563
 30
 0
 11
7.42500
 21
1.31437
  0
LINE
  8
Reference_points
 62
   1
 39
0.004
  6
CONTINUOUS
 10
6.88563
 20
1.27500
 30
 0
 11
6.96437
 21
1.27500
  0
LINE
  8
Reference_points
 62
   1
 39
0.004
  6
CONTINUOUS
 10
6.92500
 20
1.23563
 30
 0
 11
6.92500
 21
1.31437
  0
LINE
  8
Reference_points
 62
   1
 39
0.004
  6
CONTINUOUS
 10
1.13563
 20
3.95000
 30
 0
 11
1.21437
 21
3.95000
  0
LINE
  8
Reference_points
 62
   1
 39
0.004
  6
CONTINUOUS
 10
1.17500
 20
3.91063
 30
 0
 11
1.17500
 21
3.98937
  0
LINE
  8
Reference_points
 62
   1
 39
0.004
  6
CONTINUOUS
 10
5.36063
 20
5.55000
 30
 0
 11
5.43937
 21
5.55000
  0
LINE
  8
Reference_points
 62
   1
 39
0.004
  6
CONTINUOUS
 10
5.40000
 20
5.51063
 30
 0
 11
5.40000
 21
5.58937
  0
LINE
  8
Reference_points
 62
   1
 39
0.004
  6
CONTINUOUS
 10
2.48563
 20
3.95000
 30
 0
 11
2.56437
 21
3.95000
  0
LINE
  8
Reference_points
 62
   1
 39
0.004
  6
CONTINUOUS
 10
2.52500
 20
3.91063
 30
 0
 11
2.52500
 21
3.98937
  0
LINE
  8
Reference_points
 62
   1
 39
0.004
  6
CONTINUOUS
 10
3.83563
 20
3.95000
 30
 0
 11
3.91437
 21
3.95000
  0
LINE
  8
Reference_points
 62
   1
 39
0.004
  6
CONTINUOUS
 10
3.87500
 20
3.91063
 30
 0
 11
3.87500
 21
3.98937
  0
LINE
  8
Reference_points
 62
   1
 39
0.004
  6
CONTINUOUS
 10
1.81063
 20
0.95000
 30
 0
 11
1.88937
 21
0.95000
  0
LINE
  8
Reference_points
 62
   1
 39
0.004
  6
CONTINUOUS
 10
1.85000
 20
0.91063
 30
 0
 11
1.85000
 21
0.98937
  0
LINE
  8
Reference_points
 62
   1
 39
0.004
  6
CONTINUOUS
 10
3.78563
 20
0.95000
 30
 0
 11
3.86437
 21
0.95000
  0
LINE
  8
Reference_points
 62
   1
 39
0.004
  6
CONTINUOUS
 10
3.82500
 20
0.91063
 30
 0
 11
3.82500
 21
0.98937
  0
LINE
  8
Reference_points
 62
   1
 39
0.004
  6
CONTINUOUS
 10
6.73929
 20
1.60000
 30
 0
 11
6.81803
 21
1.60000
  0
LINE
  8
Reference_points
 62
   1
 39
0.004
  6
CONTINUOUS
 10
6.77866
 20
1.56063
 30
 0
 11
6.77866
 21
1.63937
  0
ENDSEC
  0
EOF
